<svg width="1440" height="348" viewBox="0 0 1440 348" fill="none" xmlns="http://www.w3.org/2000/svg">
<g filter="url(#filter0_d_494_2635)">
<path d="M-22.251 234.963C-22.251 234.963 -12.1402 215.081 21.6373 211.108V208.259C21.6373 208.259 25.8913 180.131 48.3148 160.28C48.3148 160.28 66.7688 178.467 73.779 197.764H89.402V181.571L94.5098 181.286V147.746H88.2636L87.979 135.541H81.9874V115.075H98.2845V63.0926C98.2845 63.0926 108.77 49.1786 120.993 47.7542C120.993 47.7542 116.739 29.8521 132.631 13.6591C132.631 13.6591 147.61 18.7719 149.363 47.1845C149.363 47.1845 167.817 54.5763 169.24 61.6682H290.704V53.4368L281.027 43.2112L280.458 36.959L383.483 36.1043L414.699 46.3299V50.588H408.708V59.6891H401.908V63.3774H569.956L584.156 70.1994H634.665C634.665 70.1994 644.042 31.2165 680.935 28.9975V25.309L676.966 17.6324L686.328 1.72437L692.319 17.6324L687.825 24.7393L688.395 28.7126C688.395 28.7126 726.411 29.5672 735.219 69.3449H806.743V57.9798H977.803V48.8938L969.849 44.0659L996.811 30.9916H1093.31V37.5287L1089.62 37.2439V48.384H1083.63V57.7549H1216.18C1216.18 57.7549 1221.29 42.1317 1238.03 39.5678C1238.03 39.5678 1236.61 17.9773 1251.93 1.78435C1251.93 1.78435 1262.15 6.05746 1267.26 38.7282C1267.26 38.7282 1285.42 44.4107 1289.11 54.6363V106.858L1304.43 106.574V124.761L1297.9 125.046L1298.47 138.39H1293.98V233.178H1310.9C1310.9 233.178 1305.23 214.616 1355.93 204.016C1355.93 204.016 1356.69 178.632 1382.04 155.152C1382.04 155.152 1397.56 158.151 1412.31 204.391C1412.31 204.391 1457.73 211.213 1462.27 232.429V354.25H-21.8615L-22.251 308.55V234.963Z" fill="url(#paint0_linear_494_2635)"/>
<path d="M24.1373 213.331L21.9294 213.591C5.52085 215.521 -5.00911 221.292 -11.3999 226.468C-14.605 229.064 -16.7893 231.527 -18.1589 233.314C-18.8437 234.208 -19.3245 234.933 -19.6268 235.419C-19.6722 235.493 -19.7136 235.56 -19.751 235.622V308.54V308.55L-19.3827 351.75H1459.77V232.704C1458.75 228.334 1455.62 224.479 1451.06 221.107C1446.43 217.683 1440.58 214.939 1434.73 212.802C1428.9 210.672 1423.19 209.184 1418.93 208.228C1416.8 207.75 1415.05 207.408 1413.82 207.185C1413.21 207.074 1412.74 206.992 1412.42 206.939C1412.25 206.913 1412.13 206.893 1412.05 206.881L1411.96 206.867L1411.94 206.864L1411.94 206.863L1410.4 206.632L1409.93 205.151C1402.62 182.237 1395.19 170.27 1389.76 164.08C1387.06 160.991 1384.85 159.347 1383.42 158.491C1383.11 158.312 1382.84 158.166 1382.61 158.049C1371.01 169.15 1364.97 180.557 1361.83 189.24C1360.21 193.724 1359.36 197.484 1358.91 200.103C1358.69 201.411 1358.57 202.433 1358.5 203.116C1358.47 203.458 1358.45 203.714 1358.44 203.879C1358.44 203.961 1358.43 204.02 1358.43 204.056L1358.43 204.091L1358.43 204.093V204.095L1358.43 204.096L1358.37 206.06L1356.44 206.463C1331.3 211.719 1320.72 218.846 1316.33 224.163C1314.17 226.789 1313.48 229.007 1313.29 230.45C1313.19 231.184 1313.21 231.747 1313.25 232.096C1313.26 232.193 1313.27 232.274 1313.28 232.337C1313.29 232.386 1313.29 232.425 1313.3 232.452C1313.3 232.467 1313.3 232.478 1313.31 232.485C1313.31 232.493 1313.31 232.497 1313.31 232.497L1314.28 235.678H1310.9H1293.98H1291.48V233.178V138.39V135.89H1293.98H1295.86L1295.4 125.152L1295.3 122.657L1297.79 122.548L1301.93 122.367V109.12L1289.16 109.358L1286.61 109.405V106.858V55.0998C1285.84 53.2142 1284.39 51.4034 1282.48 49.7069C1280.45 47.9061 1278.01 46.3419 1275.61 45.0479C1273.22 43.7586 1270.93 42.7695 1269.24 42.1024C1268.39 41.7698 1267.7 41.5193 1267.22 41.3535C1266.98 41.2707 1266.8 41.2091 1266.68 41.1691C1266.62 41.1491 1266.57 41.1345 1266.54 41.1253L1266.51 41.1157L1266.51 41.1142L1266.51 41.1139L1265.03 40.6502L1264.79 39.1144C1262.27 22.9964 1258.52 14.1064 1255.55 9.32152C1254.25 7.2222 1253.1 5.91679 1252.28 5.13383C1246.04 12.4137 1243.07 20.6356 1241.68 27.2626C1240.93 30.8193 1240.65 33.8884 1240.55 36.0576C1240.5 37.141 1240.49 37.9967 1240.5 38.5724C1240.5 38.8602 1240.51 39.0777 1240.52 39.2184C1240.52 39.258 1240.52 39.2915 1240.52 39.3187L1240.52 39.3711L1240.53 39.4034L1240.53 39.405L24.1373 213.331ZM24.1373 213.331V211.108V208.462C24.1421 208.433 24.1476 208.402 24.1537 208.366C24.187 208.174 24.2401 207.882 24.3162 207.498C24.4684 206.73 24.7125 205.597 25.0753 204.17C25.8013 201.314 27.0001 197.289 28.8833 192.655C32.4467 183.887 38.4256 173.027 48.2107 163.764C48.578 164.153 48.9988 164.604 49.465 165.113C51.2719 167.084 53.7561 169.913 56.4553 173.334C61.8815 180.212 68.0581 189.338 71.4292 198.617L72.0273 200.264H73.779H89.402H91.902V197.764V183.935L94.649 183.782L97.0098 183.65V181.286V147.746V145.246H94.5098H90.706L90.4783 135.483L90.4214 133.041H87.979H84.4874V117.575H98.2845H100.785V115.075V63.9635C101.072 63.6113 101.477 63.1285 101.986 62.553C103.109 61.2834 104.729 59.5772 106.708 57.8331C110.741 54.2789 115.941 50.8599 121.282 50.2374L124.075 49.912L123.426 47.1833L123.426 47.183L123.426 47.1804L123.425 47.1785L123.425 47.1763L123.422 47.165C123.418 47.1445 123.41 47.1074 123.399 47.0544C123.378 46.9483 123.345 46.7784 123.308 46.5496C123.233 46.0918 123.138 45.3994 123.069 44.5098C122.93 42.7288 122.896 40.1707 123.327 37.1306C124.139 31.4166 126.598 23.9701 133.182 16.7166C133.327 16.8027 133.481 16.898 133.644 17.003C134.877 17.7983 136.604 19.1562 138.407 21.3531C141.992 25.7215 146.019 33.5809 146.867 47.3384L146.965 48.9172L148.433 49.5051L24.1373 213.331ZM1240.68 41.6919L1240.53 39.4069L148.433 49.5053L148.434 49.5055L148.441 49.5084L148.475 49.5221C148.506 49.5347 148.554 49.5543 148.617 49.5805C148.745 49.633 148.935 49.7122 149.179 49.8163C149.668 50.0245 150.374 50.3316 151.226 50.7226C152.935 51.5067 155.216 52.6187 157.528 53.9382C159.855 55.2662 162.135 56.7599 163.887 58.294C165.721 59.9003 166.602 61.2293 166.789 62.16L167.191 64.1682H169.24H290.704H293.204V61.6682V53.4368V52.4414L292.52 51.7184L283.439 42.122L283.194 39.4364L383.094 38.6077L412.036 48.088H408.708H406.208V50.588V57.1891H401.908H399.408V59.6891V63.3774V65.8774H401.908H569.387L583.074 72.4529L583.587 72.6994H584.156H634.665H636.635L637.095 70.7865L637.095 70.7854L637.096 70.7841L637.099 70.7728L637.115 70.7066C637.131 70.6445 637.157 70.547 637.192 70.4163C637.263 70.1549 637.374 69.7612 637.53 69.2535C637.842 68.2376 638.331 66.7682 639.032 64.9912C640.437 61.4307 642.678 56.6702 646.019 51.8559C652.689 42.2448 663.634 32.5426 681.085 31.493L683.435 31.3516V28.9975V25.309V24.7009L683.156 24.1608L679.82 17.7105L685.831 7.49786L689.541 17.3485L685.712 23.4033L685.22 24.1819L685.351 25.0939L685.92 29.0671L686.22 31.1643L688.335 31.2119L688.336 31.2119L688.338 31.212L688.345 31.2122C688.357 31.2125 688.377 31.2132 688.406 31.2143C688.464 31.2166 688.556 31.2207 688.682 31.2279C688.932 31.2421 689.313 31.2683 689.807 31.3156C690.797 31.4103 692.24 31.589 694.007 31.9239C697.546 32.5948 702.35 33.8858 707.406 36.358C717.449 41.2692 728.566 50.8632 732.778 69.8853L733.212 71.8449H735.219H806.743H809.243V69.3449V60.4798H977.803H980.303V57.9798V48.8938V47.4867L979.1 46.7566L975.072 44.3116L997.385 33.4916H1090.81V34.828L1089.81 34.7513L1087.12 34.5431V37.2439V45.884H1083.63H1081.13V48.384V57.7549V60.2549H1083.63H1216.18H1217.99L1218.55 58.5375L1218.55 58.5353L1218.55 58.5337L1218.55 58.5318L1218.56 58.5218C1218.56 58.504 1218.57 58.4722 1218.59 58.427C1218.62 58.3368 1218.68 58.1937 1218.75 58.0047C1218.9 57.6263 1219.14 57.0658 1219.48 56.3776C1220.16 54.9975 1221.23 53.125 1222.78 51.1815C1225.87 47.306 1230.82 43.2017 1238.41 42.039L1240.68 41.6919ZM131.804 16.0184L131.803 16.0181C131.8 16.017 131.801 16.017 131.804 16.0184Z" stroke="url(#paint1_linear_494_2635)" stroke-width="5"/>
</g>
<defs>
<filter id="filter0_d_494_2635" x="-47.251" y="-42.2756" width="1534.52" height="402.526" filterUnits="userSpaceOnUse" color-interpolation-filters="sRGB">
<feFlood flood-opacity="0" result="BackgroundImageFix"/>
<feColorMatrix in="SourceAlpha" type="matrix" values="0 0 0 0 0 0 0 0 0 0 0 0 0 0 0 0 0 0 127 0" result="hardAlpha"/>
<feOffset dy="-19"/>
<feGaussianBlur stdDeviation="12.5"/>
<feComposite in2="hardAlpha" operator="out"/>
<feColorMatrix type="matrix" values="0 0 0 0 0.839216 0 0 0 0 0.760784 0 0 0 0 0.47451 0 0 0 0.23 0"/>
<feBlend mode="normal" in2="BackgroundImageFix" result="effect1_dropShadow_494_2635"/>
<feBlend mode="normal" in="SourceGraphic" in2="effect1_dropShadow_494_2635" result="shape"/>
</filter>
<linearGradient id="paint0_linear_494_2635" x1="1093.5" y1="2.00001" x2="510.389" y2="646.87" gradientUnits="userSpaceOnUse">
<stop offset="0.16" stop-color="#191919"/>
<stop offset="0.425229" stop-color="#121212"/>
<stop offset="0.714651" stop-color="#050505"/>
<stop offset="1"/>
</linearGradient>
<linearGradient id="paint1_linear_494_2635" x1="1462" y1="-107" x2="114.364" y2="-419.621" gradientUnits="userSpaceOnUse">
<stop offset="0.01" stop-color="#7A5013"/>
<stop offset="0.130208" stop-color="#F5DD83"/>
<stop offset="0.29" stop-color="#92711B"/>
<stop offset="0.41" stop-color="#F9EDBF"/>
<stop offset="0.45" stop-color="#F9EBB9"/>
<stop offset="0.5" stop-color="#F8E7A9"/>
<stop offset="0.7" stop-color="#C7A85B"/>
<stop offset="0.84" stop-color="#997332"/>
<stop offset="0.90625" stop-color="#F6E08E"/>
<stop offset="0.94" stop-color="#7C5219"/>
<stop offset="1" stop-color="#714610"/>
</linearGradient>
</defs>
</svg>
