<svg width="143" height="136" viewBox="0 0 143 136" fill="none" xmlns="http://www.w3.org/2000/svg">
<g clip-path="url(#clip0_361_2521)">
<path d="M71.4165 80.3402C73.0418 80.334 74.6531 80.0554 76.1762 79.5174C77.6862 78.9838 79.0791 78.1898 80.2847 77.1755C82.9074 79.9237 85.62 82.6002 88.5054 85.0787C88.3525 85.5512 88.2607 86.0395 88.2319 86.533C88.2021 87.0746 88.2274 87.6177 88.3075 88.1546C88.4793 89.3443 88.9466 90.4782 89.671 91.4627C90.5803 92.6113 91.9148 93.3896 93.4053 93.6408C94.1757 93.7794 94.9684 93.7584 95.7294 93.5794C96.4877 93.3972 97.1831 93.0314 97.7477 92.5176C98.2714 91.9949 98.6497 91.3566 98.8486 90.6605C99.0412 89.9562 99.0804 89.222 98.9637 88.5029C98.7484 87.1223 97.9932 85.8693 96.8483 84.9934C95.7959 84.2463 94.5648 83.7583 93.265 83.5732C92.1458 83.3881 90.9969 83.4465 89.9048 83.7439C87.2693 81.0118 84.4908 78.4071 81.5799 75.9396C82.6477 74.7967 83.4832 73.476 84.0443 72.0443C85.2049 69.1316 85.2049 65.917 84.0443 63.0043C83.4832 61.5727 82.6477 60.252 81.5799 59.109C84.4908 56.6415 87.2693 54.0368 89.9048 51.3048C90.4029 51.4492 90.9175 51.5363 91.4374 51.5642C92.0081 51.5943 92.5806 51.5703 93.1463 51.4925C94.4052 51.3391 95.6069 50.9012 96.6504 50.2157C97.8603 49.3526 98.6805 48.0863 98.9457 46.6721C99.0946 45.9403 99.0737 45.1866 98.8846 44.4633C98.7091 43.7461 98.3279 43.0889 97.783 42.5647C97.2382 42.0405 96.5511 41.6696 95.7978 41.4932C95.0567 41.3109 94.284 41.2749 93.5277 41.3873C92.0673 41.5837 90.7389 42.2957 89.8077 43.3811C89.0337 44.3771 88.5274 45.5372 88.3327 46.7608C88.1381 47.8239 88.1983 48.9149 88.5089 49.9529C85.6308 52.4245 82.9146 55.1045 80.2883 57.8561C79.0827 56.8417 77.6898 56.0477 76.1798 55.5141C73.1107 54.4161 69.7251 54.4173 66.6569 55.5176C65.1462 56.0465 63.7528 56.8385 62.5483 57.8527C59.9482 55.0903 57.2033 52.4537 54.3241 49.9529C54.4743 49.4798 54.5661 48.9917 54.5976 48.4985C54.6275 47.9569 54.6022 47.4139 54.522 46.8769C54.358 45.6813 53.8955 44.5401 53.1729 43.5483C52.2619 42.4016 50.9281 41.6237 49.4385 41.3703C48.6666 41.2346 47.8731 41.2567 47.1109 41.4351C46.3541 41.5992 45.6603 41.9597 45.1069 42.4764C44.5536 42.993 44.1625 43.6455 43.9773 44.3609C43.7877 45.0645 43.7497 45.7972 43.8658 46.515C44.0807 47.8958 44.8344 49.1496 45.9776 50.028C47.0317 50.7739 48.264 51.2606 49.5645 51.4447C50.6822 51.631 51.83 51.5738 52.9211 51.2775C55.5293 54.012 58.3499 56.5861 61.2496 59.0783C60.1796 60.2223 59.3439 61.5456 58.7852 62.9804C57.6292 65.8915 57.6292 69.1025 58.7852 72.0136C59.3439 73.4484 60.1796 74.7717 61.2496 75.9157C58.3535 78.4045 55.5329 80.9786 52.9211 83.7165C52.4222 83.5754 51.908 83.4883 51.3885 83.4571C50.8177 83.4303 50.2456 83.4543 49.6796 83.5288C48.4248 83.6941 47.229 84.1386 46.1899 84.8261C44.9803 85.6896 44.1602 86.9557 43.8946 88.3697C43.7504 89.1008 43.7725 89.8527 43.9593 90.5751C44.1556 91.2985 44.5432 91.9624 45.0854 92.504C45.6366 93.0015 46.3109 93.3596 47.0461 93.5452C47.7881 93.7291 48.562 93.7663 49.3198 93.6545C50.773 93.4507 52.0921 92.7353 53.0146 91.6505C53.8038 90.6529 54.3182 89.4841 54.5112 88.2502C54.71 87.1884 54.6484 86.0973 54.3313 85.0616C57.2105 82.5607 59.9553 79.9241 62.5555 77.1618C63.76 78.176 65.1534 78.968 66.6641 79.4969C68.1832 80.0424 69.7923 80.3279 71.4165 80.3402ZM63.6816 74.8642C62.6645 73.9018 61.8575 72.7583 61.3069 71.4994C60.7563 70.2404 60.4728 68.8908 60.4728 67.5277C60.4728 66.1647 60.7563 64.815 61.3069 63.5561C61.8575 62.2972 62.6645 61.1537 63.6816 60.1912C64.6955 59.2257 65.9005 58.46 67.2273 57.938C68.5541 57.4159 69.9766 57.148 71.4129 57.1494C72.8668 57.123 74.3117 57.3718 75.663 57.8815C77.0144 58.3912 78.2451 59.1514 79.2831 60.1178C80.3212 61.0841 81.1458 62.2371 81.7087 63.5095C82.2716 64.7818 82.5616 66.1478 82.5616 67.5277C82.5616 68.9076 82.2716 70.2737 81.7087 71.546C81.1458 72.8183 80.3212 73.9714 79.2831 74.9377C78.2451 75.904 77.0144 76.6643 75.663 77.174C74.3117 77.6836 72.8668 77.9325 71.4129 77.9061C69.9766 77.9075 68.5541 77.6395 67.2273 77.1175C65.9005 76.5955 64.6955 75.8297 63.6816 74.8642Z" fill="#D2AC67" fill-opacity="0.2"/>
<path d="M73.8418 132.696C75.8457 129.21 79.2886 126.462 82.7711 123.485C86.2536 120.508 89.8153 117.34 92.1826 113.701C93.2338 112.152 93.9277 110.409 94.2188 108.587C94.461 107.035 94.2248 105.45 93.5389 104.022C94.5128 104.06 95.4881 104.002 96.4494 103.848C97.4737 103.678 98.4775 103.412 99.4462 103.053C101.565 102.244 103.488 101.035 105.098 99.499C106.698 97.9648 107.958 96.1424 108.804 94.1392C109.177 93.2186 109.458 92.2664 109.642 91.2954C109.801 90.3818 109.861 89.4553 109.822 88.5301C111.332 89.1957 113.014 89.4272 114.661 89.1958C116.587 88.9215 118.43 88.2654 120.071 87.2704C123.914 85.0308 127.285 81.6613 130.386 78.3498C133.487 75.0383 136.405 71.7712 140.092 69.8628C140.711 69.5419 141.046 68.5553 141.067 67.572C141.089 66.5888 140.722 65.592 140.092 65.2813C136.423 63.3285 133.537 60.0443 130.393 56.7602C127.249 53.476 123.921 50.0791 120.082 47.8293C118.449 46.8336 116.612 46.1753 114.693 45.8971C113.053 45.6679 111.378 45.8956 109.872 46.5525C109.91 45.6271 109.848 44.7004 109.685 43.7872C109.506 42.8152 109.225 41.8626 108.847 40.9435C107.992 38.9361 106.718 37.1138 105.101 35.5865C103.484 34.0592 101.558 32.8586 99.439 32.057C98.4704 31.6981 97.4665 31.4317 96.4422 31.2616C95.4796 31.1094 94.5031 31.0522 93.5281 31.0909C94.2275 29.6576 94.4713 28.0619 94.2296 26.4992C93.9344 24.6607 93.2318 22.9026 92.1682 21.3407C89.8081 17.6947 86.2608 14.4992 82.7675 11.553C79.2742 8.6068 75.8385 5.83811 73.8274 2.34566C73.4892 1.75847 72.4495 1.44098 71.4134 1.42049C70.3773 1.40001 69.3231 1.74481 68.9994 2.34566C66.9955 5.83128 63.5489 8.57607 60.0664 11.553C56.5839 14.5299 53.0258 17.7015 50.6514 21.3407C49.6004 22.897 48.9089 24.647 48.6223 26.4753C48.376 28.0322 48.6148 29.6236 49.3094 31.0533C48.3345 31.0163 47.3581 31.0735 46.3954 31.224C45.37 31.3963 44.365 31.6638 43.3949 32.0229C41.2779 32.831 39.3561 34.0391 37.7462 35.5738C36.1364 37.1085 34.8721 38.9377 34.0303 40.9503C33.6543 41.8702 33.3736 42.8226 33.192 43.7941C33.0355 44.7079 32.9752 45.6342 33.0121 46.5594C31.5027 45.8966 29.8222 45.6665 28.1769 45.8971C26.2483 46.1703 24.4021 46.8264 22.7588 47.8225C18.9166 50.062 15.5492 53.4282 12.448 56.7465C9.34682 60.0648 6.42554 63.3217 2.74515 65.2301C2.12275 65.5476 1.79177 66.5376 1.77018 67.5208C1.7486 68.5041 2.11196 69.5043 2.74514 69.8116C6.41834 71.7131 9.31084 74.9837 12.448 78.2883C15.5851 81.593 18.9273 84.9694 22.7588 87.2192C24.393 88.2158 26.2308 88.8732 28.1517 89.148C29.7925 89.3778 31.4682 89.1513 32.9761 88.496C32.9354 89.4211 32.9957 90.3478 33.156 91.2612C33.3375 92.2327 33.6182 93.1852 33.9943 94.105C34.8464 96.1146 36.1201 97.9389 37.7379 99.4671C39.3558 100.995 41.2841 102.196 43.4057 102.995C44.3744 103.354 45.3783 103.62 46.4025 103.79C47.3642 103.94 48.3392 103.998 49.313 103.964C48.6136 105.395 48.3697 106.989 48.6115 108.549C48.9015 110.379 49.5928 112.13 50.6406 113.691C53.0006 117.337 56.5515 120.536 60.0448 123.475C63.5381 126.414 66.9739 129.19 68.9885 132.686C69.3267 133.273 70.3629 133.587 71.4026 133.611C72.4423 133.635 73.5 133.28 73.8418 132.696ZM111.801 49.0242C112.507 48.8381 113.244 48.7779 113.973 48.8467C114.771 48.9233 115.555 49.0978 116.305 49.3656C117.155 49.6708 117.971 50.0562 118.74 50.5161C119.147 50.7517 119.55 51.0043 119.953 51.2774C120.356 51.5505 120.737 51.8373 121.122 52.1411C121.507 52.445 121.903 52.7659 122.266 53.0697C122.629 53.3735 122.986 53.7525 123.32 54.07C124.022 54.7357 124.691 55.4117 125.281 56.0603C127.206 58.0984 128.986 60.1775 130.807 62.1371C131.685 63.1203 132.595 64.0728 133.498 64.9775C134.368 65.8699 135.287 66.7188 136.25 67.5208C135.304 68.3094 134.387 69.1663 133.498 70.071C132.609 70.9757 131.685 71.9282 130.807 72.9114C128.986 74.871 127.206 76.9501 125.281 78.9882C124.687 79.6403 124.022 80.3196 123.313 80.9853C122.61 81.6657 121.868 82.3085 121.09 82.9108C120.335 83.5082 119.534 84.0514 118.694 84.5358C117.922 84.9974 117.102 85.3818 116.247 85.6829C115.495 85.9518 114.709 86.1241 113.909 86.195C113.177 86.2582 112.439 86.1922 111.732 86.0004C110.361 85.6146 109.232 84.7133 108.26 83.2249V83.2249C107.572 82.0689 106.667 81.0417 105.591 80.1933C110.179 78.8499 114.39 76.5456 117.913 73.4508C117.913 73.4508 117.949 73.4167 117.967 73.3996C118.604 74.0617 119.428 74.5357 120.341 74.7652C121.074 74.9159 121.837 74.8738 122.546 74.6433C123.256 74.4129 123.885 74.0029 124.367 73.4576C124.664 73.1587 124.933 72.8366 125.173 72.4949C125.424 72.1183 125.643 71.7233 125.828 71.3137C126.036 70.8745 126.21 70.4216 126.349 69.9584C126.486 69.4716 126.596 68.9781 126.677 68.4801C126.83 67.865 126.83 67.2244 126.677 66.6093C126.603 66.1239 126.5 65.6428 126.367 65.1686C126.235 64.7197 126.071 64.2795 125.878 63.8509C125.696 63.4532 125.488 63.0667 125.256 62.6935C125.026 62.3397 124.766 62.004 124.479 61.6899C123.984 61.1498 123.37 60.7207 122.68 60.4335C122.023 60.1778 121.304 60.1009 120.604 60.2116C119.583 60.4079 118.656 60.9135 117.963 61.6523L117.909 61.6011C114.386 58.5063 110.175 56.202 105.587 54.8586C106.701 53.9852 107.634 52.9238 108.34 51.728C109.3 50.2771 110.433 49.3929 111.801 49.0242ZM118.194 67.5379C118.132 65.1857 119.417 63.9191 120.874 63.827C122.331 63.7348 124.015 64.9433 124.216 67.5379C124.004 70.1359 122.363 71.3444 120.928 71.2454C119.492 71.1464 118.19 69.8833 118.183 67.5277L118.194 67.5379ZM102.67 56.6031C105.152 57.2062 107.537 58.1237 109.761 59.3308C112.155 60.6183 114.362 62.1963 116.326 64.025C116.088 64.5642 115.908 65.1246 115.787 65.6978C115.528 66.8961 115.528 68.1319 115.787 69.3302C115.905 69.904 116.086 70.4645 116.326 71.003C114.362 72.8318 112.157 74.4108 109.764 75.7006C108.634 76.3057 107.465 76.8428 106.264 77.3085C105.094 77.7595 103.893 78.1347 102.67 78.4317C101.321 77.8554 99.8969 77.4546 98.4353 77.2403C97.7082 77.1319 96.9757 77.0589 96.2407 77.0218C95.4924 76.9945 94.7513 76.974 94.0389 76.9808C94.2044 76.6189 94.3771 76.2639 94.5138 75.8884C94.6505 75.5128 94.8088 75.1509 94.9276 74.772C97.597 75.3114 100.385 75.11 102.591 73.8502C103.746 73.1895 104.701 72.2565 105.364 71.1418C106.027 70.0272 106.375 68.7688 106.373 67.4889C106.372 66.209 106.023 64.9512 105.358 63.8375C104.693 62.7239 103.736 61.7924 102.58 61.1334C100.385 59.8702 97.6078 59.6654 94.924 60.2048C94.8052 59.8259 94.6577 59.4537 94.5066 59.085C94.3555 58.7163 94.1972 58.3545 94.0318 57.9926C94.7513 57.9926 95.4708 57.9926 96.2335 57.9516C96.9662 57.916 97.6964 57.843 98.4209 57.7331C99.881 57.5349 101.306 57.1514 102.659 56.5929L102.67 56.6031ZM95.442 73.1504C95.9052 71.3104 96.1454 69.4262 96.158 67.5345C96.1426 65.6443 95.9036 63.7616 95.4456 61.922C96.4396 61.819 97.4441 61.8523 98.4281 62.021C99.3791 62.1767 100.289 62.5085 101.105 62.9974C101.926 63.4746 102.605 64.144 103.076 64.9414C103.547 65.7388 103.794 66.6375 103.794 67.5516C103.794 68.4656 103.547 69.3643 103.076 70.1617C102.605 70.9591 101.926 71.6285 101.105 72.1057C100.29 72.5966 99.3797 72.9285 98.4281 73.0821C97.4374 73.2399 96.4278 73.2595 95.4312 73.1401L95.442 73.1504ZM81.6918 41.8857C81.5748 42.5766 81.4968 43.2728 81.458 43.9716C81.4292 44.6817 81.4076 45.385 81.4148 46.0609C81.0335 45.9039 80.6557 45.7366 80.2636 45.6103C79.8714 45.484 79.4829 45.3269 79.0835 45.2143C79.6556 42.6846 79.4397 40.0354 78.1122 37.9426C77.4154 36.8467 76.432 35.9403 75.2573 35.3113C74.0826 34.6823 72.7565 34.3522 71.4077 34.3528C70.0589 34.3535 68.7332 34.685 67.5592 35.3152C66.3853 35.9454 65.4029 36.8528 64.7074 37.9495C63.3762 40.0319 63.164 42.6709 63.7324 45.2177C63.3295 45.3269 62.9409 45.4703 62.5524 45.6137C62.1638 45.7571 61.7789 45.9039 61.3975 46.0609C61.3975 45.3781 61.4191 44.6749 61.358 43.975C61.3314 43.2769 61.2653 42.5806 61.1601 41.8891C60.9357 40.5034 60.5145 39.1528 59.9081 37.8743C60.2265 36.7127 60.6218 35.5714 61.0917 34.457C61.583 33.3156 62.1502 32.205 62.7898 31.1318C64.1442 28.8621 65.8021 26.7679 67.7222 24.9014C68.2916 25.1284 68.8833 25.3011 69.4886 25.4169C70.7519 25.6582 72.0532 25.6582 73.3165 25.4169C73.9206 25.3022 74.5111 25.1307 75.0794 24.9049C77.0079 26.7674 78.6721 28.8607 80.0297 31.1318C80.6686 32.2031 81.2357 33.3114 81.7278 34.4502C82.1975 35.5616 82.5905 36.7008 82.9042 37.8607C82.3068 39.1402 81.8953 40.4908 81.681 41.8755L81.6918 41.8857ZM77.3423 44.7432C75.4034 44.31 73.4196 44.0833 71.4278 44.0672C69.4344 44.0811 67.449 44.309 65.5096 44.7466C65.4014 43.8033 65.4365 42.8502 65.614 41.9164C65.7803 41.0145 66.1298 40.1519 66.6429 39.3765C67.1459 38.5963 67.8517 37.9518 68.6925 37.5048C69.5334 37.0578 70.4811 36.8232 71.445 36.8236C72.4088 36.8239 73.3563 37.0592 74.1968 37.5068C75.0373 37.9544 75.7426 38.5994 76.245 39.3799C76.762 40.1518 77.1107 41.0144 77.2703 41.9164C77.434 42.8475 77.4546 43.7962 77.3315 44.7329L77.3423 44.7432ZM67.5099 20.6033C67.402 19.2241 68.6828 17.6195 71.4134 17.4318C74.1548 17.6366 75.4247 19.1899 75.3204 20.5521C75.2161 21.9143 73.8957 23.1399 71.4134 23.1467C68.931 23.1535 67.6179 22.003 67.5099 20.6033ZM51.7307 27.1444C51.8136 26.3793 52.0048 25.6283 52.2991 24.9117C52.6195 24.1059 53.0245 23.3328 53.5079 22.6039C53.7561 22.2181 54.026 21.8323 54.3066 21.45C54.5872 21.0676 54.9002 20.7091 55.2168 20.3404C55.5334 19.9717 55.8752 19.5996 56.2169 19.2412C56.5587 18.8827 56.9185 18.5754 57.271 18.2409C57.969 17.5786 58.6813 16.9436 59.3649 16.3837C61.5199 14.5573 63.7072 12.8708 65.7723 11.1433C66.8084 10.3103 67.8121 9.44662 68.7619 8.58631C69.7117 7.72601 70.6183 6.87252 71.4493 5.97466C72.2946 6.88861 73.1892 7.76034 74.1296 8.58631C75.083 9.44321 76.0867 10.3069 77.1228 11.1399C79.1879 12.8674 81.3788 14.5573 83.5302 16.3871C84.2174 16.9504 84.9333 17.582 85.6349 18.2545C86.3536 18.92 87.0311 19.6245 87.6639 20.3643C88.2897 21.0856 88.8562 21.8515 89.3584 22.6551C89.8449 23.3872 90.25 24.1651 90.5672 24.9765C90.8494 25.6904 91.0308 26.4366 91.1069 27.1956C91.1715 27.8902 91.102 28.5901 90.9018 29.261C90.4917 30.5583 89.5419 31.6303 87.9769 32.5486L87.9517 32.5725C86.7349 33.2304 85.6527 34.0908 84.757 35.1125C83.3413 30.7591 80.9131 26.7632 77.6517 23.4198L77.5977 23.3686C78.2972 22.7656 78.7972 21.9829 79.0368 21.1154C79.1959 20.4208 79.152 19.6981 78.9098 19.0254C78.6676 18.3527 78.2363 17.7556 77.6625 17.2986C77.346 17.0164 77.0055 16.7594 76.6443 16.5305C76.2469 16.2944 75.8321 16.0856 75.4032 15.9058C74.9394 15.7142 74.4636 15.55 73.9785 15.4142C73.4593 15.2855 72.9333 15.183 72.4027 15.1069C72.0846 15.0164 71.752 14.9806 71.4206 15.0011C71.0877 14.9796 70.7535 15.0167 70.4348 15.1103C69.9244 15.1818 69.4187 15.2809 68.9202 15.4073C68.4498 15.5258 67.9882 15.6741 67.5387 15.8511C67.1173 16.019 66.7096 16.2164 66.3191 16.4417C65.956 16.6555 65.614 16.9001 65.2974 17.1723C64.7283 17.6412 64.2761 18.2243 63.9734 18.8793C63.7039 19.5025 63.6229 20.1846 63.7396 20.8491C63.946 21.8152 64.4745 22.6926 65.247 23.3515C65.2273 23.3668 65.2092 23.384 65.193 23.4027C61.9317 26.7461 59.5034 30.7421 58.0877 35.0954C57.1673 34.0391 56.0488 33.1537 54.7887 32.4838C53.2489 31.562 52.3207 30.49 51.9321 29.1927C51.7317 28.5277 51.6634 27.8331 51.7307 27.1444V27.1444ZM31.037 86.0277C30.3264 86.2117 29.5863 86.2707 28.8532 86.2018C28.0478 86.1186 27.257 85.9374 26.5004 85.6624C25.6497 85.3579 24.8336 84.9725 24.0648 84.5119C23.6618 84.2798 23.2553 84.0237 22.8488 83.754C22.4422 83.4843 22.0681 83.1907 21.6795 82.8903C21.291 82.5899 20.9024 82.2621 20.5391 81.9583C20.1757 81.6545 19.8016 81.2926 19.467 80.9751C18.7654 80.3094 18.0999 79.6368 17.5099 78.9882C15.5851 76.9433 13.8043 74.8642 11.9839 72.9046C11.1061 71.9214 10.1959 70.9689 9.29285 70.0642C8.38984 69.1595 7.48684 68.3026 6.54066 67.5208C7.48684 66.7322 8.40424 65.8753 9.29286 64.9706C10.1815 64.066 11.1025 63.1169 11.9839 62.1371C13.8043 60.1775 15.5851 58.0984 17.5099 56.0535C18.1035 55.4014 18.7726 54.7255 19.4778 54.0563C20.1804 53.3754 20.924 52.7337 21.7047 52.1343C22.4572 51.5343 23.257 50.9898 24.0972 50.5059C24.8686 50.0443 25.6885 49.6598 26.5436 49.3588C27.3027 49.0867 28.0961 48.9099 28.9036 48.833C29.6356 48.7682 30.3739 48.8343 31.0802 49.0276C32.4509 49.4134 33.577 50.3181 34.5447 51.8031L34.5699 51.827C35.2586 52.9828 36.1631 54.0101 37.2393 54.8586C32.6527 56.2035 28.443 58.5089 24.921 61.6045C24.9001 61.621 24.8808 61.6393 24.8635 61.6591C24.2276 60.9968 23.4047 60.5216 22.4926 60.2902C21.7597 60.141 20.9979 60.184 20.2887 60.4143C19.5795 60.6446 18.9498 61.0537 18.4668 61.5977C18.1686 61.8977 17.899 62.2221 17.661 62.5672C17.4101 62.9433 17.19 63.337 17.0026 63.745C16.7986 64.1843 16.6256 64.6359 16.4845 65.097C16.3448 65.5887 16.2367 66.0881 16.1608 66.5923C16.0634 66.8937 16.0256 67.2097 16.0492 67.5243C16.0276 67.8387 16.0654 68.1544 16.1608 68.4563C16.2375 68.9412 16.3408 69.4221 16.4702 69.8969C16.6038 70.3455 16.7672 70.7857 16.9594 71.2147C17.1376 71.6158 17.3468 72.0037 17.5854 72.3754C17.8095 72.7188 18.066 73.0422 18.3517 73.3416C18.8465 73.8833 19.4622 74.3136 20.1541 74.6013C20.8113 74.8556 21.5297 74.9324 22.23 74.8232C23.2497 74.6275 24.1751 74.1232 24.8671 73.386C24.8813 73.4063 24.8996 73.4237 24.921 73.4372C28.4449 76.5313 32.6557 78.8355 37.2429 80.1797C36.128 81.0514 35.1946 82.1131 34.4908 83.3102C33.5302 84.7816 32.3969 85.659 31.0334 86.0311L31.037 86.0277ZM24.644 67.514C24.698 69.8662 23.4172 71.1294 21.9602 71.2215C20.5031 71.3137 18.8194 70.1052 18.6143 67.514C18.8338 64.916 20.4671 63.7075 21.9062 63.8099C23.3453 63.9123 24.644 65.1721 24.6512 67.5277L24.644 67.514ZM40.1606 78.4488C38.9374 78.1489 37.7358 77.7748 36.563 77.329C35.3609 76.8614 34.1906 76.3232 33.0589 75.7177C30.657 74.424 28.4437 72.8378 26.4752 70.9996C26.7132 70.4613 26.8952 69.9022 27.0184 69.3302C27.2726 68.1314 27.2726 66.8966 27.0184 65.6978C26.8963 65.1234 26.7144 64.5619 26.4752 64.0216C28.4407 62.194 30.6476 60.6162 33.0409 59.3274C34.1686 58.7192 35.3367 58.1809 36.5378 57.7161C37.7101 57.2712 38.9104 56.8961 40.1319 56.5929C41.4875 57.1794 42.9222 57.5849 44.3951 57.798C45.122 57.9079 45.8545 57.9808 46.5896 58.0165C47.3415 58.0472 48.0791 58.0643 48.7914 58.0574C48.6259 58.4193 48.4532 58.7812 48.3201 59.1533C48.187 59.5254 48.0179 59.8907 47.9028 60.2731C45.2369 59.7303 42.4415 59.9317 40.2398 61.1948C39.0772 61.8473 38.1159 62.7784 37.4523 63.8948C36.7886 65.0111 36.446 66.2733 36.4587 67.555C36.4598 68.8345 36.8112 70.0919 37.4785 71.2038C38.1457 72.3157 39.1059 73.2441 40.265 73.898C42.4595 75.1612 45.2405 75.3626 47.9243 74.8232C48.0395 75.2056 48.1906 75.5743 48.3417 75.943C48.4928 76.3117 48.6475 76.677 48.8166 77.0423C48.097 77.0423 47.3559 77.0218 46.6184 77.0798C45.8844 77.1166 45.1531 77.1907 44.4274 77.3017C42.9587 77.5038 41.5257 77.8943 40.1678 78.4625L40.1606 78.4488ZM47.3955 61.9152C46.4465 65.6027 46.4465 69.4527 47.3955 73.1401C46.4016 73.2464 45.3967 73.2131 44.4131 73.0411C43.4625 72.8897 42.5535 72.5588 41.74 72.0682C40.9163 71.5923 40.2354 70.9234 39.7628 70.1257C39.2902 69.328 39.0418 68.4284 39.0415 67.5133C39.0411 66.5982 39.2888 65.6983 39.7608 64.9003C40.2327 64.1023 40.9131 63.4329 41.7364 62.9564C42.551 62.4678 43.4595 62.1371 44.4094 61.9835C45.396 61.8234 46.4019 61.8004 47.3955 61.9152ZM53.4863 100.236C53.3688 100.265 53.2553 100.306 53.1481 100.359L52.7956 100.551C50.7512 101.398 48.4815 101.628 46.2946 101.209C43.7406 100.71 41.3968 99.5109 39.5529 97.7611C37.7089 96.0113 36.4456 93.7873 35.919 91.3637C35.4797 89.2884 35.722 87.1351 36.6134 85.1947L36.8148 84.8601C36.8715 84.7593 36.9162 84.6529 36.9479 84.5427C37.5736 83.4482 38.4123 82.4763 39.4195 81.6784C40.4062 80.9038 41.5209 80.289 42.7186 79.8587C43.9249 79.4342 45.1835 79.1577 46.4637 79.036C47.0982 78.9716 47.736 78.9408 48.3741 78.9438C49.0168 78.9395 49.6593 78.968 50.2988 79.0292C51.3853 79.1248 52.2235 77.9538 51.871 77.469L51.8062 77.3939C50.9664 75.8724 50.3179 74.2625 49.8743 72.5973C49.4524 70.9174 49.2375 69.1966 49.2339 67.4696C49.248 65.743 49.4774 64.0241 49.9174 62.3487C50.3625 60.685 51.0223 59.0797 51.8818 57.5693C52.0652 57.2586 51.8818 56.8865 51.5868 56.6065C51.4315 56.4261 51.2337 56.283 51.0093 56.1887C50.7849 56.0944 50.5403 56.0516 50.2952 56.0637V56.0637C49.6568 56.1236 49.0155 56.151 48.3741 56.1456C47.7359 56.1506 47.098 56.1198 46.4637 56.0535C45.1832 55.9336 43.9243 55.657 42.7186 55.2307C41.522 54.7984 40.4077 54.1838 39.4195 53.4111C38.4141 52.6115 37.5757 51.6399 36.9479 50.5468C36.9162 50.4366 36.8715 50.3301 36.8148 50.2293L36.6134 49.8948C35.7221 47.9543 35.4797 45.8011 35.919 43.7258C36.4425 41.3009 37.7048 39.0752 39.5493 37.325C41.3938 35.5747 43.7392 34.3768 46.2946 33.8801C48.4814 33.4594 50.7517 33.6895 52.7956 34.5389L53.1481 34.7301C53.2566 34.7809 53.3698 34.822 53.4863 34.853C54.6369 35.4477 55.6595 36.2421 56.5011 37.195C57.3181 38.1334 57.966 39.1935 58.4187 40.3324C58.8703 41.4759 59.1618 42.6707 59.2857 43.8863C59.3557 44.4882 59.3881 45.0935 59.3828 45.6991C59.3867 46.3077 59.3579 46.9162 59.2965 47.5221C59.1922 48.5565 60.4262 49.3519 60.937 49.0174C60.9586 48.9969 60.973 48.9832 61.0198 48.9867C62.6216 48.1899 64.3171 47.5757 66.0709 47.1568C67.841 46.755 69.6545 46.551 71.4745 46.5491C73.2944 46.5572 75.1065 46.775 76.871 47.1978C78.6253 47.6189 80.3182 48.2438 81.9113 49.0583C82.2351 49.2359 82.6308 49.0583 82.9258 48.7784C83.1148 48.6311 83.2646 48.4438 83.3634 48.2315C83.4621 48.0193 83.5069 47.7879 83.4943 47.5562V47.5562C83.4304 46.9504 83.3992 46.342 83.4007 45.7332C83.3998 45.1275 83.4346 44.5223 83.505 43.9204C83.6315 42.7067 83.9217 41.5134 84.3685 40.3699C84.8236 39.2324 85.4726 38.1737 86.2896 37.2359C87.1292 36.2811 88.1522 35.4864 89.3045 34.894C89.4203 34.8629 89.5324 34.8206 89.639 34.7677L89.9952 34.5731C92.0405 33.7288 94.3091 33.4989 96.4961 33.9142C99.0502 34.4139 101.394 35.6127 103.238 37.3625C105.082 39.1123 106.345 41.3363 106.872 43.7599C107.312 45.8352 107.069 47.9886 106.177 49.9289L105.972 50.2669C105.918 50.3693 105.874 50.4769 105.843 50.5878C105.217 51.6798 104.379 52.6504 103.375 53.4487C102.385 54.223 101.268 54.8378 100.069 55.2683C98.8642 55.6944 97.6064 55.9699 96.327 56.0876C95.6914 56.1533 95.0525 56.1852 94.4131 56.1832C93.7728 56.1857 93.1328 56.1572 92.4956 56.0979C91.4019 56.0023 90.5672 57.1698 90.9198 57.6546C90.9262 57.6822 90.9371 57.7087 90.9522 57.7331C92.6514 60.795 93.5287 64.2072 93.5065 67.6676C93.4948 69.3957 93.2641 71.1161 92.8193 72.7919C92.3768 74.457 91.7181 76.0636 90.8586 77.5748C90.6751 77.8787 90.8586 78.2576 91.1536 78.5376C91.3069 78.719 91.504 78.8627 91.7282 78.9566C91.9523 79.0505 92.197 79.0918 92.4416 79.077V79.077C93.0788 79.0176 93.7188 78.9891 94.3591 78.9916C94.9972 78.9884 95.635 79.0192 96.2695 79.0838C97.55 79.2039 98.8088 79.4805 100.015 79.9065C101.214 80.337 102.331 80.9518 103.321 81.7262C104.325 82.5245 105.163 83.495 105.789 84.587C105.823 84.6972 105.866 84.8046 105.918 84.9079L106.123 85.2459C107.017 87.1857 107.26 89.3397 106.818 91.4149C106.293 93.8392 105.03 96.0643 103.186 97.8144C101.342 99.5644 98.997 100.763 96.4422 101.261C94.2552 101.678 91.9858 101.448 89.9412 100.602L89.5851 100.407C89.4784 100.354 89.3663 100.312 89.2505 100.281C88.1328 99.6578 87.147 98.8428 86.3436 97.8774C85.5287 96.9383 84.8799 95.8799 84.4224 94.7434C83.9758 93.5985 83.6844 92.4043 83.5554 91.1896C83.4855 90.5876 83.453 89.9823 83.4583 89.3768C83.4539 88.7691 83.4839 88.1617 83.5482 87.5571C83.649 86.5193 82.4186 85.7273 81.9041 86.0653C81.876 86.0692 81.8491 86.0785 81.8249 86.0926C76.9433 88.5438 71.2761 89.1862 65.9234 87.8951C64.1697 87.4738 62.4779 86.8477 60.8867 86.0311C60.5629 85.8604 60.1671 86.0311 59.8721 86.3111C59.6814 86.4578 59.5301 86.6455 59.4306 86.8585C59.3312 87.0716 59.2865 87.304 59.3001 87.5367V87.5367C59.3634 88.1424 59.3922 88.751 59.3864 89.3597C59.3915 89.9652 59.3591 90.5705 59.2893 91.1725C59.1652 92.3865 58.875 93.5801 58.4259 94.723C57.9722 95.8614 57.3244 96.9213 56.5083 97.8604C55.6675 98.8258 54.6423 99.6319 53.4863 100.236V100.236ZM77.2415 93.1662C77.0797 94.0677 76.7312 94.9298 76.2162 95.7028C75.7138 96.4833 75.0086 97.1282 74.1681 97.5759C73.3276 98.0235 72.38 98.2587 71.4162 98.2591C70.4524 98.2594 69.5046 98.0248 68.6638 97.5778C67.8229 97.1308 67.1171 96.4863 66.6141 95.7062C66.0989 94.9318 65.7493 94.0687 65.5852 93.1662C65.4061 92.2326 65.3709 91.2793 65.4809 90.3361C69.3668 91.2366 73.424 91.2366 77.3099 90.3361C77.4338 91.2775 77.4107 92.2311 77.2415 93.1662V93.1662ZM61.1529 93.1799C61.2687 92.4901 61.3456 91.7949 61.3831 91.0974C61.4155 90.3839 61.4371 89.6806 61.4299 89.0046C61.8113 89.1617 62.189 89.329 62.5847 89.4587C62.9805 89.5884 63.3582 89.7421 63.7612 89.8513C63.1927 92.3844 63.4014 95.0336 64.7325 97.1229C65.4202 98.2261 66.4014 99.1383 67.5777 99.7681C68.7541 100.398 70.0843 100.723 71.435 100.711C72.7833 100.709 74.1081 100.376 75.2798 99.7426C76.4515 99.1095 77.4299 98.1986 78.1194 97.099C79.4505 95.0166 79.6664 92.381 79.0979 89.8342C79.4937 89.725 79.8858 89.585 80.2744 89.4416C80.6629 89.2982 81.0479 89.1446 81.4292 88.9876C81.4292 89.6704 81.4076 90.3736 81.4688 91.0735C81.5091 91.7698 81.5872 92.4638 81.7026 93.1526C81.927 94.539 82.3469 95.8905 82.951 97.1707C82.6371 98.3321 82.2429 99.4725 81.771 100.585C81.2803 101.726 80.7132 102.837 80.0729 103.91C78.7109 106.19 77.0407 108.291 75.1045 110.161C74.5377 109.934 73.9483 109.761 73.3453 109.645C72.0825 109.399 70.7802 109.399 69.5174 109.645C68.9131 109.759 68.3224 109.931 67.7546 110.157C65.8253 108.295 64.161 106.202 62.8042 103.93C62.1628 102.859 61.5944 101.749 61.1025 100.609C60.6338 99.4976 60.2397 98.3596 59.9225 97.2015C60.5238 95.9204 60.9377 94.5673 61.1529 93.1799V93.1799ZM75.3384 114.466C75.4463 115.845 74.162 117.446 71.4278 117.637C68.6935 117.432 67.4164 115.879 67.5243 114.513C67.6322 113.148 68.9526 111.929 71.435 111.922C73.9173 111.915 75.2125 113.056 75.3384 114.466ZM83.5122 118.685C81.3608 120.515 79.1699 122.205 77.1048 123.932C76.0687 124.765 75.065 125.629 74.1152 126.483C73.1654 127.336 72.2588 128.196 71.4278 129.094C70.6003 128.2 69.6937 127.326 68.7475 126.483C67.8013 125.639 66.7904 124.762 65.7543 123.929C63.6892 122.202 61.4983 120.512 59.3469 118.689C58.6597 118.125 57.9474 117.49 57.2422 116.821C56.5264 116.153 55.8502 115.447 55.2168 114.708C54.5833 113.993 54.0083 113.233 53.4971 112.434C53.0146 111.702 52.6109 110.925 52.2919 110.116C52.0039 109.396 51.8176 108.643 51.7379 107.877C51.6676 107.182 51.7372 106.481 51.9429 105.811C52.3495 104.511 53.2992 103.439 54.8642 102.52L54.8894 102.496C56.1043 101.839 57.1861 100.981 58.0841 99.9633C59.503 104.315 61.9322 108.31 65.193 111.653C65.2073 111.673 65.2256 111.69 65.247 111.704C64.5483 112.309 64.0476 113.093 63.8043 113.96C63.6469 114.655 63.692 115.377 63.9348 116.049C64.1776 116.721 64.6089 117.317 65.1822 117.774C65.4967 118.058 65.8374 118.315 66.2004 118.542C66.5971 118.779 67.012 118.988 67.4416 119.167C67.9061 119.36 68.3831 119.526 68.8698 119.662C69.3877 119.79 69.9125 119.891 70.442 119.965C70.7611 120.057 71.0949 120.094 71.4278 120.075C71.7597 120.097 72.093 120.058 72.4099 119.962C72.9215 119.895 73.4284 119.799 73.9281 119.675C74.4021 119.549 74.8661 119.392 75.3168 119.204C75.7386 119.036 76.1473 118.84 76.54 118.617C76.899 118.4 77.2394 118.157 77.5581 117.89C78.129 117.42 78.5825 116.836 78.8857 116.179C79.1536 115.556 79.2346 114.874 79.1195 114.21C78.9133 113.242 78.3818 112.364 77.6049 111.707C77.6049 111.707 77.6409 111.673 77.6625 111.653C80.9238 108.309 83.3521 104.313 84.7678 99.9599C85.6882 101.016 86.8067 101.902 88.0669 102.572C89.603 103.49 90.5312 104.569 90.9234 105.863C91.1157 106.534 91.179 107.232 91.1105 107.925C91.0241 108.689 90.833 109.44 90.542 110.157C90.2216 110.963 89.8167 111.736 89.3332 112.465C89.0814 112.847 88.8152 113.237 88.5274 113.619C88.2395 114.001 87.9337 114.36 87.6208 114.725C87.3078 115.09 86.9624 115.466 86.6206 115.824C86.2788 116.183 85.9191 116.524 85.5845 116.842C84.8937 117.484 84.1814 118.112 83.4978 118.672L83.5122 118.685Z" fill="#D2AC67" fill-opacity="0.2"/>
<path d="M78.2452 67.5243C78.2418 66.6706 78.0647 65.8255 77.7235 65.0355C77.0279 63.4558 75.7043 62.1998 74.0395 61.5397C72.3577 60.8798 70.4688 60.8798 68.787 61.5397C67.1262 62.2054 65.8046 63.4596 65.103 65.0355C64.4938 66.4217 64.4106 67.9656 64.8676 69.4035C65.3246 70.8414 66.2934 72.0841 67.6087 72.9196C68.924 73.755 70.504 74.1312 72.0791 73.984C73.6542 73.8369 75.1266 73.1754 76.2449 72.1126C76.8785 71.5151 77.3822 70.8052 77.7271 70.0233C78.0681 69.2298 78.2441 68.3812 78.2452 67.5243ZM73.061 71.2625C72.0071 71.6754 70.824 71.6766 69.7691 71.2659C68.7367 70.8508 67.9149 70.0709 67.4774 69.0913C67.0458 68.0891 67.0458 66.9663 67.4774 65.9641C67.9149 64.9845 68.7367 64.2046 69.7691 63.7894C70.824 63.3788 72.0071 63.38 73.061 63.7929C74.0933 64.208 74.9152 64.9879 75.3527 65.9675C75.5687 66.4621 75.6799 66.9923 75.6799 67.5277C75.6799 68.0631 75.5687 68.5933 75.3527 69.0879C74.9152 70.0675 74.0934 70.8474 73.061 71.2625Z" fill="#D2AC67" fill-opacity="0.2"/>
</g>
<defs>
<clipPath id="clip0_361_2521">
<rect width="98.1014" height="98.1014" fill="white" transform="matrix(0.725386 0.688342 -0.725386 0.688342 71.4131 0)"/>
</clipPath>
</defs>
</svg>
