<svg width="360" height="1012" viewBox="0 0 360 1012" fill="none" xmlns="http://www.w3.org/2000/svg">
<g opacity="0.6" clip-path="url(#clip0_491_2232)">
<path opacity="0.4" d="M433.39 628.07C438.912 700.578 373.769 765.885 301.812 775.8C221.435 786.892 156.517 742.993 103.389 687.311C43.3482 624.447 -1.76722 562.25 -94.813 551.362C-154.492 544.385 -214.652 556.759 -272.529 573.158C-364.998 599.35 -457.521 634.464 -554.532 638.249C-607.433 640.235 -661.96 632.075 -709.564 608.013C-761.478 581.722 -794.196 533.535 -834.752 493.562C-864.946 463.811 -902.329 437.853 -944.554 435.102" stroke="url(#paint0_linear_491_2232)" stroke-width="0.235818" stroke-miterlimit="10"/>
<path opacity="0.41" d="M434.729 622.458C437.746 658.596 420.766 692.863 393.819 719.5C377.468 735.685 357.854 748.19 336.286 756.18C325.493 760.143 314.267 762.81 302.844 764.125C266.214 768.378 233.24 760.807 202.86 746.278C178.035 734.406 155.085 717.497 133.554 698.215C124.655 690.164 115.925 681.716 107.537 672.998C47.3749 610.593 1.29842 550.802 -91.191 541.371C-136.935 536.804 -182.912 543.511 -227.666 554.355C-241.169 557.657 -254.609 561.343 -267.902 565.216C-347.707 588.498 -427.821 617.664 -510.76 626.253C-523.575 627.598 -536.44 628.471 -549.355 628.873C-576.816 629.654 -604.282 627.5 -631.289 622.448C-656.489 617.825 -680.977 609.918 -704.128 598.927C-756.075 573.781 -789.087 527.644 -830.003 488.722L-832.431 486.426C-862.441 458.336 -898.994 433.85 -939.782 430.456" stroke="url(#paint1_linear_491_2232)" stroke-width="0.273549" stroke-miterlimit="10"/>
<path opacity="0.43" d="M436.069 616.847C439.18 651.265 421.73 683.624 394.54 709.788C378.101 725.7 358.409 737.851 336.822 745.404C326.127 749.068 315.03 751.435 303.771 752.454C267.819 755.716 235.775 747.499 206.085 732.555C181.739 720.294 159.099 703.14 137.71 683.846C128.803 675.76 120.077 667.33 111.669 658.688C51.365 596.729 4.39504 539.148 -87.5712 531.362C-133.168 527.505 -178.921 534.852 -223.248 546.096C-236.691 549.512 -250.033 553.322 -263.288 557.295C-342.821 581.099 -422.912 610.116 -505.765 617.386C-518.524 618.538 -531.338 619.196 -544.206 619.359C-571.601 619.702 -598.964 617.333 -625.895 612.287C-651.001 607.732 -675.46 600.13 -698.731 589.65C-750.679 565.625 -784.004 521.542 -825.222 483.676C-826.029 482.923 -826.846 482.207 -827.671 481.457C-857.914 454.157 -894.559 429.745 -934.83 425.628" stroke="url(#paint2_linear_491_2232)" stroke-width="0.320712" stroke-miterlimit="10"/>
<path opacity="0.44" d="M437.409 611.235C440.719 643.841 422.71 674.382 395.276 699.982C378.767 715.659 359.003 727.493 337.394 734.638C326.797 738.007 315.83 740.074 304.734 740.793C269.446 743.085 238.35 734.128 209.323 718.812C185.469 706.231 163.167 688.79 141.847 669.481C132.933 661.361 124.228 652.944 115.796 644.362C55.3156 582.855 7.45667 527.592 -83.9699 521.356C-129.443 518.179 -175.027 526.25 -218.849 537.84C-232.214 541.366 -245.493 545.308 -258.692 549.378C-337.915 573.804 -418.044 602.377 -500.775 608.501C-513.485 609.45 -526.235 609.956 -539.058 609.935C-566.383 609.842 -593.643 607.258 -620.502 602.215C-645.518 597.75 -669.947 590.451 -693.317 580.46C-745.158 557.551 -778.879 515.557 -820.456 478.742L-822.9 476.631C-853.404 450.071 -890.124 425.82 -930.037 420.996" stroke="url(#paint3_linear_491_2232)" stroke-width="0.358443" stroke-miterlimit="10"/>
<path opacity="0.46" d="M438.696 605.617C442.157 636.438 423.669 665.199 396.013 690.339C379.498 705.439 359.088 717.7 338.004 723.865C327.498 726.936 316.653 728.698 305.714 729.111C271.102 730.485 240.98 720.747 212.612 705.13C189.21 692.202 167.248 674.492 146.012 655.147C137.094 647.01 128.393 638.61 119.958 630.101C59.3218 569.06 10.5493 516.085 -80.3375 511.399C-125.668 509.078 -171.006 517.64 -214.419 529.633C-227.703 533.287 -240.919 537.36 -254.064 541.51C-333.002 566.527 -413.137 594.812 -495.77 599.668C-508.431 600.426 -521.129 600.716 -533.864 600.538C-561.111 600.002 -588.267 597.197 -615.051 592.15C-639.972 587.748 -664.365 580.745 -687.831 571.255C-739.628 549.513 -773.739 509.624 -815.635 473.798L-818.113 471.693C-848.77 445.871 -885.66 421.763 -925.151 416.273" stroke="url(#paint4_linear_491_2232)" stroke-width="0.396174" stroke-miterlimit="10"/>
<path opacity="0.47" d="M440.087 599.995C443.676 628.999 424.67 655.97 396.819 680.609C380.205 695.404 359.644 707.461 338.59 713.078C328.196 715.869 317.492 717.334 306.73 717.44C272.786 717.861 243.604 707.349 215.891 691.324C192.954 678.028 171.323 660.086 150.173 640.724C141.248 632.551 132.572 624.183 124.095 615.736C63.3001 555.144 13.6212 504.491 -76.6739 501.345C-121.867 499.772 -166.973 509.009 -209.964 521.294C-223.186 525.079 -236.32 529.28 -249.396 533.505C-328.065 559.117 -408.202 587.132 -490.735 590.737C-503.262 591.269 -515.976 591.424 -528.591 591.016C-555.829 590.092 -582.959 587.105 -609.748 582.08C-634.593 577.788 -658.965 571.092 -682.52 562.087C-734.318 541.555 -768.732 503.592 -810.954 468.882L-813.401 466.843C-844.392 441.759 -881.302 417.728 -920.376 411.554" stroke="url(#paint5_linear_491_2232)" stroke-width="0.433905" stroke-miterlimit="10"/>
<path opacity="0.49" d="M441.427 594.383C445.163 621.586 425.584 646.67 397.591 670.886C380.745 685.35 360.145 697.217 339.145 702.316C328.841 704.812 318.26 705.978 307.659 705.786C274.383 705.255 246.158 693.964 219.098 677.605C196.636 663.993 175.357 645.742 154.255 626.352C145.327 618.163 136.653 609.811 128.174 601.438C67.2235 541.312 16.6173 492.967 -73.159 491.358C-118.227 490.554 -163.093 500.428 -205.651 513.056C-218.796 516.952 -231.867 521.284 -244.886 525.606C-323.256 551.788 -403.357 579.542 -485.918 581.889C-498.481 582.247 -511.041 582.189 -523.671 581.622C-550.709 580.249 -577.626 577.053 -604.236 572.056C-629.484 567.429 -654.017 561.552 -677.037 552.882C-728.793 533.499 -763.628 497.593 -806.136 463.937L-808.659 461.968C-839.875 437.618 -876.874 413.768 -915.541 406.859" stroke="url(#paint6_linear_491_2232)" stroke-width="0.481068" stroke-miterlimit="10"/>
<path opacity="0.5" d="M442.78 588.75C446.634 614.175 426.637 637.43 398.29 661.16C381.383 675.329 360.597 687 339.752 691.542C329.538 693.756 319.077 694.617 308.637 694.104C276.05 692.634 248.769 680.586 222.371 663.854C200.382 649.909 179.495 631.377 158.41 611.983C149.475 603.759 140.84 595.418 132.337 587.104C71.1612 527.459 19.7006 481.424 -69.5222 481.345C-114.466 481.311 -159.108 491.825 -201.217 504.793C-214.28 508.817 -227.274 513.26 -240.254 517.682C-318.342 544.438 -398.477 571.946 -480.819 572.999C-493.422 573.167 -505.842 572.917 -518.417 572.176C-545.406 570.355 -572.262 566.921 -598.843 561.894C-624.101 557.306 -648.6 551.764 -671.629 543.657C-723.327 525.509 -758.53 491.56 -801.372 458.986L-803.922 457.059C-835.379 433.464 -872.452 409.774 -910.713 402.129" stroke="url(#paint7_linear_491_2232)" stroke-width="0.518799" stroke-miterlimit="10"/>
<path opacity="0.52" d="M444.125 583.156C448.127 606.779 427.616 628.171 399.119 651.443C382.143 665.284 361.072 676.797 340.395 680.762C330.277 682.697 319.945 683.263 309.675 682.446C277.78 680.054 251.432 667.198 225.7 650.11C204.166 635.835 183.564 617.027 162.618 597.604C153.747 589.343 145.049 581.075 136.525 572.801C75.2592 513.59 22.8374 469.962 -65.8464 471.342C-110.649 472.074 -155.067 483.228 -196.743 496.54C-209.743 500.695 -222.66 505.249 -235.515 509.753C-313.338 537.087 -393.467 564.359 -475.72 564.11C-488.203 564.072 -500.641 563.645 -513.146 562.726C-540.061 560.492 -566.844 556.867 -593.386 551.864C-618.615 547.324 -643.097 542.122 -666.154 534.491C-717.864 517.412 -753.423 485.652 -796.597 454.087L-799.15 452.233C-830.871 429.361 -868.023 405.814 -905.87 397.469" stroke="url(#paint8_linear_491_2232)" stroke-width="0.55653" stroke-miterlimit="10"/>
<path opacity="0.53" d="M445.465 577.455C449.611 599.257 428.614 618.925 399.873 641.634C382.833 655.163 361.714 666.45 340.985 669.902C330.959 671.559 320.751 671.819 310.652 670.674C279.464 667.34 254.035 653.696 228.959 636.29C207.859 621.671 187.633 602.587 166.773 583.146C157.918 574.845 149.218 566.595 140.673 558.398C79.2309 499.64 25.9302 458.291 -62.224 461.261C-106.902 462.762 -151.097 474.556 -192.326 488.191C-205.249 492.456 -218.095 497.176 -231.04 501.681C-308.578 529.606 -388.688 556.621 -470.861 555.108C-483.277 554.876 -495.665 554.258 -508.119 553.147C-534.349 550.823 -560.959 546.498 -588.146 541.662C-613.367 537.157 -637.85 532.299 -660.906 525.191C-712.523 509.25 -748.441 479.498 -791.945 449.032L-794.522 447.237C-826.465 425.117 -863.716 401.699 -901.133 392.65" stroke="url(#paint9_linear_491_2232)" stroke-width="0.594261" stroke-miterlimit="10"/>
<path opacity="0.55" d="M446.797 571.898C451.078 591.92 429.576 609.686 400.642 631.984C383.446 645.201 362.156 656.272 341.572 659.205C331.636 660.582 321.555 660.54 311.63 659.082C281.044 654.827 256.623 640.304 232.228 622.612C211.631 607.635 191.715 588.305 170.921 568.833C162.075 560.518 153.368 552.264 144.818 544.158C83.2169 485.849 28.9442 446.854 -58.6775 451.339C-103.214 453.606 -147.168 466.037 -187.95 480.085C-200.791 484.568 -213.585 489.277 -226.383 493.968C-303.621 522.463 -383.748 549.228 -465.828 546.431C-478.193 546.007 -490.513 545.194 -502.909 543.927C-529.025 541.199 -555.495 536.593 -582.654 531.804C-607.886 527.338 -632.335 522.816 -655.39 516.233C-706.947 501.273 -743.238 473.624 -787.063 444.219L-789.663 442.483C-821.85 421.101 -859.18 397.826 -896.183 388.075" stroke="url(#paint10_linear_491_2232)" stroke-width="0.641424" stroke-miterlimit="10"/>
<path opacity="0.56" d="M448.138 566.287C452.566 584.506 430.575 600.44 401.397 622.265C384.119 635.174 362.665 646.062 342.176 648.415C332.318 649.511 322.352 649.151 312.597 647.348C282.791 642.154 259.23 626.909 235.494 608.827C215.362 593.482 195.721 573.914 175.066 554.413C166.23 546.059 157.526 537.823 148.939 529.797C87.193 472.006 31.9967 435.336 -55.0023 441.337C-99.4113 444.391 -143.145 457.445 -183.516 471.732C-196.288 476.201 -208.99 481.179 -221.731 485.967C-298.718 515.061 -378.791 541.562 -460.782 537.463C-473.114 536.851 -485.38 535.864 -497.727 534.316C-523.685 531.302 -550.033 526.417 -577.205 521.649C-602.43 517.217 -626.879 513.039 -649.944 506.928C-701.532 493.294 -738.147 467.646 -782.278 439.281L-784.899 437.622C-817.333 416.96 -854.79 393.856 -891.279 383.366" stroke="url(#paint11_linear_491_2232)" stroke-width="0.679155" stroke-miterlimit="10"/>
<path opacity="0.58" d="M449.478 560.675C454.037 577.096 431.555 591.198 402.217 612.513C384.833 625.174 363.221 635.823 342.818 637.635C333.028 638.459 323.169 637.795 313.575 635.667C284.478 629.547 261.834 613.497 238.746 595.062C219.114 579.433 199.818 559.612 179.228 540.079C170.405 531.699 161.694 523.512 153.095 515.519C91.1825 458.142 35.0524 423.836 -51.3831 431.328C-95.7234 435.145 -139.16 448.842 -179.099 463.473C-191.779 468.121 -204.432 473.162 -217.1 478.043C-293.788 507.707 -373.89 533.979 -455.718 528.581C-468 527.778 -480.202 526.579 -492.476 524.943C-518.331 521.474 -544.546 516.272 -571.725 511.56C-596.96 507.166 -621.375 503.324 -644.446 497.793C-695.906 485.289 -732.958 461.703 -777.428 434.402L-780.072 432.802C-812.746 412.895 -850.25 389.91 -886.43 378.74" stroke="url(#paint12_linear_491_2232)" stroke-width="0.716886" stroke-miterlimit="10"/>
<path opacity="0.59" d="M450.818 555.064C455.522 569.665 432.543 581.991 402.99 602.79C385.495 615.094 363.739 625.575 343.426 626.861C333.742 627.422 324.029 626.47 314.637 624.039C286.253 617.012 264.521 600.139 242.092 581.314C222.897 565.268 203.994 545.167 183.438 525.626C174.633 517.218 165.92 509.05 157.299 501.122C95.2096 444.198 38.163 412.252 -47.7089 421.235C-91.8832 425.849 -135.135 440.176 -174.627 455.13C-187.244 459.91 -199.802 465.057 -212.435 470.021C-288.819 500.273 -368.917 526.309 -450.731 519.678C-462.976 518.615 -475.092 517.308 -487.313 515.498C-513.032 511.639 -539.129 506.141 -566.318 501.468C-591.541 497.126 -615.94 493.624 -639.032 488.512C-690.469 477.16 -727.885 455.639 -772.675 429.399L-775.481 427.887C-808.364 408.71 -845.982 385.875 -881.747 374.005" stroke="url(#paint13_linear_491_2232)" stroke-width="0.754617" stroke-miterlimit="10"/>
<path opacity="0.6" d="M452.172 549.431C456.993 562.254 433.559 572.741 403.676 593.085C386.078 605.067 364.175 615.361 343.96 616.085C334.348 616.403 324.746 615.156 315.532 612.393C287.841 604.444 267.055 586.741 245.293 567.651C226.563 551.237 208.008 530.9 187.522 511.345C178.723 502.912 169.996 494.734 161.375 486.896C99.058 430.436 41.1469 400.839 -44.1616 411.313C-88.1734 416.707 -131.218 431.678 -170.333 446.968C-182.869 451.876 -195.299 457.123 -207.944 462.199C-284.047 493.024 -364.136 518.841 -445.871 510.857C-458.055 509.654 -470.135 508.086 -482.267 506.096C-507.882 501.871 -533.839 496.091 -561.041 491.439C-586.258 487.131 -610.64 483.97 -633.752 479.368C-685.131 469.161 -722.984 449.701 -768.042 424.511L-770.717 423.026C-803.871 404.629 -841.56 381.88 -876.927 369.24" stroke="url(#paint14_linear_491_2232)" stroke-width="0.80178" stroke-miterlimit="10"/>
<path opacity="0.62" d="M453.512 543.819C458.484 554.858 434.515 563.468 404.448 583.362C386.748 595.113 364.679 605.134 344.551 605.316C335.013 605.366 325.533 603.809 316.51 600.711C289.536 591.871 269.672 573.308 248.553 553.921C230.304 537.135 212.077 516.55 191.673 496.96C182.893 488.498 174.171 480.374 165.507 472.587C103.103 416.578 44.2174 389.408 -40.542 401.304C-84.4742 407.513 -127.247 423.096 -165.864 438.698C-178.34 443.72 -190.771 449.131 -203.261 454.264C-279.099 485.666 -359.162 511.262 -440.81 501.958C-452.941 500.581 -464.939 498.797 -477.052 496.64C-502.545 492.047 -528.366 485.967 -555.574 481.37C-580.801 477.101 -605.153 474.258 -628.319 470.175C-679.627 461.091 -717.82 443.636 -763.258 419.574L-765.956 418.148C-799.257 400.432 -837.066 377.889 -872.008 364.6" stroke="url(#paint15_linear_491_2232)" stroke-width="0.839511" stroke-miterlimit="10"/>
<path opacity="0.63" d="M454.852 538.208C459.969 547.427 435.524 554.274 405.199 573.626C387.406 585.016 365.181 594.889 345.141 594.546C335.683 594.32 326.335 592.458 317.509 589.043C291.249 579.296 272.292 559.892 251.843 540.167C234.063 523.031 216.177 502.175 195.846 482.588C187.072 474.101 178.347 465.989 169.67 458.254C107.11 402.711 47.2661 377.873 -36.9016 391.309C-80.7096 398.287 -123.242 414.507 -161.433 430.418C-173.825 435.585 -186.179 441.106 -198.629 446.34C-274.178 478.351 -354.243 503.675 -435.798 493.086C-447.882 491.501 -459.844 489.547 -471.868 487.209C-497.229 482.208 -522.979 475.861 -550.146 471.292C-575.366 467.057 -599.718 464.558 -622.852 460.974C-674.102 453.035 -712.666 437.699 -758.386 414.618L-761.109 413.251C-794.774 396.298 -832.602 373.922 -867.121 359.895" stroke="url(#paint16_linear_491_2232)" stroke-width="0.877242" stroke-miterlimit="10"/>
<path opacity="0.65" d="M456.189 532.579C461.436 539.999 436.494 544.98 405.99 563.989C388.055 574.957 365.72 584.654 345.68 583.787C336.29 583.308 327.063 581.141 318.439 577.389C292.896 566.751 274.861 546.487 255.071 526.461C237.753 508.94 220.197 487.852 199.932 468.233C191.189 459.716 182.468 451.628 173.77 443.969C111.034 388.878 50.2775 366.418 -33.3303 381.328C-77.0069 389.11 -119.315 405.97 -157.064 422.187C-169.375 427.482 -181.669 433.117 -194.066 438.43C-269.319 470.994 -349.376 496.099 -430.87 484.16C-442.899 482.401 -454.814 480.239 -466.767 477.722C-492.007 472.353 -517.586 465.699 -544.798 461.175C-570.024 456.996 -594.346 454.816 -617.483 451.739C-668.695 444.931 -707.623 431.66 -753.72 409.633L-756.452 408.395C-790.347 392.158 -828.278 369.894 -862.375 355.2" stroke="url(#paint17_linear_491_2232)" stroke-width="0.924405" stroke-miterlimit="10"/>
<path opacity="0.66" d="M457.529 526.967C462.925 532.585 437.49 535.807 406.727 554.183C388.714 564.95 366.173 574.437 346.336 572.986C337.028 572.238 327.941 569.761 319.538 565.682C294.695 554.157 277.596 533.011 258.445 512.671C241.539 494.793 224.339 473.505 204.136 453.837C195.408 445.28 186.68 437.211 177.951 429.631C115.073 374.986 52.8989 352.658 -29.6624 371.291C-72.9829 381.041 -115.279 397.356 -152.58 413.896C-164.828 419.322 -177.028 425.064 -189.386 430.477C-264.319 463.625 -344.412 488.558 -425.816 475.316C-437.795 473.366 -449.639 471.026 -461.579 468.308C-486.603 462.587 -512.102 455.627 -539.341 451.145C-564.542 446.997 -588.84 445.192 -612.005 442.589C-663.148 436.979 -702.472 425.706 -748.882 404.775L-751.649 403.544C-785.784 388.062 -823.797 365.924 -857.481 350.529" stroke="url(#paint18_linear_491_2232)" stroke-width="0.962136" stroke-miterlimit="10"/>
<path opacity="0.68" d="M458.87 521.356C464.397 525.175 438.489 526.561 407.5 544.46C389.37 554.926 366.675 564.193 346.927 562.216C337.654 561.225 328.661 558.44 320.447 554.015C296.325 541.616 280.145 519.592 261.653 498.953C245.209 480.688 228.401 459.12 208.289 439.451C199.547 430.885 190.817 422.841 182.1 415.318C119.046 361.126 55.9181 341.238 -26.0385 361.299C-69.2103 371.85 -111.303 388.792 -148.18 405.64C-160.346 411.194 -172.486 417.05 -184.771 422.556C-259.474 456.289 -339.506 480.992 -420.803 466.445C-432.749 464.307 -444.546 461.758 -456.373 458.891C-481.355 452.763 -506.68 445.514 -533.925 441.087C-559.137 436.978 -583.408 435.474 -606.596 433.365C-657.696 428.83 -697.359 419.742 -744.122 399.806L-746.905 398.579C-781.269 383.904 -819.379 361.912 -852.649 345.817" stroke="url(#paint19_linear_491_2232)" stroke-width="0.999867" stroke-miterlimit="10"/>
<path opacity="0.69" d="M460.206 515.727C465.88 517.744 439.489 517.332 408.198 534.735C389.986 544.892 367.074 553.987 347.46 551.44C338.255 550.203 329.39 547.133 321.386 542.413C297.964 529.128 282.736 506.218 264.884 485.265C249.032 466.552 232.472 444.697 212.443 425.083C203.714 416.466 194.983 408.44 186.248 401.006C123.041 347.297 59.4839 332.018 -22.4204 351.29C-65.7373 361.492 -107.313 380.223 -143.764 397.381C-155.867 403.067 -167.93 409.033 -180.158 414.636C-254.561 448.939 -334.599 473.444 -415.813 457.56C-427.705 455.248 -439.434 452.505 -451.211 449.446C-476.037 442.942 -501.26 435.401 -528.516 431.012C-553.72 426.937 -577.975 425.774 -601.12 424.216C-652.169 420.791 -692.242 413.723 -739.314 394.9L-742.11 393.783C-776.732 379.777 -814.92 357.928 -847.78 341.115" stroke="url(#paint20_linear_491_2232)" stroke-width="1.0376" stroke-miterlimit="10"/>
<path opacity="0.71" d="M461.563 510.112C467.351 510.334 440.47 508.09 409.023 525.001C390.693 534.857 367.683 543.737 348.12 540.656C338.95 539.147 330.193 535.746 322.406 530.668C299.604 516.549 285.395 492.722 268.184 471.472C252.791 452.446 236.559 430.433 216.598 410.714C207.89 402.081 199.151 394.075 190.379 386.696C126.927 333.454 62.5371 320.59 -18.7971 341.299C-61.9998 352.308 -103.338 371.659 -139.342 389.139C-151.365 394.952 -163.368 401.033 -175.544 406.715C-249.661 441.609 -329.662 465.944 -410.814 448.71C-422.642 446.186 -434.321 443.251 -446.044 440.018C-470.783 433.153 -495.831 425.322 -523.101 420.954C-548.301 416.897 -572.539 416.073 -595.808 415.047C-646.838 412.757 -687.254 407.767 -734.633 389.984L-737.453 388.927C-772.256 375.699 -810.533 353.941 -842.979 336.427" stroke="url(#paint21_linear_491_2232)" stroke-width="1.08476" stroke-miterlimit="10"/>
<path opacity="0.72" d="M462.903 504.5C468.839 502.92 441.471 498.862 409.777 515.281C391.349 524.834 368.184 533.493 348.696 529.817C339.576 528.043 330.941 524.332 323.373 518.935C301.361 503.928 288.011 479.198 271.443 457.652C256.563 438.23 240.627 415.992 220.735 396.259C212.032 387.589 203.29 379.602 194.51 372.297C130.985 319.486 65.5856 309.055 -15.196 331.203C-58.2636 343.034 -99.3606 363.021 -134.86 380.758C-146.798 386.716 -158.731 392.963 -170.844 398.686C-244.697 434.158 -324.692 458.257 -405.755 439.721C-417.529 437.023 -429.158 433.897 -440.809 430.486C-465.488 423.301 -490.414 415.192 -517.693 410.862C-542.897 406.878 -567.105 406.373 -590.325 405.843C-641.265 404.673 -682.08 401.754 -729.797 385.036L-732.641 384.038C-767.757 371.472 -806.112 349.947 -838.131 331.711" stroke="url(#paint22_linear_491_2232)" stroke-width="1.12249" stroke-miterlimit="10"/>
<path opacity="0.74" d="M464.24 498.871C470.327 495.506 442.456 489.637 410.55 505.558C392.028 514.841 368.699 523.317 349.297 519.1C340.206 517.078 331.678 513.058 324.33 507.329C302.97 491.463 290.659 465.83 274.73 443.97C260.298 424.184 244.71 401.711 224.923 382.047C216.224 373.339 207.48 365.37 198.691 358.14C134.99 305.781 68.7538 297.748 -11.5407 321.367C-54.5086 333.936 -95.3365 354.609 -130.515 372.676C-142.372 378.762 -154.238 385.067 -166.277 390.974C-239.847 427.02 -319.879 450.945 -400.79 431.058C-412.556 428.051 -424.086 424.705 -435.666 421.117C-460.151 413.567 -484.958 405.071 -512.244 400.797C-537.444 396.83 -561.643 396.63 -584.875 396.645C-635.744 396.599 -676.958 395.752 -724.995 380.095L-727.874 379.104C-763.226 367.31 -801.602 345.862 -833.273 326.957" stroke="url(#paint23_linear_491_2232)" stroke-width="1.16022" stroke-miterlimit="10"/>
<path opacity="0.75" d="M465.581 493.26C471.726 488.093 443.454 480.391 411.305 495.839C392.677 504.782 369.194 513.038 349.888 508.33C340.849 506.038 332.454 501.703 325.347 495.657C304.715 478.953 293.291 452.376 277.99 430.241C264.05 410.045 248.776 387.343 229.057 367.574C220.735 359.171 211.972 351.216 202.806 343.744C138.962 291.831 71.6685 286.26 -7.97309 311.279C-50.7497 324.766 -91.3936 345.888 -126.132 364.334C-137.905 370.565 -149.697 376.963 -161.704 382.936C-234.958 419.548 -314.96 443.269 -395.769 421.968C-407.441 418.978 -418.952 415.375 -430.43 411.585C-454.917 403.673 -479.571 394.965 -506.867 390.729C-532.073 386.818 -556.238 386.954 -579.477 387.459C-630.308 388.544 -671.9 389.781 -720.251 375.22L-723.125 374.337C-758.738 363.284 -797.258 342.01 -828.453 322.356" stroke="url(#paint24_linear_491_2232)" stroke-width="1.19795" stroke-miterlimit="10"/>
<path opacity="0.77" d="M466.92 487.648C473.282 480.664 444.438 471.166 412.073 486.099C393.332 494.758 369.694 502.793 350.494 497.557C341.48 495.004 333.197 490.35 326.324 483.976C306.42 466.433 295.938 438.918 281.262 416.49C267.804 395.922 252.861 372.989 233.212 353.206C224.913 344.785 216.145 336.842 206.95 329.414C142.937 277.988 74.7724 274.821 -4.32005 301.263C-46.9962 315.578 -87.3847 337.407 -121.698 356.071C-133.408 362.434 -145.123 368.942 -157.077 374.994C-230.059 412.219 -310.039 435.79 -390.834 413.167C-402.47 409.916 -413.951 406.199 -425.364 402.287C-449.605 393.908 -474.123 384.9 -501.446 380.706C-526.645 376.829 -550.793 377.306 -574.052 378.321C-624.815 380.512 -666.785 383.835 -715.481 370.303L-718.379 369.479C-754.218 359.161 -792.841 337.999 -823.615 317.678" stroke="url(#paint25_linear_491_2232)" stroke-width="1.24512" stroke-miterlimit="10"/>
<path opacity="0.78" d="M468.261 482.036C474.754 473.254 445.441 461.938 412.829 476.379C394.005 484.73 370.185 492.496 351.082 486.77C342.105 483.947 333.947 478.986 327.306 472.311C308.036 453.913 298.577 425.499 284.488 402.767C271.574 381.779 256.931 358.639 237.368 338.837C229.097 330.403 220.325 322.477 211.1 315.101C146.911 264.128 77.8329 263.339 -0.696082 291.271C-43.2653 306.36 -83.3919 328.839 -117.28 347.812C-128.908 354.302 -140.564 360.925 -152.445 367.07C-225.162 404.872 -305.136 428.207 -385.821 404.296C-397.372 400.846 -408.802 396.938 -420.207 392.807C-444.33 384.042 -468.798 374.753 -496.048 370.562C-521.247 366.775 -545.423 367.547 -568.581 369.047C-619.287 372.383 -661.638 377.774 -710.658 365.286L-713.58 364.521C-749.659 354.958 -788.357 333.956 -818.724 312.899" stroke="url(#paint26_linear_491_2232)" stroke-width="1.28285" stroke-miterlimit="10"/>
<path opacity="0.8" d="M469.546 476.418C476.19 465.851 446.391 452.72 413.549 466.667C394.605 474.7 370.652 482.348 351.61 475.959C342.664 472.862 334.628 467.586 328.226 460.605C309.628 441.362 301.166 412.017 287.733 388.968C275.284 367.612 260.954 344.244 241.458 324.501C233.244 316.037 224.489 308.116 215.249 300.788C150.89 250.211 80.9179 251.977 2.9236 281.262C-39.5214 297.12 -79.3442 320.277 -112.869 339.518C-124.41 346.171 -136.005 352.907 -147.834 359.132C-220.317 397.536 -300.241 420.68 -380.84 395.359C-392.424 391.753 -403.704 387.615 -415.054 383.31C-439.056 374.176 -463.318 364.573 -490.641 360.47C-515.839 356.683 -539.943 357.801 -563.225 359.833C-613.883 364.262 -656.609 371.755 -705.967 360.331L-708.891 359.639C-745.218 350.796 -784.011 329.941 -813.966 308.184" stroke="url(#paint27_linear_491_2232)" stroke-width="1.32058" stroke-miterlimit="10"/>
<path opacity="0.81" d="M470.955 470.792C477.726 458.409 447.427 443.484 414.356 456.937C395.312 464.665 371.209 472.11 352.262 465.231C343.34 461.855 335.425 456.256 329.266 448.965C311.344 428.894 303.869 398.566 291.072 375.276C279.116 353.51 265.085 329.934 245.64 310C237.44 301.588 228.671 293.753 219.394 286.548C154.8 236.491 84.0095 240.65 6.52533 271.257C-35.7529 288.002 -75.383 311.823 -108.431 331.363C-119.891 338.143 -131.426 344.994 -143.209 351.263C-215.352 390.175 -295.343 413.17 -375.835 386.543C-387.334 382.739 -398.598 378.417 -409.88 373.917C-433.739 364.428 -457.883 354.529 -485.185 350.439C-510.366 346.649 -534.429 348.048 -557.748 350.684C-608.352 356.24 -651.459 365.801 -701.189 355.449C-702.168 355.256 -703.082 355.03 -704.155 354.82C-740.725 346.715 -779.593 326.02 -809.12 303.541" stroke="url(#paint28_linear_491_2232)" stroke-width="1.36774" stroke-miterlimit="10"/>
<path opacity="0.82" d="M472.303 465.215C479.224 451.12 448.437 434.29 415.133 447.231C395.993 454.672 371.718 461.9 352.875 454.475C343.97 450.836 336.172 444.927 330.256 437.335C312.989 416.422 306.543 385.139 294.353 361.56C282.914 339.415 269.18 315.615 249.818 295.736C241.634 287.248 232.848 279.365 223.526 272.149C158.863 222.539 87.0703 229.167 10.146 261.248C-32.0108 278.835 -71.387 303.182 -104.034 323C-115.427 329.929 -126.903 336.803 -138.591 343.269C-210.458 382.81 -290.43 405.639 -370.846 377.641C-382.357 373.695 -393.502 369.076 -404.712 364.489C-428.443 354.576 -452.46 344.416 -479.824 340.375C-505.023 336.588 -529.082 338.438 -552.384 341.504C-602.937 348.171 -646.418 359.834 -696.403 350.512C-697.389 350.344 -698.386 350.154 -699.393 349.942C-736.203 342.591 -775.142 322.074 -804.266 298.842" stroke="url(#paint29_linear_491_2232)" stroke-width="1.40547" stroke-miterlimit="10"/>
<path opacity="0.84" d="M473.624 459.517C480.685 443.585 449.422 424.993 415.872 437.443C396.636 444.596 372.207 451.603 353.449 443.636C344.564 439.711 336.888 433.478 331.218 425.584C314.588 403.743 309.143 371.636 297.596 347.761C286.667 325.202 273.233 301.195 253.953 281.281C245.799 272.811 237.014 264.973 227.674 257.836C162.838 208.696 90.1534 217.805 13.7674 251.256C-28.2508 269.682 -67.4624 294.646 -99.6146 314.758C-110.927 321.815 -122.319 328.834 -133.974 335.366C-205.56 375.481 -285.55 398.133 -365.843 368.735C-377.255 364.57 -388.391 359.823 -399.562 354.993C-423.188 344.714 -447.052 334.25 -474.426 330.248C-499.602 326.565 -523.664 328.669 -546.981 332.263C-597.466 340.035 -641.337 353.732 -691.645 345.543L-694.641 345.029C-731.698 338.399 -770.692 317.965 -799.444 294.095" stroke="url(#paint30_linear_491_2232)" stroke-width="1.4432" stroke-miterlimit="10"/>
<path opacity="0.85" d="M474.973 453.94C482.105 436.185 450.415 415.802 416.653 427.754C397.3 434.607 372.72 441.41 354.048 432.901C345.185 428.687 337.635 422.137 332.208 413.954C316.251 391.358 311.852 358.202 300.861 334.048C290.448 311.111 277.31 286.879 258.1 266.95C249.977 258.437 241.177 250.598 231.786 243.513C166.808 194.818 93.2042 206.36 17.36 241.199C-24.5195 260.464 -63.4382 286.053 -95.2241 306.45C-106.452 313.652 -117.78 320.803 -129.387 327.397C-200.673 368.082 -280.678 390.574 -360.937 359.868C-372.19 355.597 -383.272 350.676 -394.386 345.599C-417.874 334.949 -441.618 324.189 -468.999 320.242C-494.186 316.597 -518.217 319.02 -541.537 323.121C-592.04 332.018 -636.226 347.841 -686.847 340.748L-689.867 340.293C-727.198 334.425 -766.292 314.12 -794.578 289.539" stroke="url(#paint31_linear_491_2232)" stroke-width="1.48094" stroke-miterlimit="10"/>
<path opacity="0.87" d="M476.329 448.325C483.654 428.723 451.37 406.529 417.424 418.031C397.972 424.579 373.219 431.165 354.661 422.072C345.786 417.609 338.33 410.755 333.132 402.283C317.835 378.863 314.457 344.717 304.098 320.305C294.216 297.058 281.339 272.519 262.219 252.589C254.125 244.041 245.316 236.201 235.888 229.155C170.733 180.913 96.2666 194.985 20.9398 231.18C-20.7174 251.338 -59.3641 277.54 -90.78 298.239C-101.892 305.562 -113.195 312.834 -124.729 319.521C-195.746 360.801 -275.774 383.099 -355.85 351.017C-367.157 346.487 -378.175 341.353 -389.221 336.172C-412.59 325.135 -436.199 314.076 -463.603 310.098C-488.783 306.488 -512.801 309.233 -536.138 313.861C-586.538 323.858 -631.133 341.791 -682.114 335.658C-683.114 335.541 -684.134 335.41 -685.14 335.258C-722.681 330.121 -761.901 309.987 -789.763 284.757" stroke="url(#paint32_linear_491_2232)" stroke-width="1.5281" stroke-miterlimit="10"/>
<path opacity="0.88" d="M477.648 442.699C485.097 421.264 452.4 397.349 418.124 408.305C398.576 414.566 373.673 420.948 355.189 411.352C346.352 406.568 339.046 399.38 334.114 390.618C319.503 366.332 317.174 331.245 307.409 306.564C298.037 282.813 285.478 258.154 266.441 238.189C258.371 229.658 249.556 221.864 240.103 214.901C174.79 167.108 99.414 183.574 24.5951 221.253C-16.9897 242.192 -55.451 269.024 -86.4003 289.97C-97.4764 297.466 -108.671 304.824 -120.152 311.59C-190.87 353.44 -270.921 375.544 -350.889 342.157C-362.146 337.435 -373.114 332.11 -384.074 326.73C-407.343 315.311 -430.819 303.935 -458.229 300.103C-483.398 296.545 -507.403 299.613 -530.76 304.751C-581.109 315.858 -626.082 335.876 -677.366 330.801L-680.43 330.481C-718.217 326.064 -757.517 306.073 -784.979 280.073" stroke="url(#paint33_linear_491_2232)" stroke-width="1.56583" stroke-miterlimit="10"/>
<path opacity="0.9" d="M478.988 437.088C486.6 413.919 453.417 388.189 418.931 398.575C399.272 404.479 374.229 410.71 355.828 400.554C346.572 395.469 340.148 387.86 335.075 378.94C321.119 353.812 319.871 317.849 310.686 292.83C301.848 268.697 289.547 243.803 270.579 223.824C262.51 215.277 253.667 207.498 244.162 200.588C178.693 153.262 102.458 172.275 28.1799 211.251C-13.2663 233.029 -51.4728 260.476 -82.0176 281.718C-93.0467 289.439 -104.148 296.813 -115.572 303.677C-186.022 346.121 -266.042 368.111 -345.916 333.275C-357.136 328.383 -368.039 322.846 -378.946 317.292C-402.071 305.518 -425.356 293.849 -452.836 290.031C-478.015 286.511 -501.989 289.898 -525.345 295.561C-575.629 307.847 -621.084 329.972 -672.617 325.87L-675.704 325.61C-713.666 321.916 -753.044 302.068 -780.179 275.385" stroke="url(#paint34_linear_491_2232)" stroke-width="1.60356" stroke-miterlimit="10"/>
<path opacity="0.91" d="M480.347 431.472C488.085 406.488 454.391 378.912 419.703 388.852C399.939 394.507 374.731 400.465 356.419 389.784C347.223 384.47 340.907 376.514 336.126 367.261C322.718 341.297 322.537 304.387 313.96 279.079C305.638 254.568 293.633 229.449 274.749 209.525C266.739 200.933 257.914 193.14 248.398 186.257C182.669 139.419 105.611 160.809 31.8692 201.228C-9.41741 223.858 -47.4039 251.928 -77.5478 273.448C-88.4377 281.23 -99.4848 288.864 -110.819 295.727C-181.039 338.757 -261.091 360.59 -340.851 324.393C-352.038 319.313 -362.856 313.578 -373.709 307.85C-396.814 295.656 -419.93 283.753 -447.351 279.959C-472.526 276.457 -496.488 280.166 -519.86 286.356C-570.112 299.666 -615.833 323.889 -667.78 320.922C-668.803 320.864 -669.843 320.81 -670.873 320.717C-709.133 317.844 -748.621 298.074 -775.187 270.658" stroke="url(#paint35_linear_491_2232)" stroke-width="1.64129" stroke-miterlimit="10"/>
<path opacity="0.93" d="M481.682 425.844C489.538 399.082 455.395 369.701 420.388 379.147C400.541 384.494 375.165 390.252 356.956 379.026C347.851 373.367 341.648 365.17 337.103 355.579C324.298 328.784 325.222 290.94 317.214 265.332C309.444 240.435 297.733 215.165 278.868 195.073C270.891 186.494 262.066 178.746 252.529 171.948C186.727 125.54 108.723 149.495 35.4876 191.219C-5.65668 214.706 -43.3884 243.391 -73.1314 265.189C-83.9405 273.099 -94.9458 280.761 -106.331 287.815C-176.143 331.41 -256.221 353.122 -335.865 315.491C-346.998 310.237 -357.769 304.294 -368.55 298.388C-391.44 285.842 -414.514 273.622 -441.945 269.867C-467.126 266.42 -491.057 270.449 -514.45 277.149C-564.651 291.569 -610.68 317.862 -663.013 315.988L-666.131 315.842C-704.649 313.638 -744.187 294.149 -770.409 265.956" stroke="url(#paint36_linear_491_2232)" stroke-width="1.68845" stroke-miterlimit="10"/>
<path opacity="0.94" d="M483.023 420.232C491.044 391.664 456.412 360.542 421.231 369.41C401.278 374.508 375.74 380.01 357.609 368.207C348.488 362.299 342.438 353.799 338.099 343.894C325.946 316.24 327.871 277.482 320.505 251.578C313.252 226.301 301.777 200.693 283.021 180.688C275.075 172.104 266.241 164.39 256.668 157.674C190.736 111.763 111.767 138.106 39.1294 181.314C-1.87694 205.549 -39.3714 234.854 -68.7133 256.929C-79.438 264.985 -90.3871 272.743 -101.646 279.879C-171.246 324.063 -251.343 345.598 -330.866 306.641C-341.948 301.196 -352.652 295.057 -363.435 288.971C-386.185 276.052 -409.14 263.537 -436.581 259.82C-461.756 256.408 -485.691 260.763 -509.082 267.987C-559.236 283.499 -605.689 311.924 -658.294 311.082L-661.435 310.996C-700.193 309.546 -739.81 290.11 -765.673 261.3" stroke="url(#paint37_linear_491_2232)" stroke-width="1.72619" stroke-miterlimit="10"/>
<path opacity="0.96" d="M484.363 414.62C492.48 384.261 457.393 351.3 421.982 359.673C401.933 364.484 376.241 369.765 358.203 357.455C349.132 351.265 343.225 342.5 339.081 332.229C327.538 303.779 330.596 264.044 323.765 237.848C317.052 212.133 305.822 186.402 287.193 166.316C279.243 157.703 270.371 149.993 260.737 143.323C194.621 97.8305 114.883 126.72 42.679 171.229C1.85382 196.421 -35.4241 226.331 -64.3514 248.664C-74.9881 256.881 -85.8773 264.754 -97.0839 271.97C-166.384 316.724 -246.51 338.12 -325.909 297.763C-336.955 292.148 -347.594 285.797 -358.268 279.544C-380.911 266.186 -403.719 253.424 -431.187 249.748C-456.351 246.388 -480.281 250.941 -503.646 258.81C-553.806 275.336 -600.601 305.929 -653.526 306.148C-654.573 306.15 -655.62 306.151 -656.674 306.117C-695.675 305.406 -735.406 286.119 -760.786 256.594" stroke="url(#paint38_linear_491_2232)" stroke-width="1.76392" stroke-miterlimit="10"/>
<path opacity="0.97" d="M485.704 409.009C493.931 376.837 458.395 342.072 422.755 349.95C402.585 354.442 376.746 359.538 358.881 346.667C349.776 340.231 343.97 331.084 340.063 320.565C329.126 291.211 333.282 250.597 327.042 224.115C320.884 198.031 309.944 172.041 291.346 152.02C283.43 143.399 274.559 135.708 264.904 129.097C198.68 83.9523 118.065 115.302 46.3854 161.203C5.71984 187.246 -31.3207 217.776 -59.8817 240.394C-70.4167 248.753 -81.2669 256.726 -92.3999 264.035C-161.432 309.383 -241.659 330.729 -320.866 288.868C-331.871 283.099 -342.447 276.536 -353.052 270.088C-375.563 256.414 -398.235 243.352 -425.724 239.663C-450.88 236.337 -474.779 241.299 -498.179 249.61C-548.281 267.28 -595.461 299.923 -648.689 301.2L-651.875 301.249C-691.119 301.275 -730.932 282.114 -755.899 251.889" stroke="url(#paint39_linear_491_2232)" stroke-width="1.80165" stroke-miterlimit="10"/>
<path opacity="0.99" d="M487.04 403.38C495.47 369.412 459.379 332.847 423.509 340.231C403.265 344.449 377.25 349.31 359.415 335.891C350.398 329.184 344.715 319.758 341.04 308.883C330.668 278.689 335.972 237.166 330.297 210.368C324.777 183.88 314.019 157.725 295.483 137.565C287.602 128.927 278.73 121.25 269.052 114.694C202.604 70.12 121.166 103.937 49.9214 151.229C9.43999 178.156 -27.3632 209.305 -55.5167 232.145C-65.9637 240.667 -76.7612 248.719 -87.8416 256.107C-156.588 302.047 -236.82 323.195 -315.923 280.011C-326.878 274.051 -337.39 267.276 -347.941 260.654C-370.313 246.607 -392.894 233.201 -420.361 229.616C-445.511 226.325 -469.414 231.613 -492.816 240.43C-542.815 259.2 -590.352 293.942 -643.922 296.266C-644.993 296.327 -646.054 296.349 -647.132 296.375C-686.602 297.134 -726.507 278.137 -751.064 247.194" stroke="url(#paint40_linear_491_2232)" stroke-width="1.84881" stroke-miterlimit="10"/>
<path d="M488.38 397.769C496.958 361.999 460.291 323.619 424.282 330.508C403.913 334.391 377.751 339.065 359.971 325.129C326.264 298.622 340.51 233.473 333.608 196.627C328.526 169.813 318.094 143.319 299.638 123.197C194.158 8.01874 31.9817 154.552 -51.0475 223.875C-125.756 286.169 -219.137 322.8 -310.88 271.115C-344.96 251.917 -374.477 224.718 -414.898 219.53C-494.85 209.186 -561.813 288.465 -642.371 291.496C-662.306 292.077 -682.098 287.942 -700.141 279.428C-718.183 270.914 -733.968 258.26 -746.212 242.495" stroke="url(#paint41_linear_491_2232)" stroke-width="1.88654" stroke-miterlimit="10"/>
</g>
<defs>
<linearGradient id="paint0_linear_491_2232" x1="372.042" y1="410.138" x2="-853.774" y2="756.461" gradientUnits="userSpaceOnUse">
<stop stop-color="#B89346"/>
<stop offset="0.45" stop-color="#EADAB8"/>
<stop offset="1" stop-color="#724E1A"/>
</linearGradient>
<linearGradient id="paint1_linear_491_2232" x1="373.636" y1="403.834" x2="-850.774" y2="747.456" gradientUnits="userSpaceOnUse">
<stop stop-color="#B89346"/>
<stop offset="0.45" stop-color="#EADAB8"/>
<stop offset="1" stop-color="#724E1A"/>
</linearGradient>
<linearGradient id="paint2_linear_491_2232" x1="376.046" y1="397.799" x2="-848.884" y2="743.738" gradientUnits="userSpaceOnUse">
<stop stop-color="#B89346"/>
<stop offset="0.45" stop-color="#EADAB8"/>
<stop offset="1" stop-color="#724E1A"/>
</linearGradient>
<linearGradient id="paint3_linear_491_2232" x1="376.846" y1="391.295" x2="-844.743" y2="729.765" gradientUnits="userSpaceOnUse">
<stop stop-color="#B89346"/>
<stop offset="0.45" stop-color="#EADAB8"/>
<stop offset="1" stop-color="#724E1A"/>
</linearGradient>
<linearGradient id="paint4_linear_491_2232" x1="378.447" y1="385.082" x2="-841.805" y2="720.892" gradientUnits="userSpaceOnUse">
<stop stop-color="#B89346"/>
<stop offset="0.45" stop-color="#EADAB8"/>
<stop offset="1" stop-color="#724E1A"/>
</linearGradient>
<linearGradient id="paint5_linear_491_2232" x1="380.07" y1="378.872" x2="-838.701" y2="711.99" gradientUnits="userSpaceOnUse">
<stop stop-color="#B89346"/>
<stop offset="0.45" stop-color="#EADAB8"/>
<stop offset="1" stop-color="#724E1A"/>
</linearGradient>
<linearGradient id="paint6_linear_491_2232" x1="381.689" y1="372.693" x2="-835.597" y2="703.125" gradientUnits="userSpaceOnUse">
<stop stop-color="#B89346"/>
<stop offset="0.45" stop-color="#EADAB8"/>
<stop offset="1" stop-color="#724E1A"/>
</linearGradient>
<linearGradient id="paint7_linear_491_2232" x1="383.355" y1="366.503" x2="-832.469" y2="694.491" gradientUnits="userSpaceOnUse">
<stop stop-color="#B89346"/>
<stop offset="0.45" stop-color="#EADAB8"/>
<stop offset="1" stop-color="#724E1A"/>
</linearGradient>
<linearGradient id="paint8_linear_491_2232" x1="385.67" y1="360.333" x2="-829.66" y2="690.545" gradientUnits="userSpaceOnUse">
<stop stop-color="#B89346"/>
<stop offset="0.45" stop-color="#EADAB8"/>
<stop offset="1" stop-color="#724E1A"/>
</linearGradient>
<linearGradient id="paint9_linear_491_2232" x1="386.629" y1="354.221" x2="-826.23" y2="676.877" gradientUnits="userSpaceOnUse">
<stop stop-color="#B89346"/>
<stop offset="0.45" stop-color="#EADAB8"/>
<stop offset="1" stop-color="#724E1A"/>
</linearGradient>
<linearGradient id="paint10_linear_491_2232" x1="388.302" y1="348.092" x2="-823.016" y2="668.078" gradientUnits="userSpaceOnUse">
<stop stop-color="#B89346"/>
<stop offset="0.45" stop-color="#EADAB8"/>
<stop offset="1" stop-color="#724E1A"/>
</linearGradient>
<linearGradient id="paint11_linear_491_2232" x1="390.003" y1="342.045" x2="-819.887" y2="659.398" gradientUnits="userSpaceOnUse">
<stop stop-color="#B89346"/>
<stop offset="0.45" stop-color="#EADAB8"/>
<stop offset="1" stop-color="#724E1A"/>
</linearGradient>
<linearGradient id="paint12_linear_491_2232" x1="391.827" y1="336.038" x2="-817.808" y2="651.802" gradientUnits="userSpaceOnUse">
<stop stop-color="#B89346"/>
<stop offset="0.45" stop-color="#EADAB8"/>
<stop offset="1" stop-color="#724E1A"/>
</linearGradient>
<linearGradient id="paint13_linear_491_2232" x1="393.706" y1="329.768" x2="-813.772" y2="644.969" gradientUnits="userSpaceOnUse">
<stop stop-color="#B89346"/>
<stop offset="0.45" stop-color="#EADAB8"/>
<stop offset="1" stop-color="#724E1A"/>
</linearGradient>
<linearGradient id="paint14_linear_491_2232" x1="395.041" y1="323.714" x2="-810.121" y2="633.324" gradientUnits="userSpaceOnUse">
<stop stop-color="#B89346"/>
<stop offset="0.45" stop-color="#EADAB8"/>
<stop offset="1" stop-color="#724E1A"/>
</linearGradient>
<linearGradient id="paint15_linear_491_2232" x1="396.395" y1="318.076" x2="-809.467" y2="620.049" gradientUnits="userSpaceOnUse">
<stop stop-color="#B89346"/>
<stop offset="0.45" stop-color="#EADAB8"/>
<stop offset="1" stop-color="#724E1A"/>
</linearGradient>
<linearGradient id="paint16_linear_491_2232" x1="398.346" y1="311.815" x2="-805.491" y2="613.28" gradientUnits="userSpaceOnUse">
<stop stop-color="#B89346"/>
<stop offset="0.45" stop-color="#EADAB8"/>
<stop offset="1" stop-color="#724E1A"/>
</linearGradient>
<linearGradient id="paint17_linear_491_2232" x1="400.305" y1="305.403" x2="-800.133" y2="607.339" gradientUnits="userSpaceOnUse">
<stop stop-color="#B89346"/>
<stop offset="0.45" stop-color="#EADAB8"/>
<stop offset="1" stop-color="#724E1A"/>
</linearGradient>
<linearGradient id="paint18_linear_491_2232" x1="402.085" y1="299.324" x2="-796.75" y2="598.635" gradientUnits="userSpaceOnUse">
<stop stop-color="#B89346"/>
<stop offset="0.45" stop-color="#EADAB8"/>
<stop offset="1" stop-color="#724E1A"/>
</linearGradient>
<linearGradient id="paint19_linear_491_2232" x1="403.866" y1="293.219" x2="-793.482" y2="589.943" gradientUnits="userSpaceOnUse">
<stop stop-color="#B89346"/>
<stop offset="0.45" stop-color="#EADAB8"/>
<stop offset="1" stop-color="#724E1A"/>
</linearGradient>
<linearGradient id="paint20_linear_491_2232" x1="406.049" y1="286.815" x2="-789.398" y2="586.18" gradientUnits="userSpaceOnUse">
<stop stop-color="#B89346"/>
<stop offset="0.45" stop-color="#EADAB8"/>
<stop offset="1" stop-color="#724E1A"/>
</linearGradient>
<linearGradient id="paint21_linear_491_2232" x1="407.267" y1="281.491" x2="-788.658" y2="568.327" gradientUnits="userSpaceOnUse">
<stop stop-color="#B89346"/>
<stop offset="0.45" stop-color="#EADAB8"/>
<stop offset="1" stop-color="#724E1A"/>
</linearGradient>
<linearGradient id="paint22_linear_491_2232" x1="409.335" y1="274.977" x2="-783.211" y2="564.119" gradientUnits="userSpaceOnUse">
<stop stop-color="#B89346"/>
<stop offset="0.45" stop-color="#EADAB8"/>
<stop offset="1" stop-color="#724E1A"/>
</linearGradient>
<linearGradient id="paint23_linear_491_2232" x1="411.378" y1="269.699" x2="-779.642" y2="556.274" gradientUnits="userSpaceOnUse">
<stop stop-color="#B89346"/>
<stop offset="0.45" stop-color="#EADAB8"/>
<stop offset="1" stop-color="#724E1A"/>
</linearGradient>
<linearGradient id="paint24_linear_491_2232" x1="413.813" y1="265.691" x2="-775.8" y2="551.015" gradientUnits="userSpaceOnUse">
<stop stop-color="#B89346"/>
<stop offset="0.45" stop-color="#EADAB8"/>
<stop offset="1" stop-color="#724E1A"/>
</linearGradient>
<linearGradient id="paint25_linear_491_2232" x1="416.066" y1="261.82" x2="-771.597" y2="543.429" gradientUnits="userSpaceOnUse">
<stop stop-color="#B89346"/>
<stop offset="0.45" stop-color="#EADAB8"/>
<stop offset="1" stop-color="#724E1A"/>
</linearGradient>
<linearGradient id="paint26_linear_491_2232" x1="418.438" y1="257.874" x2="-767.667" y2="536.931" gradientUnits="userSpaceOnUse">
<stop stop-color="#B89346"/>
<stop offset="0.45" stop-color="#EADAB8"/>
<stop offset="1" stop-color="#724E1A"/>
</linearGradient>
<linearGradient id="paint27_linear_491_2232" x1="420.681" y1="254.36" x2="-765.048" y2="526.264" gradientUnits="userSpaceOnUse">
<stop stop-color="#B89346"/>
<stop offset="0.45" stop-color="#EADAB8"/>
<stop offset="1" stop-color="#724E1A"/>
</linearGradient>
<linearGradient id="paint28_linear_491_2232" x1="423.094" y1="250.254" x2="-760.567" y2="521.684" gradientUnits="userSpaceOnUse">
<stop stop-color="#B89346"/>
<stop offset="0.45" stop-color="#EADAB8"/>
<stop offset="1" stop-color="#724E1A"/>
</linearGradient>
<linearGradient id="paint29_linear_491_2232" x1="425.504" y1="246.049" x2="-755.588" y2="517.632" gradientUnits="userSpaceOnUse">
<stop stop-color="#B89346"/>
<stop offset="0.45" stop-color="#EADAB8"/>
<stop offset="1" stop-color="#724E1A"/>
</linearGradient>
<linearGradient id="paint30_linear_491_2232" x1="427.83" y1="242.119" x2="-751.528" y2="511.14" gradientUnits="userSpaceOnUse">
<stop stop-color="#B89346"/>
<stop offset="0.45" stop-color="#EADAB8"/>
<stop offset="1" stop-color="#724E1A"/>
</linearGradient>
<linearGradient id="paint31_linear_491_2232" x1="430.211" y1="238.245" x2="-747.626" y2="504.543" gradientUnits="userSpaceOnUse">
<stop stop-color="#B89346"/>
<stop offset="0.45" stop-color="#EADAB8"/>
<stop offset="1" stop-color="#724E1A"/>
</linearGradient>
<linearGradient id="paint32_linear_491_2232" x1="432.548" y1="234.281" x2="-743.481" y2="498.232" gradientUnits="userSpaceOnUse">
<stop stop-color="#B89346"/>
<stop offset="0.45" stop-color="#EADAB8"/>
<stop offset="1" stop-color="#724E1A"/>
</linearGradient>
<linearGradient id="paint33_linear_491_2232" x1="434.887" y1="230.35" x2="-739.478" y2="491.778" gradientUnits="userSpaceOnUse">
<stop stop-color="#B89346"/>
<stop offset="0.45" stop-color="#EADAB8"/>
<stop offset="1" stop-color="#724E1A"/>
</linearGradient>
<linearGradient id="paint34_linear_491_2232" x1="437.204" y1="226.636" x2="-735.929" y2="483.349" gradientUnits="userSpaceOnUse">
<stop stop-color="#B89346"/>
<stop offset="0.45" stop-color="#EADAB8"/>
<stop offset="1" stop-color="#724E1A"/>
</linearGradient>
<linearGradient id="paint35_linear_491_2232" x1="439.531" y1="222.482" x2="-731.37" y2="478.858" gradientUnits="userSpaceOnUse">
<stop stop-color="#B89346"/>
<stop offset="0.45" stop-color="#EADAB8"/>
<stop offset="1" stop-color="#724E1A"/>
</linearGradient>
<linearGradient id="paint36_linear_491_2232" x1="441.836" y1="218.511" x2="-727.203" y2="472.558" gradientUnits="userSpaceOnUse">
<stop stop-color="#B89346"/>
<stop offset="0.45" stop-color="#EADAB8"/>
<stop offset="1" stop-color="#724E1A"/>
</linearGradient>
<linearGradient id="paint37_linear_491_2232" x1="444.111" y1="214.174" x2="-722.339" y2="469.425" gradientUnits="userSpaceOnUse">
<stop stop-color="#B89346"/>
<stop offset="0.45" stop-color="#EADAB8"/>
<stop offset="1" stop-color="#724E1A"/>
</linearGradient>
<linearGradient id="paint38_linear_491_2232" x1="446.425" y1="210.641" x2="-719.034" y2="459.657" gradientUnits="userSpaceOnUse">
<stop stop-color="#B89346"/>
<stop offset="0.45" stop-color="#EADAB8"/>
<stop offset="1" stop-color="#724E1A"/>
</linearGradient>
<linearGradient id="paint39_linear_491_2232" x1="448.73" y1="206.705" x2="-714.862" y2="453.202" gradientUnits="userSpaceOnUse">
<stop stop-color="#B89346"/>
<stop offset="0.45" stop-color="#EADAB8"/>
<stop offset="1" stop-color="#724E1A"/>
</linearGradient>
<linearGradient id="paint40_linear_491_2232" x1="451.073" y1="202.968" x2="-711.131" y2="445.152" gradientUnits="userSpaceOnUse">
<stop stop-color="#B89346"/>
<stop offset="0.45" stop-color="#EADAB8"/>
<stop offset="1" stop-color="#724E1A"/>
</linearGradient>
<linearGradient id="paint41_linear_491_2232" x1="453.274" y1="198.804" x2="-706.593" y2="440.501" gradientUnits="userSpaceOnUse">
<stop stop-color="#B89346"/>
<stop offset="0.45" stop-color="#EADAB8"/>
<stop offset="1" stop-color="#724E1A"/>
</linearGradient>
<clipPath id="clip0_491_2232">
<rect width="1416.71" height="737.215" fill="white" transform="matrix(-0.978971 0.204001 0.204001 0.978971 411.927 0.381348)"/>
</clipPath>
</defs>
</svg>
