<svg width="125" height="125" viewBox="0 0 125 125" fill="none" xmlns="http://www.w3.org/2000/svg">
<g clip-path="url(#clip0_345_2080)">
<path d="M62.3938 74.2288C63.8187 74.2231 65.2314 73.9657 66.5669 73.4686C67.8907 72.9756 69.112 72.242 70.169 71.3048C72.4684 73.844 74.8467 76.3169 77.3764 78.6069C77.2424 79.0434 77.1619 79.4946 77.1367 79.9506C77.1106 80.451 77.1327 80.9527 77.203 81.4489C77.3536 82.548 77.7633 83.5957 78.3984 84.5053C79.1956 85.5665 80.3657 86.2857 81.6725 86.5177C82.3479 86.6458 83.043 86.6264 83.7102 86.461C84.375 86.2927 84.9847 85.9546 85.4797 85.48C85.9388 84.997 86.2706 84.4073 86.4449 83.7641C86.6138 83.1134 86.6481 82.435 86.5458 81.7706C86.3571 80.4951 85.6949 79.3374 84.6911 78.528C83.7684 77.8378 82.6891 77.3869 81.5495 77.2159C80.5682 77.0449 79.5609 77.0988 78.6034 77.3736C76.2928 74.8493 73.8567 72.4428 71.3045 70.163C72.2407 69.107 72.9733 67.8867 73.4652 66.564C74.4828 63.8728 74.4828 60.9027 73.4652 58.2116C72.9733 56.8888 72.2407 55.6686 71.3045 54.6126C73.8567 52.3328 76.2928 49.9262 78.6034 47.402C79.0401 47.5355 79.4913 47.6159 79.9471 47.6417C80.4475 47.6695 80.9494 47.6473 81.4454 47.5755C82.5491 47.4337 83.6027 47.0292 84.5176 46.3958C85.5785 45.5983 86.2976 44.4283 86.53 43.1217C86.6606 42.4456 86.6423 41.7492 86.4764 41.0809C86.3226 40.4182 85.9884 39.8111 85.5107 39.3267C85.033 38.8424 84.4306 38.4997 83.7701 38.3367C83.1203 38.1683 82.4429 38.135 81.7798 38.2389C80.4994 38.4203 79.3347 39.0782 78.5183 40.081C77.8397 41.0012 77.3958 42.0731 77.225 43.2037C77.0544 44.1859 77.1073 45.1939 77.3796 46.1529C74.8562 48.4366 72.4747 50.9127 70.1722 53.455C69.1151 52.5178 67.8939 51.7842 66.57 51.2912C63.8792 50.2766 60.9108 50.2777 58.2207 51.2943C56.8962 51.7831 55.6746 52.5148 54.6186 53.4518C52.3389 50.8995 49.9324 48.4635 47.408 46.1529C47.5397 45.7158 47.6201 45.2649 47.6477 44.8092C47.674 44.3088 47.6518 43.8071 47.5815 43.3109C47.4377 42.2062 47.0322 41.1519 46.3986 40.2356C45.5999 39.1761 44.4305 38.4573 43.1245 38.2231C42.4478 38.0978 41.752 38.1182 41.0837 38.2831C40.4202 38.4347 39.812 38.7678 39.3268 39.2451C38.8417 39.7225 38.4988 40.3253 38.3364 40.9863C38.1701 41.6363 38.1369 42.3133 38.2386 42.9766C38.4271 44.2524 39.0879 45.4108 40.0902 46.2223C41.0143 46.9115 42.0947 47.3612 43.2349 47.5313C44.2149 47.7034 45.2213 47.6506 46.1778 47.3768C48.4647 49.9033 50.9376 52.2816 53.4799 54.5842C52.5418 55.6412 51.8091 56.8639 51.3193 58.1895C50.3057 60.8792 50.3057 63.8459 51.3193 66.5356C51.8091 67.8613 52.5418 69.0839 53.4799 70.1409C50.9407 72.4404 48.4678 74.8187 46.1778 77.3484C45.7404 77.2179 45.2897 77.1375 44.8341 77.1086C44.3337 77.0839 43.8321 77.1061 43.3359 77.1749C42.2358 77.3276 41.1874 77.7383 40.2763 78.3735C39.2158 79.1713 38.4968 80.3411 38.2639 81.6476C38.1375 82.3231 38.1569 83.0178 38.3206 83.6852C38.4927 84.3536 38.8325 84.967 39.3079 85.4674C39.7912 85.9271 40.3824 86.2579 41.027 86.4294C41.6775 86.5993 42.3561 86.6336 43.0205 86.5303C44.2945 86.3421 45.451 85.6811 46.2599 84.6788C46.9518 83.7571 47.4028 82.6772 47.572 81.5372C47.7463 80.5561 47.6923 79.548 47.4143 78.5911C49.9386 76.2805 52.3452 73.8444 54.6249 71.2922C55.6809 72.2293 56.9025 72.961 58.227 73.4497C59.559 73.9537 60.9697 74.2175 62.3938 74.2288ZM55.6122 69.1694C54.7204 68.2801 54.0129 67.2237 53.5301 66.0605C53.0474 64.8973 52.7989 63.6503 52.7989 62.3909C52.7989 61.1316 53.0474 59.8846 53.5301 58.7214C54.0129 57.5582 54.7204 56.5017 55.6122 55.6125C56.5011 54.7204 57.5576 54.0129 58.7209 53.5306C59.8842 53.0483 61.1313 52.8007 62.3906 52.8021C63.6654 52.7776 64.9321 53.0076 66.1169 53.4785C67.3017 53.9494 68.3807 54.6518 69.2908 55.5446C70.201 56.4374 70.9239 57.5028 71.4175 58.6783C71.911 59.8539 72.1652 61.116 72.1652 62.3909C72.1652 63.6659 71.911 64.928 71.4175 66.1036C70.9239 67.2791 70.201 68.3444 69.2908 69.2373C68.3807 70.1301 67.3017 70.8325 66.1169 71.3034C64.9321 71.7743 63.6654 72.0043 62.3906 71.9798C61.1313 71.9812 59.8842 71.7336 58.7209 71.2513C57.5576 70.7689 56.5011 70.0614 55.6122 69.1694Z" fill="#D2AC67" fill-opacity="0.5"/>
<path d="M64.5193 122.602C66.2762 119.382 69.2948 116.843 72.3481 114.092C75.4014 111.342 78.5241 108.414 80.5996 105.052C81.5213 103.621 82.1297 102.01 82.3849 100.327C82.5972 98.8931 82.3902 97.4285 81.7887 96.1097C82.6426 96.1443 83.4978 96.0904 84.3405 95.9489C85.2386 95.7917 86.1187 95.5455 86.968 95.2139C88.8253 94.4667 90.5112 93.3495 91.9233 91.9304C93.3257 90.5129 94.4304 88.8291 95.1722 86.9782C95.4998 86.1276 95.7459 85.2478 95.9071 84.3507C96.0462 83.5066 96.0991 82.6506 96.0648 81.7958C97.3885 82.4108 98.8634 82.6246 100.307 82.4109C101.996 82.1574 103.612 81.5513 105.051 80.6319C108.42 78.5627 111.376 75.4494 114.094 72.3898C116.813 69.3302 119.372 66.3116 122.605 64.5484C123.147 64.2519 123.44 63.3403 123.459 62.4319C123.478 61.5235 123.157 60.6024 122.605 60.3154C119.387 58.5112 116.858 55.4768 114.101 52.4424C111.344 49.408 108.426 46.2696 105.061 44.1909C103.628 43.271 102.018 42.6627 100.336 42.4056C98.8979 42.1939 97.4295 42.4043 96.109 43.0112C96.1425 42.1562 96.0875 41.3 95.945 40.4563C95.7879 39.5582 95.5417 38.6781 95.21 37.8288C94.4609 35.9742 93.3438 34.2905 91.9262 32.8794C90.5085 31.4683 88.8198 30.359 86.9617 29.6183C86.1124 29.2868 85.2323 29.0406 84.3342 28.8834C83.4903 28.7428 82.6341 28.69 81.7793 28.7257C82.3925 27.4014 82.6063 25.9271 82.3943 24.4832C82.1355 22.7847 81.5195 21.1603 80.587 19.7172C78.5178 16.3485 75.4077 13.3961 72.3449 10.674C69.2822 7.95186 66.2699 5.39377 64.5067 2.16699C64.2102 1.62446 63.2986 1.33111 62.3902 1.31219C61.4817 1.29326 60.5575 1.61184 60.2737 2.16699C58.5167 5.38747 55.495 7.92347 52.4417 10.674C49.3884 13.4245 46.2688 16.3548 44.187 19.7172C43.2656 21.1551 42.6593 22.7719 42.408 24.4612C42.1921 25.8997 42.4015 27.37 43.0105 28.691C42.1557 28.6568 41.2997 28.7096 40.4556 28.8487C39.5566 29.0078 38.6755 29.2551 37.8249 29.5868C35.9688 30.3335 34.2839 31.4497 32.8724 32.8676C31.461 34.2856 30.3526 35.9756 29.6144 37.8351C29.2848 38.6851 29.0387 39.565 28.8795 40.4626C28.7423 41.3069 28.6894 42.1628 28.7218 43.0176C27.3984 42.4052 25.925 42.1926 24.4825 42.4056C22.7916 42.6581 21.173 43.2643 19.7322 44.1846C16.3635 46.2538 13.4111 49.3639 10.6922 52.4298C7.9732 55.4957 5.41196 58.5049 2.18517 60.2681C1.63949 60.5614 1.34929 61.4762 1.33037 62.3846C1.31144 63.293 1.63002 64.2172 2.18517 64.5011C5.40565 66.258 7.94166 69.2798 10.6922 72.3331C13.4427 75.3864 16.3729 78.5059 19.7322 80.5846C21.165 81.5054 22.7763 82.1127 24.4604 82.3667C25.899 82.579 27.3682 82.3697 28.6902 81.7642C28.6545 82.619 28.7074 83.4753 28.848 84.3192C29.0071 85.2168 29.2532 86.0968 29.5829 86.9467C30.33 88.8034 31.4467 90.4889 32.8652 91.9008C34.2836 93.3128 35.9743 94.4217 37.8344 95.1603C38.6837 95.4917 39.5639 95.7378 40.4619 95.8952C41.305 96.0337 42.1598 96.0876 43.0137 96.0561C42.4004 97.3781 42.1866 98.8504 42.3986 100.292C42.6529 101.983 43.2589 103.601 44.1776 105.043C46.2467 108.411 49.36 111.367 52.4228 114.083C55.4855 116.798 58.4978 119.363 60.2642 122.593C60.5607 123.135 61.4691 123.425 62.3807 123.448C63.2923 123.47 64.2196 123.142 64.5193 122.602ZM97.7997 45.2949C98.4191 45.123 99.0651 45.0674 99.7048 45.1309C100.404 45.2017 101.091 45.3629 101.749 45.6103C102.494 45.8923 103.21 46.2485 103.884 46.6733C104.241 46.891 104.594 47.1244 104.947 47.3767C105.3 47.6291 105.635 47.894 105.972 48.1747C106.31 48.4555 106.657 48.752 106.975 49.0327C107.294 49.3134 107.606 49.6635 107.9 49.9569C108.515 50.572 109.101 51.1965 109.619 51.7958C111.306 53.6789 112.867 55.5998 114.464 57.4104C115.233 58.3188 116.031 59.1988 116.823 60.0347C117.586 60.8592 118.391 61.6436 119.236 62.3846C118.406 63.1132 117.602 63.9049 116.823 64.7408C116.044 65.5767 115.233 66.4567 114.464 67.3651C112.867 69.1757 111.306 71.0966 109.619 72.9797C109.098 73.5821 108.515 74.2098 107.893 74.8249C107.277 75.4535 106.626 76.0474 105.944 76.6039C105.282 77.1559 104.58 77.6578 103.843 78.1053C103.167 78.5318 102.448 78.887 101.698 79.1652C101.039 79.4136 100.35 79.5728 99.648 79.6383C99.0063 79.6967 98.3593 79.6357 97.7397 79.4585C96.538 79.1021 95.5475 78.2693 94.6959 76.8941C94.0923 75.8261 93.2992 74.877 92.3554 74.0931C96.3776 72.8519 100.07 70.7229 103.159 67.8635C103.159 67.8635 103.19 67.832 103.206 67.8162C103.764 68.4279 104.487 68.8659 105.288 69.0779C105.93 69.2172 106.599 69.1782 107.221 68.9653C107.843 68.7524 108.395 68.3736 108.817 67.8698C109.077 67.5936 109.314 67.296 109.524 66.9803C109.744 66.6324 109.936 66.2674 110.098 65.8889C110.281 65.4832 110.434 65.0647 110.555 64.6367C110.676 64.187 110.771 63.731 110.842 63.2709C110.977 62.7026 110.977 62.1107 110.842 61.5424C110.778 61.0939 110.687 60.6495 110.571 60.2113C110.455 59.7966 110.312 59.3898 110.142 58.9938C109.983 58.6264 109.8 58.2693 109.597 57.9245C109.395 57.5975 109.167 57.2874 108.915 56.9971C108.482 56.4982 107.943 56.1017 107.338 55.8364C106.762 55.6001 106.132 55.5291 105.518 55.6314C104.623 55.8127 103.81 56.2798 103.203 56.9625L103.156 56.9151C100.066 54.0557 96.3745 51.9268 92.3523 50.6855C93.3282 49.8785 94.1463 48.8979 94.7653 47.7931C95.6075 46.4525 96.601 45.6356 97.7997 45.2949ZM103.405 62.4004C103.351 60.2271 104.477 59.0569 105.755 58.9717C107.032 58.8865 108.508 60.0031 108.685 62.4004C108.499 64.8007 107.061 65.9173 105.802 65.8259C104.543 65.7344 103.402 64.5673 103.395 62.3909L103.405 62.4004ZM89.7942 52.2973C91.9703 52.8545 94.0614 53.7022 96.0112 54.8176C98.1103 56.0071 100.045 57.4651 101.768 59.1546C101.559 59.6528 101.401 60.1706 101.295 60.7002C101.067 61.8074 101.067 62.9492 101.295 64.0563C101.399 64.5864 101.557 65.1044 101.768 65.6019C100.046 67.2916 98.1119 68.7505 96.0144 69.9422C95.0235 70.5013 93.9985 70.9975 92.9453 71.4278C91.9195 71.8444 90.8668 72.1911 89.7942 72.4655C88.6119 71.933 87.3631 71.5627 86.0817 71.3647C85.4442 71.2645 84.802 71.1972 84.1576 71.1628C83.5015 71.1376 82.8517 71.1187 82.2272 71.125C82.3723 70.7906 82.5237 70.4626 82.6435 70.1156C82.7634 69.7687 82.9022 69.4343 83.0063 69.0842C85.3467 69.5826 87.7913 69.3965 89.7248 68.2326C90.7376 67.6221 91.5752 66.76 92.1564 65.7302C92.7376 64.7003 93.0425 63.5376 93.0415 62.3551C93.0406 61.1726 92.7338 60.0104 92.151 58.9815C91.5681 57.9525 90.7291 57.0919 89.7153 56.483C87.7913 55.3159 85.3562 55.1267 83.0031 55.625C82.899 55.2749 82.7697 54.9311 82.6372 54.5905C82.5047 54.2498 82.366 53.9155 82.2209 53.5811C82.8517 53.5811 83.4826 53.5811 84.1513 53.5433C84.7937 53.5103 85.4339 53.4429 86.069 53.3414C87.3492 53.1582 88.599 52.8039 89.7847 52.2879L89.7942 52.2973ZM83.4573 67.5859C83.8634 65.8859 84.074 64.145 84.085 62.3972C84.0715 60.6508 83.862 58.9113 83.4605 57.2116C84.332 57.1164 85.2126 57.1472 86.0753 57.3031C86.9092 57.447 87.7066 57.7535 88.4221 58.2052C89.1424 58.6462 89.7374 59.2646 90.1502 60.0013C90.563 60.7381 90.7798 61.5685 90.7798 62.413C90.7798 63.2575 90.563 64.0879 90.1502 64.8246C89.7374 65.5614 89.1424 66.1798 88.4221 66.6207C87.7075 67.0743 86.9097 67.3809 86.0753 67.5228C85.2068 67.6686 84.3216 67.6867 83.4479 67.5765L83.4573 67.5859ZM71.4018 38.6994C71.2992 39.3377 71.2308 39.981 71.1968 40.6266C71.1716 41.2827 71.1526 41.9325 71.1589 42.557C70.8246 42.4119 70.4934 42.2574 70.1496 42.1407C69.8058 42.024 69.4651 41.8789 69.115 41.7748C69.6165 39.4375 69.4273 36.9898 68.2633 35.0562C67.6525 34.0437 66.7903 33.2062 65.7603 32.6251C64.7304 32.0439 63.5678 31.7389 62.3852 31.7395C61.2027 31.7402 60.0403 32.0465 59.011 32.6287C57.9818 33.2109 57.1204 34.0493 56.5106 35.0626C55.3436 36.9866 55.1575 39.4249 55.6558 41.7779C55.3026 41.8789 54.9619 42.0114 54.6213 42.1438C54.2806 42.2763 53.9431 42.4119 53.6087 42.557C53.6087 41.9262 53.6277 41.2764 53.5741 40.6298C53.5507 39.9847 53.4928 39.3414 53.4006 38.7026C53.2038 37.4222 52.8346 36.1744 52.3029 34.9932C52.582 33.9199 52.9287 32.8654 53.3406 31.8358C53.7714 30.7812 54.2686 29.7551 54.8294 28.7635C56.0169 26.6664 57.4704 24.7316 59.1539 23.0071C59.6531 23.2167 60.1719 23.3763 60.7026 23.4833C61.8102 23.7062 62.9511 23.7062 64.0587 23.4833C64.5884 23.3774 65.1061 23.2189 65.6043 23.0102C67.2952 24.731 68.7542 26.6651 69.9446 28.7635C70.5047 29.7533 71.0019 30.7773 71.4334 31.8295C71.8452 32.8563 72.1897 33.9089 72.4648 34.9805C71.941 36.1627 71.5802 37.4106 71.3924 38.6899L71.4018 38.6994ZM67.5883 41.3395C65.8884 40.9393 64.1491 40.7298 62.4028 40.715C60.6551 40.7278 58.9144 40.9383 57.214 41.3426C57.1192 40.4711 57.15 39.5905 57.3055 38.7278C57.4514 37.8945 57.7578 37.0975 58.2076 36.381C58.6487 35.6602 59.2674 35.0648 60.0047 34.6518C60.7419 34.2387 61.5728 34.022 62.4178 34.0223C63.2629 34.0226 64.0937 34.24 64.8306 34.6536C65.5675 35.0671 66.1858 35.663 66.6263 36.3842C67.0796 37.0974 67.3853 37.8943 67.5253 38.7278C67.6688 39.5881 67.6868 40.4646 67.5789 41.33L67.5883 41.3395ZM58.9678 19.0359C58.8732 17.7616 59.9961 16.2791 62.3902 16.1056C64.7937 16.2948 65.9071 17.73 65.8157 18.9885C65.7242 20.2471 64.5666 21.3795 62.3902 21.3858C60.2137 21.3921 59.0624 20.3291 58.9678 19.0359ZM45.1333 25.0794C45.206 24.3725 45.3736 23.6786 45.6317 23.0165C45.9126 22.272 46.2677 21.5577 46.6915 20.8842C46.9091 20.5278 47.1457 20.1714 47.3917 19.8181C47.6378 19.4648 47.9122 19.1336 48.1898 18.793C48.4673 18.4523 48.767 18.1085 49.0666 17.7773C49.3663 17.4461 49.6817 17.1622 49.9908 16.8531C50.6028 16.2412 51.2273 15.6545 51.8266 15.1372C53.716 13.4497 55.6338 11.8915 57.4443 10.2955C58.3527 9.52583 59.2328 8.72781 60.0655 7.93294C60.8982 7.13807 61.6931 6.34951 62.4217 5.51994C63.1627 6.36437 63.9471 7.16979 64.7716 7.93294C65.6075 8.72465 66.4875 9.52267 67.3959 10.2923C69.2065 11.8884 71.1274 13.4497 73.0136 15.1404C73.6161 15.6608 74.2438 16.2444 74.8589 16.8657C75.489 17.4806 76.083 18.1315 76.6379 18.8151C77.1865 19.4815 77.6832 20.1891 78.1235 20.9316C78.55 21.608 78.9052 22.3268 79.1833 23.0764C79.4307 23.736 79.5898 24.4254 79.6565 25.1267C79.7131 25.7684 79.6522 26.4151 79.4767 27.035C79.1171 28.2336 78.2844 29.2241 76.9123 30.0725L76.8902 30.0946C75.8233 30.7025 74.8745 31.4974 74.0892 32.4414C72.848 28.4192 70.719 24.7272 67.8596 21.6381L67.8123 21.5908C68.4256 21.0337 68.8639 20.3105 69.074 19.509C69.2135 18.8672 69.175 18.1995 68.9627 17.578C68.7503 16.9565 68.3721 16.4048 67.8691 15.9826C67.5916 15.7218 67.2931 15.4844 66.9764 15.2729C66.6279 15.0547 66.2642 14.8618 65.8882 14.6956C65.4816 14.5187 65.0644 14.367 64.6391 14.2414C64.1839 14.1226 63.7228 14.0278 63.2576 13.9575C62.9787 13.8739 62.687 13.8408 62.3965 13.8598C62.1046 13.8399 61.8116 13.8742 61.5322 13.9607C61.0847 14.0267 60.6413 14.1183 60.2043 14.2351C59.7918 14.3446 59.3872 14.4816 58.993 14.6452C58.6236 14.8003 58.2662 14.9827 57.9238 15.1908C57.6054 15.3884 57.3056 15.6143 57.0279 15.8659C56.529 16.2991 56.1325 16.8378 55.8672 17.443C55.6309 18.0188 55.5599 18.649 55.6622 19.263C55.8431 20.1555 56.3065 20.9662 56.9838 21.575C56.9665 21.5892 56.9506 21.605 56.9365 21.6223C54.0771 24.7114 51.9481 28.4034 50.7068 32.4256C49.8999 31.4497 48.9192 30.6316 47.8144 30.0126C46.4644 29.161 45.6506 28.1705 45.3099 26.9719C45.1342 26.3575 45.0743 25.7157 45.1333 25.0794ZM26.9901 79.4837C26.3671 79.6538 25.7182 79.7083 25.0755 79.6446C24.3693 79.5677 23.676 79.4002 23.0126 79.1462C22.2668 78.8649 21.5513 78.5087 20.8772 78.0832C20.5239 77.8688 20.1675 77.6322 19.8111 77.383C19.4546 77.1338 19.1266 76.8625 18.7859 76.585C18.4453 76.3074 18.1046 76.0046 17.786 75.7239C17.4675 75.4431 17.1394 75.1088 16.8461 74.8154C16.231 74.2004 15.6475 73.579 15.1302 72.9797C13.4426 71.0903 11.8813 69.1694 10.2853 67.3588C9.51562 66.4504 8.7176 65.5704 7.92588 64.7345C7.13417 63.8986 6.34246 63.1069 5.51289 62.3846C6.34246 61.656 7.14679 60.8642 7.92589 60.0284C8.70499 59.1925 9.51247 58.3156 10.2853 57.4104C11.8813 55.5998 13.4427 53.6789 15.1302 51.7895C15.6506 51.187 16.2373 50.5625 16.8555 49.9443C17.4716 49.3151 18.1235 48.7222 18.808 48.1684C19.4677 47.614 20.169 47.111 20.9056 46.6639C21.582 46.2374 22.3008 45.8822 23.0505 45.604C23.7161 45.3526 24.4117 45.1893 25.1196 45.1183C25.7614 45.0584 26.4087 45.1194 27.028 45.2981C28.2297 45.6545 29.217 46.4904 30.0655 47.8625L30.0876 47.8845C30.6914 48.9524 31.4844 49.9015 32.428 50.6855C28.4067 51.9281 24.7158 54.0581 21.6279 56.9183C21.6095 56.9335 21.5926 56.9504 21.5774 56.9688C21.02 56.3568 20.2985 55.9178 19.4988 55.7039C18.8562 55.5661 18.1883 55.6058 17.5665 55.8186C16.9447 56.0314 16.3926 56.4094 15.9692 56.912C15.7077 57.1892 15.4713 57.4889 15.2626 57.8078C15.0427 58.1552 14.8497 58.519 14.6854 58.896C14.5066 59.3019 14.3548 59.7191 14.2312 60.1451C14.1087 60.5994 14.0139 61.0608 13.9473 61.5266C13.862 61.8052 13.8288 62.0971 13.8495 62.3877C13.8306 62.6783 13.8637 62.9699 13.9473 63.2489C14.0146 63.6969 14.1052 64.1412 14.2186 64.5799C14.3358 64.9944 14.4791 65.4011 14.6476 65.7975C14.8037 66.168 14.9872 66.5265 15.1964 66.8699C15.3929 67.1872 15.6178 67.486 15.8683 67.7626C16.3021 68.2631 16.8419 68.6606 17.4485 68.9265C18.0247 69.1614 18.6546 69.2324 19.2685 69.1315C20.1626 68.9507 20.9739 68.4847 21.5806 67.8036C21.5931 67.8223 21.6091 67.8384 21.6279 67.8509C24.7174 70.7097 28.4093 72.8386 32.4312 74.0805C31.4537 74.8859 30.6353 75.8669 30.0182 76.973C29.176 78.3324 28.1824 79.1431 26.987 79.4869L26.9901 79.4837ZM21.385 62.3783C21.4323 64.5516 20.3094 65.7186 19.032 65.8038C17.7545 65.8889 16.2783 64.7724 16.0985 62.3783C16.2909 59.9779 17.723 58.8613 18.9847 58.9559C20.2463 59.0506 21.385 60.2145 21.3913 62.3909L21.385 62.3783ZM34.9893 72.4813C33.9168 72.2042 32.8633 71.8586 31.835 71.4467C30.7811 71.0146 29.755 70.5174 28.7628 69.9579C26.657 68.7626 24.7164 67.2972 22.9905 65.5988C23.1992 65.1014 23.3588 64.5848 23.4668 64.0563C23.6897 62.9487 23.6897 61.8078 23.4668 60.7002C23.3598 60.1695 23.2002 59.6507 22.9905 59.1515C24.7138 57.463 26.6487 56.0051 28.747 54.8144C29.7358 54.2524 30.7599 53.7551 31.813 53.3256C32.8407 52.9146 33.8931 52.568 34.964 52.2879C36.1526 52.8298 37.4105 53.2045 38.7018 53.4013C39.3391 53.5029 39.9814 53.5703 40.6259 53.6032C41.2851 53.6316 41.9318 53.6473 42.5563 53.641C42.4112 53.9754 42.2598 54.3097 42.1431 54.6535C42.0264 54.9974 41.8781 55.3349 41.7772 55.6881C39.4399 55.1866 36.9891 55.3727 35.0587 56.5398C34.0394 57.1427 33.1966 58.0029 32.6147 59.0343C32.0329 60.0657 31.7324 61.232 31.7436 62.4161C31.7446 63.5984 32.0527 64.7601 32.6377 65.7874C33.2227 66.8148 34.0645 67.6725 35.0807 68.2767C37.0048 69.4438 39.4431 69.6299 41.7961 69.1315C41.8971 69.4848 42.0295 69.8254 42.162 70.1661C42.2945 70.5068 42.4301 70.8443 42.5784 71.1818C41.9475 71.1818 41.2977 71.1628 40.6511 71.2165C40.0076 71.2504 39.3664 71.3189 38.7302 71.4215C37.4425 71.6082 36.1861 71.9689 34.9956 72.4939L34.9893 72.4813ZM41.3324 57.2053C40.5004 60.6123 40.5004 64.1695 41.3324 67.5765C40.4611 67.6746 39.58 67.6438 38.7176 67.485C37.8841 67.345 37.0872 67.0393 36.374 66.586C35.6518 66.1464 35.0548 65.5283 34.6405 64.7913C34.2261 64.0543 34.0083 63.2231 34.008 62.3776C34.0077 61.5321 34.2249 60.7007 34.6387 59.9634C35.0525 59.2261 35.649 58.6076 36.3708 58.1674C37.085 57.7159 37.8815 57.4103 38.7144 57.2684C39.5794 57.1205 40.4613 57.0993 41.3324 57.2053ZM46.6726 92.6117C46.5696 92.6376 46.4701 92.6757 46.3761 92.7252L46.067 92.9019C44.2746 93.685 42.2846 93.8976 40.3672 93.5106C38.128 93.0489 36.0731 91.9413 34.4564 90.3246C32.8397 88.708 31.7321 86.653 31.2704 84.4138C30.8852 82.4964 31.0977 80.5069 31.8792 78.7141L32.0558 78.405C32.1055 78.3118 32.1447 78.2135 32.1725 78.1116C32.7211 77.1005 33.4564 76.2025 34.3395 75.4652C35.2046 74.7495 36.1819 74.1815 37.2319 73.784C38.2896 73.3917 39.393 73.1363 40.5155 73.0238C41.0718 72.9643 41.631 72.9359 42.1904 72.9387C42.7539 72.9347 43.3172 72.961 43.8779 73.0175C44.8305 73.1059 45.5654 72.0239 45.2563 71.576L45.1995 71.5067C44.4632 70.1009 43.8947 68.6135 43.5057 67.0749C43.1358 65.5228 42.9474 63.9329 42.9443 62.3373C42.9566 60.742 43.1578 59.1539 43.5436 57.6059C43.9338 56.0687 44.5122 54.5855 45.2658 53.19C45.4267 52.9029 45.2658 52.5591 45.0071 52.3005C44.8711 52.1338 44.6976 52.0015 44.5009 51.9144C44.3041 51.8273 44.0896 51.7877 43.8748 51.799C43.3151 51.8543 42.7528 51.8796 42.1904 51.8747C41.6309 51.8793 41.0716 51.8508 40.5155 51.7895C39.3928 51.6787 38.2891 51.4232 37.2319 51.0293C36.1828 50.6299 35.2059 50.062 34.3395 49.3481C33.458 48.6093 32.723 47.7116 32.1725 46.7017C32.1447 46.5999 32.1055 46.5015 32.0558 46.4084L31.8792 46.0992C31.0977 44.3064 30.8852 42.317 31.2704 40.3995C31.7294 38.1591 32.8361 36.1027 34.4533 34.4856C36.0704 32.8684 38.1268 31.7617 40.3673 31.3027C42.2845 30.914 44.275 31.1266 46.067 31.9115L46.3761 32.0881C46.4712 32.135 46.5705 32.173 46.6726 32.2017C47.6813 32.7511 48.5779 33.4851 49.3158 34.3655C50.0321 35.2325 50.6002 36.2119 50.997 37.2642C51.393 38.3208 51.6486 39.4247 51.7572 40.5478C51.8185 41.1039 51.847 41.6632 51.8424 42.2227C51.8458 42.7851 51.8205 43.3472 51.7667 43.907C51.6752 44.8628 52.7571 45.5977 53.205 45.2886C53.2239 45.2697 53.2365 45.2571 53.2776 45.2602C54.682 44.5241 56.1685 43.9566 57.7061 43.5695C59.258 43.1983 60.8481 43.0099 62.4438 43.0081C64.0393 43.0155 65.6281 43.2168 67.1751 43.6074C68.7133 43.9965 70.1975 44.5739 71.5942 45.3265C71.8781 45.4905 72.2251 45.3265 72.4837 45.0678C72.6494 44.9317 72.7808 44.7587 72.8673 44.5625C72.9539 44.3664 72.9932 44.1527 72.9821 43.9386C72.9261 43.3789 72.8988 42.8167 72.9001 42.2542C72.8993 41.6947 72.9298 41.1355 72.9916 40.5793C73.1024 39.458 73.3568 38.3555 73.7486 37.2989C74.1476 36.248 74.7166 35.2697 75.4329 34.4033C76.169 33.5211 77.066 32.7868 78.0762 32.2395C78.1777 32.2108 78.276 32.1717 78.3695 32.1228L78.6818 31.943C80.475 31.163 82.464 30.9505 84.3815 31.3342C86.6208 31.7959 88.6757 32.9035 90.2924 34.5202C91.909 36.1369 93.0167 38.1918 93.4784 40.4311C93.8641 42.3485 93.6516 44.3381 92.8696 46.1308L92.6898 46.4431C92.6419 46.5377 92.6038 46.6371 92.5762 46.7396C92.0271 47.7485 91.2931 48.6452 90.4124 49.3828C89.5448 50.0983 88.5655 50.6663 87.5137 51.064C86.4577 51.4578 85.355 51.7123 84.2333 51.821C83.676 51.8817 83.1158 51.9112 82.5552 51.9094C81.9938 51.9117 81.4327 51.8854 80.874 51.8305C79.9151 51.7422 79.1833 52.8209 79.4924 53.2688C79.4981 53.2944 79.5076 53.3188 79.5208 53.3414C81.0106 56.1703 81.7798 59.323 81.7603 62.5202C81.7501 64.1168 81.5478 65.7064 81.1579 67.2547C80.7698 68.7932 80.1924 70.2776 79.4388 71.6738C79.278 71.9546 79.4388 72.3047 79.6975 72.5633C79.8319 72.7309 80.0046 72.8637 80.2012 72.9505C80.3977 73.0372 80.6123 73.0754 80.8267 73.0617C81.3854 73.0068 81.9465 72.9805 82.5079 72.9828C83.0674 72.9799 83.6265 73.0083 84.1828 73.068C85.3055 73.179 86.4091 73.4345 87.4664 73.8282C88.5182 74.2259 89.4975 74.7939 90.3651 75.5094C91.2458 76.247 91.9798 77.1436 92.5289 78.1526C92.5585 78.2545 92.5964 78.3536 92.6425 78.4491L92.8223 78.7614C93.606 80.5536 93.8185 82.5438 93.431 84.4611C92.971 86.7011 91.8639 88.7569 90.2469 90.3738C88.63 91.9908 86.5742 93.0979 84.3342 93.5579C82.4168 93.944 80.4271 93.7315 78.6345 92.9492L78.3222 92.7694C78.2287 92.7205 78.1304 92.6814 78.0289 92.6527C77.0489 92.077 76.1846 91.324 75.4803 90.4321C74.7658 89.5644 74.1969 88.5865 73.7959 87.5365C73.4043 86.4787 73.1488 85.3753 73.0357 84.2529C72.9744 83.6968 72.946 83.1375 72.9506 82.578C72.9467 82.0166 72.973 81.4554 73.0294 80.8968C73.1177 79.9379 72.039 79.2062 71.5879 79.5184C71.5633 79.522 71.5397 79.5306 71.5185 79.5437C67.2386 81.8084 62.2698 82.402 57.5768 81.2091C56.0393 80.8198 54.556 80.2413 53.1608 79.4869C52.877 79.3292 52.53 79.4869 52.2713 79.7455C52.1041 79.8811 51.9715 80.0545 51.8843 80.2513C51.7971 80.4482 51.7579 80.6629 51.7698 80.8779C51.8253 81.4376 51.8506 81.9999 51.8455 82.5623C51.85 83.1218 51.8216 83.681 51.7604 84.2372C51.6516 85.3589 51.3971 86.4616 51.0033 87.5176C50.6056 88.5694 50.0376 89.5487 49.3221 90.4163C48.585 91.3083 47.6861 92.0532 46.6726 92.6117ZM67.5 86.0792C67.3581 86.9121 67.0526 87.7087 66.6011 88.4228C66.1606 89.144 65.5422 89.7399 64.8053 90.1535C64.0684 90.567 63.2376 90.7844 62.3926 90.7847C61.5476 90.785 60.7166 90.5683 59.9794 90.1553C59.2422 89.7423 58.6234 89.1468 58.1824 88.426C57.7307 87.7105 57.4242 86.9131 57.2803 86.0792C57.1232 85.2167 57.0924 84.3358 57.1888 83.4644C60.5958 84.2964 64.153 84.2964 67.56 83.4644C67.6686 84.3342 67.6484 85.2153 67.5 86.0792ZM53.3943 86.0919C53.4958 85.4546 53.5632 84.8123 53.5961 84.1678C53.6245 83.5085 53.6434 82.8588 53.6371 82.2342C53.9715 82.3793 54.3027 82.5339 54.6496 82.6537C54.9966 82.7736 55.3278 82.9155 55.6811 83.0165C55.1827 85.3569 55.3657 87.8046 56.5327 89.735C57.1356 90.7543 57.9959 91.5971 59.0273 92.179C60.0587 92.7608 61.2249 93.0612 62.4091 93.0501C63.5912 93.0486 64.7528 92.7404 65.78 92.1554C66.8073 91.5704 67.6652 90.7288 68.2697 89.7129C69.4367 87.7888 69.626 85.3538 69.1276 83.0007C69.4746 82.8998 69.8184 82.7704 70.1591 82.638C70.4997 82.5055 70.8372 82.3635 71.1716 82.2185C71.1716 82.8493 71.1526 83.4991 71.2063 84.1457C71.2416 84.7891 71.3101 85.4303 71.4113 86.0666C71.608 87.3476 71.9762 88.5963 72.5058 89.7792C72.2306 90.8522 71.885 91.9059 71.4712 92.9334C71.041 93.9882 70.5438 95.0144 69.9824 96.0056C68.7883 98.1124 67.3239 100.054 65.6264 101.781C65.1294 101.571 64.6127 101.412 64.084 101.305C62.9768 101.078 61.835 101.078 60.7279 101.305C60.198 101.41 59.6802 101.568 59.1823 101.778C57.4908 100.058 56.0317 98.1234 54.8421 96.0246C54.2797 95.0345 53.7814 94.0093 53.3501 92.9555C52.9392 91.9291 52.5936 90.8776 52.3155 89.8075C52.8427 88.6239 53.2056 87.3738 53.3943 86.0919ZM65.8314 105.759C65.9261 107.033 64.8 108.512 62.4028 108.689C60.0055 108.5 58.8858 107.064 58.9804 105.803C59.075 104.541 60.2327 103.415 62.4091 103.409C64.5855 103.402 65.721 104.456 65.8314 105.759ZM72.9979 109.657C71.1116 111.348 69.1907 112.909 67.3802 114.505C66.4718 115.275 65.5917 116.073 64.759 116.861C63.9263 117.65 63.1314 118.445 62.4028 119.274C61.6773 118.448 60.8824 117.641 60.0529 116.861C59.2233 116.082 58.337 115.272 57.4285 114.502C55.618 112.906 53.6971 111.345 51.8108 109.66C51.2084 109.14 50.5838 108.553 49.9656 107.935C49.338 107.317 48.7452 106.666 48.1898 105.983C47.6343 105.322 47.1303 104.619 46.682 103.882C46.259 103.205 45.905 102.488 45.6254 101.74C45.3729 101.075 45.2095 100.379 45.1396 99.6709C45.078 99.0291 45.1391 98.3815 45.3194 97.7625C45.6758 96.5608 46.5086 95.5704 47.8807 94.7219L47.9027 94.6998C48.9679 94.0921 49.9164 93.2996 50.7037 92.3593C51.9477 96.3801 54.0776 100.071 56.9365 103.159C56.9489 103.178 56.965 103.194 56.9838 103.207C56.3712 103.766 55.9322 104.49 55.7189 105.292C55.5809 105.933 55.6204 106.6 55.8333 107.221C56.0462 107.842 56.4243 108.393 56.927 108.815C57.2027 109.078 57.5014 109.315 57.8197 109.525C58.1675 109.744 58.5313 109.937 58.9079 110.102C59.3151 110.281 59.7334 110.434 60.1601 110.559C60.6142 110.678 61.0743 110.771 61.5385 110.84C61.8183 110.925 62.111 110.959 62.4028 110.941C62.6938 110.961 62.9861 110.926 63.2639 110.837C63.7124 110.775 64.1569 110.686 64.595 110.572C65.0105 110.455 65.4173 110.31 65.8125 110.137C66.1823 109.981 66.5407 109.8 66.8849 109.594C67.1997 109.394 67.4982 109.169 67.7776 108.922C68.2781 108.488 68.6757 107.949 68.9415 107.342C69.1764 106.766 69.2474 106.136 69.1465 105.522C68.9657 104.628 68.4997 103.817 67.8186 103.21C67.8186 103.21 67.8501 103.178 67.8691 103.159C70.7285 100.07 72.8574 96.3784 74.0987 92.3562C74.9057 93.3321 75.8863 94.1502 76.9911 94.7692C78.338 95.6177 79.1518 96.6144 79.4956 97.8099C79.6642 98.4299 79.7197 99.0753 79.6596 99.715C79.5839 100.421 79.4164 101.115 79.1613 101.778C78.8803 102.522 78.5253 103.237 78.1014 103.91C77.8806 104.263 77.6472 104.623 77.3949 104.976C77.1425 105.33 76.8744 105.661 76.6 105.998C76.3256 106.336 76.0228 106.683 75.7231 107.014C75.4235 107.345 75.1081 107.661 74.8147 107.954C74.2091 108.547 73.5846 109.127 72.9852 109.645L72.9979 109.657Z" fill="#D2AC67" fill-opacity="0.5"/>
<path d="M68.3802 62.3878C68.3772 61.5991 68.2219 60.8183 67.9228 60.0884C67.3129 58.6288 66.1524 57.4683 64.6929 56.8585C63.2183 56.2488 61.5622 56.2488 60.0877 56.8585C58.6316 57.4736 57.4729 58.6323 56.8577 60.0884C56.3236 61.3691 56.2507 62.7956 56.6514 64.1241C57.052 65.4526 57.9015 66.6009 59.0546 67.3727C60.2078 68.1446 61.5931 68.4922 62.9741 68.3562C64.355 68.2203 65.646 67.6091 66.6264 66.6271C67.182 66.0751 67.6235 65.4192 67.926 64.6967C68.225 63.9636 68.3792 63.1796 68.3802 62.3878ZM63.8349 65.8417C62.9109 66.2232 61.8736 66.2243 60.9488 65.8449C60.0436 65.4613 59.3231 64.7408 58.9395 63.8356C58.5611 62.9097 58.5611 61.8723 58.9395 60.9464C59.3231 60.0412 60.0436 59.3207 60.9488 58.9371C61.8736 58.5577 62.9109 58.5588 63.8349 58.9403C64.7401 59.3238 65.4606 60.0444 65.8442 60.9495C66.0336 61.4065 66.131 61.8963 66.131 62.391C66.131 62.8857 66.0336 63.3755 65.8442 63.8325C65.4606 64.7376 64.7401 65.4581 63.8349 65.8417Z" fill="#D2AC67" fill-opacity="0.5"/>
</g>
<defs>
<clipPath id="clip0_345_2080">
<rect width="88.234" height="88.234" fill="white" transform="translate(62.3906) rotate(45)"/>
</clipPath>
</defs>
</svg>
