<svg width="1329" height="1072" viewBox="0 0 1329 1072" fill="none" xmlns="http://www.w3.org/2000/svg">
<g opacity="0.6" clip-path="url(#clip0_345_2089)">
<path opacity="0.4" d="M1192.08 665.438C1197.94 742.307 1128.87 811.542 1052.59 822.053C967.379 833.812 898.557 787.273 842.234 728.242C778.582 661.597 730.753 595.66 632.112 584.118C568.844 576.721 505.065 589.839 443.707 607.224C345.678 634.991 247.59 672.217 144.745 676.229C88.6627 678.335 30.8563 669.685 -19.611 644.175C-74.6474 616.303 -109.332 565.218 -152.328 522.841C-184.338 491.3 -223.969 463.782 -268.733 460.865" stroke="url(#paint0_linear_345_2089)" stroke-width="0.25" stroke-miterlimit="10"/>
<path opacity="0.41" d="M1193.5 659.489C1196.7 697.8 1178.7 734.128 1150.13 762.367C1132.8 779.526 1112 792.783 1089.14 801.253C1077.7 805.454 1065.79 808.282 1053.69 809.676C1014.85 814.185 979.895 806.158 947.688 790.756C921.37 778.169 897.04 760.244 874.214 739.802C864.779 731.266 855.525 722.31 846.632 713.068C782.852 646.91 734.004 583.523 635.952 573.525C587.457 568.684 538.715 575.794 491.27 587.29C476.955 590.791 462.706 594.699 448.613 598.804C364.009 623.486 279.077 654.407 191.15 663.512C177.564 664.938 163.925 665.864 150.233 666.29C121.122 667.117 92.0034 664.834 63.3726 659.479C36.6567 654.578 10.6957 646.194 -13.8477 634.542C-68.9182 607.884 -103.916 558.973 -147.292 517.709L-149.867 515.276C-181.682 485.496 -220.433 459.538 -263.674 455.94" stroke="url(#paint1_linear_345_2089)" stroke-width="0.29" stroke-miterlimit="10"/>
<path opacity="0.43" d="M1194.92 653.54C1198.22 690.029 1179.72 724.334 1150.89 752.071C1133.47 768.94 1112.59 781.822 1089.71 789.829C1078.37 793.714 1066.6 796.223 1054.67 797.303C1016.55 800.761 982.582 792.05 951.107 776.208C925.296 763.209 901.294 745.024 878.619 724.569C869.177 715.997 859.926 707.059 851.012 697.898C787.081 632.212 737.287 571.169 639.789 562.914C591.451 558.826 542.946 566.615 495.953 578.534C481.702 582.156 467.557 586.195 453.505 590.407C369.188 615.643 284.281 646.405 196.445 654.111C182.919 655.333 169.335 656.03 155.692 656.203C126.65 656.567 97.6413 654.056 69.09 648.706C42.4742 643.877 16.5442 635.818 -8.12629 624.708C-63.198 599.238 -98.527 552.503 -142.225 512.361C-143.08 511.562 -143.947 510.803 -144.82 510.008C-176.882 481.066 -215.732 455.186 -258.424 450.822" stroke="url(#paint2_linear_345_2089)" stroke-width="0.34" stroke-miterlimit="10"/>
<path opacity="0.44" d="M1196.34 647.591C1199.85 682.158 1180.76 714.535 1151.68 741.675C1134.17 758.295 1113.22 770.841 1090.31 778.416C1079.08 781.987 1067.45 784.178 1055.69 784.941C1018.28 787.371 985.313 777.875 954.539 761.638C929.251 748.3 905.608 729.81 883.006 709.34C873.556 700.731 864.327 691.808 855.388 682.71C791.27 617.504 740.533 558.918 643.608 552.307C595.4 548.939 547.075 557.495 500.617 569.782C486.448 573.52 472.37 577.7 458.378 582.014C374.39 607.909 289.442 638.201 201.736 644.692C188.261 645.699 174.745 646.235 161.151 646.213C132.183 646.114 103.282 643.374 74.8078 638.029C48.2876 633.295 22.3899 625.558 -2.38602 614.965C-57.345 590.679 -93.0931 546.159 -137.171 507.13L-139.762 504.892C-172.1 476.735 -211.03 451.025 -253.342 445.911" stroke="url(#paint3_linear_345_2089)" stroke-width="0.38" stroke-miterlimit="10"/>
<path opacity="0.46" d="M1197.71 641.635C1201.38 674.309 1181.78 704.8 1152.46 731.452C1134.95 747.46 1113.31 760.458 1090.96 766.994C1079.82 770.25 1068.32 772.118 1056.73 772.556C1020.03 774.013 988.099 763.689 958.025 747.133C933.216 733.428 909.933 714.652 887.419 694.144C877.966 685.517 868.741 676.613 859.799 667.592C795.516 602.879 743.81 546.719 647.457 541.751C599.401 539.29 551.336 548.367 505.312 561.081C491.229 564.955 477.218 569.273 463.282 573.672C379.597 600.194 294.643 630.18 207.04 635.328C193.618 636.132 180.156 636.44 166.655 636.251C137.77 635.683 108.981 632.708 80.5858 627.358C54.166 622.691 28.3059 615.267 3.42879 605.207C-51.4833 582.157 -87.6464 539.869 -132.061 501.888L-134.689 499.657C-167.19 472.282 -206.298 446.724 -248.164 440.904" stroke="url(#paint4_linear_345_2089)" stroke-width="0.42" stroke-miterlimit="10"/>
<path opacity="0.47" d="M1199.18 635.675C1202.99 666.424 1182.84 695.017 1153.31 721.137C1135.7 736.822 1113.9 749.605 1091.58 755.559C1080.56 758.518 1069.21 760.071 1057.8 760.183C1021.82 760.63 990.881 749.485 961.502 732.497C937.185 718.401 914.254 699.38 891.832 678.853C882.37 670.189 873.172 661.317 864.185 652.363C799.734 588.127 747.067 534.427 651.342 531.092C603.431 529.425 555.612 539.217 510.035 552.24C496.019 556.254 482.094 560.707 468.232 565.186C384.831 592.339 299.875 622.038 212.378 625.861C199.098 626.424 185.619 626.589 172.246 626.156C143.37 625.176 114.609 622.009 86.2084 616.682C59.8687 612.132 34.0312 605.034 9.05932 595.487C-45.8531 573.721 -82.3375 533.474 -127.099 496.677L-129.693 494.515C-162.547 467.923 -201.677 442.446 -243.101 435.901" stroke="url(#paint5_linear_345_2089)" stroke-width="0.46" stroke-miterlimit="10"/>
<path opacity="0.49" d="M1200.6 629.726C1204.56 658.564 1183.81 685.157 1154.13 710.829C1136.27 726.163 1114.43 738.744 1092.17 744.149C1081.24 746.795 1070.03 748.032 1058.79 747.828C1023.51 747.265 993.589 735.296 964.902 717.953C941.09 703.522 918.53 684.174 896.159 663.617C886.694 654.935 877.499 646.082 868.51 637.205C803.894 573.463 750.244 522.21 655.068 520.504C607.289 519.653 559.726 530.12 514.608 543.507C500.673 547.638 486.816 552.231 473.013 556.812C389.93 584.569 305.012 613.992 217.486 616.48C204.167 616.86 190.852 616.798 177.462 616.197C148.798 614.741 120.263 611.353 92.0514 606.055C65.2859 601.151 39.2775 594.92 14.8727 585.729C-39.9966 565.18 -76.926 527.115 -121.991 491.435L-124.665 489.347C-157.759 463.533 -196.983 438.248 -237.976 430.924" stroke="url(#paint6_linear_345_2089)" stroke-width="0.51" stroke-miterlimit="10"/>
<path opacity="0.5" d="M1202.04 623.754C1206.12 650.708 1184.92 675.361 1154.87 700.518C1136.95 715.54 1114.91 727.912 1092.81 732.728C1081.98 735.075 1070.89 735.988 1059.83 735.444C1025.28 733.885 996.358 721.113 968.372 703.375C945.06 688.591 922.918 668.945 900.565 648.384C891.092 639.666 881.938 630.823 872.923 622.009C808.069 558.776 753.513 509.974 658.924 509.889C611.277 509.853 563.95 520.999 519.31 534.748C505.461 539.013 491.685 543.723 477.924 548.411C395.14 576.777 310.186 605.939 222.891 607.056C209.531 607.234 196.364 606.969 183.032 606.183C154.421 604.252 125.949 600.612 97.7692 595.282C70.9931 590.418 45.0207 584.544 20.6062 575.949C-34.2009 556.71 -71.521 520.719 -116.94 486.185L-119.643 484.143C-152.992 459.128 -192.295 434.014 -232.857 425.909" stroke="url(#paint7_linear_345_2089)" stroke-width="0.55" stroke-miterlimit="10"/>
<path opacity="0.52" d="M1203.46 617.823C1207.7 642.867 1185.96 665.545 1155.75 690.218C1137.75 704.891 1115.41 717.096 1093.49 721.299C1082.77 723.351 1071.81 723.951 1060.93 723.084C1027.11 720.549 999.18 706.92 971.901 688.804C949.071 673.67 927.231 653.731 905.025 633.141C895.62 624.382 886.399 615.617 877.362 606.846C812.412 544.074 756.837 497.822 662.82 499.285C615.323 500.061 568.233 511.886 524.051 525.999C510.27 530.403 496.576 535.231 482.948 540.006C400.444 568.983 315.496 597.895 228.296 597.632C215.062 597.592 201.876 597.139 188.62 596.165C160.086 593.797 131.692 589.953 103.554 584.649C76.8075 579.836 50.8528 574.322 26.4094 566.232C-28.4103 548.125 -66.1081 514.455 -111.878 480.992L-114.585 479.026C-148.214 454.779 -187.6 429.816 -227.724 420.969" stroke="url(#paint8_linear_345_2089)" stroke-width="0.59" stroke-miterlimit="10"/>
<path opacity="0.53" d="M1204.88 611.779C1209.28 634.893 1187.02 655.743 1156.55 679.818C1138.48 694.16 1116.09 706.127 1094.12 709.786C1083.49 711.543 1072.67 711.818 1061.96 710.604C1028.9 707.07 1001.94 692.605 975.355 674.153C952.986 658.655 931.544 638.422 909.429 617.812C900.042 609.012 890.818 600.267 881.76 591.576C816.622 529.284 760.116 485.449 666.66 488.597C619.295 490.189 572.442 502.692 528.734 517.147C515.034 521.669 501.415 526.672 487.691 531.448C405.491 561.052 320.562 589.692 233.447 588.089C220.285 587.842 207.152 587.187 193.949 586.01C166.142 583.545 137.931 578.961 109.109 573.833C82.3705 569.057 56.4152 563.907 31.9726 556.372C-22.7489 539.472 -60.826 507.931 -106.947 475.633L-109.678 473.73C-143.543 450.28 -183.035 425.454 -222.702 415.86" stroke="url(#paint9_linear_345_2089)" stroke-width="0.63" stroke-miterlimit="10"/>
<path opacity="0.55" d="M1206.3 605.889C1210.83 627.114 1188.04 645.949 1157.36 669.588C1139.13 683.6 1116.56 695.336 1094.74 698.446C1084.21 699.906 1073.52 699.862 1063 698.316C1030.57 693.805 1004.68 678.408 978.822 659.652C956.986 643.775 935.872 623.282 913.827 602.639C904.449 593.823 895.219 585.073 886.155 576.48C820.849 514.664 763.312 473.324 670.421 478.079C623.205 480.482 576.608 493.661 533.373 508.553C519.76 513.306 506.196 518.298 492.629 523.272C410.745 553.48 325.8 581.855 238.784 578.89C225.675 578.44 212.614 577.579 199.472 576.235C171.786 573.343 143.724 568.46 114.932 563.383C88.1825 558.648 62.2633 553.854 37.8216 546.875C-16.8361 531.015 -55.3101 501.704 -101.771 470.53L-104.527 468.69C-138.65 446.022 -178.225 421.347 -217.454 411.01" stroke="url(#paint10_linear_345_2089)" stroke-width="0.68" stroke-miterlimit="10"/>
<path opacity="0.56" d="M1207.72 599.94C1212.41 619.255 1189.1 636.147 1158.16 659.284C1139.85 672.97 1117.1 684.512 1095.38 687.007C1084.93 688.168 1074.37 687.787 1064.02 685.876C1032.42 680.369 1007.45 664.208 982.284 645.038C960.941 628.77 940.119 608.025 918.221 587.351C908.854 578.495 899.627 569.763 890.523 561.255C825.063 499.988 766.548 461.113 674.316 467.475C627.237 470.712 580.873 484.551 538.074 499.698C524.534 504.436 511.068 509.714 497.56 514.79C415.943 545.633 331.054 573.728 244.133 569.382C231.059 568.733 218.056 567.687 204.966 566.046C177.447 562.851 149.514 557.672 120.708 552.618C93.9662 547.919 68.0462 543.49 43.594 537.011C-11.0962 522.557 -49.9128 495.367 -96.6986 465.296L-99.4768 463.537C-133.862 441.632 -173.571 417.139 -212.255 406.018" stroke="url(#paint11_linear_345_2089)" stroke-width="0.72" stroke-miterlimit="10"/>
<path opacity="0.58" d="M1209.14 593.99C1213.97 611.399 1190.14 626.349 1159.03 648.946C1140.61 662.368 1117.69 673.658 1096.06 675.578C1085.68 676.452 1075.23 675.748 1065.06 673.492C1034.21 667.004 1010.21 649.989 985.732 630.446C964.919 613.876 944.463 592.863 922.635 572.155C913.28 563.271 904.045 554.592 894.93 546.118C829.294 485.291 769.788 448.921 678.154 456.864C631.147 460.91 585.098 475.431 542.757 490.942C529.315 495.87 515.901 501.214 502.471 506.389C421.171 537.837 336.251 565.689 249.502 559.966C236.482 559.115 223.546 557.843 210.533 556.109C183.124 552.431 155.332 546.917 126.518 541.921C99.766 537.263 73.8821 533.191 49.4239 527.326C-5.13143 514.07 -44.4114 489.066 -91.5554 460.123L-94.3587 458.427C-128.998 437.323 -168.758 412.955 -207.113 401.114" stroke="url(#paint12_linear_345_2089)" stroke-width="0.76" stroke-miterlimit="10"/>
<path opacity="0.59" d="M1210.56 588.041C1215.54 603.521 1191.18 616.588 1159.85 638.638C1141.31 651.682 1118.24 662.793 1096.71 664.157C1086.44 664.752 1076.14 663.742 1066.19 661.166C1036.1 653.715 1013.06 635.828 989.279 615.871C968.929 598.86 948.889 577.549 927.098 556.834C917.763 547.92 908.526 539.261 899.386 530.856C833.563 470.508 773.085 436.641 682.049 446.164C635.218 451.055 589.365 466.244 547.498 482.097C534.123 487.165 520.809 492.622 507.417 497.885C426.438 529.955 341.523 557.557 254.789 550.528C241.807 549.401 228.962 548.015 216.007 546.096C188.741 542.005 161.075 536.177 132.251 531.222C105.51 526.619 79.6438 522.907 55.1636 517.488C0.633072 505.453 -39.033 482.637 -86.5168 454.819L-89.4922 453.216C-124.353 432.886 -164.233 408.677 -202.149 396.094" stroke="url(#paint13_linear_345_2089)" stroke-width="0.8" stroke-miterlimit="10"/>
<path opacity="0.6" d="M1211.99 582.07C1217.1 595.665 1192.26 606.782 1160.58 628.35C1141.92 641.052 1118.7 651.966 1097.27 652.733C1087.08 653.07 1076.9 651.748 1067.14 648.819C1037.78 640.391 1015.74 621.624 992.673 601.386C972.816 583.985 953.145 562.425 931.427 541.694C922.099 532.753 912.847 524.084 903.708 515.775C837.643 455.918 776.249 424.541 685.81 435.646C639.151 441.363 593.517 457.235 552.05 473.445C538.76 478.648 525.583 484.211 512.177 489.592C431.498 522.271 346.592 549.641 259.942 541.176C247.024 539.901 234.218 538.239 221.356 536.128C194.201 531.65 166.683 525.522 137.845 520.59C111.111 516.024 85.2627 512.672 60.7613 507.794C6.29227 496.973 -33.8371 476.342 -81.6057 449.638L-84.4412 448.063C-119.589 428.559 -159.545 404.443 -197.038 391.043" stroke="url(#paint14_linear_345_2089)" stroke-width="0.85" stroke-miterlimit="10"/>
<path opacity="0.62" d="M1213.41 576.121C1218.68 587.823 1193.27 596.951 1161.4 618.042C1142.63 630.499 1119.24 641.123 1097.9 641.316C1087.79 641.369 1077.74 639.719 1068.17 636.434C1039.58 627.063 1018.52 607.383 996.128 586.83C976.782 569.035 957.458 547.211 935.828 526.443C926.519 517.473 917.273 508.86 908.088 500.605C841.931 441.227 779.504 412.423 689.647 425.035C643.072 431.616 597.727 448.137 556.788 464.678C543.561 470.002 530.382 475.737 517.142 481.179C436.743 514.471 351.865 541.605 265.306 531.741C252.446 530.282 239.726 528.391 226.885 526.104C199.858 521.235 172.485 514.789 143.64 509.916C116.896 505.39 91.0794 502.376 66.52 498.047C12.127 488.418 -28.3634 469.912 -76.5338 444.403L-79.3943 442.891C-114.698 424.11 -154.781 400.212 -191.824 386.124" stroke="url(#paint15_linear_345_2089)" stroke-width="0.89" stroke-miterlimit="10"/>
<path opacity="0.63" d="M1214.84 570.172C1220.26 579.945 1194.34 587.204 1162.2 607.72C1143.33 619.795 1119.77 630.262 1098.53 629.898C1088.5 629.659 1078.59 627.685 1069.23 624.064C1041.39 613.731 1021.3 593.16 999.617 572.249C980.768 554.082 961.805 531.972 940.252 511.207C930.951 502.209 921.701 493.61 912.501 485.409C846.18 426.526 782.736 400.194 693.507 414.438C647.064 421.836 601.974 439.031 561.486 455.9C548.349 461.377 535.252 467.23 522.053 472.778C441.961 506.715 357.08 533.562 270.62 522.337C257.81 520.656 245.128 518.585 232.381 516.105C205.495 510.804 178.196 504.076 149.395 499.231C122.659 494.742 96.8419 492.093 72.3164 488.293C17.9848 479.877 -22.8985 463.619 -71.3689 439.149L-74.2548 437.7C-109.945 419.728 -150.048 396.006 -186.642 381.135" stroke="url(#paint16_linear_345_2089)" stroke-width="0.93" stroke-miterlimit="10"/>
<path opacity="0.65" d="M1216.25 564.204C1221.81 572.071 1195.37 577.351 1163.03 597.504C1144.02 609.131 1120.34 619.412 1099.1 618.492C1089.14 617.984 1079.36 615.687 1070.22 611.71C1043.14 600.432 1024.02 578.948 1003.04 557.719C984.679 539.144 966.067 516.788 944.584 495.989C935.314 486.96 926.069 478.385 916.848 470.265C850.339 411.862 785.928 388.051 697.292 403.857C650.989 412.107 606.136 429.981 566.117 447.174C553.066 452.787 540.032 458.76 526.889 464.393C447.111 498.915 362.239 525.531 275.845 512.874C263.091 511.009 250.46 508.716 237.788 506.049C211.031 500.357 183.913 493.303 155.065 488.506C128.322 484.076 102.537 481.765 78.0085 478.502C23.7163 471.286 -17.5533 457.216 -66.4224 433.864L-69.3181 432.552C-105.252 415.339 -145.464 391.736 -181.612 376.158" stroke="url(#paint17_linear_345_2089)" stroke-width="0.98" stroke-miterlimit="10"/>
<path opacity="0.66" d="M1217.67 558.255C1223.39 564.211 1196.43 567.626 1163.82 587.108C1144.72 598.523 1120.82 608.58 1099.79 607.041C1089.92 606.248 1080.29 603.623 1071.38 599.298C1045.04 587.08 1026.92 564.662 1006.61 543.1C988.693 524.146 970.458 501.578 949.04 480.727C939.787 471.655 930.534 463.102 921.28 455.065C854.62 397.134 788.707 373.463 701.181 393.216C655.255 403.553 610.416 420.849 570.87 438.384C557.886 444.136 544.953 450.223 531.851 455.962C452.412 491.104 367.502 517.536 281.203 503.498C268.503 501.43 255.947 498.95 243.288 496.069C216.759 490.003 189.727 482.625 160.85 477.873C134.133 473.476 108.373 471.562 83.8159 468.803C29.5967 462.855 -12.0925 450.904 -61.2938 428.714L-64.2263 427.409C-100.414 410.996 -140.714 387.526 -176.424 371.206" stroke="url(#paint18_linear_345_2089)" stroke-width="1.02" stroke-miterlimit="10"/>
<path opacity="0.68" d="M1219.09 552.306C1224.95 556.355 1197.49 557.825 1164.63 576.8C1145.41 587.896 1121.35 597.719 1100.42 595.624C1090.59 594.574 1081.05 591.621 1072.35 586.929C1046.77 573.785 1029.62 550.436 1010.02 528.556C992.583 509.193 974.764 486.327 953.442 465.476C944.174 456.395 934.92 447.867 925.678 439.892C858.832 382.44 791.908 361.356 705.022 382.624C659.254 393.809 614.629 411.77 575.535 429.632C562.637 435.52 549.767 441.728 536.743 447.565C457.548 483.327 372.702 509.515 286.516 494.093C273.852 491.827 261.345 489.125 248.806 486.085C222.322 479.589 195.475 471.903 166.59 467.21C139.863 462.854 114.131 461.259 89.5489 459.024C35.3758 454.216 -6.6728 444.582 -56.2475 423.447L-59.1983 422.145C-95.629 406.588 -136.031 383.274 -171.302 366.21" stroke="url(#paint19_linear_345_2089)" stroke-width="1.06" stroke-miterlimit="10"/>
<path opacity="0.69" d="M1220.51 546.339C1226.53 548.477 1198.55 548.041 1165.38 566.49C1146.07 577.258 1121.78 586.9 1100.98 584.2C1091.23 582.888 1081.83 579.634 1073.34 574.63C1048.51 560.546 1032.37 536.258 1013.44 514.045C996.637 494.206 979.081 471.037 957.847 450.243C948.594 441.108 939.337 432.6 930.077 424.718C863.069 367.779 795.689 351.581 708.859 372.013C662.937 382.828 618.861 402.686 580.218 420.876C567.387 426.903 554.599 433.228 541.635 439.168C462.757 475.534 377.906 501.513 291.807 484.674C279.2 482.223 266.765 479.315 254.28 476.072C227.961 469.177 201.222 461.182 172.327 456.529C145.607 452.209 119.893 450.976 95.3561 449.324C41.2368 445.693 -1.24607 438.2 -51.1492 418.245L-54.1138 417.062C-90.818 402.213 -131.303 379.05 -166.139 361.225" stroke="url(#paint20_linear_345_2089)" stroke-width="1.1" stroke-miterlimit="10"/>
<path opacity="0.71" d="M1221.95 540.386C1228.08 540.621 1199.59 538.243 1166.25 556.17C1146.82 566.62 1122.42 576.034 1101.68 572.767C1091.96 571.168 1082.68 567.562 1074.42 562.179C1050.25 547.21 1035.19 521.95 1016.94 499.422C1000.62 479.253 983.413 455.915 962.252 435.011C953.02 425.858 943.755 417.371 934.456 409.548C867.188 353.104 798.925 339.466 712.699 361.42C666.899 373.092 623.074 393.606 584.905 412.138C572.159 418.301 559.434 424.747 546.526 430.771C467.951 467.764 383.139 493.562 297.106 475.292C284.567 472.616 272.185 469.504 259.757 466.077C233.531 458.799 206.976 450.497 178.067 445.867C151.35 441.565 125.655 440.692 100.986 439.604C46.8881 437.176 4.04114 431.886 -46.1872 413.034L-49.177 411.913C-86.0728 397.89 -126.652 374.823 -161.05 356.255" stroke="url(#paint21_linear_345_2089)" stroke-width="1.15" stroke-miterlimit="10"/>
<path opacity="0.72" d="M1223.37 534.437C1229.66 532.762 1200.65 528.46 1167.05 545.867C1147.51 555.993 1122.95 565.173 1102.29 561.277C1092.63 559.396 1083.47 555.461 1075.45 549.74C1052.11 533.83 1037.96 507.613 1020.4 484.771C1004.62 464.182 987.726 440.606 966.638 419.686C957.411 410.495 948.144 402.027 938.836 394.283C871.49 338.296 802.158 327.238 716.518 350.718C670.86 363.26 627.291 384.449 589.657 403.253C577.001 409.57 564.351 416.191 551.509 422.259C473.215 459.864 388.408 485.413 302.47 465.762C289.988 462.901 277.66 459.587 265.308 455.972C239.145 448.354 212.72 439.757 183.8 435.167C157.08 430.943 131.417 430.408 106.8 429.846C52.7965 428.606 9.52676 425.512 -41.0598 407.788L-44.0748 406.73C-81.3029 393.408 -121.965 370.589 -155.909 351.256" stroke="url(#paint22_linear_345_2089)" stroke-width="1.19" stroke-miterlimit="10"/>
<path opacity="0.74" d="M1224.79 528.469C1231.24 524.902 1201.69 518.68 1167.87 535.559C1148.23 545.399 1123.5 554.386 1102.93 549.915C1093.29 547.771 1084.25 543.509 1076.46 537.436C1053.82 520.616 1040.77 493.442 1023.88 470.267C1008.58 449.291 992.054 425.466 971.077 404.619C961.855 395.388 952.585 386.94 943.268 379.274C875.736 323.767 805.516 315.251 720.393 340.29C674.84 353.615 631.557 375.531 594.263 394.685C581.693 401.137 569.114 407.821 556.351 414.083C478.355 452.297 393.51 477.661 307.733 456.578C295.259 453.39 283.036 449.843 270.76 446.04C244.803 438.035 218.503 429.028 189.576 424.497C162.861 420.291 137.207 420.08 112.577 420.096C58.6492 420.047 14.9566 419.148 -35.9698 402.549L-39.0214 401.499C-76.5 388.996 -117.183 366.258 -150.759 346.216" stroke="url(#paint23_linear_345_2089)" stroke-width="1.23" stroke-miterlimit="10"/>
<path opacity="0.75" d="M1226.21 522.52C1232.72 517.043 1202.75 508.878 1168.67 525.255C1148.92 534.736 1124.02 543.488 1103.56 538.497C1093.97 536.067 1085.07 531.471 1077.54 525.062C1055.67 507.353 1043.56 479.178 1027.34 455.711C1012.56 434.301 996.364 410.234 975.46 389.276C966.637 380.367 957.347 371.934 947.629 364.013C879.947 308.977 808.606 303.071 724.174 329.595C678.825 343.893 635.737 366.286 598.909 385.841C586.429 392.447 573.927 399.23 561.198 405.562C483.538 444.376 398.724 469.523 313.056 446.941C300.682 443.771 288.479 439.952 276.31 435.934C250.35 427.546 224.214 418.314 195.277 413.824C168.554 409.677 142.937 409.822 118.3 410.357C64.4114 411.507 20.3181 412.819 -30.9404 397.382L-33.9874 396.445C-71.7424 384.728 -112.579 362.175 -145.65 341.338" stroke="url(#paint24_linear_345_2089)" stroke-width="1.27" stroke-miterlimit="10"/>
<path opacity="0.77" d="M1227.63 516.571C1234.37 509.168 1203.79 499.098 1169.48 514.929C1149.61 524.109 1124.56 532.627 1104.2 527.076C1094.64 524.369 1085.86 519.435 1078.58 512.678C1057.48 494.08 1046.36 464.911 1030.8 441.134C1016.54 419.329 1000.7 395.017 979.865 374.044C971.068 365.117 961.772 356.695 952.024 348.821C884.161 294.302 811.897 290.945 728.048 318.977C682.805 334.153 639.988 357.294 603.61 377.082C591.197 383.827 578.777 390.726 566.104 397.142C488.733 436.605 403.943 461.594 318.289 437.611C305.953 434.164 293.782 430.224 281.682 426.076C255.983 417.194 229.991 407.644 201.024 403.198C174.309 399.088 148.71 399.593 124.052 400.669C70.2352 402.992 25.7413 406.515 -25.883 392.169L-28.9553 391.296C-66.9501 380.357 -107.896 357.922 -140.521 336.379" stroke="url(#paint25_linear_345_2089)" stroke-width="1.32" stroke-miterlimit="10"/>
<path opacity="0.78" d="M1229.05 510.622C1235.93 501.312 1204.86 489.315 1170.28 504.625C1150.33 513.478 1125.08 521.711 1104.82 515.64C1095.31 512.648 1086.66 507.388 1079.62 500.312C1059.19 480.807 1049.16 450.684 1034.22 426.586C1020.53 404.335 1005.01 379.803 984.271 358.811C975.503 349.87 966.203 341.466 956.423 333.647C888.373 279.608 815.141 278.772 731.889 308.384C686.76 324.38 644.22 348.211 608.294 368.326C595.966 375.206 583.61 382.227 571.014 388.741C493.924 428.817 409.14 453.555 323.603 428.206C311.357 424.549 299.239 420.406 287.149 416.027C261.575 406.735 235.636 396.886 206.746 392.443C180.032 388.429 154.402 389.247 129.851 390.837C76.0962 394.374 31.1978 400.089 -20.7702 386.85L-23.8677 386.039C-62.1168 375.901 -103.142 353.636 -135.336 331.313" stroke="url(#paint26_linear_345_2089)" stroke-width="1.36" stroke-miterlimit="10"/>
<path opacity="0.8" d="M1230.41 504.666C1237.46 493.463 1205.86 479.542 1171.05 494.329C1150.96 502.844 1125.57 510.953 1105.38 504.179C1095.9 500.896 1087.38 495.302 1080.59 487.902C1060.88 467.502 1051.91 436.392 1037.66 411.957C1024.47 389.316 1009.28 364.542 988.607 343.612C979.898 334.639 970.617 326.242 960.821 318.473C892.591 264.855 818.412 266.726 735.727 297.773C690.729 314.585 648.511 339.134 612.97 359.533C600.735 366.586 588.442 373.727 575.903 380.326C499.06 421.04 414.329 445.575 328.883 418.732C316.603 414.91 304.644 410.522 292.611 405.958C267.166 396.275 241.445 386.094 212.479 381.744C185.765 377.729 160.211 378.915 135.529 381.069C81.8243 385.764 36.5289 393.708 -15.7972 381.598L-18.8976 380.864C-57.4088 371.489 -98.5353 349.38 -130.291 326.314" stroke="url(#paint27_linear_345_2089)" stroke-width="1.4" stroke-miterlimit="10"/>
<path opacity="0.81" d="M1231.91 498.702C1239.08 485.574 1206.96 469.751 1171.9 484.013C1151.71 492.206 1126.16 500.099 1106.08 492.806C1096.62 489.227 1088.23 483.292 1081.7 475.562C1062.7 454.283 1054.77 422.132 1041.2 397.441C1028.53 374.366 1013.66 349.373 993.04 328.24C984.347 319.322 975.051 311.015 965.217 303.377C896.738 250.309 821.69 254.718 739.545 287.166C694.725 304.918 652.711 330.172 617.676 350.887C605.527 358.075 593.297 365.338 580.806 371.984C504.324 413.236 419.522 437.614 334.19 409.386C321.999 405.353 310.058 400.771 298.097 396.001C272.803 385.941 247.207 375.446 218.264 371.111C191.568 367.092 166.057 368.576 141.336 371.37C87.6891 377.26 41.9894 387.397 -10.7317 376.422C-11.7697 376.217 -12.7382 375.978 -13.8757 375.755C-52.6449 367.162 -93.851 345.223 -125.154 321.392" stroke="url(#paint28_linear_345_2089)" stroke-width="1.45" stroke-miterlimit="10"/>
<path opacity="0.82" d="M1233.33 492.789C1240.67 477.847 1208.03 460.005 1172.73 473.724C1152.44 481.612 1126.7 489.275 1106.72 481.403C1097.28 477.546 1089.02 471.281 1082.74 463.232C1064.44 441.062 1057.6 407.897 1044.68 382.9C1032.56 359.423 1018 334.192 997.468 313.117C988.793 304.119 979.478 295.762 969.596 288.112C901.044 235.519 824.933 242.545 743.383 276.555C698.69 295.2 656.946 321.012 622.336 342.021C610.258 349.367 598.091 356.655 585.701 363.51C509.511 405.429 424.73 429.63 339.477 399.948C327.275 395.765 315.459 390.869 303.574 386.006C278.416 375.497 252.955 364.725 223.945 360.441C197.231 356.427 171.724 358.388 147.022 361.639C93.4286 368.706 47.3319 381.071 -5.65934 371.188C-6.70453 371.01 -7.76087 370.808 -8.82848 370.583C-47.852 362.791 -89.1336 341.04 -120.009 316.411" stroke="url(#paint29_linear_345_2089)" stroke-width="1.49" stroke-miterlimit="10"/>
<path opacity="0.84" d="M1234.74 486.748C1242.22 469.858 1209.08 450.148 1173.51 463.347C1153.12 470.93 1127.22 478.358 1107.33 469.912C1097.91 465.751 1089.78 459.144 1083.76 450.774C1066.14 427.62 1060.36 393.583 1048.12 368.271C1036.53 344.356 1022.29 318.905 1001.85 297.793C993.209 288.814 983.895 280.505 973.993 272.938C905.258 220.843 828.203 230.5 747.223 265.962C702.677 285.497 661.108 311.962 627.022 333.283C615.03 340.765 602.952 348.206 590.595 355.131C514.705 397.658 429.904 421.672 344.782 390.507C332.684 386.091 320.879 381.058 309.036 375.938C283.988 365.041 258.689 353.948 229.669 349.705C202.978 345.801 177.47 348.031 152.75 351.841C99.229 360.081 52.7202 374.602 -0.613955 365.92L-3.78998 365.375C-43.0755 358.346 -84.4153 336.683 -114.896 311.378" stroke="url(#paint30_linear_345_2089)" stroke-width="1.53" stroke-miterlimit="10"/>
<path opacity="0.85" d="M1236.16 480.836C1243.73 462.014 1210.13 440.405 1174.34 453.076C1153.82 460.34 1127.76 467.553 1107.97 458.532C1098.57 454.064 1090.57 447.12 1084.81 438.445C1067.9 414.491 1063.23 379.341 1051.58 353.734C1040.54 329.417 1026.61 303.728 1006.25 282.601C997.638 273.575 988.308 265.265 978.352 257.754C909.466 206.131 831.436 218.367 751.031 255.3C706.633 275.724 665.373 302.852 631.676 324.476C619.773 332.111 607.763 339.692 595.458 346.683C519.885 389.815 435.068 413.659 349.982 381.107C338.053 376.579 326.304 371.362 314.522 365.98C289.622 354.689 264.449 343.282 235.422 339.098C208.72 335.234 183.244 337.802 158.521 342.149C104.981 351.581 58.1379 368.356 4.47157 360.837L1.27031 360.354C-38.3062 354.133 -79.7513 332.607 -109.738 306.548" stroke="url(#paint31_linear_345_2089)" stroke-width="1.57" stroke-miterlimit="10"/>
<path opacity="0.87" d="M1237.6 474.883C1245.37 454.102 1211.14 430.574 1175.16 442.768C1154.53 449.71 1128.29 456.692 1108.62 447.052C1099.21 442.32 1091.31 435.054 1085.79 426.072C1069.58 401.244 1066 365.044 1055.01 339.164C1044.54 314.519 1030.89 288.504 1010.62 267.376C1002.04 258.314 992.697 250.002 982.702 242.532C913.629 191.389 834.684 206.307 754.827 244.679C710.664 266.05 669.693 293.827 636.388 315.771C624.607 323.534 612.625 331.244 600.398 338.333C525.109 382.096 440.268 405.735 355.376 371.723C343.389 366.92 331.709 361.478 319.999 355.985C295.224 344.285 270.196 332.56 241.143 328.343C214.448 324.516 188.986 327.427 164.246 332.333C110.814 342.931 63.5377 361.942 9.49029 355.441C8.43086 355.317 7.34924 355.178 6.28215 355.017C-33.5158 349.57 -75.0954 328.226 -104.633 301.479" stroke="url(#paint32_linear_345_2089)" stroke-width="1.62" stroke-miterlimit="10"/>
<path opacity="0.88" d="M1239 468.92C1246.9 446.195 1212.24 420.841 1175.9 432.457C1155.17 439.094 1128.77 445.86 1109.18 435.687C1099.81 430.615 1092.06 422.995 1086.84 413.706C1071.35 387.96 1068.88 350.762 1058.52 324.597C1048.59 299.418 1035.27 273.275 1015.09 252.11C1006.54 243.065 997.192 234.803 987.17 227.421C917.929 176.754 838.02 194.21 758.701 234.156C714.616 256.354 673.841 284.799 641.031 307.005C629.288 314.951 617.42 322.752 605.249 329.925C530.278 374.292 445.413 397.726 360.635 362.33C348.701 357.324 337.074 351.68 325.454 345.976C300.786 333.87 275.899 321.81 246.839 317.747C220.157 313.975 194.709 317.228 169.947 322.675C116.569 334.45 68.892 355.671 14.5231 350.291L11.2753 349.952C-28.7846 345.269 -70.4475 324.076 -99.5614 296.513" stroke="url(#paint33_linear_345_2089)" stroke-width="1.66" stroke-miterlimit="10"/>
<path opacity="0.9" d="M1240.42 462.97C1248.49 438.409 1213.31 411.131 1176.75 422.142C1155.91 428.401 1129.36 435.006 1109.85 424.239C1100.04 418.849 1093.23 410.783 1087.85 401.325C1073.06 374.687 1071.74 336.56 1062 310.037C1052.63 284.453 1039.59 258.062 1019.48 236.881C1010.93 227.82 1001.55 219.573 991.473 212.248C922.067 162.075 841.247 182.232 762.502 223.552C718.563 246.64 678.059 275.738 645.677 298.256C633.984 306.442 622.216 314.26 610.104 321.536C535.417 366.533 450.585 389.845 365.908 352.915C354.013 347.728 342.454 341.859 330.891 335.971C306.375 323.488 281.69 311.117 252.558 307.07C225.864 303.338 200.448 306.929 175.688 312.932C122.379 325.957 74.1911 349.412 19.5587 345.064L16.2857 344.788C-23.959 340.872 -65.7051 319.83 -94.4722 291.543" stroke="url(#paint34_linear_345_2089)" stroke-width="1.7" stroke-miterlimit="10"/>
<path opacity="0.91" d="M1241.86 457.018C1250.07 430.531 1214.35 401.297 1177.57 411.834C1156.62 417.829 1129.89 424.145 1110.48 412.822C1100.73 407.189 1094.04 398.753 1088.97 388.944C1074.75 361.418 1074.56 322.29 1065.47 295.459C1056.65 269.473 1043.92 242.845 1023.9 221.722C1015.41 212.613 1006.05 204.352 995.964 197.055C926.282 147.399 844.59 170.076 766.413 212.926C722.643 236.917 682.372 266.676 650.416 289.489C638.871 297.739 627.159 305.833 615.143 313.108C540.701 358.726 455.834 381.872 371.277 343.499C359.417 338.113 347.948 332.033 336.443 325.961C311.948 313.033 287.442 300.414 258.372 296.392C231.683 292.679 206.28 296.612 181.502 303.174C128.228 317.284 79.7574 342.964 24.6867 339.818C23.6021 339.757 22.4991 339.699 21.4068 339.601C-19.1541 336.556 -61.0172 315.596 -89.1806 286.531" stroke="url(#paint35_linear_345_2089)" stroke-width="1.74" stroke-miterlimit="10"/>
<path opacity="0.93" d="M1243.28 451.05C1251.61 422.678 1215.41 391.531 1178.3 401.545C1157.26 407.214 1130.36 413.318 1111.05 401.416C1101.4 395.418 1094.82 386.728 1090 376.56C1076.43 348.153 1077.41 308.033 1068.92 280.886C1060.68 254.49 1048.27 227.701 1028.27 206.401C1019.81 197.306 1010.45 189.092 1000.34 181.885C930.585 132.686 847.89 158.082 770.25 202.315C726.631 227.214 686.63 257.625 655.098 280.733C643.639 289.119 631.972 297.242 619.902 304.72C545.891 350.937 460.997 373.955 376.564 334.061C364.761 328.491 353.342 322.19 341.912 315.929C317.646 302.628 293.185 289.674 264.104 285.693C237.408 282.038 212.038 286.31 187.239 293.413C134.018 308.7 85.2204 336.575 29.7403 334.588L26.4351 334.433C-14.3992 332.096 -56.3149 311.435 -84.114 281.547" stroke="url(#paint36_linear_345_2089)" stroke-width="1.79" stroke-miterlimit="10"/>
<path opacity="0.94" d="M1244.7 445.101C1253.2 414.815 1216.49 381.821 1179.19 391.222C1158.04 396.627 1130.96 402.46 1111.74 389.947C1102.07 383.684 1095.66 374.672 1091.06 364.172C1078.18 334.855 1080.22 293.766 1072.41 266.304C1064.72 239.507 1052.55 212.359 1032.67 191.15C1024.24 182.051 1014.88 173.872 1004.73 166.752C934.834 118.081 851.116 146.008 774.11 191.815C730.637 217.507 690.888 248.574 659.781 271.977C648.412 280.517 636.804 288.742 624.868 296.308C551.082 343.148 466.168 365.979 381.863 324.678C370.114 318.906 358.767 312.398 347.335 305.946C323.217 292.25 298.881 278.982 269.79 275.042C243.101 271.424 217.726 276.041 192.928 283.7C139.758 300.145 90.5118 330.279 34.7431 329.387L31.4127 329.295C-9.6759 327.759 -51.6757 307.153 -79.0943 276.611" stroke="url(#paint37_linear_345_2089)" stroke-width="1.83" stroke-miterlimit="10"/>
<path opacity="0.96" d="M1246.12 439.152C1254.73 406.967 1217.53 372.023 1179.99 380.9C1158.73 386 1131.5 391.599 1112.37 378.548C1102.76 371.986 1096.49 362.694 1092.1 351.806C1079.86 321.645 1083.11 279.52 1075.86 251.748C1068.75 224.487 1056.84 197.208 1037.09 175.914C1028.66 166.784 1019.26 158.609 1009.05 151.539C938.953 103.31 854.419 133.937 777.873 181.123C734.593 207.829 695.073 239.539 664.406 263.214C653.129 271.926 641.585 280.272 629.705 287.922C556.236 335.367 471.292 358.051 387.118 315.267C375.408 309.314 364.128 302.581 352.813 295.952C328.808 281.791 304.628 268.261 275.508 264.364C248.831 260.802 223.462 265.629 198.691 273.971C145.515 291.491 95.9059 323.924 39.7973 324.156C38.6875 324.158 37.5776 324.159 36.4601 324.124C-4.88659 323.369 -47.0064 302.923 -73.9131 271.622" stroke="url(#paint38_linear_345_2089)" stroke-width="1.87" stroke-miterlimit="10"/>
<path opacity="0.97" d="M1247.54 433.203C1256.26 399.096 1218.59 362.24 1180.81 370.592C1159.42 375.355 1132.03 380.756 1113.09 367.112C1103.44 360.289 1097.28 350.591 1093.14 339.439C1081.55 308.321 1085.95 265.264 1079.34 237.189C1072.81 209.537 1061.21 181.983 1041.49 160.758C1033.1 151.619 1023.7 143.466 1013.46 136.457C943.256 88.5969 857.792 121.832 781.802 170.493C738.691 198.103 699.422 230.469 669.144 254.447C657.975 263.309 646.472 271.761 634.67 279.51C561.486 327.586 476.435 350.215 392.464 305.836C380.797 299.721 369.585 292.763 358.342 285.927C334.477 271.431 310.442 257.583 281.3 253.672C254.63 250.146 229.294 255.407 204.487 264.217C151.372 282.95 101.355 317.557 44.9246 318.91L41.5478 318.962C-0.0570982 318.99 -42.264 298.677 -68.7322 266.633" stroke="url(#paint39_linear_345_2089)" stroke-width="1.91" stroke-miterlimit="10"/>
<path opacity="0.99" d="M1248.96 427.235C1257.9 391.225 1219.63 352.46 1181.61 360.288C1160.14 364.761 1132.57 369.914 1113.66 355.688C1104.1 348.577 1098.07 338.584 1094.18 327.055C1083.18 295.045 1088.8 251.025 1082.79 222.615C1076.94 194.535 1065.53 166.806 1045.88 145.434C1037.53 136.277 1028.12 128.138 1017.86 121.188C947.416 73.9329 861.081 109.783 785.551 159.92C742.635 188.466 703.618 221.489 673.772 245.702C662.696 254.736 651.249 263.273 639.503 271.106C566.622 319.808 481.565 342.228 397.704 296.447C386.09 290.129 374.947 282.946 363.76 275.926C340.043 261.034 316.104 246.822 286.985 243.021C260.323 239.532 234.982 245.138 210.172 254.486C157.167 274.384 106.771 311.216 49.9786 313.68C48.8435 313.744 47.7192 313.767 46.5765 313.795C4.73183 314.6 -37.5728 294.461 -63.6063 261.656" stroke="url(#paint40_linear_345_2089)" stroke-width="1.96" stroke-miterlimit="10"/>
<path d="M1250.38 421.286C1259.47 383.365 1220.6 342.677 1182.43 349.981C1160.83 354.097 1133.1 359.053 1114.25 344.278C1078.51 316.177 1093.62 247.11 1086.3 208.048C1080.91 179.622 1069.85 151.534 1050.29 130.201C938.462 8.09646 766.532 163.442 678.509 236.935C599.308 302.975 500.311 341.809 403.05 287.016C366.921 266.663 335.629 237.828 292.776 232.328C208.016 221.362 137.026 305.409 51.6231 308.623C30.4898 309.238 9.50718 304.855 -9.62069 295.829C-28.7486 286.802 -45.4822 273.388 -58.4625 256.675" stroke="url(#paint41_linear_345_2089)" stroke-width="2" stroke-miterlimit="10"/>
<g clip-path="url(#clip1_345_2089)">
<path d="M968.395 714.196C970.261 714.189 972.11 713.852 973.859 713.201C975.593 712.555 977.192 711.595 978.576 710.367C981.587 713.692 984.701 716.93 988.013 719.929C987.838 720.501 987.732 721.091 987.699 721.688C987.665 722.344 987.694 723.001 987.786 723.65C987.983 725.09 988.52 726.461 989.352 727.652C990.395 729.042 991.928 729.984 993.639 730.288C994.523 730.455 995.433 730.43 996.307 730.213C997.177 729.993 997.976 729.55 998.624 728.929C999.225 728.296 999.659 727.524 999.888 726.682C1000.11 725.83 1000.15 724.942 1000.02 724.072C999.773 722.401 998.906 720.885 997.591 719.826C996.383 718.922 994.97 718.331 993.478 718.108C992.193 717.884 990.874 717.954 989.62 718.314C986.594 715.009 983.405 711.858 980.063 708.872C981.288 707.49 982.248 705.892 982.892 704.16C984.224 700.636 984.224 696.747 982.892 693.223C982.248 691.491 981.288 689.893 980.063 688.51C983.405 685.525 986.594 682.374 989.62 679.069C990.192 679.244 990.782 679.349 991.379 679.383C992.035 679.419 992.692 679.39 993.341 679.296C994.786 679.11 996.166 678.581 997.364 677.751C998.753 676.707 999.695 675.175 999.999 673.464C1000.17 672.579 1000.15 671.667 999.929 670.792C999.728 669.924 999.29 669.129 998.664 668.495C998.039 667.861 997.25 667.412 996.385 667.199C995.534 666.978 994.647 666.934 993.779 667.07C992.103 667.308 990.577 668.169 989.508 669.483C988.62 670.688 988.039 672.091 987.815 673.571C987.592 674.858 987.661 676.177 988.017 677.433C984.713 680.423 981.595 683.666 978.58 686.995C977.196 685.767 975.597 684.807 973.863 684.161C970.34 682.833 966.453 682.834 962.931 684.165C961.196 684.805 959.597 685.764 958.214 686.991C955.229 683.648 952.078 680.459 948.772 677.433C948.945 676.861 949.05 676.27 949.086 675.674C949.12 675.019 949.091 674.362 948.999 673.712C948.811 672.265 948.28 670.885 947.451 669.685C946.405 668.298 944.873 667.356 943.163 667.05C942.277 666.886 941.366 666.912 940.491 667.128C939.622 667.327 938.826 667.763 938.191 668.388C937.555 669.013 937.106 669.802 936.894 670.668C936.676 671.519 936.632 672.406 936.766 673.274C937.012 674.945 937.878 676.461 939.19 677.524C940.4 678.426 941.815 679.015 943.308 679.238C944.591 679.463 945.909 679.394 947.161 679.036C950.156 682.344 953.394 685.458 956.723 688.473C955.494 689.857 954.535 691.458 953.894 693.194C952.566 696.716 952.566 700.601 953.894 704.123C954.535 705.858 955.494 707.459 956.723 708.843C953.398 711.854 950.16 714.969 947.161 718.281C946.589 718.11 945.998 718.005 945.402 717.967C944.747 717.935 944.09 717.964 943.44 718.054C942 718.254 940.627 718.792 939.434 719.623C938.045 720.668 937.104 722.2 936.799 723.91C936.633 724.795 936.659 725.705 936.873 726.579C937.098 727.454 937.543 728.257 938.166 728.912C938.799 729.514 939.573 729.947 940.417 730.172C941.269 730.394 942.157 730.439 943.027 730.304C944.695 730.058 946.21 729.192 947.269 727.88C948.175 726.673 948.765 725.259 948.987 723.766C949.215 722.481 949.144 721.161 948.78 719.908C952.086 716.883 955.237 713.693 958.222 710.351C959.605 711.578 961.204 712.536 962.939 713.176C964.683 713.836 966.53 714.181 968.395 714.196ZM959.515 707.571C958.347 706.407 957.421 705.024 956.789 703.5C956.156 701.977 955.831 700.345 955.831 698.696C955.831 697.046 956.156 695.414 956.789 693.891C957.421 692.367 958.347 690.984 959.515 689.82C960.679 688.652 962.062 687.725 963.585 687.094C965.109 686.462 966.742 686.138 968.391 686.14C970.06 686.108 971.719 686.409 973.27 687.025C974.821 687.642 976.234 688.562 977.426 689.731C978.618 690.9 979.564 692.295 980.211 693.834C980.857 695.373 981.19 697.026 981.19 698.696C981.19 700.365 980.857 702.018 980.211 703.557C979.564 705.096 978.618 706.491 977.426 707.66C976.234 708.829 974.821 709.749 973.27 710.366C971.719 710.982 970.06 711.283 968.391 711.251C966.742 711.253 965.109 710.929 963.585 710.297C962.062 709.666 960.679 708.739 959.515 707.571Z" fill="#D2AC67" fill-opacity="0.5"/>
<path d="M971.179 777.537C973.479 773.32 977.432 769.995 981.43 766.394C985.428 762.792 989.517 758.959 992.235 754.557C993.441 752.682 994.238 750.574 994.572 748.37C994.85 746.492 994.579 744.574 993.792 742.847C994.91 742.893 996.029 742.822 997.133 742.637C998.309 742.431 999.461 742.109 1000.57 741.675C1003.01 740.696 1005.21 739.233 1007.06 737.375C1008.9 735.519 1010.34 733.314 1011.32 730.891C1011.75 729.777 1012.07 728.625 1012.28 727.45C1012.46 726.345 1012.53 725.224 1012.48 724.105C1014.22 724.91 1016.15 725.19 1018.04 724.91C1020.25 724.578 1022.37 723.784 1024.25 722.581C1028.66 719.871 1032.53 715.795 1036.09 711.788C1039.65 707.782 1043 703.829 1047.24 701.521C1047.95 701.132 1048.33 699.939 1048.36 698.749C1048.38 697.56 1047.96 696.354 1047.24 695.978C1043.02 693.615 1039.71 689.642 1036.1 685.669C1032.49 681.696 1028.67 677.586 1024.26 674.864C1022.39 673.66 1020.28 672.863 1018.08 672.527C1016.19 672.249 1014.27 672.525 1012.54 673.32C1012.59 672.2 1012.51 671.079 1012.33 669.974C1012.12 668.798 1011.8 667.646 1011.37 666.534C1010.38 664.105 1008.92 661.9 1007.07 660.053C1005.21 658.205 1003 656.752 1000.57 655.783C999.453 655.348 998.301 655.026 997.125 654.82C996.02 654.636 994.899 654.567 993.779 654.614C994.582 652.88 994.862 650.949 994.585 649.059C994.246 646.835 993.439 644.708 992.218 642.818C989.509 638.407 985.436 634.541 981.426 630.977C977.415 627.412 973.471 624.063 971.162 619.837C970.774 619.127 969.58 618.743 968.391 618.718C967.201 618.693 965.991 619.111 965.619 619.837C963.319 624.054 959.362 627.375 955.364 630.977C951.366 634.578 947.281 638.415 944.555 642.818C943.349 644.701 942.555 646.818 942.226 649.03C941.943 650.913 942.217 652.839 943.015 654.568C941.896 654.524 940.775 654.593 939.669 654.775C938.492 654.983 937.338 655.307 936.225 655.741C933.794 656.719 931.588 658.181 929.74 660.037C927.892 661.894 926.44 664.107 925.474 666.542C925.042 667.655 924.72 668.807 924.511 669.982C924.332 671.088 924.263 672.209 924.305 673.328C922.572 672.526 920.643 672.248 918.754 672.527C916.54 672.857 914.42 673.651 912.534 674.856C908.123 677.565 904.257 681.638 900.697 685.652C897.136 689.667 893.783 693.607 889.558 695.916C888.843 696.3 888.463 697.498 888.438 698.687C888.413 699.877 888.831 701.087 889.558 701.459C893.774 703.759 897.095 707.716 900.697 711.714C904.298 715.712 908.135 719.797 912.534 722.519C914.41 723.724 916.52 724.52 918.725 724.852C920.609 725.13 922.533 724.856 924.264 724.063C924.217 725.183 924.286 726.304 924.47 727.409C924.679 728.584 925.001 729.736 925.433 730.849C926.411 733.28 927.873 735.487 929.73 737.336C931.588 739.185 933.801 740.637 936.237 741.604C937.349 742.038 938.502 742.361 939.678 742.567C940.782 742.748 941.901 742.818 943.019 742.777C942.216 744.508 941.936 746.436 942.214 748.324C942.547 750.538 943.34 752.657 944.543 754.544C947.252 758.955 951.329 762.825 955.339 766.381C959.35 769.938 963.294 773.295 965.607 777.525C965.995 778.235 967.185 778.615 968.378 778.644C969.572 778.673 970.786 778.243 971.179 777.537ZM1014.76 676.31C1015.57 676.085 1016.41 676.012 1017.25 676.095C1018.17 676.188 1019.07 676.399 1019.93 676.723C1020.9 677.092 1021.84 677.558 1022.72 678.115C1023.19 678.4 1023.65 678.705 1024.12 679.036C1024.58 679.366 1025.02 679.713 1025.46 680.081C1025.9 680.448 1026.35 680.837 1026.77 681.204C1027.19 681.572 1027.6 682.03 1027.98 682.414C1028.79 683.22 1029.56 684.037 1030.23 684.822C1032.44 687.288 1034.49 689.803 1036.58 692.174C1037.58 693.363 1038.63 694.516 1039.67 695.61C1040.67 696.69 1041.72 697.717 1042.83 698.687C1041.74 699.641 1040.69 700.678 1039.67 701.773C1038.65 702.867 1037.58 704.019 1036.58 705.209C1034.49 707.58 1032.44 710.095 1030.23 712.561C1029.55 713.35 1028.79 714.171 1027.97 714.977C1027.17 715.8 1026.31 716.578 1025.42 717.306C1024.55 718.029 1023.63 718.686 1022.67 719.272C1021.78 719.831 1020.84 720.296 1019.86 720.66C1019 720.985 1018.1 721.194 1017.18 721.28C1016.34 721.356 1015.49 721.276 1014.68 721.044C1013.1 720.577 1011.81 719.487 1010.69 717.686C1009.9 716.288 1008.86 715.045 1007.63 714.019C1012.89 712.393 1017.73 709.606 1021.77 705.861C1021.77 705.861 1021.82 705.82 1021.84 705.8C1022.57 706.6 1023.51 707.174 1024.56 707.452C1025.4 707.634 1026.28 707.583 1027.09 707.304C1027.91 707.025 1028.63 706.529 1029.18 705.87C1029.52 705.508 1029.83 705.118 1030.11 704.705C1030.4 704.249 1030.65 703.772 1030.86 703.276C1031.1 702.745 1031.3 702.197 1031.46 701.636C1031.62 701.047 1031.74 700.45 1031.84 699.848C1032.01 699.104 1032.01 698.329 1031.84 697.585C1031.75 696.997 1031.63 696.415 1031.48 695.842C1031.33 695.298 1031.14 694.766 1030.92 694.247C1030.71 693.766 1030.47 693.299 1030.2 692.847C1029.94 692.419 1029.64 692.013 1029.31 691.633C1028.74 690.98 1028.04 690.46 1027.25 690.113C1026.49 689.804 1025.67 689.711 1024.86 689.844C1023.69 690.082 1022.63 690.694 1021.83 691.587L1021.77 691.525C1017.72 687.781 1012.89 684.994 1007.62 683.368C1008.9 682.312 1009.97 681.028 1010.78 679.581C1011.89 677.826 1013.19 676.756 1014.76 676.31ZM1022.1 698.708C1022.03 695.862 1023.5 694.33 1025.17 694.218C1026.85 694.107 1028.78 695.569 1029.01 698.708C1028.77 701.851 1026.88 703.313 1025.23 703.193C1023.59 703.074 1022.09 701.545 1022.08 698.696L1022.1 698.708ZM1004.27 685.479C1007.12 686.208 1009.86 687.318 1012.41 688.779C1015.16 690.336 1017.7 692.246 1019.95 694.458C1019.68 695.11 1019.47 695.788 1019.33 696.482C1019.04 697.932 1019.04 699.427 1019.33 700.876C1019.47 701.57 1019.68 702.249 1019.95 702.9C1017.7 705.113 1015.17 707.023 1012.42 708.583C1011.12 709.315 1009.78 709.965 1008.4 710.529C1007.06 711.074 1005.68 711.528 1004.27 711.887C1002.73 711.19 1001.09 710.705 999.413 710.446C998.578 710.315 997.737 710.227 996.893 710.182C996.034 710.149 995.184 710.124 994.366 710.132C994.556 709.694 994.754 709.265 994.911 708.81C995.068 708.356 995.25 707.918 995.386 707.46C998.451 708.112 1001.65 707.869 1004.18 706.345C1005.51 705.545 1006.61 704.417 1007.37 703.068C1008.13 701.72 1008.53 700.197 1008.53 698.649C1008.52 697.1 1008.12 695.578 1007.36 694.231C1006.6 692.884 1005.5 691.757 1004.17 690.96C1001.65 689.431 998.463 689.184 995.382 689.836C995.245 689.378 995.076 688.928 994.903 688.482C994.729 688.035 994.547 687.598 994.357 687.16C995.184 687.16 996.01 687.16 996.885 687.11C997.726 687.067 998.565 686.979 999.396 686.846C1001.07 686.606 1002.71 686.142 1004.26 685.466L1004.27 685.479ZM995.977 705.498C996.508 703.272 996.784 700.992 996.798 698.704C996.781 696.417 996.506 694.139 995.981 691.914C997.122 691.789 998.275 691.829 999.405 692.034C1000.5 692.222 1001.54 692.623 1002.48 693.215C1003.42 693.792 1004.2 694.602 1004.74 695.567C1005.28 696.531 1005.56 697.619 1005.56 698.724C1005.56 699.83 1005.28 700.918 1004.74 701.882C1004.2 702.847 1003.42 703.657 1002.48 704.234C1001.54 704.828 1000.5 705.23 999.405 705.415C998.267 705.606 997.108 705.63 995.964 705.486L995.977 705.498ZM980.191 667.674C980.057 668.509 979.967 669.352 979.922 670.197C979.889 671.056 979.865 671.907 979.873 672.725C979.435 672.535 979.001 672.332 978.551 672.18C978.101 672.027 977.655 671.837 977.196 671.7C977.853 668.64 977.605 665.435 976.081 662.903C975.281 661.577 974.152 660.481 972.804 659.72C971.455 658.959 969.933 658.559 968.384 658.56C966.836 658.561 965.314 658.962 963.966 659.724C962.618 660.487 961.491 661.585 960.692 662.911C959.164 665.431 958.92 668.623 959.573 671.705C959.11 671.837 958.664 672.01 958.218 672.184C957.772 672.357 957.33 672.535 956.892 672.725C956.892 671.899 956.917 671.048 956.847 670.201C956.816 669.357 956.741 668.514 956.62 667.678C956.362 666.001 955.879 664.367 955.182 662.821C955.548 661.415 956.002 660.034 956.541 658.686C957.105 657.305 957.756 655.962 958.491 654.663C960.046 651.917 961.949 649.384 964.153 647.126C964.807 647.4 965.486 647.609 966.181 647.749C967.631 648.041 969.125 648.041 970.576 647.749C971.269 647.611 971.947 647.403 972.6 647.13C974.814 649.383 976.724 651.916 978.283 654.663C979.016 655.959 979.667 657.3 980.232 658.678C980.771 660.023 981.223 661.401 981.583 662.804C980.897 664.352 980.424 665.986 980.178 667.661L980.191 667.674ZM975.197 671.131C972.971 670.607 970.694 670.332 968.407 670.313C966.119 670.33 963.84 670.605 961.613 671.135C961.489 669.993 961.529 668.84 961.733 667.711C961.924 666.62 962.325 665.576 962.914 664.638C963.492 663.694 964.302 662.914 965.267 662.373C966.233 661.833 967.321 661.549 968.427 661.549C969.534 661.55 970.621 661.834 971.586 662.376C972.551 662.917 973.361 663.698 973.938 664.642C974.531 665.576 974.932 666.619 975.115 667.711C975.303 668.837 975.326 669.985 975.185 671.118L975.197 671.131ZM963.91 641.926C963.786 640.257 965.256 638.316 968.391 638.089C971.538 638.337 972.996 640.216 972.876 641.864C972.756 643.512 971.241 644.995 968.391 645.003C965.541 645.011 964.033 643.619 963.91 641.926ZM945.794 649.839C945.89 648.914 946.109 648.005 946.447 647.138C946.815 646.163 947.28 645.228 947.835 644.346C948.12 643.879 948.43 643.413 948.752 642.95C949.074 642.487 949.433 642.054 949.797 641.608C950.16 641.162 950.552 640.712 950.945 640.278C951.337 639.844 951.75 639.472 952.155 639.068C952.956 638.266 953.774 637.498 954.559 636.821C957.033 634.611 959.544 632.571 961.915 630.481C963.104 629.473 964.257 628.428 965.347 627.387C966.437 626.347 967.478 625.314 968.432 624.228C969.402 625.334 970.43 626.388 971.509 627.387C972.604 628.424 973.756 629.469 974.945 630.477C977.316 632.567 979.832 634.611 982.301 636.825C983.09 637.506 983.912 638.271 984.718 639.084C985.543 639.889 986.32 640.742 987.047 641.637C987.765 642.509 988.416 643.436 988.992 644.408C989.551 645.294 990.016 646.235 990.38 647.217C990.704 648.08 990.912 648.983 991 649.901C991.074 650.742 990.994 651.588 990.764 652.4C990.293 653.969 989.203 655.266 987.406 656.377L987.377 656.406C985.98 657.202 984.738 658.243 983.71 659.479C982.084 654.212 979.297 649.378 975.553 645.333L975.491 645.271C976.294 644.542 976.868 643.595 977.143 642.545C977.325 641.705 977.275 640.831 976.997 640.017C976.719 639.203 976.224 638.481 975.565 637.928C975.202 637.586 974.811 637.275 974.396 636.998C973.94 636.713 973.464 636.46 972.971 636.243C972.439 636.011 971.893 635.812 971.336 635.648C970.74 635.492 970.136 635.368 969.527 635.276C969.161 635.167 968.78 635.123 968.399 635.148C968.017 635.122 967.633 635.167 967.267 635.28C966.681 635.367 966.101 635.487 965.529 635.64C964.989 635.783 964.459 635.962 963.943 636.177C963.459 636.38 962.991 636.618 962.542 636.891C962.126 637.15 961.733 637.446 961.369 637.775C960.716 638.342 960.197 639.048 959.85 639.84C959.54 640.594 959.447 641.419 959.581 642.223C959.818 643.392 960.425 644.453 961.312 645.251C961.289 645.269 961.268 645.29 961.25 645.313C957.506 649.357 954.718 654.192 953.093 659.459C952.036 658.181 950.752 657.109 949.305 656.299C947.537 655.184 946.472 653.887 946.026 652.317C945.796 651.513 945.717 650.673 945.794 649.839ZM922.037 721.077C921.222 721.3 920.372 721.371 919.53 721.288C918.606 721.187 917.698 720.968 916.829 720.635C915.853 720.267 914.916 719.8 914.033 719.243C913.571 718.962 913.104 718.653 912.637 718.326C912.17 718 911.741 717.645 911.295 717.281C910.849 716.918 910.403 716.522 909.986 716.154C909.568 715.786 909.139 715.349 908.755 714.964C907.949 714.159 907.185 713.345 906.508 712.561C904.298 710.087 902.254 707.571 900.164 705.201C899.156 704.011 898.111 702.859 897.074 701.764C896.038 700.67 895.001 699.633 893.915 698.687C895.001 697.733 896.054 696.697 897.074 695.602C898.095 694.508 899.152 693.359 900.164 692.174C902.254 689.803 904.298 687.288 906.508 684.814C907.189 684.025 907.958 683.207 908.767 682.398C909.574 681.574 910.427 680.798 911.324 680.072C912.188 679.346 913.106 678.688 914.07 678.102C914.956 677.544 915.897 677.079 916.879 676.715C917.75 676.385 918.661 676.172 919.588 676.079C920.429 676 921.276 676.08 922.087 676.314C923.661 676.781 924.953 677.875 926.064 679.672L926.093 679.701C926.884 681.099 927.922 682.342 929.158 683.368C923.892 684.995 919.059 687.785 915.016 691.53C914.992 691.55 914.97 691.572 914.95 691.596C914.22 690.794 913.275 690.22 912.228 689.939C911.387 689.759 910.512 689.811 909.698 690.09C908.884 690.368 908.161 690.863 907.607 691.521C907.264 691.884 906.955 692.277 906.681 692.694C906.393 693.149 906.141 693.626 905.926 694.119C905.691 694.651 905.493 695.197 905.331 695.755C905.17 696.35 905.046 696.954 904.959 697.564C904.847 697.929 904.804 698.311 904.831 698.691C904.806 699.072 904.85 699.454 904.959 699.819C905.047 700.406 905.166 700.987 905.314 701.562C905.468 702.105 905.655 702.637 905.876 703.156C906.08 703.641 906.321 704.111 906.595 704.56C906.852 704.976 907.146 705.367 907.474 705.729C908.042 706.385 908.749 706.905 909.544 707.253C910.298 707.561 911.123 707.654 911.927 707.522C913.097 707.285 914.16 706.675 914.954 705.783C914.971 705.808 914.992 705.829 915.016 705.845C919.062 709.588 923.896 712.376 929.162 714.002C927.882 715.057 926.811 716.341 926.002 717.79C924.9 719.57 923.599 720.631 922.033 721.081L922.037 721.077ZM914.698 698.679C914.76 701.525 913.29 703.053 911.617 703.164C909.944 703.276 908.011 701.814 907.776 698.679C908.028 695.536 909.903 694.074 911.555 694.198C913.207 694.322 914.698 695.846 914.706 698.696L914.698 698.679ZM932.512 711.908C931.107 711.545 929.728 711.093 928.381 710.553C927.001 709.988 925.658 709.337 924.359 708.604C921.601 707.039 919.06 705.12 916.8 702.896C917.074 702.245 917.283 701.568 917.424 700.876C917.716 699.426 917.716 697.932 917.424 696.482C917.284 695.787 917.075 695.107 916.8 694.454C919.057 692.243 921.59 690.334 924.338 688.775C925.633 688.039 926.974 687.388 928.353 686.825C929.698 686.287 931.076 685.833 932.479 685.466C934.035 686.176 935.682 686.667 937.373 686.924C938.207 687.057 939.048 687.146 939.892 687.189C940.756 687.226 941.602 687.247 942.42 687.238C942.23 687.676 942.032 688.114 941.879 688.564C941.726 689.014 941.532 689.456 941.4 689.919C938.339 689.262 935.13 689.506 932.603 691.034C931.268 691.823 930.164 692.95 929.402 694.3C928.641 695.651 928.247 697.178 928.262 698.729C928.263 700.277 928.666 701.798 929.433 703.143C930.199 704.488 931.301 705.611 932.631 706.403C935.151 707.931 938.344 708.174 941.425 707.522C941.557 707.984 941.73 708.43 941.904 708.877C942.077 709.323 942.255 709.765 942.449 710.206C941.623 710.206 940.772 710.182 939.925 710.252C939.083 710.296 938.243 710.386 937.41 710.52C935.724 710.765 934.079 711.237 932.52 711.925L932.512 711.908ZM940.818 691.905C939.728 696.367 939.728 701.024 940.818 705.486C939.677 705.614 938.523 705.574 937.394 705.366C936.302 705.183 935.259 704.782 934.325 704.189C933.379 703.613 932.598 702.804 932.055 701.839C931.512 700.874 931.227 699.785 931.227 698.678C931.226 697.571 931.511 696.482 932.053 695.517C932.594 694.551 933.376 693.742 934.321 693.165C935.256 692.574 936.299 692.174 937.389 691.988C938.522 691.794 939.677 691.767 940.818 691.905ZM947.81 738.267C947.675 738.301 947.545 738.351 947.422 738.416L947.017 738.647C944.67 739.673 942.064 739.951 939.554 739.444C936.622 738.84 933.931 737.389 931.814 735.272C929.697 733.156 928.247 730.465 927.642 727.533C927.138 725.022 927.416 722.417 928.439 720.069L928.671 719.665C928.736 719.543 928.787 719.414 928.823 719.281C929.542 717.956 930.505 716.781 931.661 715.815C932.794 714.878 934.073 714.134 935.448 713.614C936.833 713.1 938.278 712.766 939.748 712.618C940.476 712.541 941.208 712.503 941.941 712.507C942.679 712.502 943.416 712.536 944.151 712.61C945.398 712.726 946.36 711.309 945.956 710.723L945.881 710.632C944.917 708.791 944.173 706.843 943.663 704.829C943.179 702.796 942.932 700.715 942.928 698.625C942.944 696.536 943.208 694.457 943.713 692.43C944.224 690.417 944.981 688.475 945.968 686.648C946.179 686.272 945.968 685.822 945.629 685.483C945.451 685.265 945.224 685.092 944.966 684.977C944.709 684.863 944.428 684.812 944.147 684.826C943.414 684.899 942.677 684.932 941.941 684.925C941.208 684.931 940.476 684.894 939.748 684.814C938.278 684.669 936.833 684.334 935.448 683.819C934.075 683.295 932.795 682.552 931.661 681.617C930.507 680.65 929.544 679.474 928.823 678.152C928.787 678.019 928.736 677.89 928.671 677.768L928.439 677.363C927.416 675.015 927.138 672.41 927.642 669.9C928.243 666.966 929.692 664.273 931.81 662.156C933.927 660.038 936.62 658.589 939.554 657.988C942.064 657.479 944.671 657.758 947.017 658.785L947.422 659.017C947.546 659.078 947.676 659.128 947.81 659.165C949.131 659.885 950.305 660.846 951.271 661.999C952.209 663.134 952.953 664.416 953.473 665.794C953.991 667.178 954.326 668.623 954.468 670.094C954.548 670.822 954.585 671.554 954.579 672.287C954.584 673.023 954.551 673.759 954.48 674.493C954.361 675.744 955.777 676.706 956.364 676.302C956.388 676.277 956.405 676.26 956.459 676.264C958.298 675.3 960.244 674.557 962.257 674.051C964.29 673.564 966.372 673.318 968.461 673.315C970.55 673.325 972.631 673.589 974.656 674.1C976.67 674.61 978.614 675.366 980.443 676.351C980.815 676.566 981.269 676.351 981.608 676.012C981.824 675.834 981.996 675.608 982.11 675.351C982.223 675.094 982.275 674.814 982.26 674.534C982.187 673.801 982.151 673.065 982.153 672.328C982.152 671.596 982.192 670.863 982.272 670.135C982.418 668.667 982.751 667.223 983.264 665.84C983.786 664.464 984.531 663.183 985.469 662.048C986.433 660.893 987.608 659.932 988.93 659.215C989.063 659.177 989.192 659.126 989.314 659.062L989.723 658.827C992.071 657.805 994.676 657.527 997.187 658.029C1000.12 658.634 1002.81 660.084 1004.93 662.201C1007.04 664.318 1008.49 667.009 1009.1 669.941C1009.6 672.452 1009.33 675.057 1008.3 677.404L1008.07 677.813C1008 677.937 1007.95 678.067 1007.92 678.201C1007.2 679.523 1006.24 680.697 1005.08 681.663C1003.95 682.599 1002.67 683.343 1001.29 683.864C999.905 684.38 998.461 684.713 996.993 684.855C996.263 684.935 995.529 684.973 994.795 684.971C994.06 684.974 993.325 684.939 992.594 684.868C991.338 684.752 990.38 686.164 990.785 686.751C990.792 686.784 990.805 686.816 990.822 686.846C992.773 690.55 993.78 694.678 993.754 698.865C993.741 700.956 993.476 703.037 992.966 705.064C992.457 707.079 991.701 709.022 990.715 710.851C990.504 711.218 990.715 711.677 991.053 712.015C991.229 712.235 991.456 712.409 991.713 712.522C991.97 712.636 992.251 712.686 992.532 712.668C993.263 712.596 993.998 712.562 994.733 712.565C995.466 712.561 996.198 712.598 996.926 712.676C998.397 712.822 999.842 713.156 1001.23 713.672C1002.6 714.193 1003.89 714.936 1005.02 715.873C1006.17 716.839 1007.14 718.013 1007.86 719.334C1007.89 719.468 1007.94 719.597 1008 719.722L1008.24 720.131C1009.27 722.478 1009.54 725.084 1009.04 727.595C1008.43 730.528 1006.98 733.22 1004.87 735.337C1002.75 737.454 1000.06 738.904 997.125 739.506C994.614 740.012 992.009 739.733 989.661 738.709L989.253 738.474C989.13 738.41 989.001 738.358 988.868 738.321C987.585 737.567 986.454 736.581 985.531 735.413C984.596 734.277 983.851 732.996 983.326 731.622C982.813 730.236 982.478 728.792 982.33 727.322C982.25 726.594 982.213 725.861 982.219 725.129C982.214 724.394 982.248 723.659 982.322 722.927C982.438 721.672 981.025 720.714 980.435 721.123C980.402 721.127 980.371 721.139 980.344 721.156C974.739 724.121 968.233 724.898 962.088 723.336C960.075 722.827 958.133 722.069 956.306 721.081C955.934 720.875 955.48 721.081 955.141 721.42C954.922 721.598 954.748 721.825 954.634 722.082C954.52 722.34 954.469 722.621 954.484 722.903C954.557 723.636 954.59 724.372 954.584 725.108C954.589 725.841 954.552 726.573 954.472 727.301C954.33 728.77 953.996 730.214 953.481 731.597C952.96 732.974 952.216 734.256 951.279 735.392C950.314 736.56 949.137 737.536 947.81 738.267ZM975.082 729.713C974.896 730.804 974.496 731.847 973.905 732.782C973.328 733.726 972.518 734.507 971.553 735.048C970.588 735.59 969.501 735.874 968.394 735.875C967.288 735.875 966.2 735.591 965.234 735.051C964.269 734.51 963.459 733.73 962.881 732.786C962.29 731.849 961.888 730.805 961.7 729.713C961.494 728.584 961.454 727.431 961.58 726.289C966.041 727.379 970.699 727.379 975.16 726.289C975.302 727.428 975.276 728.582 975.082 729.713ZM956.611 729.73C956.744 728.895 956.833 728.054 956.876 727.211C956.913 726.347 956.938 725.496 956.93 724.679C957.367 724.869 957.801 725.071 958.255 725.228C958.71 725.385 959.143 725.571 959.606 725.703C958.953 728.768 959.193 731.973 960.721 734.5C961.51 735.835 962.637 736.939 963.987 737.7C965.338 738.462 966.865 738.856 968.416 738.841C969.964 738.839 971.484 738.436 972.83 737.67C974.175 736.904 975.298 735.802 976.09 734.471C977.618 731.952 977.866 728.763 977.213 725.682C977.667 725.55 978.117 725.381 978.564 725.207C979.01 725.034 979.452 724.848 979.889 724.658C979.889 725.484 979.865 726.335 979.935 727.182C979.981 728.024 980.071 728.864 980.203 729.697C980.461 731.374 980.943 733.009 981.636 734.558C981.276 735.963 980.824 737.343 980.282 738.688C979.718 740.07 979.067 741.413 978.332 742.711C976.769 745.47 974.851 748.012 972.628 750.274C971.978 749.999 971.301 749.79 970.609 749.65C969.159 749.353 967.664 749.353 966.214 749.65C965.52 749.788 964.842 749.995 964.19 750.269C961.976 748.017 960.065 745.484 958.507 742.736C957.771 741.44 957.118 740.097 956.554 738.717C956.016 737.373 955.563 735.997 955.199 734.595C955.889 733.045 956.364 731.409 956.611 729.73ZM972.897 755.482C973.021 757.15 971.546 759.087 968.407 759.319C965.268 759.071 963.802 757.192 963.926 755.54C964.05 753.888 965.566 752.413 968.416 752.405C971.265 752.397 972.752 753.776 972.897 755.482ZM982.281 760.587C979.811 762.801 977.296 764.845 974.925 766.935C973.735 767.943 972.583 768.988 971.493 770.02C970.402 771.053 969.361 772.094 968.407 773.18C967.457 772.098 966.417 771.04 965.33 770.02C964.244 769 963.084 767.939 961.894 766.931C959.523 764.841 957.008 762.796 954.538 760.591C953.749 759.909 952.931 759.141 952.122 758.332C951.3 757.523 950.524 756.67 949.797 755.775C949.069 754.91 948.409 753.99 947.822 753.024C947.268 752.138 946.805 751.199 946.439 750.22C946.108 749.349 945.894 748.438 945.803 747.511C945.722 746.67 945.802 745.822 946.038 745.012C946.505 743.438 947.595 742.141 949.392 741.03L949.421 741.001C950.816 740.206 952.058 739.168 953.088 737.937C954.717 743.202 957.506 748.034 961.25 752.079C961.266 752.103 961.287 752.124 961.312 752.14C960.51 752.873 959.935 753.821 959.655 754.871C959.475 755.711 959.526 756.584 959.805 757.397C960.084 758.21 960.579 758.932 961.237 759.484C961.598 759.828 961.989 760.139 962.406 760.413C962.862 760.7 963.338 760.953 963.831 761.169C964.364 761.403 964.912 761.603 965.471 761.768C966.065 761.923 966.668 762.046 967.276 762.136C967.642 762.247 968.025 762.291 968.407 762.268C968.788 762.294 969.171 762.248 969.535 762.131C970.122 762.05 970.704 761.934 971.278 761.785C971.822 761.632 972.355 761.442 972.872 761.215C973.356 761.011 973.826 760.774 974.276 760.504C974.689 760.242 975.079 759.948 975.445 759.624C976.101 759.056 976.621 758.35 976.969 757.555C977.277 756.801 977.37 755.976 977.238 755.172C977.001 754.001 976.391 752.939 975.499 752.145C975.499 752.145 975.54 752.103 975.565 752.079C979.309 748.034 982.097 743.199 983.722 737.933C984.779 739.21 986.063 740.282 987.51 741.092C989.273 742.203 990.339 743.508 990.789 745.074C991.01 745.886 991.082 746.731 991.004 747.568C990.905 748.493 990.685 749.401 990.351 750.269C989.983 751.244 989.518 752.18 988.963 753.062C988.674 753.524 988.369 753.995 988.038 754.458C987.708 754.92 987.357 755.354 986.997 755.796C986.638 756.238 986.242 756.692 985.849 757.126C985.457 757.559 985.044 757.972 984.66 758.356C983.867 759.133 983.049 759.893 982.264 760.57L982.281 760.587Z" fill="#D2AC67" fill-opacity="0.5"/>
<path d="M976.233 698.691C976.23 697.659 976.026 696.636 975.635 695.681C974.836 693.769 973.316 692.25 971.405 691.451C969.474 690.653 967.306 690.653 965.375 691.451C963.469 692.257 961.951 693.774 961.146 695.681C960.446 697.358 960.351 699.225 960.876 700.965C961.4 702.704 962.513 704.208 964.022 705.219C965.532 706.229 967.346 706.685 969.155 706.507C970.963 706.328 972.653 705.528 973.937 704.242C974.665 703.52 975.243 702.661 975.639 701.715C976.03 700.755 976.232 699.728 976.233 698.691ZM970.282 703.214C969.072 703.714 967.714 703.715 966.503 703.218C965.318 702.716 964.374 701.772 963.872 700.587C963.376 699.375 963.376 698.016 963.872 696.804C964.374 695.619 965.318 694.675 966.503 694.173C967.714 693.676 969.072 693.678 970.282 694.177C971.467 694.679 972.411 695.623 972.913 696.808C973.161 697.406 973.288 698.048 973.288 698.696C973.288 699.343 973.161 699.985 972.913 700.583C972.411 701.768 971.467 702.712 970.282 703.214Z" fill="#D2AC67" fill-opacity="0.5"/>
</g>
</g>
<defs>
<linearGradient id="paint0_linear_345_2089" x1="1127.04" y1="434.4" x2="-172.494" y2="801.551" gradientUnits="userSpaceOnUse">
<stop stop-color="#B89346"/>
<stop offset="0.45" stop-color="#EADAB8"/>
<stop offset="1" stop-color="#724E1A"/>
</linearGradient>
<linearGradient id="paint1_linear_345_2089" x1="1128.73" y1="427.716" x2="-169.312" y2="792.004" gradientUnits="userSpaceOnUse">
<stop stop-color="#B89346"/>
<stop offset="0.45" stop-color="#EADAB8"/>
<stop offset="1" stop-color="#724E1A"/>
</linearGradient>
<linearGradient id="paint2_linear_345_2089" x1="1131.29" y1="421.319" x2="-167.309" y2="788.062" gradientUnits="userSpaceOnUse">
<stop stop-color="#B89346"/>
<stop offset="0.45" stop-color="#EADAB8"/>
<stop offset="1" stop-color="#724E1A"/>
</linearGradient>
<linearGradient id="paint3_linear_345_2089" x1="1132.14" y1="414.424" x2="-162.919" y2="773.25" gradientUnits="userSpaceOnUse">
<stop stop-color="#B89346"/>
<stop offset="0.45" stop-color="#EADAB8"/>
<stop offset="1" stop-color="#724E1A"/>
</linearGradient>
<linearGradient id="paint4_linear_345_2089" x1="1133.83" y1="407.837" x2="-159.805" y2="763.843" gradientUnits="userSpaceOnUse">
<stop stop-color="#B89346"/>
<stop offset="0.45" stop-color="#EADAB8"/>
<stop offset="1" stop-color="#724E1A"/>
</linearGradient>
<linearGradient id="paint5_linear_345_2089" x1="1135.55" y1="401.253" x2="-156.515" y2="754.405" gradientUnits="userSpaceOnUse">
<stop stop-color="#B89346"/>
<stop offset="0.45" stop-color="#EADAB8"/>
<stop offset="1" stop-color="#724E1A"/>
</linearGradient>
<linearGradient id="paint6_linear_345_2089" x1="1137.27" y1="394.703" x2="-153.223" y2="745.008" gradientUnits="userSpaceOnUse">
<stop stop-color="#B89346"/>
<stop offset="0.45" stop-color="#EADAB8"/>
<stop offset="1" stop-color="#724E1A"/>
</linearGradient>
<linearGradient id="paint7_linear_345_2089" x1="1139.04" y1="388.141" x2="-149.906" y2="735.854" gradientUnits="userSpaceOnUse">
<stop stop-color="#B89346"/>
<stop offset="0.45" stop-color="#EADAB8"/>
<stop offset="1" stop-color="#724E1A"/>
</linearGradient>
<linearGradient id="paint8_linear_345_2089" x1="1141.49" y1="381.6" x2="-146.93" y2="731.671" gradientUnits="userSpaceOnUse">
<stop stop-color="#B89346"/>
<stop offset="0.45" stop-color="#EADAB8"/>
<stop offset="1" stop-color="#724E1A"/>
</linearGradient>
<linearGradient id="paint9_linear_345_2089" x1="1142.51" y1="375.12" x2="-143.294" y2="717.181" gradientUnits="userSpaceOnUse">
<stop stop-color="#B89346"/>
<stop offset="0.45" stop-color="#EADAB8"/>
<stop offset="1" stop-color="#724E1A"/>
</linearGradient>
<linearGradient id="paint10_linear_345_2089" x1="1144.28" y1="368.623" x2="-139.886" y2="707.853" gradientUnits="userSpaceOnUse">
<stop stop-color="#B89346"/>
<stop offset="0.45" stop-color="#EADAB8"/>
<stop offset="1" stop-color="#724E1A"/>
</linearGradient>
<linearGradient id="paint11_linear_345_2089" x1="1146.09" y1="362.211" x2="-136.569" y2="698.651" gradientUnits="userSpaceOnUse">
<stop stop-color="#B89346"/>
<stop offset="0.45" stop-color="#EADAB8"/>
<stop offset="1" stop-color="#724E1A"/>
</linearGradient>
<linearGradient id="paint12_linear_345_2089" x1="1148.02" y1="355.843" x2="-134.364" y2="690.598" gradientUnits="userSpaceOnUse">
<stop stop-color="#B89346"/>
<stop offset="0.45" stop-color="#EADAB8"/>
<stop offset="1" stop-color="#724E1A"/>
</linearGradient>
<linearGradient id="paint13_linear_345_2089" x1="1150.01" y1="349.197" x2="-130.085" y2="683.354" gradientUnits="userSpaceOnUse">
<stop stop-color="#B89346"/>
<stop offset="0.45" stop-color="#EADAB8"/>
<stop offset="1" stop-color="#724E1A"/>
</linearGradient>
<linearGradient id="paint14_linear_345_2089" x1="1151.43" y1="342.778" x2="-126.215" y2="671.009" gradientUnits="userSpaceOnUse">
<stop stop-color="#B89346"/>
<stop offset="0.45" stop-color="#EADAB8"/>
<stop offset="1" stop-color="#724E1A"/>
</linearGradient>
<linearGradient id="paint15_linear_345_2089" x1="1152.86" y1="336.801" x2="-125.523" y2="656.935" gradientUnits="userSpaceOnUse">
<stop stop-color="#B89346"/>
<stop offset="0.45" stop-color="#EADAB8"/>
<stop offset="1" stop-color="#724E1A"/>
</linearGradient>
<linearGradient id="paint16_linear_345_2089" x1="1154.93" y1="330.163" x2="-121.306" y2="649.759" gradientUnits="userSpaceOnUse">
<stop stop-color="#B89346"/>
<stop offset="0.45" stop-color="#EADAB8"/>
<stop offset="1" stop-color="#724E1A"/>
</linearGradient>
<linearGradient id="paint17_linear_345_2089" x1="1157.01" y1="323.366" x2="-115.627" y2="643.46" gradientUnits="userSpaceOnUse">
<stop stop-color="#B89346"/>
<stop offset="0.45" stop-color="#EADAB8"/>
<stop offset="1" stop-color="#724E1A"/>
</linearGradient>
<linearGradient id="paint18_linear_345_2089" x1="1158.89" y1="316.921" x2="-112.04" y2="634.233" gradientUnits="userSpaceOnUse">
<stop stop-color="#B89346"/>
<stop offset="0.45" stop-color="#EADAB8"/>
<stop offset="1" stop-color="#724E1A"/>
</linearGradient>
<linearGradient id="paint19_linear_345_2089" x1="1160.78" y1="310.45" x2="-108.577" y2="625.019" gradientUnits="userSpaceOnUse">
<stop stop-color="#B89346"/>
<stop offset="0.45" stop-color="#EADAB8"/>
<stop offset="1" stop-color="#724E1A"/>
</linearGradient>
<linearGradient id="paint20_linear_345_2089" x1="1163.1" y1="303.66" x2="-104.245" y2="621.029" gradientUnits="userSpaceOnUse">
<stop stop-color="#B89346"/>
<stop offset="0.45" stop-color="#EADAB8"/>
<stop offset="1" stop-color="#724E1A"/>
</linearGradient>
<linearGradient id="paint21_linear_345_2089" x1="1164.39" y1="298.015" x2="-103.461" y2="602.103" gradientUnits="userSpaceOnUse">
<stop stop-color="#B89346"/>
<stop offset="0.45" stop-color="#EADAB8"/>
<stop offset="1" stop-color="#724E1A"/>
</linearGradient>
<linearGradient id="paint22_linear_345_2089" x1="1166.58" y1="291.11" x2="-97.6861" y2="597.642" gradientUnits="userSpaceOnUse">
<stop stop-color="#B89346"/>
<stop offset="0.45" stop-color="#EADAB8"/>
<stop offset="1" stop-color="#724E1A"/>
</linearGradient>
<linearGradient id="paint23_linear_345_2089" x1="1168.75" y1="285.515" x2="-93.903" y2="589.325" gradientUnits="userSpaceOnUse">
<stop stop-color="#B89346"/>
<stop offset="0.45" stop-color="#EADAB8"/>
<stop offset="1" stop-color="#724E1A"/>
</linearGradient>
<linearGradient id="paint24_linear_345_2089" x1="1171.33" y1="281.266" x2="-89.8309" y2="583.749" gradientUnits="userSpaceOnUse">
<stop stop-color="#B89346"/>
<stop offset="0.45" stop-color="#EADAB8"/>
<stop offset="1" stop-color="#724E1A"/>
</linearGradient>
<linearGradient id="paint25_linear_345_2089" x1="1173.72" y1="277.162" x2="-85.3735" y2="575.707" gradientUnits="userSpaceOnUse">
<stop stop-color="#B89346"/>
<stop offset="0.45" stop-color="#EADAB8"/>
<stop offset="1" stop-color="#724E1A"/>
</linearGradient>
<linearGradient id="paint26_linear_345_2089" x1="1176.23" y1="272.979" x2="-81.2077" y2="568.818" gradientUnits="userSpaceOnUse">
<stop stop-color="#B89346"/>
<stop offset="0.45" stop-color="#EADAB8"/>
<stop offset="1" stop-color="#724E1A"/>
</linearGradient>
<linearGradient id="paint27_linear_345_2089" x1="1178.61" y1="269.253" x2="-78.4317" y2="557.51" gradientUnits="userSpaceOnUse">
<stop stop-color="#B89346"/>
<stop offset="0.45" stop-color="#EADAB8"/>
<stop offset="1" stop-color="#724E1A"/>
</linearGradient>
<linearGradient id="paint28_linear_345_2089" x1="1181.17" y1="264.9" x2="-73.6805" y2="552.654" gradientUnits="userSpaceOnUse">
<stop stop-color="#B89346"/>
<stop offset="0.45" stop-color="#EADAB8"/>
<stop offset="1" stop-color="#724E1A"/>
</linearGradient>
<linearGradient id="paint29_linear_345_2089" x1="1183.72" y1="260.443" x2="-68.4035" y2="548.359" gradientUnits="userSpaceOnUse">
<stop stop-color="#B89346"/>
<stop offset="0.45" stop-color="#EADAB8"/>
<stop offset="1" stop-color="#724E1A"/>
</linearGradient>
<linearGradient id="paint30_linear_345_2089" x1="1186.19" y1="256.276" x2="-64.0986" y2="541.476" gradientUnits="userSpaceOnUse">
<stop stop-color="#B89346"/>
<stop offset="0.45" stop-color="#EADAB8"/>
<stop offset="1" stop-color="#724E1A"/>
</linearGradient>
<linearGradient id="paint31_linear_345_2089" x1="1188.71" y1="252.169" x2="-59.962" y2="534.483" gradientUnits="userSpaceOnUse">
<stop stop-color="#B89346"/>
<stop offset="0.45" stop-color="#EADAB8"/>
<stop offset="1" stop-color="#724E1A"/>
</linearGradient>
<linearGradient id="paint32_linear_345_2089" x1="1191.19" y1="247.967" x2="-55.5669" y2="527.792" gradientUnits="userSpaceOnUse">
<stop stop-color="#B89346"/>
<stop offset="0.45" stop-color="#EADAB8"/>
<stop offset="1" stop-color="#724E1A"/>
</linearGradient>
<linearGradient id="paint33_linear_345_2089" x1="1193.67" y1="243.799" x2="-51.3237" y2="520.949" gradientUnits="userSpaceOnUse">
<stop stop-color="#B89346"/>
<stop offset="0.45" stop-color="#EADAB8"/>
<stop offset="1" stop-color="#724E1A"/>
</linearGradient>
<linearGradient id="paint34_linear_345_2089" x1="1196.12" y1="239.862" x2="-47.5609" y2="512.014" gradientUnits="userSpaceOnUse">
<stop stop-color="#B89346"/>
<stop offset="0.45" stop-color="#EADAB8"/>
<stop offset="1" stop-color="#724E1A"/>
</linearGradient>
<linearGradient id="paint35_linear_345_2089" x1="1198.59" y1="235.458" x2="-42.7278" y2="507.253" gradientUnits="userSpaceOnUse">
<stop stop-color="#B89346"/>
<stop offset="0.45" stop-color="#EADAB8"/>
<stop offset="1" stop-color="#724E1A"/>
</linearGradient>
<linearGradient id="paint36_linear_345_2089" x1="1201.04" y1="231.248" x2="-38.3099" y2="500.574" gradientUnits="userSpaceOnUse">
<stop stop-color="#B89346"/>
<stop offset="0.45" stop-color="#EADAB8"/>
<stop offset="1" stop-color="#724E1A"/>
</linearGradient>
<linearGradient id="paint37_linear_345_2089" x1="1203.45" y1="226.651" x2="-33.1537" y2="497.252" gradientUnits="userSpaceOnUse">
<stop stop-color="#B89346"/>
<stop offset="0.45" stop-color="#EADAB8"/>
<stop offset="1" stop-color="#724E1A"/>
</linearGradient>
<linearGradient id="paint38_linear_345_2089" x1="1205.9" y1="222.905" x2="-29.6499" y2="486.897" gradientUnits="userSpaceOnUse">
<stop stop-color="#B89346"/>
<stop offset="0.45" stop-color="#EADAB8"/>
<stop offset="1" stop-color="#724E1A"/>
</linearGradient>
<linearGradient id="paint39_linear_345_2089" x1="1208.34" y1="218.733" x2="-25.2272" y2="480.054" gradientUnits="userSpaceOnUse">
<stop stop-color="#B89346"/>
<stop offset="0.45" stop-color="#EADAB8"/>
<stop offset="1" stop-color="#724E1A"/>
</linearGradient>
<linearGradient id="paint40_linear_345_2089" x1="1210.83" y1="214.771" x2="-21.2715" y2="471.52" gradientUnits="userSpaceOnUse">
<stop stop-color="#B89346"/>
<stop offset="0.45" stop-color="#EADAB8"/>
<stop offset="1" stop-color="#724E1A"/>
</linearGradient>
<linearGradient id="paint41_linear_345_2089" x1="1213.16" y1="210.356" x2="-16.4616" y2="466.589" gradientUnits="userSpaceOnUse">
<stop stop-color="#B89346"/>
<stop offset="0.45" stop-color="#EADAB8"/>
<stop offset="1" stop-color="#724E1A"/>
</linearGradient>
<clipPath id="clip0_345_2089">
<rect width="1501.91" height="781.552" fill="white" transform="matrix(-0.978971 0.204001 0.204001 0.978971 1169.33 0)"/>
</clipPath>
<clipPath id="clip1_345_2089">
<rect width="115.535" height="115.535" fill="white" transform="translate(968.391 617) rotate(45)"/>
</clipPath>
</defs>
</svg>
