<svg width="272" height="23" viewBox="0 0 272 23" fill="none" xmlns="http://www.w3.org/2000/svg">
<path fill-rule="evenodd" clip-rule="evenodd" d="M205.066 0.0892027C166.825 0.342482 155.891 0.507246 134.674 1.15042C112.686 1.81694 96.9499 2.48507 71.9823 3.81226C66.1942 4.11992 59.9967 4.41191 52.7312 4.71915C26.0418 5.84777 20.8482 6.14851 12.2202 7.06458C7.94534 7.51857 4.24829 7.83274 2.17621 7.91837C0.333964 7.99441 0 8.04229 0 8.2303C0 8.39646 2.94642 8.54203 4.55798 8.45543C5.13552 8.42451 6.70021 8.34868 8.03523 8.28715C9.37025 8.22551 12.3081 8.0601 14.5639 7.91954C19.8756 7.58841 22.426 7.48401 31.555 7.2239C46.9018 6.78666 58.4951 6.36649 72.7356 5.73142C77.9836 5.49734 84.9516 5.18658 88.2201 5.0408C113.009 3.93501 143.29 2.94897 161.793 2.64514C184.246 2.27626 253.952 1.95014 252.775 2.21931C252.309 2.32606 244.332 3.12003 239.55 3.53573C235.158 3.91762 227.82 4.46843 218.793 5.09379C214.511 5.39048 208.636 5.80106 205.735 6.00624C194.84 6.77717 191.252 7.01627 185.061 7.38408C156.544 9.07834 137.707 10.5547 111.489 13.1502C95.9046 14.6929 83.1311 16.464 68.8763 19.0585C60.7718 20.5336 59.9822 20.7957 60.7798 21.7453C61.2989 22.3632 65.3882 22.4433 73.636 21.997C88.7089 21.1815 102.873 20.549 116.595 20.0787C125.201 19.7837 126.341 19.7342 135.092 19.2763C138.361 19.1053 144.011 18.8554 147.647 18.721L154.26 18.4767L145.471 18.3804C132.154 18.2344 117.868 18.2432 113.163 18.4004C97.5865 18.9208 89.1144 19.3214 75.2759 20.1915C71.9774 20.3989 69.1947 20.5508 69.0919 20.529C68.1009 20.3185 90.2827 17.1378 100.865 15.973C124.752 13.3435 149.351 11.3815 187.154 9.0906C190.607 8.88137 197.537 8.42365 202.555 8.07354C207.573 7.72332 215.482 7.17197 220.132 6.84809C238.028 5.60174 243.36 5.13752 260.559 3.3283C271.575 2.16951 271.633 2.15959 271.934 1.39751C272.264 0.55961 271.381 0.179426 268.853 0.0707561C266.451 -0.032582 221.484 -0.0195743 205.066 0.0892027ZM154.973 18.3921C155.181 18.4176 155.483 18.4166 155.643 18.39C155.803 18.3633 155.632 18.3424 155.264 18.3436C154.896 18.3447 154.765 18.3666 154.973 18.3921Z" fill="url(#paint0_linear_363_2235)"/>
<defs>
<linearGradient id="paint0_linear_363_2235" x1="264.54" y1="-8.01162" x2="240.978" y2="77.0013" gradientUnits="userSpaceOnUse">
<stop stop-color="#FCC342"/>
<stop offset="0.1" stop-color="#9E5313"/>
<stop offset="0.3" stop-color="#E7AA39"/>
<stop offset="0.48" stop-color="#F7FC97"/>
<stop offset="0.58" stop-color="#E7AA39"/>
<stop offset="0.88" stop-color="#632507"/>
</linearGradient>
</defs>
</svg>
