<svg width="242" height="230" viewBox="0 0 242 230" fill="none" xmlns="http://www.w3.org/2000/svg">
<g clip-path="url(#clip0_348_2146)">
<path d="M120.715 136.278C123.472 136.267 126.205 135.795 128.789 134.882C131.35 133.977 133.713 132.63 135.758 130.91C140.207 135.571 144.808 140.111 149.702 144.316C149.443 145.117 149.287 145.945 149.239 146.782C149.188 147.701 149.231 148.622 149.367 149.533C149.658 151.551 150.451 153.475 151.68 155.145C153.222 157.093 155.486 158.413 158.014 158.839C159.321 159.074 160.665 159.039 161.956 158.735C163.243 158.426 164.422 157.805 165.38 156.934C166.268 156.047 166.91 154.965 167.247 153.784C167.574 152.589 167.64 151.344 167.443 150.124C167.077 147.782 165.796 145.657 163.854 144.171C162.069 142.903 159.981 142.076 157.776 141.762C155.878 141.448 153.929 141.547 152.076 142.051C147.606 137.417 142.893 132.999 137.955 128.813C139.766 126.874 141.184 124.634 142.135 122.206C144.104 117.265 144.104 111.812 142.135 106.871C141.184 104.443 139.766 102.203 137.955 100.264C142.893 96.0785 147.606 91.6603 152.076 87.026C152.921 87.271 153.794 87.4188 154.676 87.4661C155.644 87.5171 156.615 87.4764 157.575 87.3445C159.71 87.0842 161.748 86.3415 163.519 85.1787C165.571 83.7145 166.962 81.5666 167.412 79.1677C167.664 77.9265 167.629 76.6479 167.308 75.421C167.011 74.2044 166.364 73.0897 165.44 72.2005C164.516 71.3112 163.35 70.6821 162.072 70.3829C160.815 70.0737 159.505 70.0126 158.222 70.2033C155.744 70.5364 153.491 71.7441 151.912 73.5852C150.599 75.2747 149.74 77.2426 149.409 79.3183C149.079 81.1215 149.182 82.9721 149.708 84.7328C144.826 88.9254 140.219 93.4713 135.764 98.1387C133.719 96.4181 131.356 95.0713 128.795 94.1662C123.589 92.3035 117.846 92.3056 112.642 94.172C110.079 95.0693 107.716 96.4126 105.672 98.1329C101.262 93.4471 96.606 88.9748 91.7221 84.7328C91.9768 83.9303 92.1325 83.1024 92.1859 82.2658C92.2367 81.3472 92.1938 80.426 92.0577 79.5151C91.7796 77.487 90.995 75.5512 89.7692 73.869C88.2239 71.9239 85.9615 70.6043 83.4348 70.1744C82.1254 69.9442 80.7793 69.9817 79.4864 70.2844C78.2028 70.5628 77.0259 71.1743 76.0873 72.0507C75.1487 72.927 74.4852 74.0338 74.1711 75.2472C73.8494 76.4407 73.7851 77.6836 73.982 78.9013C74.3465 81.2435 75.6251 83.3703 77.5642 84.8602C79.3522 86.1254 81.4424 86.951 83.6484 87.2634C85.5444 87.5794 87.4914 87.4824 89.3421 86.9796C93.7664 91.6182 98.5508 95.9845 103.469 100.212C101.655 102.152 100.237 104.397 99.2892 106.831C97.3283 111.769 97.3283 117.216 99.2892 122.154C100.237 124.587 101.655 126.832 103.469 128.773C98.5569 132.994 93.7725 137.361 89.3421 142.005C88.4958 141.766 87.6237 141.618 86.7424 141.565C85.7743 141.519 84.8038 141.56 83.8437 141.686C81.7153 141.967 79.6869 142.721 77.9242 143.887C75.8725 145.352 74.4814 147.499 74.0308 149.898C73.7863 151.138 73.8238 152.414 74.1406 153.639C74.4735 154.866 75.131 155.992 76.0507 156.911C76.9858 157.755 78.1295 158.362 79.3766 158.677C80.6353 158.989 81.948 159.052 83.2334 158.862C85.6984 158.517 87.9359 157.303 89.5007 155.463C90.8394 153.771 91.712 151.788 92.0394 149.695C92.3766 147.894 92.2722 146.043 91.7343 144.287C96.618 140.044 101.274 135.572 105.685 130.886C107.728 132.607 110.091 133.95 112.654 134.847C115.231 135.773 117.96 136.257 120.715 136.278ZM107.595 126.989C105.87 125.356 104.501 123.417 103.567 121.281C102.633 119.146 102.152 116.857 102.152 114.544C102.152 112.232 102.633 109.943 103.567 107.807C104.501 105.672 105.87 103.732 107.595 102.1C109.315 100.462 111.359 99.1631 113.609 98.2776C115.86 97.3921 118.273 96.9375 120.709 96.94C123.175 96.8951 125.626 97.3173 127.918 98.1819C130.211 99.0464 132.298 100.336 134.059 101.975C135.82 103.614 137.219 105.57 138.174 107.728C139.128 109.887 139.62 112.204 139.62 114.544C139.62 116.885 139.128 119.202 138.174 121.36C137.219 123.519 135.82 125.475 134.059 127.114C132.298 128.753 130.211 130.042 127.918 130.907C125.626 131.772 123.175 132.194 120.709 132.149C118.273 132.151 115.86 131.697 113.609 130.811C111.359 129.926 109.315 128.627 107.595 126.989Z" fill="#D2AC67" fill-opacity="0.5"/>
<path d="M124.828 225.087C128.227 219.175 134.067 214.513 139.974 209.463C145.882 204.414 151.923 199.04 155.939 192.866C157.722 190.238 158.899 187.282 159.393 184.192C159.803 181.559 159.403 178.87 158.239 176.449C159.891 176.513 161.546 176.414 163.176 176.154C164.914 175.865 166.617 175.413 168.26 174.805C171.853 173.433 175.115 171.382 177.847 168.776C180.56 166.174 182.697 163.083 184.132 159.684C184.766 158.123 185.242 156.508 185.554 154.861C185.823 153.311 185.926 151.739 185.859 150.17C188.421 151.299 191.274 151.692 194.067 151.299C197.334 150.834 200.462 149.721 203.246 148.033C209.763 144.234 215.481 138.519 220.742 132.901C226.002 127.284 230.951 121.742 237.206 118.505C238.256 117.961 238.824 116.287 238.86 114.62C238.897 112.952 238.274 111.261 237.206 110.734C230.982 107.421 226.087 101.851 220.754 96.2797C215.42 90.7088 209.775 84.9468 203.264 81.1306C200.493 79.4416 197.378 78.3249 194.122 77.853C191.341 77.4642 188.5 77.8505 185.945 78.9648C186.01 77.3951 185.903 75.8232 185.628 74.2742C185.324 72.6254 184.847 71.0095 184.206 69.4503C182.756 66.0454 180.595 62.9543 177.852 60.3636C175.11 57.7729 171.842 55.7363 168.248 54.3766C166.604 53.7678 164.902 53.3158 163.164 53.0273C161.531 52.7692 159.875 52.6722 158.221 52.7377C159.407 50.3065 159.821 47.5998 159.411 44.9489C158.91 41.8305 157.718 38.8483 155.914 36.1989C151.911 30.0142 145.894 24.5939 139.968 19.5963C134.043 14.5987 128.215 9.9023 124.803 3.97819C124.23 2.98215 122.466 2.44359 120.709 2.40885C118.951 2.3741 117.163 2.95898 116.614 3.97819C113.215 9.89072 107.369 14.5466 101.461 19.5963C95.554 24.646 89.5185 30.0257 85.4909 36.1989C83.7081 38.8388 82.5351 41.8071 82.049 44.9084C81.6312 47.5494 82.0364 50.2488 83.2146 52.674C81.5608 52.6112 79.9046 52.7082 78.2715 52.9636C76.5323 53.2557 74.8276 53.7096 73.182 54.3187C69.591 55.6895 66.3311 57.7388 63.6004 60.342C60.8697 62.9452 58.7251 66.048 57.2971 69.4619C56.6594 71.0223 56.1832 72.6379 55.8752 74.2858C55.6097 75.8358 55.5075 77.4071 55.57 78.9764C53.0096 77.8523 50.1591 77.4618 47.3682 77.853C44.0969 78.3165 40.9653 79.4294 38.1778 81.119C31.6603 84.9179 25.9483 90.6277 20.6879 96.2565C15.4275 101.885 10.4722 107.41 4.22932 110.647C3.17357 111.185 2.61213 112.865 2.57551 114.533C2.5389 116.2 3.15526 117.897 4.2293 118.418C10.46 121.644 15.3665 127.192 20.6879 132.797C26.0093 138.403 31.6786 144.13 38.1778 147.946C40.9498 149.637 44.0672 150.752 47.3255 151.218C50.1087 151.608 52.9512 151.224 55.509 150.112C55.44 151.681 55.5422 153.253 55.8142 154.803C56.122 156.451 56.5982 158.066 57.2361 159.627C58.6815 163.035 60.842 166.13 63.5863 168.722C66.3306 171.314 69.6015 173.35 73.2003 174.706C74.8435 175.314 76.5464 175.766 78.2837 176.055C79.9149 176.31 81.5688 176.408 83.2207 176.351C82.0342 178.778 81.6206 181.481 82.0307 184.128C82.5227 187.231 83.6952 190.202 85.4725 192.849C89.4758 199.034 95.499 204.46 101.425 209.446C107.35 214.432 113.178 219.14 116.596 225.07C117.169 226.066 118.927 226.599 120.69 226.639C122.454 226.68 124.248 226.077 124.828 225.087ZM189.216 83.1574C190.414 82.8418 191.664 82.7397 192.902 82.8563C194.255 82.9863 195.584 83.2822 196.856 83.7365C198.299 84.2543 199.683 84.9081 200.988 85.6881C201.677 86.0877 202.361 86.5162 203.044 86.9795C203.728 87.4427 204.375 87.9292 205.028 88.4446C205.681 88.9599 206.352 89.5043 206.968 90.0197C207.585 90.5351 208.189 91.1779 208.756 91.7164C209.946 92.8457 211.081 93.9923 212.082 95.0925C215.347 98.5497 218.368 102.076 221.456 105.4C222.945 107.068 224.489 108.684 226.02 110.218C227.497 111.732 229.055 113.172 230.689 114.533C229.084 115.87 227.528 117.324 226.02 118.858C224.513 120.393 222.945 122.009 221.456 123.677C218.368 127.001 215.347 130.527 212.082 133.984C211.075 135.09 209.946 136.243 208.744 137.372C207.552 138.526 206.292 139.616 204.973 140.638C203.692 141.652 202.333 142.573 200.908 143.395C199.6 144.178 198.209 144.83 196.759 145.34C195.483 145.797 194.149 146.089 192.792 146.209C191.55 146.316 190.299 146.204 189.1 145.879C186.775 145.225 184.859 143.696 183.211 141.171C182.043 139.21 180.509 137.468 178.683 136.029C186.465 133.75 193.608 129.841 199.584 124.591C199.584 124.591 199.645 124.534 199.676 124.505C200.756 125.628 202.154 126.432 203.703 126.821C204.947 127.077 206.24 127.005 207.443 126.614C208.647 126.223 209.715 125.528 210.532 124.603C211.035 124.096 211.492 123.55 211.899 122.97C212.325 122.331 212.696 121.661 213.01 120.966C213.363 120.221 213.659 119.453 213.895 118.667C214.127 117.842 214.312 117.005 214.45 116.16C214.71 115.117 214.71 114.03 214.45 112.986C214.324 112.163 214.149 111.347 213.925 110.543C213.7 109.781 213.423 109.035 213.095 108.307C212.786 107.633 212.434 106.977 212.039 106.344C211.649 105.744 211.208 105.175 210.721 104.642C209.883 103.726 208.841 102.998 207.67 102.511C206.556 102.077 205.337 101.947 204.149 102.134C202.416 102.467 200.844 103.325 199.67 104.578L199.578 104.491C193.602 99.2415 186.459 95.333 178.677 93.0541C180.565 91.5726 182.148 89.7722 183.345 87.7438C184.975 85.2827 186.897 83.7829 189.216 83.1574ZM200.06 114.562C199.956 110.572 202.135 108.423 204.607 108.267C207.078 108.111 209.934 110.161 210.276 114.562C209.916 118.969 207.133 121.018 204.698 120.851C202.263 120.683 200.054 118.54 200.042 114.544L200.06 114.562ZM173.728 96.0133C177.938 97.0363 181.983 98.5926 185.756 100.64C189.817 102.824 193.561 105.501 196.893 108.603C196.489 109.517 196.183 110.468 195.978 111.44C195.538 113.473 195.538 115.569 195.978 117.602C196.179 118.575 196.486 119.526 196.893 120.439C193.562 123.541 189.82 126.22 185.762 128.408C183.845 129.434 181.862 130.345 179.824 131.135C177.84 131.9 175.803 132.537 173.728 133.04C171.44 132.063 169.024 131.383 166.545 131.019C165.312 130.836 164.069 130.712 162.822 130.649C161.553 130.602 160.296 130.568 159.088 130.579C159.368 129.965 159.661 129.363 159.893 128.726C160.125 128.089 160.394 127.475 160.595 126.833C165.123 127.748 169.852 127.406 173.593 125.269C175.553 124.148 177.173 122.566 178.298 120.675C179.422 118.784 180.012 116.65 180.01 114.479C180.008 112.307 179.415 110.174 178.287 108.285C177.16 106.396 175.536 104.816 173.575 103.698C169.852 101.555 165.141 101.208 160.589 102.123C160.387 101.48 160.137 100.849 159.881 100.223C159.625 99.5979 159.356 98.984 159.075 98.3702C160.296 98.3702 161.516 98.3702 162.81 98.3007C164.053 98.2403 165.292 98.1165 166.521 97.9301C168.997 97.5938 171.415 96.9433 173.709 95.9959L173.728 96.0133ZM161.468 124.082C162.253 120.961 162.661 117.765 162.682 114.556C162.656 111.349 162.251 108.156 161.474 105.036C163.16 104.861 164.864 104.917 166.533 105.203C168.146 105.468 169.689 106.03 171.073 106.86C172.467 107.669 173.618 108.805 174.416 110.157C175.215 111.51 175.634 113.034 175.634 114.585C175.634 116.135 175.215 117.66 174.416 119.012C173.618 120.365 172.467 121.5 171.073 122.31C169.69 123.142 168.147 123.705 166.533 123.966C164.852 124.234 163.14 124.267 161.449 124.065L161.468 124.082ZM138.144 71.0486C137.945 72.2205 137.813 73.4016 137.747 74.5869C137.698 75.7914 137.662 76.9843 137.674 78.1309C137.027 77.8645 136.386 77.5808 135.721 77.3665C135.056 77.1523 134.397 76.8859 133.719 76.6948C134.69 72.4037 134.323 67.9099 132.072 64.3601C130.89 62.5011 129.222 60.9636 127.229 59.8967C125.236 58.8298 122.987 58.2697 120.699 58.2709C118.411 58.2721 116.162 58.8344 114.171 59.9033C112.18 60.9723 110.513 62.5115 109.334 64.3717C107.076 67.9042 106.716 72.3805 107.68 76.7006C106.996 76.8859 106.337 77.1291 105.678 77.3723C105.019 77.6155 104.366 77.8645 103.719 78.1309C103.719 76.9727 103.756 75.7798 103.652 74.5927C103.607 73.4084 103.495 72.2273 103.316 71.0544C102.936 68.7038 102.221 66.4129 101.193 64.2443C101.733 62.2739 102.403 60.3378 103.2 58.4476C104.034 56.5115 104.996 54.6276 106.081 52.8072C108.378 48.9571 111.19 45.4048 114.447 42.2388C115.413 42.6238 116.417 42.9167 117.444 43.1132C119.587 43.5224 121.794 43.5224 123.937 43.1132C124.962 42.9186 125.963 42.6276 126.927 42.2446C130.198 45.4039 133.021 48.9547 135.324 52.8072C136.408 54.6243 137.37 56.5043 138.205 58.436C139.001 60.3213 139.668 62.2537 140.2 64.2211C139.187 66.3915 138.489 68.6825 138.125 71.0313L138.144 71.0486ZM130.766 75.8956C127.477 75.1609 124.112 74.7763 120.733 74.749C117.352 74.7726 113.984 75.1592 110.694 75.9014C110.511 74.3014 110.57 72.6847 110.871 71.1007C111.154 69.5709 111.746 68.1076 112.617 66.7923C113.47 65.469 114.667 64.3758 116.093 63.6175C117.52 62.8592 119.127 62.4613 120.762 62.4619C122.397 62.4625 124.004 62.8616 125.43 63.6208C126.856 64.3801 128.052 65.4741 128.904 66.7981C129.781 68.1076 130.373 69.5706 130.644 71.1007C130.921 72.6801 130.956 74.2894 130.747 75.8783L130.766 75.8956ZM114.087 34.948C113.904 32.6085 116.077 29.8868 120.709 29.5683C125.359 29.9157 127.513 32.5506 127.336 34.8612C127.159 37.1717 124.919 39.2507 120.709 39.2623C116.498 39.2738 114.27 37.3223 114.087 34.948ZM87.3216 46.0434C87.4623 44.7456 87.7866 43.4718 88.2858 42.2562C88.8293 40.8894 89.5163 39.5779 90.3363 38.3415C90.7574 37.6871 91.2151 37.0328 91.6911 36.3842C92.1671 35.7356 92.698 35.1275 93.235 34.5021C93.772 33.8767 94.3518 33.2455 94.9315 32.6374C95.5112 32.0294 96.1215 31.5082 96.7195 30.9407C97.9034 29.8173 99.1117 28.7402 100.271 27.7905C103.927 24.6923 107.637 21.8316 111.14 18.9014C112.897 17.4884 114.6 16.0233 116.211 14.564C117.822 13.1047 119.36 11.6569 120.77 10.1339C122.203 11.6842 123.721 13.1629 125.316 14.564C126.933 16.0175 128.636 17.4826 130.393 18.8956C133.896 21.8258 137.613 24.6923 141.262 27.7962C142.428 28.7517 143.642 29.8231 144.832 30.9639C146.051 32.0927 147.2 33.2877 148.274 34.5427C149.335 35.7662 150.296 37.0652 151.148 38.4284C151.973 39.6702 152.66 40.9898 153.199 42.3662C153.677 43.5771 153.985 44.8428 154.114 46.1303C154.224 47.3085 154.106 48.4958 153.766 49.6338C153.07 51.8343 151.459 53.6527 148.805 55.2105L148.762 55.251C146.698 56.367 144.862 57.8264 143.343 59.5594C140.942 52.175 136.823 45.3969 131.29 39.7255L131.199 39.6387C132.386 38.6159 133.234 37.2881 133.64 35.8167C133.91 34.6384 133.835 33.4125 133.425 32.2715C133.014 31.1304 132.282 30.1176 131.309 29.3424C130.772 28.8636 130.194 28.4278 129.582 28.0395C128.908 27.639 128.204 27.2849 127.476 26.9797C126.69 26.6548 125.883 26.3763 125.06 26.1458C124.179 25.9276 123.287 25.7537 122.387 25.6246C121.847 25.4711 121.283 25.4103 120.721 25.4451C120.156 25.4088 119.589 25.4716 119.049 25.6304C118.183 25.7516 117.325 25.9198 116.48 26.1342C115.682 26.3352 114.899 26.5867 114.136 26.8871C113.421 27.1719 112.73 27.5067 112.067 27.8889C111.452 28.2516 110.871 28.6663 110.334 29.1282C109.369 29.9236 108.602 30.9125 108.089 32.0236C107.631 33.0807 107.494 34.2379 107.692 35.365C108.042 37.0037 108.939 38.4919 110.249 39.6097C110.215 39.6357 110.185 39.6648 110.157 39.6966C104.625 45.3679 100.506 52.1461 98.1048 59.5305C96.5436 57.7387 94.6463 56.2367 92.5088 55.1004C89.8969 53.5369 88.3224 51.7185 87.6634 49.518C87.3233 48.3899 87.2075 47.2117 87.3216 46.0434ZM52.2198 145.925C51.0144 146.237 49.7589 146.337 48.5155 146.221C47.1493 146.079 45.8079 145.772 44.5244 145.306C43.0814 144.789 41.6972 144.135 40.393 143.354C39.7095 142.96 39.0199 142.526 38.3304 142.068C37.6408 141.611 37.0061 141.113 36.347 140.603C35.6879 140.094 35.0289 139.538 34.4125 139.022C33.7962 138.507 33.1615 137.893 32.594 137.355C31.404 136.225 30.275 135.085 29.2742 133.984C26.0093 130.516 22.9885 126.989 19.9007 123.665C18.4116 121.997 16.8677 120.381 15.3359 118.847C13.8042 117.312 12.2725 115.859 10.6675 114.533C12.2725 113.195 13.8286 111.741 15.3359 110.207C16.8433 108.672 18.4055 107.062 19.9007 105.4C22.9885 102.076 26.0093 98.5497 29.2742 95.081C30.2811 93.9749 31.4162 92.8283 32.6123 91.6933C33.8041 90.5382 35.0653 89.4497 36.3897 88.433C37.6661 87.4151 39.0228 86.4917 40.4479 85.6707C41.7566 84.8877 43.1472 84.2356 44.5977 83.725C45.8854 83.2634 47.2313 82.9636 48.6009 82.8332C49.8425 82.7233 51.0949 82.8352 52.293 83.1632C54.6181 83.8176 56.5282 85.3522 58.1697 87.8713L58.2125 87.9118C59.3806 89.8723 60.915 91.6148 62.7405 93.0541C54.9604 95.3355 47.8196 99.246 41.8454 104.497C41.8099 104.525 41.7772 104.556 41.7478 104.59C40.6692 103.466 39.2734 102.66 37.7262 102.267C36.483 102.015 35.1907 102.087 33.9878 102.478C32.7848 102.869 31.7166 103.563 30.8975 104.485C30.3916 104.994 29.9342 105.545 29.5305 106.13C29.1049 106.768 28.7315 107.436 28.4137 108.128C28.0677 108.873 27.7741 109.639 27.5349 110.421C27.298 111.255 27.1145 112.102 26.9857 112.958C26.8205 113.469 26.7564 114.005 26.7965 114.538C26.7599 115.072 26.8239 115.607 26.9857 116.119C27.1159 116.942 27.2911 117.758 27.5105 118.563C27.7373 119.324 28.0145 120.071 28.3405 120.798C28.6426 121.479 28.9976 122.137 29.4023 122.767C29.7825 123.35 30.2175 123.898 30.7022 124.406C31.5415 125.325 32.5859 126.055 33.7595 126.543C34.8742 126.974 36.0929 127.105 37.2807 126.919C39.0105 126.587 40.5801 125.732 41.7539 124.481C41.778 124.516 41.8091 124.545 41.8454 124.568C47.8228 129.817 54.9654 133.725 62.7466 136.005C60.8555 137.484 59.2722 139.285 58.0782 141.316C56.4488 143.812 54.5265 145.3 52.2136 145.931L52.2198 145.925ZM41.3755 114.521C41.4671 118.511 39.2945 120.654 36.823 120.81C34.3515 120.966 31.4955 118.916 31.1476 114.521C31.5199 110.114 34.2905 108.064 36.7315 108.238C39.1725 108.412 41.3755 110.548 41.3877 114.544L41.3755 114.521ZM67.6958 133.069C65.621 132.561 63.5826 131.926 61.5933 131.17C59.5542 130.377 57.569 129.464 55.6494 128.437C51.5752 126.242 47.8208 123.552 44.4817 120.434C44.8855 119.52 45.1942 118.572 45.4032 117.602C45.8344 115.568 45.8344 113.474 45.4032 111.44C45.1961 110.466 44.8874 109.513 44.4817 108.597C47.8157 105.497 51.5593 102.82 55.6189 100.634C57.5318 99.6027 59.5132 98.6897 61.5506 97.9011C63.539 97.1465 65.5751 96.5102 67.647 95.9959C69.9465 96.9908 72.3801 97.6787 74.8785 98.0401C76.1115 98.2266 77.3541 98.3503 78.6011 98.4107C79.8765 98.4628 81.1275 98.4918 82.3358 98.4802C82.0551 99.0941 81.7622 99.7079 81.5364 100.339C81.3106 100.97 81.0238 101.59 80.8285 102.239C76.3065 101.318 71.5648 101.659 67.8301 103.802C65.8581 104.909 64.2275 106.488 63.1018 108.382C61.976 110.275 61.3948 112.417 61.4163 114.591C61.4183 116.761 62.0144 118.894 63.1462 120.78C64.278 122.666 65.9067 124.241 67.8728 125.35C71.5953 127.493 76.3126 127.834 80.8651 126.919C81.0604 127.568 81.3167 128.193 81.573 128.819C81.8293 129.444 82.0917 130.064 82.3785 130.684C81.158 130.684 79.9009 130.649 78.6499 130.747C77.4049 130.81 76.1643 130.935 74.9334 131.124C72.4421 131.466 70.0114 132.129 67.708 133.093L67.6958 133.069ZM79.968 105.024C78.3583 111.279 78.3583 117.81 79.968 124.065C78.2822 124.245 76.5775 124.188 74.909 123.897C73.2966 123.64 71.7548 123.078 70.3748 122.246C68.9776 121.439 67.8227 120.304 67.021 118.951C66.2194 117.598 65.798 116.072 65.7974 114.52C65.7968 112.968 66.2169 111.441 67.0175 110.088C67.8181 108.734 68.9721 107.598 70.3687 106.79C71.7504 105.961 73.2915 105.4 74.9029 105.14C76.5764 104.868 78.2827 104.829 79.968 105.024ZM90.2997 170.027C90.1004 170.075 89.9078 170.145 89.726 170.236L89.128 170.56C85.6602 171.998 81.8102 172.388 78.1007 171.677C73.7684 170.83 69.7927 168.796 66.6649 165.828C63.5371 162.86 61.3942 159.087 60.5009 154.976C59.7557 151.456 60.1668 147.804 61.6787 144.512L62.0205 143.945C62.1166 143.774 62.1923 143.593 62.2462 143.406C63.3075 141.55 64.7301 139.901 66.4387 138.548C68.1124 137.234 70.0032 136.191 72.0347 135.461C74.081 134.741 76.2159 134.272 78.3875 134.065C79.4637 133.956 80.5456 133.904 81.6279 133.909C82.7182 133.902 83.808 133.95 84.8928 134.054C86.7358 134.216 88.1577 132.23 87.5596 131.407L87.4498 131.28C86.0252 128.699 84.9253 125.968 84.1727 123.144C83.4571 120.294 83.0926 117.375 83.0864 114.446C83.1103 111.517 83.4995 108.601 84.2459 105.759C85.0009 102.937 86.12 100.214 87.5779 97.6521C87.8892 97.1252 87.5779 96.4939 87.0775 96.0191C86.8142 95.7131 86.4787 95.4702 86.0981 95.3103C85.7174 95.1503 85.3024 95.0777 84.8867 95.0983C83.8038 95.1999 82.716 95.2463 81.6279 95.2373C80.5455 95.2457 79.4635 95.1935 78.3875 95.081C76.2154 94.8776 74.0801 94.4085 72.0347 93.6853C70.005 92.952 68.1148 91.9094 66.4387 90.5988C64.7332 89.2424 63.3112 87.5943 62.2462 85.7402C62.1923 85.5533 62.1166 85.3726 62.0204 85.2016L61.6787 84.6341C60.1668 81.3426 59.7557 77.6902 60.5009 74.1699C61.3889 70.0567 63.5302 66.2813 66.6589 63.3124C69.7876 60.3435 73.766 58.3116 78.1007 57.4689C81.81 56.7553 85.6611 57.1457 89.128 58.5866L89.726 58.9109C89.9101 58.9969 90.1021 59.0667 90.2997 59.1193C92.2513 60.1281 93.986 61.4756 95.4136 63.0919C96.7994 64.6837 97.8984 66.4819 98.6663 68.4138C99.4323 70.3535 99.9268 72.3803 100.137 74.4421C100.256 75.4631 100.311 76.4899 100.302 77.5171C100.308 78.5496 100.259 79.5817 100.155 80.6094C99.9783 82.3641 102.071 83.7134 102.938 83.1459C102.975 83.1111 102.999 83.0879 103.078 83.0937C105.796 81.7423 108.671 80.7004 111.646 79.9898C114.649 79.3082 117.725 78.9623 120.812 78.959C123.899 78.9727 126.973 79.3422 129.966 80.0593C132.942 80.7736 135.814 81.8337 138.516 83.2153C139.065 83.5165 139.736 83.2153 140.237 82.7405C140.557 82.4907 140.812 82.1729 140.979 81.8128C141.146 81.4528 141.223 81.0604 141.201 80.6673C141.093 79.6398 141.04 78.6077 141.042 77.575C141.041 76.5477 141.1 75.5211 141.219 74.5C141.434 72.4413 141.926 70.4172 142.684 68.4775C143.456 66.548 144.557 64.752 145.943 63.1614C147.367 61.5418 149.102 60.1936 151.057 59.1888C151.253 59.1361 151.443 59.0643 151.624 58.9746L152.228 58.6445C155.698 57.2124 159.546 56.8223 163.256 57.5268C167.588 58.3744 171.564 60.4079 174.691 63.376C177.819 66.3441 179.962 70.1168 180.855 74.2278C181.602 77.748 181.191 81.4008 179.678 84.692L179.33 85.2653C179.237 85.4392 179.163 85.6216 179.11 85.8097C178.048 87.6621 176.628 89.3083 174.924 90.6625C173.245 91.976 171.351 93.0188 169.315 93.749C167.273 94.472 165.139 94.9392 162.969 95.1389C161.891 95.2503 160.807 95.3044 159.722 95.301C158.636 95.3053 157.551 95.2569 156.47 95.1562C154.614 94.9941 153.199 96.9746 153.797 97.7969C153.808 97.8437 153.826 97.8887 153.852 97.9301C156.734 103.124 158.222 108.912 158.184 114.782C158.165 117.713 157.773 120.631 157.019 123.474C156.268 126.298 155.151 129.023 153.693 131.587C153.382 132.102 153.693 132.745 154.193 133.22C154.453 133.528 154.788 133.771 155.168 133.931C155.548 134.09 155.963 134.16 156.378 134.135C157.459 134.034 158.545 133.986 159.631 133.99C160.713 133.985 161.795 134.037 162.871 134.147C165.043 134.35 167.178 134.819 169.224 135.542C171.259 136.272 173.154 137.315 174.832 138.629C176.536 139.983 177.956 141.629 179.019 143.481C179.076 143.668 179.149 143.85 179.238 144.026L179.586 144.599C181.102 147.889 181.514 151.543 180.764 155.063C179.874 159.176 177.732 162.95 174.604 165.919C171.475 168.887 167.498 170.92 163.164 171.764C159.454 172.473 155.605 172.083 152.137 170.647L151.533 170.317C151.352 170.227 151.162 170.155 150.965 170.102C149.069 169.046 147.397 167.663 146.034 166.026C144.652 164.433 143.551 162.637 142.775 160.709C142.018 158.767 141.524 156.742 141.305 154.681C141.186 153.66 141.131 152.633 141.14 151.606C141.133 150.575 141.183 149.545 141.293 148.52C141.463 146.759 139.376 145.416 138.504 145.989C138.456 145.996 138.41 146.011 138.369 146.035C130.089 150.193 120.476 151.283 111.396 149.093C108.422 148.378 105.552 147.316 102.853 145.931C102.303 145.641 101.632 145.931 101.132 146.406C100.808 146.655 100.551 146.973 100.383 147.335C100.214 147.696 100.138 148.09 100.161 148.485C100.269 149.512 100.318 150.545 100.308 151.577C100.316 152.604 100.261 153.631 100.143 154.652C99.9326 156.712 99.4403 158.736 98.6785 160.675C97.9089 162.606 96.81 164.404 95.4258 165.997C93.9996 167.634 92.2604 169.002 90.2997 170.027ZM130.595 158.034C130.32 159.563 129.729 161.026 128.856 162.337C128.003 163.661 126.807 164.755 125.381 165.514C123.956 166.273 122.348 166.672 120.713 166.673C119.079 166.673 117.471 166.276 116.045 165.517C114.618 164.759 113.421 163.666 112.568 162.342C111.694 161.029 111.101 159.565 110.823 158.034C110.519 156.45 110.459 154.833 110.646 153.233C117.237 154.761 124.119 154.761 130.711 153.233C130.921 154.83 130.882 156.448 130.595 158.034ZM103.304 158.057C103.501 156.887 103.631 155.708 103.695 154.525C103.75 153.314 103.786 152.122 103.774 150.975C104.421 151.241 105.062 151.525 105.733 151.745C106.404 151.965 107.045 152.226 107.729 152.411C106.764 156.708 107.118 161.202 109.376 164.746C110.543 166.617 112.207 168.164 114.202 169.233C116.198 170.301 118.454 170.852 120.745 170.832C123.032 170.829 125.28 170.263 127.267 169.189C129.255 168.115 130.914 166.57 132.084 164.705C134.342 161.173 134.708 156.702 133.744 152.382C134.415 152.197 135.08 151.959 135.739 151.716C136.398 151.473 137.051 151.212 137.698 150.946C137.698 152.104 137.662 153.297 137.765 154.484C137.834 155.665 137.966 156.843 138.162 158.011C138.543 160.363 139.255 162.655 140.28 164.827C139.747 166.797 139.078 168.731 138.278 170.618C137.446 172.554 136.484 174.438 135.397 176.258C133.087 180.126 130.254 183.691 126.97 186.861C126.008 186.476 125.009 186.183 123.986 185.987C121.844 185.57 119.635 185.57 117.493 185.987C116.468 186.18 115.466 186.471 114.502 186.855C111.23 183.697 108.407 180.146 106.105 176.293C105.017 174.475 104.053 172.593 103.219 170.658C102.424 168.774 101.755 166.843 101.217 164.879C102.237 162.706 102.939 160.411 103.304 158.057ZM127.367 194.164C127.55 196.503 125.371 199.219 120.733 199.543C116.095 199.196 113.929 196.561 114.112 194.245C114.295 191.928 116.535 189.861 120.745 189.849C124.956 189.838 127.153 191.772 127.367 194.164ZM141.232 201.321C137.582 204.425 133.866 207.292 130.363 210.222C128.605 211.635 126.903 213.1 125.292 214.548C123.681 215.995 122.143 217.455 120.733 218.978C119.329 217.46 117.792 215.978 116.187 214.548C114.582 213.117 112.867 211.629 111.109 210.216C107.606 207.286 103.89 204.419 100.241 201.327C99.0751 200.371 97.8668 199.294 96.6707 198.159C95.4565 197.026 94.3095 195.829 93.235 194.575C92.1604 193.362 91.1852 192.072 90.318 190.718C89.4996 189.476 88.8147 188.158 88.2736 186.786C87.7851 185.565 87.4691 184.287 87.3338 182.987C87.2147 181.809 87.3327 180.62 87.6817 179.484C88.3713 177.277 89.9823 175.459 92.6369 173.901L92.6797 173.861C94.7405 172.745 96.5756 171.29 98.0987 169.564C100.506 176.946 104.626 183.721 110.157 189.392C110.181 189.426 110.213 189.456 110.249 189.479C109.064 190.506 108.214 191.835 107.802 193.307C107.535 194.485 107.611 195.709 108.023 196.849C108.435 197.989 109.166 199 110.139 199.775C110.672 200.258 111.25 200.694 111.866 201.078C112.539 201.48 113.243 201.835 113.971 202.138C114.759 202.466 115.569 202.747 116.394 202.977C117.273 203.195 118.163 203.367 119.061 203.493C119.602 203.648 120.169 203.711 120.733 203.678C121.296 203.715 121.862 203.651 122.399 203.487C123.267 203.373 124.127 203.21 124.974 203.001C125.778 202.787 126.565 202.52 127.33 202.201C128.045 201.916 128.739 201.583 129.405 201.205C130.014 200.838 130.591 200.426 131.132 199.972C132.1 199.175 132.869 198.184 133.384 197.071C133.838 196.013 133.975 194.856 133.78 193.729C133.43 192.088 132.529 190.598 131.211 189.485C131.211 189.485 131.272 189.427 131.309 189.392C136.841 183.721 140.96 176.942 143.361 169.558C144.923 171.35 146.82 172.852 148.957 173.988C151.563 175.546 153.138 177.376 153.803 179.57C154.129 180.709 154.236 181.894 154.12 183.068C153.974 184.365 153.65 185.638 153.156 186.855C152.612 188.222 151.925 189.534 151.105 190.77C150.678 191.419 150.227 192.079 149.738 192.727C149.25 193.376 148.732 193.984 148.201 194.604C147.67 195.223 147.084 195.86 146.504 196.468C145.924 197.076 145.314 197.656 144.747 198.194C143.575 199.283 142.367 200.348 141.207 201.298L141.232 201.321Z" fill="#D2AC67" fill-opacity="0.5"/>
<path d="M132.298 114.539C132.292 113.09 131.992 111.657 131.413 110.317C130.233 107.637 127.988 105.507 125.164 104.387C122.312 103.268 119.107 103.268 116.255 104.387C113.438 105.516 111.196 107.644 110.006 110.317C108.972 112.668 108.831 115.287 109.606 117.726C110.382 120.165 112.025 122.273 114.256 123.69C116.487 125.108 119.167 125.746 121.839 125.496C124.511 125.246 127.008 124.124 128.905 122.322C129.98 121.308 130.834 120.104 131.419 118.778C131.998 117.432 132.296 115.992 132.298 114.539ZM123.504 120.88C121.717 121.58 119.71 121.582 117.921 120.885C116.169 120.181 114.775 118.858 114.033 117.197C113.301 115.497 113.301 113.592 114.033 111.892C114.775 110.23 116.169 108.908 117.921 108.203C119.71 107.507 121.717 107.509 123.504 108.209C125.256 108.913 126.65 110.236 127.392 111.898C127.758 112.737 127.947 113.636 127.947 114.544C127.947 115.453 127.758 116.352 127.392 117.191C126.65 118.853 125.256 120.175 123.504 120.88Z" fill="#D2AC67" fill-opacity="0.5"/>
</g>
<defs>
<clipPath id="clip0_348_2146">
<rect width="166.406" height="166.406" fill="white" transform="matrix(0.725385 0.688343 -0.725385 0.688343 120.709 0)"/>
</clipPath>
</defs>
</svg>
