<svg width="141" height="133" viewBox="0 0 141 133" fill="none" xmlns="http://www.w3.org/2000/svg">
<path d="M72.8418 131.696C74.8457 128.21 78.2886 125.462 81.7711 122.485C85.2536 119.508 88.8153 116.34 91.1826 112.701C92.2338 111.152 92.9277 109.409 93.2188 107.587C93.461 106.035 93.2248 104.45 92.5389 103.022C93.5128 103.06 94.4881 103.002 95.4494 102.848C96.4737 102.678 97.4775 102.412 98.4462 102.053C100.565 101.244 102.488 100.035 104.098 98.499C105.698 96.9648 106.958 95.1424 107.804 93.1392C108.177 92.2186 108.458 91.2664 108.642 90.2954C108.801 89.3818 108.861 88.4553 108.822 87.5301C110.332 88.1957 112.014 88.4272 113.661 88.1958C115.587 87.9215 117.43 87.2654 119.071 86.2704C122.914 84.0308 126.285 80.6613 129.386 77.3498C132.487 74.0383 135.405 70.7712 139.092 68.8628C139.711 68.5419 140.046 67.5553 140.067 66.572C140.089 65.5888 139.722 64.592 139.092 64.2813C135.423 62.3285 132.537 59.0443 129.393 55.7602C126.249 52.476 122.921 49.0791 119.082 46.8293C117.449 45.8336 115.612 45.1753 113.693 44.8971C112.053 44.6679 110.378 44.8956 108.872 45.5525C108.91 44.6271 108.848 43.7004 108.685 42.7872C108.506 41.8152 108.225 40.8626 107.847 39.9435C106.992 37.9361 105.718 36.1138 104.101 34.5865C102.484 33.0592 100.558 31.8586 98.439 31.057C97.4704 30.6981 96.4665 30.4317 95.4422 30.2616C94.4796 30.1094 93.5031 30.0522 92.5281 30.0909C93.2275 28.6576 93.4713 27.0619 93.2296 25.4992C92.9344 23.6607 92.2318 21.9026 91.1682 20.3407C88.8081 16.6947 85.2608 13.4992 81.7675 10.553C78.2742 7.6068 74.8385 4.8381 72.8274 1.34566C72.4892 0.75847 71.4495 0.440975 70.4134 0.420492C69.3773 0.400008 68.3231 0.744814 67.9994 1.34566C65.9955 4.83128 62.5489 7.57607 59.0664 10.553C55.5839 13.5299 52.0258 16.7015 49.6514 20.3407C48.6004 21.897 47.9089 23.647 47.6223 25.4753C47.376 27.0322 47.6148 28.6235 48.3094 30.0533C47.3345 30.0163 46.3581 30.0735 45.3954 30.224C44.37 30.3963 43.365 30.6638 42.3949 31.0229C40.2779 31.831 38.3561 33.0391 36.7462 34.5738C35.1364 36.1085 33.8721 37.9377 33.0303 39.9503C32.6543 40.8702 32.3736 41.8226 32.192 42.7941C32.0355 43.7079 31.9752 44.6342 32.0121 45.5594C30.5027 44.8966 28.8222 44.6665 27.1769 44.8971C25.2483 45.1703 23.4021 45.8264 21.7588 46.8225C17.9166 49.062 14.5492 52.4282 11.448 55.7465C8.34681 59.0648 5.42554 62.3217 1.74515 64.2301C1.12275 64.5476 0.791765 65.5376 0.77018 66.5208C0.748594 67.5041 1.11196 68.5043 1.74514 68.8116C5.41834 70.7131 8.31085 73.9837 11.448 77.2883C14.5851 80.593 17.9273 83.9694 21.7588 86.2192C23.393 87.2158 25.2308 87.8732 27.1517 88.148C28.7925 88.3778 30.4682 88.1513 31.9761 87.496C31.9354 88.4211 31.9957 89.3478 32.156 90.2612C32.3375 91.2327 32.6182 92.1852 32.9943 93.105C33.8464 95.1146 35.1201 96.9389 36.7379 98.4671C38.3558 99.9953 40.2841 101.196 42.4057 101.995C43.3744 102.354 44.3783 102.62 45.4025 102.79C46.3642 102.94 47.3392 102.998 48.313 102.964C47.6136 104.395 47.3697 105.989 47.6115 107.549C47.9015 109.379 48.5928 111.13 49.6406 112.691C52.0006 116.337 55.5515 119.536 59.0448 122.475C62.5381 125.414 65.9739 128.19 67.9885 131.686C68.3267 132.273 69.3628 132.587 70.4026 132.611C71.4423 132.635 72.5 132.28 72.8418 131.696ZM110.801 48.0242C111.507 47.8381 112.244 47.7779 112.973 47.8467C113.771 47.9233 114.555 48.0978 115.305 48.3656C116.155 48.6708 116.971 49.0562 117.74 49.5161C118.147 49.7517 118.55 50.0043 118.953 50.2774C119.356 50.5505 119.737 50.8373 120.122 51.1411C120.507 51.445 120.903 51.7659 121.266 52.0697C121.629 52.3735 121.986 52.7525 122.32 53.07C123.022 53.7357 123.691 54.4117 124.281 55.0603C126.206 57.0984 127.986 59.1775 129.807 61.1371C130.685 62.1203 131.595 63.0728 132.498 63.9775C133.368 64.8699 134.287 65.7188 135.25 66.5208C134.304 67.3094 133.387 68.1663 132.498 69.071C131.609 69.9757 130.685 70.9282 129.807 71.9114C127.986 73.871 126.206 75.9501 124.281 77.9882C123.687 78.6403 123.022 79.3196 122.313 79.9853C121.61 80.6657 120.868 81.3085 120.09 81.9108C119.335 82.5082 118.534 83.0514 117.694 83.5358C116.922 83.9974 116.102 84.3818 115.247 84.6829C114.495 84.9518 113.709 85.1241 112.909 85.195C112.177 85.2582 111.439 85.1922 110.732 85.0004C109.361 84.6146 108.232 83.7133 107.26 82.2249C106.572 81.0689 105.667 80.0417 104.591 79.1933C109.179 77.8499 113.39 75.5456 116.913 72.4508C116.913 72.4508 116.949 72.4167 116.967 72.3996C117.604 73.0617 118.428 73.5357 119.341 73.7652C120.074 73.9159 120.837 73.8738 121.546 73.6433C122.256 73.4129 122.885 73.0029 123.367 72.4576C123.664 72.1587 123.933 71.8366 124.173 71.4949C124.424 71.1183 124.643 70.7233 124.828 70.3137C125.036 69.8745 125.21 69.4216 125.349 68.9584C125.486 68.4716 125.596 67.9781 125.677 67.4801C125.83 66.865 125.83 66.2244 125.677 65.6093C125.603 65.1239 125.5 64.6428 125.367 64.1686C125.235 63.7197 125.071 63.2795 124.878 62.8509C124.696 62.4532 124.488 62.0667 124.256 61.6935C124.026 61.3397 123.766 61.004 123.479 60.6899C122.984 60.1498 122.37 59.7207 121.68 59.4335C121.023 59.1778 120.304 59.1009 119.604 59.2116C118.583 59.4079 117.656 59.9135 116.963 60.6523L116.909 60.6011C113.386 57.5063 109.175 55.202 104.587 53.8586C105.701 52.9852 106.634 51.9238 107.34 50.728C108.3 49.2771 109.433 48.3929 110.801 48.0242ZM117.194 66.5379C117.132 64.1857 118.417 62.9191 119.874 62.827C121.331 62.7348 123.015 63.9433 123.216 66.5379C123.004 69.1359 121.363 70.3444 119.928 70.2454C118.492 70.1464 117.19 68.8833 117.183 66.5277L117.194 66.5379ZM101.67 55.6031C104.152 56.2062 106.537 57.1237 108.761 58.3308C111.155 59.6183 113.362 61.1963 115.326 63.025C115.088 63.5642 114.908 64.1246 114.787 64.6978C114.528 65.8961 114.528 67.1319 114.787 68.3302C114.905 68.904 115.086 69.4645 115.326 70.003C113.362 71.8318 111.157 73.4108 108.764 74.7006C107.634 75.3057 106.465 75.8428 105.264 76.3085C104.094 76.7595 102.893 77.1347 101.67 77.4317C100.321 76.8554 98.8969 76.4546 97.4353 76.2403C96.7082 76.1319 95.9757 76.0589 95.2407 76.0218C94.4924 75.9945 93.7513 75.974 93.0389 75.9808C93.2044 75.6189 93.3771 75.2639 93.5138 74.8884C93.6505 74.5128 93.8088 74.1509 93.9276 73.772C96.597 74.3114 99.3852 74.11 101.591 72.8502C102.746 72.1895 103.701 71.2565 104.364 70.1418C105.027 69.0272 105.375 67.7688 105.373 66.4889C105.372 65.209 105.023 63.9512 104.358 62.8375C103.693 61.7239 102.736 60.7924 101.58 60.1334C99.3852 58.8702 96.6078 58.6654 93.924 59.2048C93.8052 58.8259 93.6577 58.4537 93.5066 58.085C93.3555 57.7163 93.1972 57.3545 93.0318 56.9926C93.7513 56.9926 94.4708 56.9926 95.2335 56.9516C95.9662 56.916 96.6964 56.843 97.4209 56.7331C98.881 56.5349 100.306 56.1514 101.659 55.5929L101.67 55.6031ZM94.442 72.1504C94.9052 70.3104 95.1454 68.4262 95.158 66.5345C95.1426 64.6443 94.9036 62.7616 94.4456 60.922C95.4396 60.819 96.4441 60.8523 97.4281 61.021C98.3791 61.1767 99.2886 61.5085 100.105 61.9974C100.926 62.4746 101.605 63.144 102.076 63.9414C102.547 64.7388 102.794 65.6375 102.794 66.5516C102.794 67.4656 102.547 68.3643 102.076 69.1617C101.605 69.9591 100.926 70.6285 100.105 71.1057C99.2897 71.5966 98.3797 71.9285 97.4281 72.0821C96.4374 72.2399 95.4278 72.2595 94.4312 72.1401L94.442 72.1504ZM80.6918 40.8857C80.5748 41.5766 80.4968 42.2728 80.458 42.9716C80.4292 43.6817 80.4076 44.385 80.4148 45.0609C80.0335 44.9039 79.6557 44.7366 79.2636 44.6103C78.8714 44.484 78.4829 44.3269 78.0835 44.2143C78.6556 41.6846 78.4397 39.0354 77.1122 36.9426C76.4154 35.8467 75.432 34.9403 74.2573 34.3113C73.0826 33.6823 71.7565 33.3522 70.4077 33.3528C69.0589 33.3535 67.7332 33.685 66.5592 34.3152C65.3853 34.9454 64.4029 35.8528 63.7074 36.9495C62.3762 39.0319 62.164 41.6709 62.7324 44.2177C62.3295 44.3269 61.9409 44.4703 61.5524 44.6137C61.1638 44.7571 60.7789 44.9039 60.3975 45.0609C60.3975 44.3781 60.4191 43.6749 60.358 42.975C60.3314 42.2769 60.2653 41.5806 60.1601 40.8891C59.9357 39.5034 59.5145 38.1528 58.9081 36.8743C59.2265 35.7127 59.6218 34.5714 60.0917 33.457C60.583 32.3156 61.1502 31.205 61.7898 30.1318C63.1442 27.8621 64.8021 25.7679 66.7222 23.9014C67.2916 24.1284 67.8833 24.3011 68.4886 24.4169C69.7519 24.6582 71.0532 24.6582 72.3165 24.4169C72.9206 24.3022 73.5111 24.1307 74.0794 23.9049C76.0079 25.7674 77.6721 27.8607 79.0297 30.1318C79.6686 31.2031 80.2357 32.3114 80.7278 33.4502C81.1975 34.5616 81.5905 35.7008 81.9042 36.8607C81.3068 38.1402 80.8953 39.4908 80.681 40.8755L80.6918 40.8857ZM76.3423 43.7432C74.4034 43.31 72.4196 43.0833 70.4278 43.0672C68.4344 43.0811 66.449 43.309 64.5096 43.7466C64.4014 42.8033 64.4365 41.8502 64.614 40.9164C64.7803 40.0145 65.1298 39.1519 65.6429 38.3765C66.1459 37.5963 66.8517 36.9518 67.6925 36.5048C68.5334 36.0578 69.4811 35.8232 70.445 35.8236C71.4088 35.8239 72.3563 36.0592 73.1968 36.5068C74.0373 36.9544 74.7426 37.5994 75.245 38.3799C75.762 39.1518 76.1107 40.0144 76.2703 40.9164C76.434 41.8475 76.4546 42.7962 76.3315 43.7329L76.3423 43.7432ZM66.5099 19.6033C66.402 18.2241 67.6828 16.6195 70.4134 16.4318C73.1548 16.6366 74.4247 18.1899 74.3204 19.5521C74.2161 20.9143 72.8957 22.1399 70.4134 22.1467C67.931 22.1535 66.6179 21.003 66.5099 19.6033ZM50.7307 26.1444C50.8136 25.3793 51.0048 24.6283 51.2991 23.9117C51.6195 23.1059 52.0245 22.3328 52.5079 21.6039C52.7561 21.2181 53.026 20.8323 53.3066 20.45C53.5872 20.0676 53.9002 19.7091 54.2168 19.3404C54.5334 18.9717 54.8752 18.5996 55.2169 18.2412C55.5587 17.8827 55.9185 17.5754 56.271 17.2409C56.969 16.5786 57.6813 15.9436 58.3649 15.3837C60.5199 13.5573 62.7072 11.8708 64.7723 10.1433C65.8084 9.31034 66.8121 8.44662 67.7619 7.58631C68.7117 6.72601 69.6183 5.87252 70.4493 4.97466C71.2946 5.88861 72.1892 6.76034 73.1296 7.58631C74.083 8.44321 75.0867 9.30693 76.1228 10.1399C78.1879 11.8674 80.3788 13.5573 82.5302 15.3871C83.2174 15.9504 83.9333 16.582 84.6349 17.2545C85.3536 17.92 86.0311 18.6245 86.6639 19.3643C87.2897 20.0856 87.8562 20.8515 88.3584 21.6551C88.8449 22.3872 89.25 23.1651 89.5672 23.9765C89.8494 24.6904 90.0308 25.4366 90.1069 26.1956C90.1715 26.8902 90.102 27.5901 89.9018 28.261C89.4917 29.5583 88.5419 30.6303 86.9769 31.5486L86.9517 31.5725C85.7349 32.2304 84.6527 33.0908 83.757 34.1125C82.3413 29.7591 79.9131 25.7632 76.6517 22.4198L76.5977 22.3686C77.2972 21.7656 77.7972 20.9829 78.0368 20.1154C78.1959 19.4208 78.152 18.6981 77.9098 18.0254C77.6676 17.3527 77.2363 16.7556 76.6625 16.2986C76.346 16.0164 76.0055 15.7594 75.6443 15.5305C75.2469 15.2944 74.8321 15.0856 74.4032 14.9058C73.9394 14.7142 73.4636 14.55 72.9785 14.4142C72.4593 14.2855 71.9333 14.183 71.4027 14.1069C71.0846 14.0164 70.752 13.9806 70.4206 14.0011C70.0877 13.9796 69.7535 14.0167 69.4348 14.1103C68.9244 14.1818 68.4187 14.2809 67.9202 14.4073C67.4498 14.5258 66.9882 14.6741 66.5387 14.8511C66.1173 15.019 65.7096 15.2164 65.3191 15.4417C64.956 15.6555 64.614 15.9001 64.2974 16.1723C63.7283 16.6412 63.2761 17.2243 62.9734 17.8793C62.7039 18.5025 62.6229 19.1846 62.7396 19.8491C62.946 20.8152 63.4745 21.6926 64.247 22.3515C64.2273 22.3668 64.2092 22.384 64.193 22.4027C60.9317 25.7461 58.5034 29.7421 57.0877 34.0954C56.1673 33.0391 55.0488 32.1537 53.7887 31.4838C52.2489 30.562 51.3207 29.49 50.9321 28.1927C50.7317 27.5277 50.6634 26.8331 50.7307 26.1444ZM30.037 85.0277C29.3264 85.2117 28.5863 85.2708 27.8532 85.2018C27.0478 85.1186 26.257 84.9374 25.5004 84.6624C24.6497 84.3579 23.8336 83.9725 23.0648 83.5119C22.6618 83.2798 22.2553 83.0237 21.8488 82.754C21.4422 82.4843 21.0681 82.1907 20.6795 81.8903C20.291 81.5899 19.9024 81.2621 19.5391 80.9583C19.1757 80.6545 18.8016 80.2926 18.467 79.9751C17.7654 79.3094 17.0999 78.6368 16.5099 77.9882C14.5851 75.9433 12.8043 73.8642 10.9839 71.9046C10.1061 70.9214 9.19586 69.9689 8.29285 69.0642C7.38985 68.1595 6.48684 67.3026 5.54066 66.5208C6.48684 65.7322 7.40424 64.8753 8.29285 63.9706C9.18147 63.066 10.1025 62.1169 10.9839 61.1371C12.8043 59.1775 14.5851 57.0984 16.5099 55.0535C17.1035 54.4014 17.7726 53.7255 18.4778 53.0563C19.1804 52.3754 19.924 51.7337 20.7047 51.1343C21.4572 50.5343 22.257 49.9898 23.0972 49.5059C23.8686 49.0443 24.6885 48.6598 25.5436 48.3588C26.3027 48.0867 27.0961 47.9099 27.9036 47.833C28.6356 47.7682 29.3739 47.8343 30.0802 48.0276C31.4509 48.4134 32.577 49.3181 33.5447 50.8031L33.5699 50.827C34.2586 51.9828 35.1631 53.0101 36.2393 53.8586C31.6527 55.2035 27.443 57.5089 23.921 60.6045C23.9001 60.621 23.8808 60.6393 23.8635 60.6591C23.2276 59.9968 22.4047 59.5216 21.4926 59.2902C20.7597 59.141 19.9979 59.1839 19.2887 59.4143C18.5795 59.6446 17.9498 60.0537 17.4668 60.5977C17.1686 60.8977 16.899 61.2221 16.661 61.5672C16.4101 61.9433 16.19 62.337 16.0026 62.745C15.7986 63.1843 15.6255 63.636 15.4845 64.097C15.3448 64.5887 15.2367 65.0881 15.1608 65.5923C15.0634 65.8937 15.0256 66.2097 15.0492 66.5243C15.0276 66.8387 15.0654 67.1544 15.1608 67.4563C15.2375 67.9412 15.3408 68.4221 15.4702 68.8969C15.6038 69.3455 15.7672 69.7857 15.9594 70.2147C16.1376 70.6158 16.3468 71.0037 16.5854 71.3754C16.8095 71.7188 17.066 72.0422 17.3517 72.3416C17.8465 72.8833 18.4622 73.3136 19.1541 73.6013C19.8113 73.8556 20.5297 73.9324 21.23 73.8232C22.2497 73.6275 23.1751 73.1232 23.867 72.386C23.8813 72.4063 23.8996 72.4237 23.921 72.4372C27.4449 75.5313 31.6557 77.8355 36.2429 79.1797C35.128 80.0514 34.1946 81.1131 33.4907 82.3102C32.5302 83.7816 31.3969 84.659 30.0334 85.0311L30.037 85.0277ZM23.644 66.514C23.698 68.8662 22.4172 70.1294 20.9602 70.2215C19.5031 70.3137 17.8194 69.1052 17.6143 66.514C17.8338 63.916 19.4671 62.7075 20.9062 62.8099C22.3453 62.9123 23.644 64.1721 23.6512 66.5277L23.644 66.514ZM39.1606 77.4488C37.9374 77.1489 36.7358 76.7748 35.563 76.329C34.3609 75.8614 33.1906 75.3232 32.0589 74.7177C29.657 73.424 27.4437 71.8378 25.4752 69.9996C25.7132 69.4613 25.8952 68.9022 26.0184 68.3302C26.2726 67.1314 26.2726 65.8966 26.0184 64.6978C25.8963 64.1234 25.7144 63.5619 25.4752 63.0216C27.4407 61.194 29.6476 59.6162 32.0409 58.3274C33.1686 57.7192 34.3367 57.1809 35.5378 56.7161C36.7101 56.2712 37.9104 55.8961 39.1319 55.5929C40.4875 56.1794 41.9222 56.5849 43.3951 56.798C44.122 56.9079 44.8545 56.9808 45.5896 57.0165C46.3415 57.0472 47.0791 57.0643 47.7914 57.0574C47.6259 57.4193 47.4532 57.7812 47.3201 58.1533C47.187 58.5254 47.0179 58.8907 46.9028 59.2731C44.2369 58.7303 41.4415 58.9317 39.2398 60.1948C38.0772 60.8473 37.1159 61.7784 36.4523 62.8947C35.7886 64.0111 35.446 65.2733 35.4587 66.555C35.4598 67.8345 35.8112 69.0919 36.4785 70.2038C37.1457 71.3157 38.1059 72.2441 39.265 72.898C41.4595 74.1612 44.2405 74.3626 46.9243 73.8232C47.0395 74.2056 47.1906 74.5743 47.3417 74.943C47.4928 75.3117 47.6475 75.677 47.8166 76.0423C47.097 76.0423 46.3559 76.0218 45.6184 76.0798C44.8844 76.1166 44.1531 76.1907 43.4274 76.3017C41.9587 76.5038 40.5257 76.8943 39.1678 77.4625L39.1606 77.4488ZM46.3955 60.9152C45.4465 64.6027 45.4465 68.4527 46.3955 72.1402C45.4016 72.2464 44.3967 72.2131 43.4131 72.0411C42.4625 71.8897 41.5535 71.5588 40.74 71.0682C39.9163 70.5923 39.2354 69.9234 38.7628 69.1257C38.2902 68.328 38.0418 67.4284 38.0414 66.5133C38.0411 65.5982 38.2888 64.6983 38.7608 63.9003C39.2327 63.1023 39.9131 62.4329 40.7364 61.9564C41.551 61.4678 42.4595 61.1371 43.4095 60.9835C44.396 60.8234 45.4019 60.8004 46.3955 60.9152ZM52.4863 99.2364C52.3688 99.2645 52.2553 99.3058 52.1481 99.3593L51.7956 99.5505C49.7512 100.398 47.4815 100.628 45.2946 100.209C42.7406 99.7097 40.3968 98.5109 38.5529 96.7611C36.7089 95.0113 35.4456 92.7873 34.919 90.3637C34.4797 88.2884 34.722 86.1351 35.6134 84.1947L35.8148 83.8601C35.8715 83.7593 35.9162 83.6529 35.9479 83.5427C36.5736 82.4482 37.4123 81.4763 38.4195 80.6784C39.4062 79.9038 40.5209 79.289 41.7186 78.8588C42.9249 78.4342 44.1835 78.1577 45.4637 78.036C46.0982 77.9716 46.736 77.9408 47.3741 77.9438C48.0168 77.9395 48.6593 77.968 49.2988 78.0292C50.3853 78.1248 51.2235 76.9538 50.871 76.469L50.8062 76.3939C49.9664 74.8724 49.3179 73.2625 48.8743 71.5973C48.4524 69.9174 48.2375 68.1966 48.2339 66.4696C48.248 64.743 48.4774 63.0241 48.9174 61.3487C49.3625 59.685 50.0223 58.0797 50.8818 56.5693C51.0652 56.2586 50.8818 55.8865 50.5868 55.6065C50.4315 55.4261 50.2337 55.283 50.0093 55.1887C49.7849 55.0944 49.5403 55.0516 49.2952 55.0637C48.6568 55.1236 48.0155 55.151 47.3741 55.1457C46.7359 55.1506 46.098 55.1198 45.4637 55.0535C44.1832 54.9336 42.9243 54.6571 41.7186 54.2307C40.522 53.7984 39.4077 53.1838 38.4195 52.4111C37.4141 51.6115 36.5757 50.6399 35.9479 49.5468C35.9162 49.4366 35.8715 49.3301 35.8148 49.2293L35.6134 48.8948C34.7221 46.9543 34.4797 44.8011 34.919 42.7258C35.4425 40.3009 36.7048 38.0752 38.5493 36.325C40.3938 34.5747 42.7392 33.3768 45.2946 32.8801C47.4814 32.4594 49.7517 32.6895 51.7956 33.5389L52.1481 33.7301C52.2566 33.7809 52.3698 33.822 52.4863 33.853C53.6369 34.4477 54.6595 35.2421 55.5011 36.195C56.3181 37.1334 56.966 38.1935 57.4187 39.3324C57.8703 40.4759 58.1618 41.6707 58.2857 42.8863C58.3557 43.4882 58.3881 44.0935 58.3828 44.6991C58.3867 45.3077 58.3579 45.9162 58.2965 46.5221C58.1922 47.5565 59.4262 48.3519 59.937 48.0174C59.9586 47.9969 59.973 47.9832 60.0198 47.9867C61.6216 47.1899 63.3171 46.5757 65.0709 46.1568C66.841 45.755 68.6545 45.551 70.4745 45.5491C72.2944 45.5572 74.1065 45.775 75.871 46.1978C77.6253 46.6189 79.3182 47.2438 80.9113 48.0583C81.2351 48.2359 81.6308 48.0583 81.9258 47.7784C82.1148 47.6311 82.2646 47.4438 82.3634 47.2315C82.4621 47.0193 82.5069 46.7879 82.4943 46.5562C82.4304 45.9504 82.3992 45.342 82.4007 44.7332C82.3998 44.1275 82.4346 43.5223 82.505 42.9204C82.6315 41.7067 82.9217 40.5134 83.3685 39.3699C83.8236 38.2324 84.4726 37.1737 85.2896 36.2359C86.1292 35.2811 87.1522 34.4864 88.3045 33.894C88.4203 33.8629 88.5324 33.8206 88.639 33.7677L88.9952 33.5731C91.0405 32.7288 93.3091 32.4989 95.4961 32.9142C98.0502 33.4139 100.394 34.6127 102.238 36.3625C104.082 38.1123 105.345 40.3363 105.872 42.7599C106.312 44.8352 106.069 46.9886 105.177 48.9289L104.972 49.2669C104.918 49.3693 104.874 49.4769 104.843 49.5878C104.217 50.6798 103.379 51.6503 102.375 52.4487C101.385 53.223 100.268 53.8378 99.0686 54.2683C97.8642 54.6944 96.6064 54.9699 95.3271 55.0876C94.6914 55.1533 94.0525 55.1852 93.4131 55.1832C92.7728 55.1857 92.1328 55.1572 91.4956 55.0979C90.4019 55.0023 89.5672 56.1698 89.9198 56.6546C89.9262 56.6822 89.9371 56.7087 89.9522 56.7331C91.6514 59.795 92.5287 63.2072 92.5065 66.6676C92.4948 68.3957 92.2641 70.1161 91.8193 71.7919C91.3768 73.457 90.7181 75.0636 89.8586 76.5748C89.6751 76.8787 89.8586 77.2576 90.1536 77.5376C90.3069 77.719 90.504 77.8627 90.7282 77.9566C90.9523 78.0505 91.1971 78.0918 91.4416 78.077C92.0788 78.0176 92.7188 77.9891 93.3591 77.9916C93.9972 77.9884 94.635 78.0192 95.2695 78.0838C96.55 78.2039 97.8088 78.4805 99.0146 78.9065C100.214 79.337 101.331 79.9518 102.321 80.7262C103.325 81.5245 104.163 82.495 104.789 83.587C104.823 83.6972 104.866 83.8046 104.918 83.9079L105.123 84.2459C106.017 86.1857 106.26 88.3397 105.818 90.4149C105.293 92.8392 104.03 95.0643 102.186 96.8144C100.342 98.5644 97.997 99.7627 95.4422 100.261C93.2552 100.678 90.9858 100.448 88.9412 99.6017L88.5851 99.4071C88.4784 99.3542 88.3663 99.3119 88.2505 99.2808C87.1328 98.6578 86.147 97.8428 85.3436 96.8774C84.5287 95.9383 83.8799 94.8799 83.4224 93.7434C82.9758 92.5985 82.6844 91.4043 82.5554 90.1896C82.4855 89.5876 82.453 88.9823 82.4583 88.3768C82.4539 87.7691 82.4839 87.1617 82.5482 86.5571C82.649 85.5193 81.4186 84.7273 80.9041 85.0653C80.876 85.0692 80.8491 85.0785 80.8249 85.0926C75.9433 87.5438 70.2761 88.1862 64.9234 86.8951C63.1697 86.4738 61.4779 85.8477 59.8867 85.0311C59.5629 84.8604 59.1671 85.0311 58.8721 85.3111C58.6814 85.4578 58.5301 85.6455 58.4306 85.8585C58.3312 86.0716 58.2865 86.304 58.3001 86.5367C58.3634 87.1424 58.3922 87.751 58.3864 88.3597C58.3915 88.9652 58.3591 89.5705 58.2893 90.1725C58.1652 91.3865 57.875 92.5801 57.4259 93.723C56.9722 94.8614 56.3244 95.9213 55.5083 96.8604C54.6675 97.8258 53.6423 98.6319 52.4863 99.2364ZM76.2415 92.1662C76.0797 93.0677 75.7312 93.9298 75.2162 94.7028C74.7138 95.4833 74.0086 96.1282 73.1681 96.5759C72.3276 97.0235 71.38 97.2587 70.4162 97.2591C69.4524 97.2594 68.5046 97.0248 67.6638 96.5778C66.8229 96.1308 66.1171 95.4863 65.6141 94.7062C65.0989 93.9318 64.7493 93.0687 64.5852 92.1662C64.4061 91.2326 64.3709 90.2793 64.4809 89.3361C68.3668 90.2366 72.424 90.2366 76.3099 89.3361C76.4338 90.2775 76.4107 91.2311 76.2415 92.1662ZM60.1529 92.1799C60.2687 91.4901 60.3456 90.7949 60.3831 90.0974C60.4155 89.3839 60.4371 88.6806 60.4299 88.0046C60.8113 88.1617 61.189 88.329 61.5847 88.4587C61.9805 88.5884 62.3582 88.7421 62.7612 88.8513C62.1927 91.3844 62.4014 94.0336 63.7325 96.1229C64.4202 97.2261 65.4014 98.1383 66.5777 98.7681C67.7541 99.3979 69.0843 99.723 70.435 99.711C71.7833 99.7094 73.1081 99.3757 74.2798 98.7426C75.4515 98.1095 76.4299 97.1986 77.1194 96.099C78.4505 94.0166 78.6664 91.381 78.0979 88.8342C78.4937 88.725 78.8858 88.585 79.2744 88.4416C79.6629 88.2982 80.0479 88.1446 80.4292 87.9876C80.4292 88.6704 80.4076 89.3736 80.4688 90.0735C80.5091 90.7698 80.5872 91.4638 80.7026 92.1526C80.927 93.539 81.3469 94.8905 81.951 96.1707C81.6371 97.3321 81.2429 98.4725 80.771 99.5847C80.2803 100.726 79.7132 101.837 79.0729 102.91C77.7109 105.19 76.0407 107.291 74.1045 109.161C73.5377 108.934 72.9483 108.761 72.3453 108.645C71.0825 108.399 69.7802 108.399 68.5174 108.645C67.9131 108.759 67.3224 108.931 66.7546 109.157C64.8253 107.295 63.161 105.202 61.8042 102.93C61.1628 101.859 60.5944 100.749 60.1025 99.6086C59.6338 98.4976 59.2397 97.3597 58.9225 96.2015C59.5238 94.9204 59.9377 93.5673 60.1529 92.1799ZM74.3384 113.466C74.4463 114.845 73.162 116.446 70.4277 116.637C67.6935 116.432 66.4164 114.879 66.5243 113.513C66.6322 112.148 67.9526 110.929 70.435 110.922C72.9173 110.915 74.2125 112.056 74.3384 113.466ZM82.5122 117.685C80.3608 119.515 78.1699 121.205 76.1048 122.932C75.0687 123.765 74.065 124.629 73.1152 125.483C72.1654 126.336 71.2588 127.196 70.4278 128.094C69.6003 127.2 68.6937 126.326 67.7475 125.483C66.8013 124.639 65.7904 123.762 64.7543 122.929C62.6892 121.202 60.4983 119.512 58.3469 117.689C57.6597 117.125 56.9474 116.49 56.2422 115.821C55.5264 115.153 54.8502 114.447 54.2168 113.708C53.5832 112.993 53.0084 112.233 52.4971 111.434C52.0146 110.702 51.6109 109.925 51.2919 109.116C51.0039 108.396 50.8176 107.643 50.7379 106.877C50.6676 106.182 50.7372 105.481 50.9429 104.811C51.3494 103.511 52.2992 102.439 53.8642 101.52L53.8894 101.496C55.1043 100.839 56.1861 99.981 57.0841 98.9633C58.503 103.315 60.9322 107.31 64.193 110.653C64.2073 110.673 64.2256 110.69 64.247 110.704C63.5483 111.309 63.0476 112.093 62.8043 112.96C62.6469 113.655 62.692 114.377 62.9348 115.049C63.1776 115.721 63.6089 116.317 64.1822 116.774C64.4967 117.058 64.8374 117.315 65.2004 117.542C65.5971 117.779 66.012 117.988 66.4416 118.167C66.9061 118.36 67.3831 118.526 67.8698 118.662C68.3877 118.79 68.9125 118.891 69.442 118.965C69.7611 119.057 70.0949 119.094 70.4278 119.075C70.7597 119.097 71.093 119.058 71.4099 118.962C71.9215 118.895 72.4284 118.799 72.9281 118.675C73.4021 118.549 73.8661 118.392 74.3168 118.204C74.7386 118.036 75.1473 117.84 75.54 117.617C75.899 117.4 76.2394 117.157 76.5581 116.89C77.129 116.42 77.5825 115.836 77.8857 115.179C78.1536 114.556 78.2346 113.874 78.1195 113.21C77.9133 112.242 77.3818 111.364 76.6049 110.707C76.6049 110.707 76.6409 110.673 76.6625 110.653C79.9238 107.309 82.3521 103.313 83.7678 98.9599C84.6882 100.016 85.8067 100.902 87.0669 101.572C88.603 102.49 89.5312 103.569 89.9234 104.863C90.1157 105.534 90.179 106.232 90.1105 106.925C90.0241 107.689 89.833 108.44 89.542 109.157C89.2216 109.963 88.8167 110.736 88.3332 111.465C88.0814 111.847 87.8152 112.237 87.5274 112.619C87.2395 113.001 86.9337 113.36 86.6208 113.725C86.3078 114.09 85.9624 114.466 85.6206 114.824C85.2788 115.183 84.9191 115.524 84.5845 115.842C83.8937 116.484 83.1814 117.112 82.4978 117.672L82.5122 117.685Z" fill="#D2AC67" fill-opacity="0.2"/>
</svg>
