<svg width="32" height="32" viewBox="0 0 32 32" fill="none" xmlns="http://www.w3.org/2000/svg">
<path d="M11.9997 1.66683L19.9997 1.66683C27.2397 1.66683 30.333 4.76016 30.333 12.0002L30.333 20.0002C30.333 27.2402 27.2397 30.3335 19.9997 30.3335L11.9997 30.3335C4.75967 30.3335 1.66634 27.2402 1.66634 20.0002L1.66634 12.0002C1.66634 4.76016 4.75968 1.66683 11.9997 1.66683ZM19.9997 28.3335C26.1463 28.3335 28.333 26.1468 28.333 20.0002L28.333 12.0002C28.333 5.85349 26.1463 3.66683 19.9997 3.66683L11.9997 3.66683C5.85301 3.66683 3.66634 5.85349 3.66634 12.0002L3.66634 20.0002C3.66634 26.1468 5.85301 28.3335 11.9997 28.3335L19.9997 28.3335Z" fill="#CFB767"/>
<path d="M14.3201 10.2931C14.5734 10.2931 14.8268 10.3865 15.0268 10.5865L19.7334 15.2931C20.1201 15.6798 20.1201 16.3198 19.7334 16.7065L15.0268 21.4131C14.6401 21.7998 14.0001 21.7998 13.6134 21.4131C13.2268 21.0265 13.2268 20.3865 13.6134 19.9998L17.6134 15.9998L13.6134 11.9998C13.2268 11.6131 13.2268 10.9731 13.6134 10.5865C13.8001 10.3865 14.0534 10.2931 14.3201 10.2931Z" fill="#CFB767"/>
</svg>
