<svg width="32" height="32" viewBox="0 0 32 32" fill="none" xmlns="http://www.w3.org/2000/svg">
<path d="M20.0003 30.3332H12.0003C4.76033 30.3332 1.66699 27.2398 1.66699 19.9998V11.9998C1.66699 4.75984 4.76033 1.6665 12.0003 1.6665H20.0003C27.2403 1.6665 30.3337 4.75984 30.3337 11.9998V19.9998C30.3337 27.2398 27.2403 30.3332 20.0003 30.3332ZM12.0003 3.6665C5.85366 3.6665 3.66699 5.85317 3.66699 11.9998V19.9998C3.66699 26.1465 5.85366 28.3332 12.0003 28.3332H20.0003C26.147 28.3332 28.3337 26.1465 28.3337 19.9998V11.9998C28.3337 5.85317 26.147 3.6665 20.0003 3.6665H12.0003Z" fill="#CFB767"/>
<path d="M17.6799 21.7069C17.4266 21.7069 17.1732 21.6135 16.9732 21.4135L12.2666 16.7069C11.8799 16.3202 11.8799 15.6802 12.2666 15.2935L16.9732 10.5869C17.3599 10.2002 17.9999 10.2002 18.3866 10.5869C18.7732 10.9735 18.7732 11.6135 18.3866 12.0002L14.3866 16.0002L18.3866 20.0002C18.7732 20.3869 18.7732 21.0269 18.3866 21.4135C18.1999 21.6135 17.9466 21.7069 17.6799 21.7069Z" fill="#CFB767"/>
</svg>
