<svg width="24" height="25" viewBox="0 0 24 25" fill="none" xmlns="http://www.w3.org/2000/svg">
<path d="M9.57043 19.741C9.38043 19.741 9.19043 19.671 9.04043 19.521L2.97043 13.451C2.68043 13.161 2.68043 12.681 2.97043 12.391L9.04043 6.32102C9.33043 6.03102 9.81043 6.03102 10.1004 6.32102C10.3904 6.61102 10.3904 7.09102 10.1004 7.38102L4.56043 12.921L10.1004 18.461C10.3904 18.751 10.3904 19.231 10.1004 19.521C9.96043 19.671 9.76043 19.741 9.57043 19.741Z" fill="#BE9A39"/>
<path d="M20.4999 13.6719H3.66992C3.25992 13.6719 2.91992 13.3319 2.91992 12.9219C2.91992 12.5119 3.25992 12.1719 3.66992 12.1719H20.4999C20.9099 12.1719 21.2499 12.5119 21.2499 12.9219C21.2499 13.3319 20.9099 13.6719 20.4999 13.6719Z" fill="#BE9A39"/>
</svg>
