<svg width="44" height="44" viewBox="0 0 44 44" fill="none" xmlns="http://www.w3.org/2000/svg">
<g clip-path="url(#clip0_318_2095)">
<path d="M21.7227 23.8121C21.7667 23.8121 21.8108 23.8121 21.8636 23.8121C21.8812 23.8121 21.8988 23.8121 21.9164 23.8121C21.9428 23.8121 21.9781 23.8121 22.0045 23.8121C24.5842 23.7681 26.6709 22.8612 28.2118 21.1267C31.6016 17.3054 31.0381 10.7548 30.9764 10.1296C30.7563 5.43675 28.5375 3.19156 26.7062 2.1438C25.3414 1.36019 23.7478 0.937562 21.9692 0.902344H21.9076C21.8988 0.902344 21.8812 0.902344 21.8724 0.902344H21.8196C20.8422 0.902344 18.9228 1.06083 17.0827 2.10858C15.2337 3.15634 12.9797 5.40153 12.7596 10.1296C12.6979 10.7548 12.1344 17.3054 15.5242 21.1267C17.0562 22.8612 19.1429 23.7681 21.7227 23.8121ZM15.1104 10.3498C15.1104 10.3233 15.1192 10.2969 15.1192 10.2793C15.4098 3.96637 19.8913 3.28841 21.8108 3.28841H21.846C21.8636 3.28841 21.89 3.28841 21.9164 3.28841C24.2937 3.34124 28.335 4.30975 28.608 10.2793C28.608 10.3057 28.608 10.3321 28.6168 10.3498C28.6256 10.4114 29.2419 16.3986 26.442 19.5506C25.3326 20.8009 23.8534 21.4172 21.9076 21.4348C21.89 21.4348 21.8812 21.4348 21.8636 21.4348C21.846 21.4348 21.8372 21.4348 21.8196 21.4348C19.8825 21.4172 18.3945 20.8009 17.294 19.5506C14.5029 16.4162 15.1016 10.4026 15.1104 10.3498Z" fill="#B0A6E1"/>
<path d="M39.9571 34.6757C39.9571 34.6669 39.9571 34.6581 39.9571 34.6493C39.9571 34.5788 39.9483 34.5084 39.9483 34.4292C39.8955 32.6858 39.781 28.6093 35.9598 27.3062C35.9334 27.2974 35.8982 27.2886 35.8718 27.2798C31.9009 26.2672 28.5991 23.978 28.5639 23.9516C28.0268 23.573 27.2872 23.7051 26.9086 24.2422C26.53 24.7792 26.6621 25.5188 27.1992 25.8974C27.3488 26.0031 30.8531 28.442 35.2378 29.569C37.2893 30.2998 37.5182 32.4921 37.5799 34.4996C37.5799 34.5788 37.5799 34.6493 37.5887 34.7197C37.5975 35.5121 37.5446 36.736 37.4038 37.4404C35.9774 38.2504 30.3864 41.0503 21.8811 41.0503C13.411 41.0503 7.78486 38.2416 6.3497 37.4316C6.20882 36.7272 6.14719 35.5033 6.1648 34.7109C6.1648 34.6405 6.1736 34.57 6.1736 34.4908C6.23524 32.4833 6.46416 30.291 8.51565 29.5602C12.9004 28.4332 16.4046 25.9855 16.5543 25.8886C17.0914 25.51 17.2235 24.7704 16.8449 24.2333C16.4663 23.6963 15.7267 23.5642 15.1896 23.9428C15.1544 23.9692 11.8702 26.2584 7.88171 27.271C7.84649 27.2798 7.82008 27.2886 7.79366 27.2974C3.97244 28.6093 3.85797 32.6858 3.80515 34.4204C3.80515 34.4996 3.80515 34.57 3.79634 34.6405C3.79634 34.6493 3.79634 34.6581 3.79634 34.6669C3.78754 35.1247 3.77873 37.4756 4.24538 38.6554C4.33343 38.8843 4.49191 39.078 4.70322 39.2101C4.96736 39.3862 11.2979 43.4187 21.8899 43.4187C32.482 43.4187 38.8125 39.3774 39.0767 39.2101C39.2792 39.078 39.4465 38.8843 39.5345 38.6554C39.9747 37.4844 39.9659 35.1335 39.9571 34.6757Z" fill="#B0A6E1"/>
</g>
<defs>
<clipPath id="clip0_318_2095">
<rect width="42.5178" height="42.5178" fill="white" transform="translate(0.617676 0.902344)"/>
</clipPath>
</defs>
</svg>
