<svg width="105" height="70" viewBox="0 0 105 70" fill="none" xmlns="http://www.w3.org/2000/svg">
<path d="M102.815 58.4732H85.5432L69.1971 42.127C69.0668 41.9967 68.9349 41.8687 68.8024 41.7422C69.5216 40.0703 70.0198 38.4695 70.2523 37.0741C70.6688 34.5759 69.7896 32.9105 68.9789 31.9536C68.1642 30.992 67.0207 30.297 65.7478 29.957C65.7224 25.3396 62.5444 22.9656 62.3937 22.856C61.6412 22.3086 60.5806 22.4698 60.0334 23.2223C59.4862 23.9748 59.6455 25.0234 60.3979 25.5705C60.4864 25.6379 62.3202 27.071 62.3764 29.9044C59.8552 30.4812 57.8354 32.4094 57.226 34.9903C57.1865 35.1578 57.1346 35.4031 57.0796 35.6675C49.615 34.203 41.5746 36.3558 35.8032 42.1274L35.28 42.6506C33.623 41.1141 31.3222 40.5124 29.1184 41.009C27.9454 38.4297 28.9796 36.3468 29.023 36.2614C29.4652 35.4429 29.1602 34.4209 28.3417 33.9784C27.5229 33.5359 26.5009 33.8409 26.0586 34.6596C25.9699 34.8238 24.1289 38.3374 26.1002 42.5129C25.0988 43.3694 24.3677 44.49 24.0482 45.7092C23.7304 46.9226 23.6567 48.8041 25.1112 50.8776C25.3522 51.221 25.6377 51.5874 25.9618 51.9688L19.4568 58.4732H2.18467C1.25428 58.4732 0.5 59.2274 0.5 60.1578C0.5 61.0882 1.25428 61.8425 2.18467 61.8425H15.7181L18.9864 66.1999C20.3155 67.9722 22.4316 69.0304 24.6469 69.0304H80.3531C82.5684 69.0304 84.6845 67.9724 86.0136 66.2002L89.2819 61.8425H102.815C103.746 61.8425 104.5 61.0882 104.5 60.1578C104.5 59.2274 103.746 58.4732 102.815 58.4732ZM60.3593 36.4422C60.4143 36.1783 60.466 35.9292 60.5049 35.7643C60.8705 34.2153 62.3214 33.0911 63.9548 33.0909C63.9557 33.0909 63.9566 33.0911 63.9573 33.0911C63.9577 33.0911 63.9582 33.0911 63.9584 33.0911C64.9263 33.092 65.8646 33.4903 66.4077 34.1316C66.9171 34.7329 67.0923 35.5366 66.9284 36.5204C66.7828 37.3937 66.4854 38.4194 66.0732 39.5007C64.2783 38.2385 62.3459 37.2549 60.3362 36.5514C60.3442 36.5148 60.3519 36.4782 60.3593 36.4422ZM38.1855 44.5095C46.0785 36.6163 58.9215 36.6163 66.8147 44.5093L80.7786 58.4732H58.7865C59.2993 58.1609 59.8074 57.8281 60.3103 57.4729C60.9532 57.0187 61.196 56.1798 60.8948 55.4524C60.5936 54.7251 59.829 54.3035 59.0529 54.4367C58.9343 54.4571 47.67 56.2368 37.5157 45.1794L38.1855 44.5095ZM27.3073 46.563C27.5202 45.7501 28.1948 44.9855 29.0677 44.5666C29.0686 44.5661 29.0697 44.5655 29.0706 44.565C29.5643 44.3285 30.0937 44.2151 30.6175 44.2151C31.6566 44.2151 32.6726 44.6625 33.3366 45.4864C39.4513 53.0721 46.2169 56.0106 50.8158 57.14C51.5065 57.3096 52.1705 57.4448 52.8021 57.552C50.9685 58.149 49.075 58.4559 47.13 58.4734H46.8597C45.7252 58.4678 44.5735 58.3656 43.4057 58.1627C35.8822 56.8557 29.8833 51.8136 27.8693 48.9425C27.2965 48.1262 27.1074 47.3256 27.3073 46.563ZM28.3334 54.3615C29.9347 55.7773 31.9417 57.2285 34.2632 58.4732H24.2217L28.3334 54.3615ZM83.3181 64.1786C82.6218 65.1069 81.5135 65.6611 80.3531 65.6611H24.6469C23.4865 65.6611 22.3782 65.1069 21.6819 64.1786L19.9298 61.8425H85.0702L83.3181 64.1786Z" fill="#D2AC67"/>
<path d="M49.8048 47.4666C51.2292 47.4666 52.388 46.3078 52.388 44.8835C52.388 43.4591 51.2292 42.3003 49.8048 42.3003C48.3805 42.3003 47.2217 43.4591 47.2217 44.8835C47.2217 46.3078 48.3805 47.4666 49.8048 47.4666Z" fill="#D2AC67"/>
<path d="M67.7746 56.4515C69.1989 56.4515 70.3577 55.2926 70.3577 53.8683C70.3577 52.444 69.1989 51.2852 67.7746 51.2852C66.3502 51.2852 65.1914 52.444 65.1914 53.8683C65.1914 55.2926 66.3502 56.4515 67.7746 56.4515Z" fill="#D2AC67"/>
<path d="M56.0853 51.0782C57.0156 51.0782 57.7789 50.315 57.7789 49.3846C57.7789 48.4542 57.0156 47.6909 56.0853 47.6909C55.1549 47.6909 54.3916 48.4542 54.3916 49.3846C54.3916 50.315 55.1549 51.0782 56.0853 51.0782Z" fill="#D2AC67"/>
<path d="M61.4759 47.4845C62.4063 47.4845 63.1695 46.7212 63.1695 45.7908C63.1695 44.8604 62.4063 44.0972 61.4759 44.0972C60.5455 44.0972 59.7822 44.8604 59.7822 45.7908C59.7822 46.7212 60.5455 47.4845 61.4759 47.4845Z" fill="#D2AC67"/>
<path d="M45.4248 20.632C45.4248 23.4679 46.6261 24.9684 47.5915 26.1739C48.4201 27.209 49.0188 27.9567 49.0188 29.6099C49.0188 30.5403 49.773 31.2946 50.7034 31.2946C51.6338 31.2946 52.3881 30.5403 52.3881 29.6099C52.3881 26.7741 51.1868 25.2738 50.2216 24.0681C49.393 23.033 48.7941 22.285 48.7941 20.632C48.7941 18.9766 49.3932 18.2277 50.2221 17.1915C51.187 15.985 52.3881 14.4837 52.3881 11.6462C52.3881 8.80769 51.1873 7.30542 50.2223 6.0983C49.3932 5.06122 48.7941 4.31188 48.7941 2.65439C48.7941 1.72401 48.0399 0.969727 47.1095 0.969727C46.1791 0.969727 45.4248 1.72401 45.4248 2.65439C45.4248 5.49294 46.6256 6.99521 47.5906 8.20233C48.4197 9.23964 49.0188 9.98898 49.0188 11.6465C49.0188 13.3019 48.4197 14.0508 47.5908 15.087C46.6259 16.2932 45.4248 17.7948 45.4248 20.632Z" fill="#D2AC67"/>
<path d="M54.5179 22.3152C55.0527 22.3152 55.5296 22.0656 55.8385 21.6768C57.0541 20.157 59.5753 16.9995 59.5753 11.6465C59.5753 9.47217 59.1572 7.4225 58.3327 5.55409C57.9571 4.703 56.9627 4.31755 56.1111 4.69312C55.2598 5.06868 54.8746 6.06331 55.2502 6.91463C55.8843 8.35153 56.2059 9.94366 56.2059 11.6465C56.2059 15.8052 54.3427 18.1525 53.2178 19.559C52.9774 19.8502 52.833 20.2235 52.833 20.6307C52.8332 21.5609 53.5875 22.3152 54.5179 22.3152Z" fill="#D2AC67"/>
<path d="M41.0048 27.6889C41.2303 27.6889 41.4597 27.6433 41.6796 27.5469C42.5318 27.1738 42.9201 26.1803 42.547 25.3281C41.9224 23.9013 41.6057 22.3213 41.6057 20.6319C41.6057 16.4562 43.4853 14.1064 44.6086 12.7019C44.639 12.6639 44.6677 12.6246 44.6947 12.5842C45.072 12.0184 45.0702 11.2697 44.6929 10.7039C44.1769 9.92982 43.1306 9.72069 42.3568 10.2366C42.1573 10.3696 41.9956 10.5376 41.8739 10.7272C40.6254 12.2917 38.2363 15.4223 38.2363 20.6319C38.2363 22.7892 38.6483 24.824 39.4607 26.6797C39.7377 27.312 40.3561 27.6889 41.0048 27.6889Z" fill="#D2AC67"/>
</svg>
