<svg width="83" height="54" viewBox="0 0 83 54" fill="none" xmlns="http://www.w3.org/2000/svg">
<path d="M80.9793 45.5076H67.3609L54.4726 32.6192C54.3699 32.5165 54.2659 32.4155 54.1614 32.3158C54.7285 30.9976 55.1213 29.7354 55.3046 28.6352C55.633 26.6655 54.9398 25.3524 54.3006 24.5979C53.6583 23.8397 52.7566 23.2918 51.753 23.0236C51.733 19.383 49.2273 17.5112 49.1084 17.4248C48.5151 16.9932 47.6788 17.1203 47.2474 17.7136C46.816 18.3069 46.9415 19.1337 47.5348 19.5651C47.6046 19.6182 49.0505 20.7482 49.0948 22.9822C47.1069 23.437 45.5144 24.9573 45.0339 26.9922C45.0028 27.1243 44.9618 27.3177 44.9184 27.5262C39.0329 26.3715 32.6934 28.0688 28.1428 32.6196L27.7303 33.032C26.4238 31.8206 24.6097 31.3462 22.8721 31.7378C21.9473 29.7041 22.7627 28.0618 22.7969 27.9945C23.1456 27.3491 22.9051 26.5432 22.2597 26.1943C21.6142 25.8455 20.8083 26.086 20.4596 26.7315C20.3896 26.861 18.9381 29.6313 20.4924 32.9235C19.7028 33.5988 19.1264 34.4824 18.8745 35.4437C18.6239 36.4004 18.5658 37.8839 19.7126 39.5187C19.9026 39.7895 20.1277 40.0784 20.3833 40.3791L15.2543 45.5076H1.63591C0.902339 45.5076 0.307617 46.1023 0.307617 46.8359C0.307617 47.5694 0.902339 48.1641 1.63591 48.1641H12.3065L14.8834 51.5998C15.9314 52.9972 17.5999 53.8315 19.3465 53.8315H63.2687C65.0154 53.8315 66.6839 52.9974 67.7318 51.6L70.3087 48.1641H80.9793C81.7129 48.1641 82.3076 47.5694 82.3076 46.8359C82.3076 46.1023 81.7129 45.5076 80.9793 45.5076ZM47.5044 28.137C47.5478 27.9289 47.5885 27.7325 47.6191 27.6025C47.9075 26.3812 49.0514 25.4948 50.3393 25.4946C50.34 25.4946 50.3407 25.4948 50.3413 25.4948C50.3416 25.4948 50.342 25.4948 50.3421 25.4948C51.1053 25.4955 51.8451 25.8095 52.2733 26.3151C52.675 26.7892 52.8131 27.4229 52.6838 28.1987C52.5691 28.8872 52.3346 29.6959 52.0096 30.5485C50.5943 29.5533 49.0707 28.7778 47.4861 28.2231C47.4925 28.1942 47.4985 28.1654 47.5044 28.137ZM30.0212 34.4978C36.2445 28.2743 46.3707 28.2743 52.5942 34.4976L63.6042 45.5076H46.2643C46.6686 45.2614 47.0692 44.9989 47.4658 44.7189C47.9726 44.3608 48.1641 43.6993 47.9266 43.1258C47.6891 42.5524 47.0862 42.2199 46.4743 42.325C46.3808 42.3411 37.4993 43.7443 29.4931 35.0259L30.0212 34.4978ZM21.4441 36.1169C21.612 35.4759 22.1439 34.8731 22.8321 34.5428C22.8328 34.5424 22.8337 34.5419 22.8344 34.5415C23.2237 34.355 23.6411 34.2656 24.0541 34.2656C24.8734 34.2656 25.6745 34.6184 26.198 35.268C31.0192 41.249 36.3536 43.566 39.9797 44.4564C40.5243 44.5902 41.0478 44.6968 41.5458 44.7812C40.1001 45.252 38.6071 45.4939 37.0735 45.5077H36.8605C35.9659 45.5033 35.0579 45.4227 34.1371 45.2628C28.2052 44.2322 23.4752 40.2567 21.8873 37.993C21.4356 37.3494 21.2865 36.7182 21.4441 36.1169ZM22.2532 42.2656C23.5157 43.3819 25.0982 44.5262 26.9286 45.5076H19.0112L22.2532 42.2656ZM65.6065 50.006C65.0575 50.738 64.1837 51.1749 63.2687 51.1749H19.3465C18.4316 51.1749 17.5577 50.738 17.0087 50.006L15.6273 48.1641H66.988L65.6065 50.006Z" fill="#D2AC67"/>
<path d="M39.1822 36.8294C40.3052 36.8294 41.2189 35.9157 41.2189 34.7926C41.2189 33.6696 40.3052 32.7559 39.1822 32.7559C38.0592 32.7559 37.1455 33.6696 37.1455 34.7926C37.1455 35.9157 38.0592 36.8294 39.1822 36.8294Z" fill="#D2AC67"/>
<path d="M53.3512 43.9136C54.4742 43.9136 55.3879 42.9999 55.3879 41.8769C55.3879 40.7538 54.4742 39.8401 53.3512 39.8401C52.2281 39.8401 51.3145 40.7538 51.3145 41.8769C51.3145 42.9999 52.2281 43.9136 53.3512 43.9136Z" fill="#D2AC67"/>
<path d="M44.1342 39.6772C44.8678 39.6772 45.4696 39.0754 45.4696 38.3419C45.4696 37.6083 44.8678 37.0065 44.1342 37.0065C43.4006 37.0065 42.7988 37.6083 42.7988 38.3419C42.7988 39.0754 43.4006 39.6772 44.1342 39.6772Z" fill="#D2AC67"/>
<path d="M48.3852 36.8435C49.1188 36.8435 49.7206 36.2417 49.7206 35.5082C49.7206 34.7746 49.1188 34.1728 48.3852 34.1728C47.6516 34.1728 47.0498 34.7746 47.0498 35.5082C47.0498 36.2417 47.6516 36.8435 48.3852 36.8435Z" fill="#D2AC67"/>
<path d="M35.7285 15.6714C35.7285 17.9074 36.6757 19.0905 37.4369 20.041C38.0902 20.8571 38.5622 21.4467 38.5622 22.7502C38.5622 23.4837 39.1569 24.0785 39.8905 24.0785C40.6241 24.0785 41.2188 23.4837 41.2188 22.7502C41.2188 20.5142 40.2716 19.3313 39.5106 18.3806C38.8573 17.5645 38.3851 16.9747 38.3851 15.6714C38.3851 14.3662 38.8574 13.7757 39.511 12.9587C40.2718 12.0075 41.2188 10.8237 41.2188 8.58648C41.2188 6.34839 40.272 5.16391 39.5111 4.21214C38.8574 3.39444 38.3851 2.80362 38.3851 1.49675C38.3851 0.763179 37.7904 0.168457 37.0568 0.168457C36.3232 0.168457 35.7285 0.763179 35.7285 1.49675C35.7285 3.73484 36.6753 4.91932 37.4362 5.87109C38.0899 6.68896 38.5622 7.27979 38.5622 8.58665C38.5622 9.89192 38.0899 10.4824 37.4363 11.2994C36.6755 12.2504 35.7285 13.4344 35.7285 15.6714Z" fill="#D2AC67"/>
<path d="M42.8988 16.9983C43.3205 16.9983 43.6965 16.8015 43.94 16.4949C44.8985 15.2967 46.8863 12.8071 46.8863 8.58647C46.8863 6.87208 46.5567 5.25599 45.9066 3.78283C45.6105 3.11177 44.8264 2.80786 44.155 3.10398C43.4838 3.4001 43.18 4.18433 43.4761 4.85556C43.9761 5.9885 44.2297 7.24383 44.2297 8.58647C44.2297 11.8654 42.7606 13.7162 41.8737 14.8252C41.6842 15.0547 41.5703 15.3491 41.5703 15.6702C41.5705 16.4036 42.1652 16.9983 42.8988 16.9983Z" fill="#D2AC67"/>
<path d="M32.2444 21.2355C32.4222 21.2355 32.603 21.1996 32.7764 21.1236C33.4483 20.8294 33.7545 20.0461 33.4604 19.3741C32.9678 18.2492 32.7181 17.0034 32.7181 15.6714C32.7181 12.379 34.2001 10.5263 35.0858 9.41885C35.1097 9.38892 35.1324 9.35793 35.1537 9.32605C35.4512 8.87992 35.4498 8.28963 35.1523 7.8435C34.7454 7.23319 33.9205 7.0683 33.3104 7.47512C33.1531 7.57996 33.0256 7.71244 32.9296 7.86192C31.9452 9.09546 30.0615 11.5638 30.0615 15.6714C30.0615 17.3723 30.3863 18.9767 31.0269 20.4398C31.2453 20.9383 31.7329 21.2355 32.2444 21.2355Z" fill="#D2AC67"/>
</svg>
