<svg width="64" height="64" viewBox="0 0 64 64" fill="none" xmlns="http://www.w3.org/2000/svg">
<path d="M21.1061 11.5742H12.255C7.18672 11.5742 3.06348 15.6975 3.06348 20.7657V58.7799C3.06348 61.658 5.4051 63.9996 8.28334 63.9996C10.0025 63.9996 11.5303 63.1641 12.4818 61.878C13.4336 63.1641 14.9613 63.9996 16.6805 63.9996C18.3996 63.9996 19.9274 63.1641 20.8789 61.878C21.8307 63.1641 23.3584 63.9996 25.0776 63.9996C27.9558 63.9996 30.2973 61.658 30.2973 58.7799V20.7657C30.2976 15.6975 26.1743 11.5742 21.1061 11.5742ZM28.2549 58.7799C28.2549 60.5319 26.8297 61.9571 25.0777 61.9571C23.3257 61.9571 21.9004 60.5319 21.9004 58.7799C21.9004 58.2159 21.4432 57.7586 20.8792 57.7586C20.3152 57.7586 19.8579 58.2159 19.8579 58.7799C19.8579 60.5319 18.4327 61.9571 16.6807 61.9571C14.9287 61.9571 13.5035 60.5319 13.5035 58.7799C13.5035 58.2159 13.0462 57.7586 12.4822 57.7586C11.9182 57.7586 11.461 58.2159 11.461 58.7799C11.461 60.5319 10.0357 61.9571 8.28372 61.9571C6.53147 61.9571 5.10622 60.5319 5.10622 58.7799V42.2124H28.2551V58.7799H28.2549ZM28.2549 40.1699H5.1061V25.8721H28.2549V40.1699ZM28.2549 23.8294H5.1061V20.7656C5.1061 16.8236 8.31309 13.6166 12.255 13.6166H21.1061C25.0481 13.6166 28.2549 16.8236 28.2549 20.7656V23.8294Z" fill="url(#paint0_linear_362_2626)"/>
<path d="M16.5681 48.9644C17.1321 48.9644 17.5894 48.5071 17.5894 47.9431C17.5894 47.3791 17.1321 46.9219 16.5681 46.9219C16.0041 46.9219 15.5469 47.3791 15.5469 47.9431C15.5469 48.5071 16.0041 48.9644 16.5681 48.9644Z" fill="url(#paint1_linear_362_2626)"/>
<path d="M21.1062 19.7446C21.6702 19.7446 22.1275 19.2874 22.1275 18.7234C22.1275 18.1594 21.6702 17.7021 21.1062 17.7021C20.5422 17.7021 20.085 18.1594 20.085 18.7234C20.085 19.2874 20.5422 19.7446 21.1062 19.7446Z" fill="url(#paint2_linear_362_2626)"/>
<path d="M12.4832 53.0493C13.0472 53.0493 13.5044 52.5921 13.5044 52.0281C13.5044 51.4641 13.0472 51.0068 12.4832 51.0068C11.9191 51.0068 11.4619 51.4641 11.4619 52.0281C11.4619 52.5921 11.9191 53.0493 12.4832 53.0493Z" fill="url(#paint3_linear_362_2626)"/>
<path d="M23.8298 7.48936H23.4895V1.02125C23.4895 0.457249 23.0322 0 22.4682 0H10.8936C10.3296 0 9.87236 0.457249 9.87236 1.02125V7.48936H9.53199C8.96799 7.48936 8.51074 7.94661 8.51074 8.51061C8.51074 9.07461 8.96799 9.53186 9.53199 9.53186H23.8298C24.3938 9.53186 24.8511 9.07461 24.8511 8.51061C24.8511 7.94661 24.3938 7.48936 23.8298 7.48936ZM21.4468 7.48936H11.915V2.0425H21.4468V7.48936Z" fill="url(#paint4_linear_362_2626)"/>
<path d="M54.4684 7.48936H54.128V1.02125C54.128 0.457249 53.6708 0 53.1068 0H41.5323C40.9683 0 40.511 0.457249 40.511 1.02125V7.48936H40.1707C39.6067 7.48936 39.1494 7.94661 39.1494 8.51061C39.1494 9.07461 39.6067 9.53186 40.1707 9.53186H54.4685C55.0325 9.53186 55.4898 9.07461 55.4898 8.51061C55.4896 7.94661 55.0325 7.48936 54.4684 7.48936ZM52.0854 7.48936H42.5535V2.0425H52.0854V7.48936Z" fill="url(#paint5_linear_362_2626)"/>
<path d="M59.3918 18.5427L53.891 11.9416C53.6969 11.7088 53.4095 11.5742 53.1064 11.5742H41.5319C41.2288 11.5742 40.9413 11.7088 40.7473 11.9417L35.2464 18.5428C34.3805 19.582 33.7021 21.4557 33.7021 22.8083V26.8934C33.7021 28.1656 34.1756 29.3711 35.0083 30.2977C34.1756 31.2243 33.7021 32.4298 33.7021 33.7019V37.787C33.7021 39.0592 34.1756 40.2647 35.0083 41.1913C34.1756 42.1179 33.7021 43.3234 33.7021 44.5955V58.78C33.7021 61.6582 36.0438 63.9997 38.9219 63.9997H55.7162C58.5945 63.9997 60.936 61.6581 60.936 58.78V44.5954C60.936 43.3233 60.4625 42.1178 59.6298 41.1912C60.4625 40.2645 60.936 39.059 60.936 37.7869V33.7018C60.936 32.4297 60.4625 31.2242 59.6298 30.2976C60.4625 29.3709 60.936 28.1654 60.936 26.8933V22.8082H60.9361C60.9362 21.4555 60.258 19.582 59.3918 18.5427ZM58.8937 26.8933C58.8937 27.9186 58.3782 28.8731 57.5146 29.4469C57.2297 29.6362 57.0586 29.9556 57.0586 30.2976C57.0586 30.6396 57.2297 30.9588 57.5146 31.1482C58.3782 31.7221 58.8937 32.6767 58.8937 33.7018V37.7869C58.8937 38.8122 58.3782 39.7667 57.5146 40.3405C57.2297 40.5298 57.0586 40.8492 57.0586 41.1912C57.0586 41.5332 57.2297 41.8524 57.5146 42.0418C58.3782 42.6157 58.8937 43.5703 58.8937 44.5954V58.7799C58.8937 60.5319 57.4685 61.9571 55.7165 61.9571H38.922C37.17 61.9571 35.7448 60.5319 35.7448 58.7799V44.5954C35.7448 43.5703 36.2603 42.6157 37.1239 42.0418C37.4088 41.8525 37.5799 41.5332 37.5799 41.1912C37.5799 40.8492 37.4088 40.5299 37.1239 40.3405C36.2603 39.7667 35.7448 38.812 35.7448 37.7869V33.7018C35.7448 32.6767 36.2603 31.7221 37.1239 31.1482C37.4088 30.9589 37.5799 30.6396 37.5799 30.2976C37.5799 29.9556 37.4088 29.6363 37.1239 29.4469C36.2603 28.8731 35.7448 27.9184 35.7448 26.8933V22.8082C35.7448 21.9171 36.2451 20.5348 36.8158 19.8503L42.0104 13.6167H52.6282L57.8229 19.8503C58.3932 20.5348 58.8937 21.9171 58.8937 22.8082V26.8933Z" fill="url(#paint6_linear_362_2626)"/>
<path d="M53.9942 29.2764H40.6433C40.0793 29.2764 39.6221 29.7336 39.6221 30.2976C39.6221 30.8616 40.0793 31.3189 40.6433 31.3189H53.9943C54.5583 31.3189 55.0155 30.8616 55.0155 30.2976C55.0155 29.7336 54.5583 29.2764 53.9942 29.2764Z" fill="url(#paint7_linear_362_2626)"/>
<path d="M53.9942 40.1699H40.6433C40.0793 40.1699 39.6221 40.6272 39.6221 41.1912C39.6221 41.7552 40.0793 42.2124 40.6433 42.2124H53.9943C54.5583 42.2124 55.0155 41.7552 55.0155 41.1912C55.0155 40.6272 54.5583 40.1699 53.9942 40.1699Z" fill="url(#paint8_linear_362_2626)"/>
<defs>
<linearGradient id="paint0_linear_362_2626" x1="29.5503" y1="-7.27738" x2="-2.75919" y2="-2.31687" gradientUnits="userSpaceOnUse">
<stop stop-color="#F7FC97"/>
<stop offset="0.234375" stop-color="#9E5313"/>
<stop offset="0.322917" stop-color="#FCC342"/>
<stop offset="0.48" stop-color="#F7FC97"/>
<stop offset="0.58" stop-color="#E7AA39"/>
<stop offset="0.802083" stop-color="#632507"/>
<stop offset="1" stop-color="#E7AA39"/>
</linearGradient>
<linearGradient id="paint1_linear_362_2626" x1="17.5333" y1="46.1874" x2="15.2523" y2="46.8616" gradientUnits="userSpaceOnUse">
<stop stop-color="#F7FC97"/>
<stop offset="0.234375" stop-color="#9E5313"/>
<stop offset="0.322917" stop-color="#FCC342"/>
<stop offset="0.48" stop-color="#F7FC97"/>
<stop offset="0.58" stop-color="#E7AA39"/>
<stop offset="0.802083" stop-color="#632507"/>
<stop offset="1" stop-color="#E7AA39"/>
</linearGradient>
<linearGradient id="paint2_linear_362_2626" x1="22.0714" y1="16.9677" x2="19.7904" y2="17.6418" gradientUnits="userSpaceOnUse">
<stop stop-color="#F7FC97"/>
<stop offset="0.234375" stop-color="#9E5313"/>
<stop offset="0.322917" stop-color="#FCC342"/>
<stop offset="0.48" stop-color="#F7FC97"/>
<stop offset="0.58" stop-color="#E7AA39"/>
<stop offset="0.802083" stop-color="#632507"/>
<stop offset="1" stop-color="#E7AA39"/>
</linearGradient>
<linearGradient id="paint3_linear_362_2626" x1="13.4484" y1="50.2724" x2="11.1674" y2="50.9465" gradientUnits="userSpaceOnUse">
<stop stop-color="#F7FC97"/>
<stop offset="0.234375" stop-color="#9E5313"/>
<stop offset="0.322917" stop-color="#FCC342"/>
<stop offset="0.48" stop-color="#F7FC97"/>
<stop offset="0.58" stop-color="#E7AA39"/>
<stop offset="0.802083" stop-color="#632507"/>
<stop offset="1" stop-color="#E7AA39"/>
</linearGradient>
<linearGradient id="paint4_linear_362_2626" x1="24.4029" y1="-3.42755" x2="8.61335" y2="4.57231" gradientUnits="userSpaceOnUse">
<stop stop-color="#F7FC97"/>
<stop offset="0.234375" stop-color="#9E5313"/>
<stop offset="0.322917" stop-color="#FCC342"/>
<stop offset="0.48" stop-color="#F7FC97"/>
<stop offset="0.58" stop-color="#E7AA39"/>
<stop offset="0.802083" stop-color="#632507"/>
<stop offset="1" stop-color="#E7AA39"/>
</linearGradient>
<linearGradient id="paint5_linear_362_2626" x1="55.0416" y1="-3.42755" x2="39.252" y2="4.57231" gradientUnits="userSpaceOnUse">
<stop stop-color="#F7FC97"/>
<stop offset="0.234375" stop-color="#9E5313"/>
<stop offset="0.322917" stop-color="#FCC342"/>
<stop offset="0.48" stop-color="#F7FC97"/>
<stop offset="0.58" stop-color="#E7AA39"/>
<stop offset="0.802083" stop-color="#632507"/>
<stop offset="1" stop-color="#E7AA39"/>
</linearGradient>
<linearGradient id="paint6_linear_362_2626" x1="60.1891" y1="-7.27743" x2="27.8795" y2="-2.31688" gradientUnits="userSpaceOnUse">
<stop stop-color="#F7FC97"/>
<stop offset="0.234375" stop-color="#9E5313"/>
<stop offset="0.322917" stop-color="#FCC342"/>
<stop offset="0.48" stop-color="#F7FC97"/>
<stop offset="0.58" stop-color="#E7AA39"/>
<stop offset="0.802083" stop-color="#632507"/>
<stop offset="1" stop-color="#E7AA39"/>
</linearGradient>
<linearGradient id="paint7_linear_362_2626" x1="54.5933" y1="28.5419" x2="51.4577" y2="35.5263" gradientUnits="userSpaceOnUse">
<stop stop-color="#F7FC97"/>
<stop offset="0.234375" stop-color="#9E5313"/>
<stop offset="0.322917" stop-color="#FCC342"/>
<stop offset="0.48" stop-color="#F7FC97"/>
<stop offset="0.58" stop-color="#E7AA39"/>
<stop offset="0.802083" stop-color="#632507"/>
<stop offset="1" stop-color="#E7AA39"/>
</linearGradient>
<linearGradient id="paint8_linear_362_2626" x1="54.5933" y1="39.4355" x2="51.4577" y2="46.4199" gradientUnits="userSpaceOnUse">
<stop stop-color="#F7FC97"/>
<stop offset="0.234375" stop-color="#9E5313"/>
<stop offset="0.322917" stop-color="#FCC342"/>
<stop offset="0.48" stop-color="#F7FC97"/>
<stop offset="0.58" stop-color="#E7AA39"/>
<stop offset="0.802083" stop-color="#632507"/>
<stop offset="1" stop-color="#E7AA39"/>
</linearGradient>
</defs>
</svg>
