<svg width="64" height="72" viewBox="0 0 64 72" fill="none" xmlns="http://www.w3.org/2000/svg">
<g clip-path="url(#clip0_362_2660)" filter="url(#filter0_d_362_2660)">
<path d="M54.1661 39.1402C53.9242 38.8346 53.556 38.6564 53.1662 38.6564H49.927L50.5652 37.4872C51.5701 35.6464 51.531 33.4707 50.4608 31.6671C49.3905 29.8635 47.4995 28.7867 45.4023 28.7867H44.6626C44.8811 27.4503 44.6302 26.067 43.9093 24.8522C42.8391 23.0487 40.9479 21.9719 38.8508 21.9719H37.3601C38.2949 20.8074 38.8562 19.3306 38.8562 17.7247C38.8562 14.4147 36.4773 11.6512 33.3398 11.0502C33.4292 9.1068 34.0706 4.33641 38.1241 2.42878C38.7612 2.12891 39.0346 1.36953 38.7347 0.732406C38.4349 0.0954043 37.6754 -0.178221 37.0383 0.121654C31.6208 2.67103 30.863 8.66392 30.7825 11.0493C27.6428 11.6484 25.2618 14.4128 25.2618 17.7246C25.2618 19.3307 25.823 20.8074 26.7579 21.9718H25.1497C23.0524 21.9718 21.1614 23.0486 20.0912 24.8521C19.3703 26.0668 19.1194 27.4502 19.3379 28.7866H18.5982C16.5009 28.7866 14.61 29.8633 13.5396 31.667C12.4694 33.4706 12.4304 35.6463 13.4353 37.4871L14.0735 38.6562H10.8345C10.4448 38.6562 10.0766 38.8345 9.83463 39.1401C9.59288 39.4457 9.50413 39.8451 9.59376 40.2244L14.9815 63.0185C15.1174 63.5938 15.631 64.0002 16.2221 64.0002H47.7785C48.3696 64.0002 48.8832 63.5938 49.0191 63.0185L54.4068 40.2244C54.4965 39.8452 54.4078 39.4459 54.1661 39.1402ZM32.059 13.4773C34.4011 13.4773 36.3063 15.3827 36.3063 17.7246C36.3063 20.0664 34.4009 21.9718 32.059 21.9718C29.717 21.9718 27.8118 20.0664 27.8118 17.7246C27.8118 15.3827 29.717 13.4773 32.059 13.4773ZM22.2839 26.1535C22.8903 25.1317 23.9615 24.5217 25.1498 24.5217H38.8509C39.8119 24.5217 40.6962 24.9211 41.3202 25.6143H34.7616C34.0576 25.6143 33.4867 26.1851 33.4867 26.8892C33.4867 27.5933 34.0576 28.1641 34.7616 28.1641H42.1721C42.1521 28.3736 42.1127 28.582 42.0522 28.7866H21.9487C21.6893 27.9098 21.8024 26.9651 22.2839 26.1535ZM15.7326 32.9682C16.339 31.9463 17.4101 31.3365 18.5984 31.3365H45.4023C46.5905 31.3365 47.6617 31.9465 48.2681 32.9682C48.8745 33.99 48.8966 35.2226 48.3273 36.2654L47.0222 38.6561H16.9785L16.1898 37.2111H24.3044C25.0084 37.2111 25.5793 36.6404 25.5793 35.9362C25.5793 35.2321 25.0084 34.6613 24.3044 34.6613H15.263C15.2641 34.0775 15.4201 33.4948 15.7326 32.9682ZM17.2309 61.4504L12.4459 41.2061H23.2399L24.981 61.4504H17.2309ZM36.4606 61.4504H27.54L25.7989 41.2061H38.2017L36.4606 61.4504ZM46.7698 61.4504H39.0197L40.7608 41.2061H51.5547L46.7698 61.4504Z" fill="url(#paint0_linear_362_2660)"/>
<path d="M29.474 34.6611H28.769C28.065 34.6611 27.4941 35.2319 27.4941 35.936C27.4941 36.6401 28.065 37.2109 28.769 37.2109H29.474C30.178 37.2109 30.7489 36.6401 30.7489 35.936C30.7489 35.2319 30.178 34.6611 29.474 34.6611Z" fill="url(#paint1_linear_362_2660)"/>
</g>
<defs>
<filter id="filter0_d_362_2660" x="-4" y="0" width="72" height="72" filterUnits="userSpaceOnUse" color-interpolation-filters="sRGB">
<feFlood flood-opacity="0" result="BackgroundImageFix"/>
<feColorMatrix in="SourceAlpha" type="matrix" values="0 0 0 0 0 0 0 0 0 0 0 0 0 0 0 0 0 0 127 0" result="hardAlpha"/>
<feOffset dy="4"/>
<feGaussianBlur stdDeviation="2"/>
<feComposite in2="hardAlpha" operator="out"/>
<feColorMatrix type="matrix" values="0 0 0 0 0 0 0 0 0 0 0 0 0 0 0 0 0 0 0.25 0"/>
<feBlend mode="normal" in2="BackgroundImageFix" result="effect1_dropShadow_362_2660"/>
<feBlend mode="normal" in="SourceGraphic" in2="effect1_dropShadow_362_2660" result="shape"/>
</filter>
<linearGradient id="paint0_linear_362_2660" x1="53.21" y1="-23.0138" x2="0.953452" y2="-12.1831" gradientUnits="userSpaceOnUse">
<stop stop-color="#F7FC97"/>
<stop offset="0.234375" stop-color="#9E5313"/>
<stop offset="0.322917" stop-color="#FCC342"/>
<stop offset="0.48" stop-color="#F7FC97"/>
<stop offset="0.58" stop-color="#E7AA39"/>
<stop offset="0.802083" stop-color="#632507"/>
<stop offset="1" stop-color="#E7AA39"/>
</linearGradient>
<linearGradient id="paint1_linear_362_2660" x1="30.6596" y1="33.7443" x2="27.1997" y2="35.0496" gradientUnits="userSpaceOnUse">
<stop stop-color="#F7FC97"/>
<stop offset="0.234375" stop-color="#9E5313"/>
<stop offset="0.322917" stop-color="#FCC342"/>
<stop offset="0.48" stop-color="#F7FC97"/>
<stop offset="0.58" stop-color="#E7AA39"/>
<stop offset="0.802083" stop-color="#632507"/>
<stop offset="1" stop-color="#E7AA39"/>
</linearGradient>
<clipPath id="clip0_362_2660">
<rect width="64" height="64" fill="white"/>
</clipPath>
</defs>
</svg>
