<svg width="36" height="37" viewBox="0 0 36 37" fill="none" xmlns="http://www.w3.org/2000/svg">
<path d="M20.1788 26.7091H16.4658C14.0398 26.7091 12.0724 24.6677 12.0724 22.153C12.0724 21.5465 12.5754 21.0435 13.1819 21.0435C13.7884 21.0435 14.2913 21.5465 14.2913 22.153C14.2913 23.4399 15.2676 24.4902 16.4658 24.4902H20.1788C21.1403 24.4902 21.9391 23.6322 21.9391 22.5967C21.9391 21.3098 21.4806 21.0583 20.7261 20.792L14.7647 18.6915C13.6109 18.2921 12.0576 17.4341 12.0576 14.7862C12.0576 12.5081 13.8475 10.6738 16.0369 10.6738H19.7498C22.1758 10.6738 24.1433 12.7152 24.1433 15.23C24.1433 15.8365 23.6403 16.3394 23.0338 16.3394C22.4273 16.3394 21.9244 15.8365 21.9244 15.23C21.9244 13.943 20.948 12.8927 19.7498 12.8927H16.0369C15.0753 12.8927 14.2765 13.7507 14.2765 14.7862C14.2765 16.0732 14.7351 16.3246 15.4895 16.5909L21.451 18.6915C22.6048 19.0909 24.158 19.9489 24.158 22.5967C24.1433 24.86 22.3681 26.7091 20.1788 26.7091Z" fill="#CFB767"/>
<path d="M18.1075 28.6767C17.501 28.6767 16.998 28.1737 16.998 27.5672V9.816C16.998 9.20949 17.501 8.70654 18.1075 8.70654C18.714 8.70654 19.217 9.20949 19.217 9.816V27.5672C19.217 28.1737 18.714 28.6767 18.1075 28.6767Z" fill="#CFB767"/>
<path d="M22.546 34.5939H13.6704C5.63796 34.5939 2.20605 31.162 2.20605 23.1295V14.2539C2.20605 6.22146 5.63796 2.78955 13.6704 2.78955H22.546C30.5785 2.78955 34.0104 6.22146 34.0104 14.2539V23.1295C34.0104 31.162 30.5785 34.5939 22.546 34.5939ZM13.6704 5.00846C6.85096 5.00846 4.42496 7.43446 4.42496 14.2539V23.1295C4.42496 29.949 6.85096 32.375 13.6704 32.375H22.546C29.3655 32.375 31.7915 29.949 31.7915 23.1295V14.2539C31.7915 7.43446 29.3655 5.00846 22.546 5.00846H13.6704Z" fill="#CFB767"/>
</svg>
