<svg width="64" height="64" viewBox="0 0 64 64" fill="none" xmlns="http://www.w3.org/2000/svg">
<path d="M61.8701 50.2948C63.0462 50.2948 64 49.3412 64 48.1651C64 46.989 63.0462 46.0352 61.8701 46.0352H60.9799C61.777 44.5744 62.2427 42.8152 62.2427 40.9236C62.2427 36.7899 60.0173 33.2886 56.9716 32.1539V19.839C56.9716 18.6628 56.0179 17.7091 54.8418 17.7091C53.6656 17.7091 52.7119 18.6628 52.7119 19.839V32.1539C51.6236 32.5594 50.6406 33.2665 49.826 34.1971C49.2212 33.3427 48.4898 32.5844 47.6574 31.9513C47.6369 29.3176 45.9593 27.0718 43.6174 26.2079V15.835C43.6174 14.6588 42.6639 13.7051 41.4877 13.7051C40.3116 13.7051 39.3578 14.6588 39.3578 15.835V26.2081C37.0157 27.072 35.3381 29.3183 35.3177 31.9518C33.0783 33.655 31.5628 36.2602 31.3141 39.2213L28.2817 33.1561C27.9208 32.4345 27.1836 31.9787 26.3768 31.9787H24.9923V20.0521C24.9923 18.8759 24.0388 17.9222 22.8627 17.9222C21.6865 17.9222 20.7328 18.8759 20.7328 20.0521V31.9789H15.8347C14.8913 31.9789 14.0925 32.5933 13.8128 33.4427C13.1698 32.8807 12.4524 32.4413 11.6816 32.1541V19.839C11.6816 18.6628 10.7279 17.7091 9.55173 17.7091C8.3756 17.7091 7.42185 18.6628 7.42185 19.839V32.1539C4.37657 33.2889 2.15079 36.7903 2.15079 40.9238C2.15079 42.8152 2.61667 44.5744 3.41376 46.0354H2.12989C0.953751 46.0354 0 46.9892 0 48.1653C0 49.3414 0.953751 50.295 2.12989 50.295H61.8701V50.2948ZM35.5353 40.0826C35.5353 36.8002 38.2056 34.1299 41.4882 34.1299C44.7705 34.1299 47.4408 36.8002 47.4408 40.0826C47.4408 43.3651 44.7705 46.0354 41.4882 46.0354C38.2056 46.0354 35.5353 43.3651 35.5353 40.0826ZM54.842 45.8225C53.1685 45.8225 51.7006 43.5334 51.7006 40.924C51.7006 38.3147 53.1687 36.0258 54.842 36.0258C56.5154 36.0258 57.9834 38.3147 57.9834 40.924C57.9834 43.5332 56.5154 45.8225 54.842 45.8225ZM9.55195 36.0256C11.2254 36.0256 12.6933 38.3145 12.6933 40.9238C12.6933 43.5332 11.2252 45.8223 9.55195 45.8223C7.87846 45.8223 6.41056 43.5332 6.41056 40.9238C6.41056 38.3145 7.87868 36.0256 9.55195 36.0256ZM17.9646 46.0354V36.2385H25.0611L29.9595 46.0354H17.9646Z" fill="url(#paint0_linear_362_2656)"/>
<defs>
<linearGradient id="paint0_linear_362_2656" x1="62.2446" y1="0.547751" x2="0.916085" y2="32.2515" gradientUnits="userSpaceOnUse">
<stop stop-color="#F7FC97"/>
<stop offset="0.234375" stop-color="#9E5313"/>
<stop offset="0.322917" stop-color="#FCC342"/>
<stop offset="0.48" stop-color="#F7FC97"/>
<stop offset="0.58" stop-color="#E7AA39"/>
<stop offset="0.802083" stop-color="#632507"/>
<stop offset="1" stop-color="#E7AA39"/>
</linearGradient>
</defs>
</svg>
