<svg width="55" height="54" viewBox="0 0 55 54" fill="none" xmlns="http://www.w3.org/2000/svg">
<path d="M20.5596 24.1875C17.1396 24.1875 14.3721 21.42 14.3721 18C14.3721 14.58 17.1396 11.8125 20.5596 11.8125C23.9796 11.8125 26.7471 14.58 26.7471 18C26.7471 21.42 23.9796 24.1875 20.5596 24.1875ZM20.5596 15.1875C19.0071 15.1875 17.7471 16.4475 17.7471 18C17.7471 19.5525 19.0071 20.8125 20.5596 20.8125C22.1121 20.8125 23.3721 19.5525 23.3721 18C23.3721 16.4475 22.1121 15.1875 20.5596 15.1875Z" fill="#D2AC67"/>
<path d="M34.0596 51.1875H20.5596C8.34207 51.1875 3.12207 45.9675 3.12207 33.75V20.25C3.12207 8.0325 8.34207 2.8125 20.5596 2.8125H27.3096C28.2321 2.8125 28.9971 3.5775 28.9971 4.5C28.9971 5.4225 28.2321 6.1875 27.3096 6.1875H20.5596C10.1871 6.1875 6.49707 9.8775 6.49707 20.25V33.75C6.49707 44.1225 10.1871 47.8125 20.5596 47.8125H34.0596C44.4321 47.8125 48.1221 44.1225 48.1221 33.75V24.75C48.1221 23.8275 48.8871 23.0625 49.8096 23.0625C50.7321 23.0625 51.4971 23.8275 51.4971 24.75V33.75C51.4971 45.9675 46.2771 51.1875 34.0596 51.1875Z" fill="#D2AC67"/>
<path d="M42.9249 18.81C40.9674 18.81 36.3774 16.4025 34.9599 12.015C33.9924 8.9775 35.1174 4.995 38.6274 3.87C40.1124 3.3975 41.6649 3.6 42.9024 4.365C44.1174 3.6 45.7149 3.375 47.2224 3.87C50.7324 4.995 51.8574 8.9775 50.8899 12.015C49.4724 16.4925 44.6574 18.81 42.9249 18.81ZM38.1774 10.98C39.1449 13.9725 42.3849 15.3675 42.9699 15.435C43.6224 15.3675 46.7949 13.7925 47.6724 10.98C48.1449 9.4725 47.6724 7.56 46.1874 7.065C45.5574 6.8625 44.7249 6.975 44.3424 7.56C44.0274 8.0325 43.5099 8.325 42.9699 8.325C42.4524 8.325 41.8899 8.0775 41.5749 7.6275C41.1024 6.975 40.2699 6.885 39.6849 7.065C38.1774 7.56 37.7049 9.4725 38.1774 10.98Z" fill="#D2AC67"/>
<path d="M6.31729 44.325C5.77729 44.325 5.23729 44.055 4.92229 43.5825C4.40479 42.8175 4.60729 41.76 5.39479 41.2425L16.4873 33.795C18.9173 32.1525 22.2698 32.355 24.4748 34.2225L25.2173 34.875C26.3423 35.8425 28.2548 35.8425 29.3573 34.875L38.7173 26.8425C41.1023 24.795 44.8598 24.795 47.2673 26.8425L50.9348 29.9925C51.6323 30.6 51.7223 31.6575 51.1148 32.3775C50.5073 33.075 49.4498 33.165 48.7298 32.5575L45.0623 29.4075C43.9373 28.44 42.0248 28.44 40.8998 29.4075L31.5398 37.44C29.1548 39.4875 25.3973 39.4875 22.9898 37.44L22.2473 36.7875C21.2123 35.91 19.5023 35.82 18.3548 36.6075L7.26229 44.055C6.96979 44.235 6.63229 44.325 6.31729 44.325Z" fill="#D2AC67"/>
</svg>
