<svg width="64" height="65" viewBox="0 0 64 65" fill="none" xmlns="http://www.w3.org/2000/svg">
<g style="mix-blend-mode:multiply" opacity="0.44">
<circle cx="32.0075" cy="32.5261" r="31.7156" fill="black"/>
</g>
<path d="M27.8137 48.9526H38.1858C46.8292 48.9526 50.2865 45.4952 50.2865 36.8518V26.4797C50.2865 17.8363 46.8292 14.3789 38.1858 14.3789H27.8137C19.1703 14.3789 15.7129 17.8363 15.7129 26.4797V36.8518C15.7129 45.4952 19.1703 48.9526 27.8137 48.9526Z" stroke="white" stroke-width="1.5" stroke-linecap="round" stroke-linejoin="round"/>
<path d="M27.8138 28.2097C29.7233 28.2097 31.2712 26.6617 31.2712 24.7523C31.2712 22.8428 29.7233 21.2949 27.8138 21.2949C25.9044 21.2949 24.3564 22.8428 24.3564 24.7523C24.3564 26.6617 25.9044 28.2097 27.8138 28.2097Z" stroke="white" stroke-width="1.5" stroke-linecap="round" stroke-linejoin="round"/>
<path d="M16.8711 43.6808L25.3935 37.9588C26.7592 37.0426 28.7299 37.1464 29.9572 38.2008L30.5277 38.7022C31.8761 39.8604 34.0542 39.8604 35.4026 38.7022L42.5939 32.5308C43.9423 31.3726 46.1204 31.3726 47.4688 32.5308L50.2865 34.9509" stroke="white" stroke-width="1.5" stroke-linecap="round" stroke-linejoin="round"/>
</svg>
