<svg width="40" height="40" viewBox="0 0 40 40" fill="none" xmlns="http://www.w3.org/2000/svg">
<path d="M25.2888 37.9166H15.4929C6.6276 37.9166 2.83984 34.0499 2.83984 24.9999V14.9999C2.83984 5.94992 6.6276 2.08325 15.4929 2.08325H25.2888C34.1541 2.08325 37.9419 5.94992 37.9419 14.9999V24.9999C37.9419 34.0499 34.1541 37.9166 25.2888 37.9166ZM15.4929 4.58325C7.96637 4.58325 5.28882 7.31659 5.28882 14.9999V24.9999C5.28882 32.6833 7.96637 35.4166 15.4929 35.4166H25.2888C32.8154 35.4166 35.4929 32.6833 35.4929 24.9999V14.9999C35.4929 7.31659 32.8154 4.58325 25.2888 4.58325H15.4929Z" fill="white"/>
<path d="M23.656 29.5834H17.1254C13.7458 29.5834 11.0029 26.7834 11.0029 23.3334V16.6667C11.0029 13.2167 13.7458 10.4167 17.1254 10.4167H23.656C27.0356 10.4167 29.7784 13.2167 29.7784 16.6667V23.3334C29.7784 26.7834 27.0356 29.5834 23.656 29.5834ZM17.1254 12.9167C15.1009 12.9167 13.4519 14.6001 13.4519 16.6667V23.3334C13.4519 25.4001 15.1009 27.0834 17.1254 27.0834H23.656C25.6805 27.0834 27.3295 25.4001 27.3295 23.3334V16.6667C27.3295 14.6001 25.6805 12.9167 23.656 12.9167H17.1254Z" fill="white"/>
<path d="M20.3905 29.5834C19.7211 29.5834 19.166 29.0167 19.166 28.3334V11.6667C19.166 10.9834 19.7211 10.4167 20.3905 10.4167C21.0599 10.4167 21.615 10.9834 21.615 11.6667V28.3334C21.615 29.0167 21.0599 29.5834 20.3905 29.5834Z" fill="white"/>
<path d="M28.5539 21.25H12.2274C11.558 21.25 11.0029 20.6833 11.0029 20C11.0029 19.3167 11.558 18.75 12.2274 18.75H28.5539C29.2233 18.75 29.7784 19.3167 29.7784 20C29.7784 20.6833 29.2233 21.25 28.5539 21.25Z" fill="white"/>
</svg>
