<svg width="32" height="32" viewBox="0 0 32 32" fill="none" xmlns="http://www.w3.org/2000/svg">
<path d="M16.0003 30.3333C8.09366 30.3333 1.66699 23.9066 1.66699 16C1.66699 8.09329 8.09366 1.66663 16.0003 1.66663C23.907 1.66663 30.3337 8.09329 30.3337 16C30.3337 23.9066 23.907 30.3333 16.0003 30.3333ZM16.0003 3.66663C9.20033 3.66663 3.66699 9.19996 3.66699 16C3.66699 22.8 9.20033 28.3333 16.0003 28.3333C22.8003 28.3333 28.3337 22.8 28.3337 16C28.3337 9.19996 22.8003 3.66663 16.0003 3.66663Z" fill="white"/>
<path d="M16 18.3333C15.4533 18.3333 15 17.88 15 17.3333V10.6666C15 10.12 15.4533 9.66663 16 9.66663C16.5467 9.66663 17 10.12 17 10.6666V17.3333C17 17.88 16.5467 18.3333 16 18.3333Z" fill="white"/>
<path d="M16.0003 22.6667C15.827 22.6667 15.6537 22.6267 15.4937 22.56C15.3337 22.4934 15.187 22.4 15.0537 22.28C14.9337 22.1467 14.8403 22.0134 14.7737 21.84C14.707 21.68 14.667 21.5067 14.667 21.3334C14.667 21.16 14.707 20.9867 14.7737 20.8267C14.8403 20.6667 14.9337 20.52 15.0537 20.3867C15.187 20.2667 15.3337 20.1734 15.4937 20.1067C15.8137 19.9734 16.187 19.9734 16.507 20.1067C16.667 20.1734 16.8137 20.2667 16.947 20.3867C17.067 20.52 17.1603 20.6667 17.227 20.8267C17.2937 20.9867 17.3337 21.16 17.3337 21.3334C17.3337 21.5067 17.2937 21.68 17.227 21.84C17.1603 22.0134 17.067 22.1467 16.947 22.28C16.8137 22.4 16.667 22.4934 16.507 22.56C16.347 22.6267 16.1737 22.6667 16.0003 22.6667Z" fill="white"/>
</svg>
