<svg width="64" height="64" viewBox="0 0 64 64" fill="none" xmlns="http://www.w3.org/2000/svg">
<g clip-path="url(#clip0_362_2591)">
<path d="M62.8796 12.6707C62.4528 12.2439 61.7628 12.2439 61.3359 12.6707L57.4755 16.5311L56.3172 15.3728C54.8805 13.9339 52.3509 13.9339 50.9142 15.3728C50.1947 16.0912 49.7984 17.0508 49.7984 18.0749C49.7984 19.0978 50.1947 20.0564 50.9142 20.7769L51.2461 21.1088H45.7098C44.5056 21.1088 43.5264 22.0881 43.5264 23.2923V28.1429C42.8113 27.8798 42.0503 27.7357 41.2654 27.7357C39.5153 27.7357 37.8711 28.4169 36.6331 29.6549C34.9802 31.3078 34.4147 33.6278 34.9016 35.7545C33.4343 34.8003 31.3338 34.9542 30.0718 36.2174C29.3523 36.9358 28.956 37.8954 28.956 38.9194C28.956 39.9424 29.3523 40.901 30.0718 41.6215L30.4036 41.9534H24.8663C23.6621 41.9534 22.6829 42.9327 22.6829 44.1369V48.9973C21.1915 47.5158 18.7744 47.518 17.2864 49.0039C15.7973 50.4941 15.7973 52.9177 17.2864 54.4069L18.4447 55.5652L15.1488 58.8612C15.0472 58.9616 14.9675 59.0828 14.9118 59.2171C14.8562 59.3503 14.8278 59.4922 14.8278 59.6341C14.8278 60.8383 13.8485 61.8176 12.6443 61.8176C11.4401 61.8176 10.4608 60.8383 10.4608 59.6341C10.4608 58.4299 11.4401 57.4506 12.6443 57.4506C13.248 57.4506 13.736 56.9626 13.736 56.3589C13.736 55.7552 13.248 55.2672 12.6443 55.2672C10.2359 55.2672 8.27734 57.2257 8.27734 59.6341C8.27734 62.0425 10.2359 64.0011 12.6443 64.0011C14.8802 64.0011 16.7078 62.3067 16.96 60.1374L19.9884 57.1089L21.1468 58.2673C21.8913 59.0118 22.8695 59.3841 23.8477 59.3841C24.8259 59.3841 25.8052 59.0107 26.5509 58.2673C28.0389 56.7803 28.04 54.3599 26.5574 52.8708H31.4179C32.6221 52.8708 33.6014 51.8915 33.6014 50.6873V45.15L33.9332 45.4819C34.6789 46.2276 35.6571 46.5988 36.6353 46.5988C37.6135 46.5988 38.5928 46.2265 39.3384 45.4819C40.6485 44.1718 40.8036 42.139 39.8079 40.6542C40.2894 40.7634 40.7763 40.8355 41.2676 40.8355C42.9445 40.8355 44.6225 40.1979 45.8987 38.9205C47.1367 37.6825 47.818 36.0373 47.818 34.2883C47.818 33.5033 47.6739 32.7435 47.4108 32.0284H52.2625C53.4667 32.0284 54.4459 31.0491 54.4459 29.8449V24.3087L54.7767 24.6395C55.5224 25.3851 56.5006 25.7563 57.4788 25.7563C58.457 25.7563 59.4363 25.3841 60.1819 24.6395C61.6711 23.1504 61.6711 20.7267 60.1819 19.2365L59.0236 18.0781L62.884 14.2177C63.3054 13.7887 63.3054 13.0976 62.8796 12.6707ZM25.0039 56.7225C24.3652 57.36 23.3248 57.3578 22.6883 56.7225L18.8279 52.8621C18.1903 52.2234 18.1903 51.1852 18.8279 50.5465C19.1467 50.2277 19.567 50.0683 19.9873 50.0683C20.4066 50.0683 20.8269 50.2277 21.1457 50.5465L25.005 54.4058C25.3118 54.7126 25.4821 55.1241 25.4821 55.5652C25.481 56.0041 25.3107 56.4157 25.0039 56.7225ZM31.4146 50.6862L24.8642 50.6829V44.1358H31.4146V50.6862ZM37.7904 43.936C37.1757 44.5506 36.0862 44.5496 35.4737 43.936L31.6144 40.0767C31.3076 39.7699 31.1373 39.3583 31.1373 38.9184C31.1373 38.4784 31.3065 38.0679 31.6144 37.76C31.9223 37.4522 32.3327 37.2829 32.7727 37.2829C33.2127 37.2829 33.6232 37.4522 33.9311 37.76L37.7915 41.6193C38.4279 42.2591 38.4279 43.2973 37.7904 43.936ZM44.3517 37.3746C42.6475 39.0767 39.8789 39.0767 38.1757 37.3746C36.4726 35.6715 36.4726 32.9007 38.1757 31.1987C39.0011 30.3733 40.0983 29.9191 41.2643 29.9191C42.1388 29.9191 42.9739 30.1746 43.6847 30.6495C43.9063 31.203 44.3473 31.6441 44.9009 31.8657C45.3758 32.5764 45.6312 33.4116 45.6312 34.285C45.6312 35.4532 45.1771 36.5504 44.3517 37.3746ZM52.2592 29.8427L46.0625 29.8394C46.0057 29.7783 45.9544 29.7139 45.8943 29.6549C45.8343 29.5949 45.7699 29.5425 45.7077 29.4857V23.2923H52.2581V29.8427H52.2592ZM58.6339 23.0925C58.0192 23.7071 56.9307 23.7071 56.3172 23.0925L52.4579 19.2332C52.1511 18.9264 51.9808 18.5148 51.9808 18.0749C51.9808 17.6349 52.15 17.2244 52.4579 16.9165C52.7658 16.6086 53.1763 16.4394 53.6162 16.4394C54.0562 16.4394 54.4667 16.6086 54.7746 16.9165L58.635 20.7758C59.2714 21.4156 59.2714 22.4538 58.6339 23.0925Z" fill="url(#paint0_linear_362_2591)"/>
<path d="M8.91994 43.4696L12.7006 39.6889L15.0162 42.0056C15.442 42.4314 16.001 42.6443 16.5599 42.6443C17.1189 42.6443 17.6779 42.4314 18.1037 42.0056L20.4203 39.69C20.8319 39.2784 21.0579 38.7304 21.0579 38.1463C21.0579 37.7183 20.9345 37.3122 20.7086 36.9628C22.3494 36.8919 23.8833 36.227 25.0515 35.0578C26.2207 33.8896 26.8856 32.3557 26.9566 30.7148C27.3158 30.9463 27.7274 31.0631 28.1389 31.0631C28.699 31.0631 29.2569 30.8513 29.6838 30.4255L32.0004 28.1088C32.7373 27.3697 32.8323 26.2278 32.2875 25.3827C33.9284 25.3118 35.4623 24.6469 36.6305 23.4777C37.7997 22.3095 38.4646 20.7756 38.5356 19.1347C38.8948 19.3662 39.3064 19.4841 39.7179 19.4841C40.278 19.4841 40.8359 19.2723 41.2627 18.8465L43.5783 16.5298C44.3218 15.7874 44.4157 14.6357 43.8589 13.7874C45.4408 13.7197 47.0042 13.1039 48.2095 11.8987C49.4475 10.6617 50.1288 9.01647 50.1288 7.2675C50.1288 5.88863 49.6997 4.57745 48.9137 3.47589L50.5262 1.86339C50.953 1.43651 50.953 0.746535 50.5262 0.319665C50.0993 -0.107206 49.4093 -0.107206 48.9824 0.319665L47.3601 1.94199C44.8044 0.125335 41.2365 0.344775 38.9472 2.63525C37.7768 3.80559 37.1119 5.34167 37.0421 6.98474C36.2047 6.4607 35.0267 6.55459 34.3149 7.2675L31.9993 9.58308C31.5877 9.99467 31.3618 10.5427 31.3618 11.1268C31.3618 11.5602 31.4873 11.9729 31.7198 12.3255C30.1368 12.3932 28.5735 13.009 27.3671 14.2142C26.1618 15.4195 25.5461 16.984 25.4784 18.5659C24.6312 18.0091 23.4794 18.103 22.7348 18.8465L20.4192 21.1621C19.679 21.9012 19.5841 23.0442 20.1299 23.8892C18.489 23.9602 16.9551 24.6251 15.787 25.7943C14.5806 27.0007 13.9649 28.5663 13.8983 30.1504C13.0598 29.6165 11.8731 29.7082 11.1558 30.4255L8.84133 32.74C8.42866 33.1516 8.20157 33.7007 8.20157 34.2848C8.20157 34.8689 8.42866 35.418 8.84024 35.8285L11.1558 38.1441L6.72991 42.5689C6.72445 42.5744 6.71681 42.5766 6.71135 42.582C6.28448 43.0078 6.28448 43.6989 6.71135 44.1257C7.56181 44.9773 7.56181 46.3627 6.71135 47.2143C5.86197 48.0637 4.47437 48.0658 3.62282 47.2143C2.77126 46.3627 2.77126 44.9773 3.62282 44.1257C4.04969 43.6989 4.04969 43.0089 3.62282 42.582C3.19594 42.1552 2.50596 42.1552 2.07909 42.582C0.375979 44.2851 0.375979 47.056 2.07909 48.758C2.93065 49.6085 4.04859 50.0342 5.16654 50.0342C6.28448 50.0342 7.4046 49.6085 8.25507 48.758C9.68743 47.3267 9.89923 45.1432 8.91994 43.4696ZM40.492 4.17897C41.3424 3.3285 42.4615 2.90163 43.5794 2.90163C44.6974 2.90163 45.8164 3.3285 46.6669 4.17897C47.4922 5.00432 47.9464 6.10152 47.9464 7.2675C47.9464 8.43348 47.4922 9.52958 46.6669 10.3549C44.9648 12.057 42.1929 12.057 40.492 10.3549C39.6666 9.52958 39.2125 8.43348 39.2125 7.2675C39.2125 6.10152 39.6666 5.00432 40.492 4.17897ZM35.8597 8.81122L42.0357 14.9861L39.7179 17.3006L33.5441 11.1268L35.8597 8.81122ZM28.9108 15.7591C29.7624 14.9086 30.8814 14.4828 31.9993 14.4828C33.1173 14.4828 34.2363 14.9086 35.0868 15.7591C35.9121 16.5844 36.3663 17.6816 36.3663 18.8476C36.3663 20.0136 35.9121 21.1097 35.0868 21.935C33.4372 23.5846 30.5637 23.5846 28.913 21.9372L28.9075 21.9318C27.2088 20.2286 27.2099 17.46 28.9108 15.7591ZM24.2796 20.3913L30.4556 26.5673L28.1368 28.8807L21.9641 22.7069L24.2796 20.3913ZM17.3318 27.3391C18.1572 26.5138 19.2544 26.0596 20.4203 26.0596C21.5863 26.0596 22.6824 26.5138 23.5078 27.3391C24.3331 28.1645 24.7873 29.2606 24.7873 30.4266C24.7873 31.5926 24.3331 32.6887 23.5078 33.514C21.8571 35.1647 18.9814 35.1647 17.3318 33.514C15.6287 31.812 15.6287 29.0423 17.3318 27.3391ZM12.7006 31.9703L18.8766 38.1463L16.5578 40.4597L10.3851 34.2859L12.7006 31.9703Z" fill="url(#paint1_linear_362_2591)"/>
</g>
<defs>
<linearGradient id="paint0_linear_362_2591" x1="61.6931" y1="-6.22237" x2="0.993918" y2="12.8535" gradientUnits="userSpaceOnUse">
<stop stop-color="#F7FC97"/>
<stop offset="0.234375" stop-color="#9E5313"/>
<stop offset="0.322917" stop-color="#FCC342"/>
<stop offset="0.48" stop-color="#F7FC97"/>
<stop offset="0.58" stop-color="#E7AA39"/>
<stop offset="0.802083" stop-color="#632507"/>
<stop offset="1" stop-color="#E7AA39"/>
</linearGradient>
<linearGradient id="paint1_linear_362_2591" x1="49.4737" y1="-17.9924" x2="-6.41376" y2="-1.47173" gradientUnits="userSpaceOnUse">
<stop stop-color="#F7FC97"/>
<stop offset="0.234375" stop-color="#9E5313"/>
<stop offset="0.322917" stop-color="#FCC342"/>
<stop offset="0.48" stop-color="#F7FC97"/>
<stop offset="0.58" stop-color="#E7AA39"/>
<stop offset="0.802083" stop-color="#632507"/>
<stop offset="1" stop-color="#E7AA39"/>
</linearGradient>
<clipPath id="clip0_362_2591">
<rect width="64" height="64" fill="white"/>
</clipPath>
</defs>
</svg>
