<svg width="570" height="28" viewBox="0 0 570 28" fill="none" xmlns="http://www.w3.org/2000/svg">
<g clip-path="url(#clip0_345_2310)">
<path d="M549.198 8.82162C548.481 9.8143 547.7 10.7594 546.861 11.6511C546.072 12.4899 545.151 13.1931 544.133 13.7327C544.02 13.82 543.928 13.9324 543.865 14.061C543.801 14.1896 543.769 14.331 543.769 14.4743C543.769 14.6176 543.803 14.7589 543.866 14.8873C543.93 15.0156 544.022 15.1276 544.136 15.2146C545.153 15.7537 546.073 16.4562 546.862 17.294C547.7 18.187 548.48 19.1322 549.199 20.1239C549.912 21.1107 550.678 22.059 551.492 22.9648C552.248 23.834 553.202 24.5095 554.272 24.9347C555.274 25.2915 556.358 25.3497 557.393 25.1021C558.609 25.0419 559.751 24.4476 560.879 23.5109C562.077 22.4396 563.14 21.2275 564.046 19.9008C564.21 19.6817 564.372 19.4544 564.533 19.227C565.284 18.1204 566.059 16.9837 566.801 15.9456C566.909 15.8347 566.994 15.7034 567.05 15.5593C567.192 15.2393 567.266 14.8932 567.267 14.5431L567.269 14.4691L567.264 14.4144C567.267 14.0597 567.194 13.7086 567.05 13.3844C566.994 13.2403 566.909 13.109 566.801 12.9981C566.056 11.9571 565.28 10.8147 564.524 9.70797L564.069 9.06692C563.159 7.7385 562.093 6.52358 560.894 5.448C559.763 4.50831 558.609 3.89733 557.399 3.85338C556.365 3.60353 555.28 3.6615 554.279 4.02016C553.208 4.44511 552.254 5.12037 551.498 5.98943C550.683 6.89347 549.916 7.83878 549.198 8.82162ZM554.032 7.72366C554.77 7.115 555.635 6.68061 556.563 6.45288C556.909 6.37728 557.265 6.35423 557.618 6.38451C559.001 6.82019 560.429 7.86949 561.7 9.32144C563.032 10.893 564.162 12.625 565.064 14.4771C564.582 15.403 564.086 16.3261 563.52 17.1944C562.983 18.0428 562.383 18.8486 561.723 19.6047C560.46 21.0537 559.047 22.1109 557.672 22.56C557.303 22.5989 556.93 22.5776 556.568 22.4969C555.639 22.269 554.774 21.8344 554.036 21.2256C553.249 20.5765 552.516 19.8636 551.845 19.0942C550.456 17.519 549.029 15.7849 547.549 14.4753C549.028 13.1661 550.453 11.435 551.844 9.85734C552.514 9.08724 553.246 8.37361 554.032 7.72366Z" fill="#D2AC67"/>
<path d="M552.908 12.4105C552.433 13.7346 552.429 15.1818 552.897 16.5085C553.11 17.1105 553.416 17.6754 553.804 18.1823C554.435 19.0821 555.324 19.769 556.354 20.1521C556.91 20.3199 557.5 20.3386 558.065 20.2064C558.63 20.0743 559.15 19.7959 559.573 19.3991C560.117 18.9276 560.568 18.3592 560.904 17.7228C561.109 17.3569 561.287 16.9771 561.438 16.5861C561.598 16.1545 561.732 15.7136 561.838 15.2658C561.948 15.0152 561.998 14.7421 561.983 14.4686C561.996 14.2006 561.947 13.9332 561.838 13.6879C561.732 13.2472 561.601 12.8128 561.446 12.3867C561.3 12.0003 561.126 11.6249 560.925 11.2636C560.596 10.6336 560.156 10.0676 559.627 9.59246C559.213 9.19594 558.704 8.91159 558.15 8.76629C557.595 8.621 557.013 8.61957 556.457 8.76214C555.4 9.11942 554.484 9.80327 553.842 10.715C553.443 11.2277 553.128 11.7999 552.908 12.4105ZM556.822 11.2358C557.194 11.1544 557.58 11.1642 557.947 11.2644C558.315 11.3646 558.652 11.5522 558.931 11.8112C559.567 12.3537 560.049 13.2577 560.359 14.4712C559.83 16.6434 558.606 17.8678 557.209 17.7854C556.477 17.6948 555.794 17.3721 555.258 16.8648C554.913 16.5687 554.635 16.201 554.445 15.7871C554.256 15.3732 554.158 14.9231 554.16 14.4678C554.158 14.0505 554.241 13.637 554.404 13.2528C554.566 12.8685 554.806 12.5214 555.107 12.2327C555.578 11.7499 556.174 11.4067 556.827 11.2412L556.822 11.2358Z" fill="#D2AC67"/>
</g>
<line x1="544" y1="14.4999" x2="-4.37113e-08" y2="14.4998" stroke="url(#paint0_linear_345_2310)"/>
<defs>
<linearGradient id="paint0_linear_345_2310" x1="521" y1="13.9999" x2="129" y2="13.9998" gradientUnits="userSpaceOnUse">
<stop stop-color="white"/>
<stop offset="1" stop-color="white" stop-opacity="0"/>
</linearGradient>
<clipPath id="clip0_345_2310">
<rect width="19.085" height="19.085" fill="white" transform="translate(556.473 0.977051) rotate(45)"/>
</clipPath>
</defs>
</svg>
