<svg width="55" height="54" viewBox="0 0 55 54" fill="none" xmlns="http://www.w3.org/2000/svg">
<path d="M33.125 45.6562H21.875C11.6938 45.6562 7.34375 41.3063 7.34375 31.125V19.875C7.34375 9.69375 11.6938 5.34375 21.875 5.34375H33.125C43.3063 5.34375 47.6562 9.69375 47.6562 19.875V31.125C47.6562 41.3063 43.3063 45.6562 33.125 45.6562ZM21.875 8.15625C13.2312 8.15625 10.1562 11.2312 10.1562 19.875V31.125C10.1562 39.7687 13.2312 42.8438 21.875 42.8438H33.125C41.7687 42.8438 44.8438 39.7687 44.8438 31.125V19.875C44.8438 11.2312 41.7687 8.15625 33.125 8.15625H21.875Z" fill="#D2AC67"/>
<path d="M45.2746 17.7375H9.72461C8.95586 17.7375 8.31836 17.1 8.31836 16.3312C8.31836 15.5625 8.93711 14.925 9.72461 14.925H45.2746C46.0434 14.925 46.6809 15.5625 46.6809 16.3312C46.6809 17.1 46.0621 17.7375 45.2746 17.7375Z" fill="#D2AC67"/>
<path d="M20.9746 17.475C20.2059 17.475 19.5684 16.8375 19.5684 16.0687V6.95624C19.5684 6.18749 20.2059 5.54999 20.9746 5.54999C21.7434 5.54999 22.3809 6.18749 22.3809 6.95624V16.0687C22.3809 16.8375 21.7434 17.475 20.9746 17.475Z" fill="#D2AC67"/>
<path d="M34.0254 16.6312C33.2566 16.6312 32.6191 15.9937 32.6191 15.225V6.95624C32.6191 6.18749 33.2566 5.54999 34.0254 5.54999C34.7941 5.54999 35.4316 6.18749 35.4316 6.95624V15.225C35.4316 16.0125 34.8129 16.6312 34.0254 16.6312Z" fill="#D2AC67"/>
<path d="M25.7938 36.975C25.1188 36.975 24.4812 36.8062 23.9 36.4875C22.625 35.7375 21.875 34.2375 21.875 32.3437V27.8437C21.875 25.95 22.625 24.4312 23.9188 23.6812C25.2125 22.9312 26.9 23.0437 28.5312 24L32.4312 26.25C34.0625 27.1875 35.0187 28.5937 35.0187 30.0937C35.0187 31.5937 34.0625 33 32.4125 33.9375L28.5125 36.1875C27.6125 36.7125 26.675 36.975 25.7938 36.975ZM25.8125 26.0062C25.625 26.0062 25.4562 26.0437 25.325 26.1187C24.9313 26.3437 24.6875 26.9812 24.6875 27.8437V32.3437C24.6875 33.1875 24.9313 33.825 25.325 34.0687C25.7188 34.2937 26.3938 34.1812 27.125 33.75L31.025 31.5C31.7562 31.0687 32.2063 30.5437 32.2063 30.0937C32.2063 29.6437 31.775 29.1187 31.025 28.6875L27.125 26.4375C26.6375 26.1562 26.1688 26.0062 25.8125 26.0062Z" fill="#D2AC67"/>
</svg>
