<svg width="58" height="45" viewBox="0 0 58 45" fill="none" xmlns="http://www.w3.org/2000/svg">
<path d="M15.1767 41.8363C10.0292 41.8363 5.82422 38.6365 5.82422 34.7194C5.82422 30.8024 10.0292 27.6025 15.1767 27.6025C20.3242 27.6025 24.5292 30.8024 24.5292 34.7194C24.5292 38.6365 20.3242 41.8363 15.1767 41.8363ZM15.1767 30.361C12.0109 30.361 9.44922 32.3103 9.44922 34.7194C9.44922 37.1285 12.0109 39.0778 15.1767 39.0778C18.3426 39.0778 20.9042 37.1285 20.9042 34.7194C20.9042 32.3103 18.3426 30.361 15.1767 30.361Z" fill="url(#paint0_linear_403_3152)"/>
<path d="M22.7178 36.0987C21.7269 36.0987 20.9053 35.4734 20.9053 34.7195V11.585C20.9053 8.67939 23.2011 6.39904 26.8744 5.64506L41.9544 2.51878C45.0236 1.87513 47.6094 2.1142 49.4219 3.18081C51.2586 4.24743 52.1769 6.03124 52.1769 8.4771V30.9128C52.1769 31.6667 51.3553 32.292 50.3644 32.292C49.3736 32.292 48.5519 31.6667 48.5519 30.9128V8.45871C48.5519 7.39209 48.3103 5.99446 47.2228 5.36921C46.0386 4.67039 44.0086 4.94624 42.8969 5.18531L27.8169 8.31159C25.7144 8.75295 24.5303 9.94829 24.5303 11.6034V34.7378C24.5303 35.4734 23.7086 36.0987 22.7178 36.0987Z" fill="url(#paint1_linear_403_3152)"/>
<path d="M42.8222 38.0111C37.6747 38.0111 33.4697 34.8113 33.4697 30.8942C33.4697 26.9772 37.6747 23.7773 42.8222 23.7773C47.9697 23.7773 52.1747 26.9772 52.1747 30.8942C52.1747 34.8113 47.9697 38.0111 42.8222 38.0111ZM42.8222 26.5358C39.6564 26.5358 37.0947 28.4852 37.0947 30.8942C37.0947 33.3033 39.6564 35.2526 42.8222 35.2526C45.9881 35.2526 48.5497 33.3033 48.5497 30.8942C48.5497 28.4852 45.9881 26.5358 42.8222 26.5358Z" fill="url(#paint2_linear_403_3152)"/>
<path d="M22.7165 18.8874C21.919 18.8874 21.194 18.4828 20.9765 17.8759C20.7107 17.1403 21.2665 16.368 22.2332 16.1657L49.8798 10.428C50.8465 10.2258 51.8373 10.6671 52.1032 11.4027C52.369 12.1383 51.789 12.8923 50.8223 13.0946L23.1998 18.8322C23.0307 18.869 22.8615 18.8874 22.7165 18.8874Z" fill="url(#paint3_linear_403_3152)"/>
<defs>
<linearGradient id="paint0_linear_403_3152" x1="20.0649" y1="24.2248" x2="9.72339" y2="24.5519" gradientUnits="userSpaceOnUse">
<stop offset="0.01" stop-color="#7A5013"/>
<stop offset="0.29" stop-color="#92711B"/>
<stop offset="0.41" stop-color="#F9EDBF"/>
<stop offset="0.45" stop-color="#F9EBB9"/>
<stop offset="0.5" stop-color="#F8E7A9"/>
<stop offset="0.55" stop-color="#F6E08E"/>
<stop offset="0.57" stop-color="#F5DD83"/>
<stop offset="0.7" stop-color="#C7A85B"/>
<stop offset="0.84" stop-color="#997332"/>
<stop offset="0.94" stop-color="#7C5219"/>
<stop offset="1" stop-color="#714610"/>
</linearGradient>
<linearGradient id="paint1_linear_403_3152" x1="44.7133" y1="-5.88883" x2="27.4153" y2="-5.50516" gradientUnits="userSpaceOnUse">
<stop offset="0.01" stop-color="#7A5013"/>
<stop offset="0.29" stop-color="#92711B"/>
<stop offset="0.41" stop-color="#F9EDBF"/>
<stop offset="0.45" stop-color="#F9EBB9"/>
<stop offset="0.5" stop-color="#F8E7A9"/>
<stop offset="0.55" stop-color="#F6E08E"/>
<stop offset="0.57" stop-color="#F5DD83"/>
<stop offset="0.7" stop-color="#C7A85B"/>
<stop offset="0.84" stop-color="#997332"/>
<stop offset="0.94" stop-color="#7C5219"/>
<stop offset="1" stop-color="#714610"/>
</linearGradient>
<linearGradient id="paint2_linear_403_3152" x1="47.7104" y1="20.3996" x2="37.3689" y2="20.7267" gradientUnits="userSpaceOnUse">
<stop offset="0.01" stop-color="#7A5013"/>
<stop offset="0.29" stop-color="#92711B"/>
<stop offset="0.41" stop-color="#F9EDBF"/>
<stop offset="0.45" stop-color="#F9EBB9"/>
<stop offset="0.5" stop-color="#F8E7A9"/>
<stop offset="0.55" stop-color="#F6E08E"/>
<stop offset="0.57" stop-color="#F5DD83"/>
<stop offset="0.7" stop-color="#C7A85B"/>
<stop offset="0.84" stop-color="#997332"/>
<stop offset="0.94" stop-color="#7C5219"/>
<stop offset="1" stop-color="#714610"/>
</linearGradient>
<linearGradient id="paint3_linear_403_3152" x1="44.7074" y1="8.35979" x2="27.5429" y2="9.87753" gradientUnits="userSpaceOnUse">
<stop offset="0.01" stop-color="#7A5013"/>
<stop offset="0.29" stop-color="#92711B"/>
<stop offset="0.41" stop-color="#F9EDBF"/>
<stop offset="0.45" stop-color="#F9EBB9"/>
<stop offset="0.5" stop-color="#F8E7A9"/>
<stop offset="0.55" stop-color="#F6E08E"/>
<stop offset="0.57" stop-color="#F5DD83"/>
<stop offset="0.7" stop-color="#C7A85B"/>
<stop offset="0.84" stop-color="#997332"/>
<stop offset="0.94" stop-color="#7C5219"/>
<stop offset="1" stop-color="#714610"/>
</linearGradient>
</defs>
</svg>
