<svg width="55" height="54" viewBox="0 0 55 54" fill="none" xmlns="http://www.w3.org/2000/svg">
<path d="M14.438 51.1875C9.64547 51.1875 5.73047 47.2725 5.73047 42.48C5.73047 37.6875 9.64547 33.7725 14.438 33.7725C19.2305 33.7725 23.1455 37.6875 23.1455 42.48C23.1455 47.2725 19.2305 51.1875 14.438 51.1875ZM14.438 37.1475C11.4905 37.1475 9.10547 39.5325 9.10547 42.48C9.10547 45.4275 11.4905 47.8125 14.438 47.8125C17.3855 47.8125 19.7705 45.4275 19.7705 42.48C19.7705 39.5325 17.3855 37.1475 14.438 37.1475Z" fill="#D2AC67"/>
<path d="M21.458 44.1675C20.5355 44.1675 19.7705 43.4025 19.7705 42.48V14.175C19.7705 10.62 21.908 7.82999 25.328 6.90749L39.368 3.08249C42.2255 2.29499 44.633 2.58749 46.3205 3.89249C48.0305 5.19749 48.8855 7.37999 48.8855 10.3725V37.8225C48.8855 38.745 48.1205 39.51 47.198 39.51C46.2755 39.51 45.5105 38.745 45.5105 37.8225V10.35C45.5105 9.04499 45.2855 7.33499 44.273 6.56999C43.1705 5.71499 41.2805 6.05249 40.2455 6.34499L26.2055 10.17C24.248 10.71 23.1455 12.1725 23.1455 14.1975V42.5025C23.1455 43.4025 22.3805 44.1675 21.458 44.1675Z" fill="#D2AC67"/>
<path d="M40.1772 46.5075C35.3847 46.5075 31.4697 42.5925 31.4697 37.8C31.4697 33.0075 35.3847 29.0925 40.1772 29.0925C44.9697 29.0925 48.8847 33.0075 48.8847 37.8C48.8847 42.5925 44.9697 46.5075 40.1772 46.5075ZM40.1772 32.4675C37.2297 32.4675 34.8447 34.8525 34.8447 37.8C34.8447 40.7475 37.2297 43.1325 40.1772 43.1325C43.1247 43.1325 45.5097 40.7475 45.5097 37.8C45.5097 34.8525 43.1247 32.4675 40.1772 32.4675Z" fill="#D2AC67"/>
<path d="M21.4572 23.1075C20.7147 23.1075 20.0397 22.6125 19.8372 21.87C19.5897 20.97 20.1072 20.025 21.0072 19.7775L46.7472 12.7575C47.6472 12.51 48.5697 13.05 48.8172 13.95C49.0647 14.85 48.5247 15.7725 47.6247 16.02L21.9072 23.04C21.7497 23.085 21.5922 23.1075 21.4572 23.1075Z" fill="#D2AC67"/>
</svg>
