<svg width="111" height="110" viewBox="0 0 111 110" fill="none" xmlns="http://www.w3.org/2000/svg">
<path d="M55.3613 5.72884C27.9813 5.72884 5.64258 27.8205 5.64258 54.9997C5.64258 82.1788 27.9813 104.271 55.3613 104.271C82.7413 104.271 105.08 82.1788 105.08 54.9997C105.08 27.8205 82.7876 5.72884 55.3613 5.72884ZM55.3613 97.3955C31.7738 97.3955 12.5801 78.3747 12.5801 54.9997C12.5801 31.6247 31.7738 12.6038 55.3613 12.6038C78.9488 12.6038 98.1426 31.6247 98.1426 54.9997C98.1426 78.3747 78.9488 97.3955 55.3613 97.3955Z" fill="white"/>
<path d="M48.8404 32.1293C46.8054 32.1293 44.8629 32.6335 43.1516 33.596C39.1741 35.8877 36.9541 40.3793 36.9541 46.246V61.6002C36.9541 67.4668 39.1279 71.9585 43.1054 74.2502C47.0829 76.5418 52.1241 76.1752 57.2579 73.2418L70.6704 65.5877C75.8041 62.6543 78.6254 58.5293 78.6254 53.946C78.6254 49.4085 75.8041 45.2377 70.6704 42.3043L57.2579 34.6502C54.3904 32.9543 51.4766 32.1293 48.8404 32.1293ZM48.8404 68.8877C48.0079 68.8877 47.2216 68.7043 46.6204 68.3377C44.8629 67.3293 43.8916 64.9002 43.8916 61.6002V46.246C43.8916 42.9918 44.8629 40.5168 46.6204 39.5543C48.3316 38.546 50.9679 38.9585 53.8354 40.5627L67.2479 48.2168C70.1154 49.8668 71.7341 51.9293 71.7341 53.9002C71.7341 55.871 70.0691 57.9335 67.2479 59.5835L53.8354 67.2377C51.9854 68.3377 50.2741 68.8877 48.8404 68.8877Z" fill="white"/>
</svg>
