<svg width="64" height="65" viewBox="0 0 64 65" fill="none" xmlns="http://www.w3.org/2000/svg">
<g style="mix-blend-mode:multiply" opacity="0.44">
<circle cx="32.0085" cy="32.5281" r="31.7156" fill="black"/>
</g>
<path d="M25.1862 47.8587C23.8813 47.8587 22.6424 47.5448 21.5522 46.9171C18.9753 45.4304 17.5547 42.4075 17.5547 38.4266V26.6489C17.5547 22.6514 18.9753 19.645 21.5522 18.1584C24.1291 16.6717 27.4493 16.9525 30.9182 18.9513L41.1101 24.8318C44.5625 26.8306 46.4786 29.5727 46.4786 32.546C46.4786 35.5193 44.579 38.2614 41.1101 40.2601L30.9182 46.1407C28.9194 47.2805 26.9702 47.8587 25.1862 47.8587ZM25.1862 19.6781C24.2942 19.6781 23.5014 19.8763 22.7911 20.2893C21.0071 21.3134 20.0325 23.5764 20.0325 26.6489V38.4101C20.0325 41.4825 21.0071 43.729 22.7911 44.7697C24.5751 45.8104 27.0198 45.513 29.6793 43.9768L39.8712 38.0962C42.5307 36.56 44.0008 34.5943 44.0008 32.5295C44.0008 30.4647 42.5307 28.499 39.8712 26.9627L29.6793 21.0821C28.0605 20.1571 26.5408 19.6781 25.1862 19.6781Z" fill="white"/>
</svg>
