<svg width="32" height="32" viewBox="0 0 32 32" fill="none" xmlns="http://www.w3.org/2000/svg">
<path d="M25.2936 30.3333H6.62695C1.62695 30.3333 1.62695 27.56 1.62695 25.3333V24C1.62695 22.72 2.68029 21.6666 3.96029 21.6666H27.9603C29.2403 21.6666 30.2936 22.72 30.2936 24V25.3333C30.2936 27.56 30.2936 30.3333 25.2936 30.3333ZM3.96029 23.6666C3.77362 23.6666 3.62695 23.8133 3.62695 24V25.3333C3.62695 27.52 3.62695 28.3333 6.62695 28.3333H25.2936C28.2936 28.3333 28.2936 27.52 28.2936 25.3333V24C28.2936 23.8133 28.147 23.6666 27.9603 23.6666H3.96029Z" fill="white"/>
<path d="M27.627 23.6666H4.36035C3.81368 23.6666 3.36035 23.2133 3.36035 22.6666V17.3333C3.36035 11.8666 7.24035 7.06663 12.5737 5.93329C13.3604 5.75996 14.187 5.66663 15.027 5.66663H16.9604C17.8137 5.66663 18.6403 5.75996 19.427 5.93329C24.7603 7.07996 28.627 11.88 28.627 17.3333V22.6666C28.627 23.2133 28.187 23.6666 27.627 23.6666ZM5.36035 21.6666H26.627V17.3333C26.627 12.8133 23.427 8.83996 19.0003 7.87996C18.347 7.73329 17.667 7.66663 16.9604 7.66663H15.027C14.3337 7.66663 13.6537 7.73329 13.0004 7.87996C8.57368 8.82663 5.36035 12.8 5.36035 17.3333V21.6666Z" fill="white"/>
<path d="M12.787 7.90663C12.347 7.90663 11.947 7.61329 11.827 7.17329C11.7203 6.78663 11.667 6.39996 11.667 5.99996C11.667 3.61329 13.6137 1.66663 16.0003 1.66663C18.387 1.66663 20.3337 3.61329 20.3337 5.99996C20.3337 6.39996 20.2803 6.78663 20.1737 7.17329C20.0403 7.67996 19.5337 7.99996 19.0003 7.87996C18.347 7.73329 17.667 7.66663 16.9603 7.66663H15.027C14.3337 7.66663 13.6537 7.73329 13.0003 7.87996C12.9337 7.89329 12.867 7.90663 12.787 7.90663ZM15.027 5.66663H16.9603C17.4137 5.66663 17.8803 5.69329 18.3203 5.74663C18.2003 4.57329 17.2003 3.66663 16.0003 3.66663C14.8003 3.66663 13.8137 4.57329 13.6803 5.74663C14.1337 5.69329 14.5737 5.66663 15.027 5.66663Z" fill="white"/>
<path d="M20 15.6666H12C11.4533 15.6666 11 15.2133 11 14.6666C11 14.12 11.4533 13.6666 12 13.6666H20C20.5467 13.6666 21 14.12 21 14.6666C21 15.2133 20.5467 15.6666 20 15.6666Z" fill="white"/>
</svg>
