<svg width="55" height="54" viewBox="0 0 55 54" fill="none" xmlns="http://www.w3.org/2000/svg">
<g clip-path="url(#clip0_345_2053)">
<path d="M50.7725 4.89685H3.84669C1.89326 4.89685 0.30957 6.48054 0.30957 8.43397V38.1458C0.30957 40.0992 1.89326 41.6829 3.84669 41.6829H19.4218L24.6027 47.8425C25.2748 48.6416 26.2655 49.1029 27.3097 49.1029C28.3538 49.1029 29.3446 48.6417 30.0166 47.8427L35.1976 41.683H50.7725C52.726 41.683 54.3096 40.0993 54.3096 38.1459V8.43409C54.3096 6.48054 52.726 4.89685 50.7725 4.89685ZM50.7725 38.1458H33.5506L27.3096 45.5657L21.0687 38.1458H3.84669V8.43397H50.7725V38.1458Z" fill="#D2AC67"/>
<path d="M10.3789 18.5108H26.5317C27.5085 18.5108 28.3003 17.7189 28.3003 16.7422C28.3003 15.7655 27.5085 14.9736 26.5317 14.9736H10.3789C9.40219 14.9736 8.61035 15.7655 8.61035 16.7422C8.61035 17.7189 9.40219 18.5108 10.3789 18.5108Z" fill="#D2AC67"/>
<path d="M8.68066 27.5894C8.68066 28.5661 9.47251 29.3579 10.4492 29.3579H44.1698C45.1465 29.3579 45.9383 28.5661 45.9383 27.5894C45.9383 26.6126 45.1465 25.8208 44.1698 25.8208H10.4492C9.47251 25.8208 8.68066 26.6126 8.68066 27.5894Z" fill="#D2AC67"/>
</g>
<defs>
<clipPath id="clip0_345_2053">
<rect width="54" height="54" fill="white" transform="translate(0.30957)"/>
</clipPath>
</defs>
</svg>
