<svg width="64" height="64" viewBox="0 0 64 64" fill="none" xmlns="http://www.w3.org/2000/svg">
<g clip-path="url(#clip0_361_2622)">
<path d="M31.933 14.3658C31.933 13.3809 32.2893 12.9357 32.7823 12.3193C33.3563 11.6017 34.0707 10.7084 34.0707 9.02078C34.0707 7.33229 33.3565 6.43879 32.7825 5.72067C32.2893 5.10367 31.933 4.65792 31.933 3.67204C31.933 3.11867 31.4843 2.66992 30.9308 2.66992C30.3773 2.66992 29.9287 3.11855 29.9287 3.67204C29.9287 5.36054 30.643 6.25404 31.217 6.97216C31.7101 7.58916 32.0665 8.03491 32.0665 9.02078C32.0665 10.0055 31.7101 10.4509 31.2171 11.0673C30.6431 11.7849 29.9287 12.6779 29.9287 14.3658C29.9287 16.0526 30.6432 16.945 31.2175 17.6623C31.7103 18.2779 32.0666 18.7229 32.0666 19.7061C32.0666 20.2595 32.5152 20.7083 33.0687 20.7083C33.6222 20.7083 34.0708 20.2596 34.0708 19.7061C34.0708 18.0193 33.3563 17.1268 32.782 16.4096C32.289 15.7939 31.933 15.3491 31.933 14.3658Z" fill="url(#paint0_linear_361_2622)"/>
<path d="M37.6073 5.39702C37.3839 4.89077 36.7923 4.6614 36.2859 4.8849C35.7796 5.10827 35.5504 5.69989 35.7738 6.20627C36.1511 7.06114 36.3423 8.00802 36.3423 9.02089C36.3423 11.4946 35.2339 12.8908 34.5648 13.7275C34.4218 13.9006 34.3359 14.1228 34.3359 14.365C34.3359 14.9183 34.7846 15.367 35.3381 15.367C35.6562 15.367 35.9398 15.2185 36.1236 14.9873C36.8468 14.0833 38.3464 12.205 38.3464 9.02101C38.3464 7.72764 38.0978 6.50839 37.6073 5.39702Z" fill="url(#paint1_linear_361_2622)"/>
<path d="M29.4939 8.46043C29.1869 8.00006 28.5647 7.87556 28.1043 8.18256C27.9857 8.26168 27.8894 8.36156 27.8171 8.47431C27.0744 9.40493 25.6533 11.2671 25.6533 14.3659C25.6533 15.6492 25.8983 16.8595 26.3817 17.9633C26.5464 18.3394 26.9143 18.5638 27.3002 18.5638C27.4343 18.5638 27.5707 18.5367 27.7016 18.4793C28.2084 18.2574 28.4396 17.6664 28.2176 17.1594C27.8459 16.3105 27.6576 15.3708 27.6576 14.3659C27.6576 11.8821 28.7756 10.4844 29.4438 9.64893C29.4618 9.62631 29.4789 9.60293 29.4949 9.57893C29.7194 9.24231 29.7184 8.79693 29.4939 8.46043Z" fill="url(#paint2_linear_361_2622)"/>
<path d="M62.9978 34.7412H56.3961C55.9454 32.9029 54.2843 31.5346 52.3088 31.5346C52.2469 31.5346 52.1848 31.5362 52.1225 31.5392C51.7565 30.0392 50.5845 28.8517 49.0933 28.4634L60.5559 14.9184C60.9134 14.4959 60.8608 13.8636 60.4383 13.5062C60.0158 13.1487 59.3834 13.2014 59.026 13.6238L46.4303 28.5079C45.7343 27.1309 44.3102 26.1901 42.6889 26.1901C42.6187 26.1901 42.5487 26.1921 42.4788 26.1958L51.0988 5.12492C51.3083 4.61267 51.063 4.02754 50.5507 3.81804C50.0384 3.60842 49.4533 3.85404 49.2438 4.36617L40.5664 25.5774C39.7929 24.6453 38.6309 24.0524 37.3446 24.0524C36.6127 24.0524 35.9129 24.2385 35.2936 24.5893C34.5092 23.5965 33.3003 22.9835 32.0001 22.9835C30.6998 22.9835 29.4909 23.5965 28.7066 24.5893C28.0873 24.2385 27.3874 24.0524 26.6556 24.0524C24.988 24.0524 23.5266 25.0464 22.8541 26.488C22.3661 26.2926 21.8436 26.1901 21.3111 26.1901C19.6435 26.1901 18.1821 27.1841 17.5096 28.6257C17.0216 28.4304 16.4991 28.3279 15.9666 28.3279C13.9893 28.3279 12.3262 29.6982 11.8772 31.5392C11.815 31.5361 11.7529 31.5346 11.691 31.5346C9.71548 31.5346 8.05461 32.903 7.60361 34.7412H1.00212C0.448749 34.7412 0 35.1899 0 35.7434C0 36.2969 0.448624 36.7455 1.00212 36.7455H1.2855C2.89812 43.0867 5.82324 48.6868 9.98873 53.4005C13.4873 57.3593 16.9537 59.6394 18.7087 60.6462C19.4886 61.0936 20.3871 61.3301 21.3072 61.3301H42.6929C43.6129 61.3301 44.5115 61.0936 45.2914 60.6462C47.0463 59.6394 50.5128 57.3593 54.0114 53.4005C58.177 48.687 61.1021 43.0868 62.7146 36.7455H62.998C63.5514 36.7455 64.0001 36.2969 64.0001 35.7434C64.0001 35.1899 63.5513 34.7412 62.9978 34.7412ZM47.4408 30.4164C47.6327 30.3609 47.8319 30.3321 48.0334 30.3321C49.2397 30.3321 50.2228 31.3059 50.2379 32.5086L50.2368 32.5164C50.2294 32.569 50.223 32.6217 50.2197 32.6755C50.1982 33.0129 50.3482 33.3385 50.6188 33.5412C50.8893 33.7441 51.2438 33.7966 51.5618 33.6812C51.8259 33.5854 52.0703 33.5386 52.309 33.5386C53.1636 33.5386 53.9046 34.0285 54.2703 34.7411H43.7808L47.4408 30.4164ZM11.691 33.5387C11.9297 33.5387 12.1741 33.5854 12.4382 33.6814C12.7564 33.797 13.1109 33.7441 13.3812 33.5414C13.6517 33.3385 13.8018 33.013 13.7803 32.6756C13.7768 32.6217 13.7705 32.5691 13.7632 32.5165L13.7621 32.5087C13.7771 31.306 14.7602 30.3322 15.9666 30.3322C16.5098 30.3322 17.0365 30.5406 17.4491 30.9192C17.7327 31.1794 18.1405 31.254 18.4982 31.1112C18.8557 30.9684 19.0997 30.6334 19.1262 30.2491C19.2052 29.097 20.165 28.1945 21.3112 28.1945C21.8545 28.1945 22.3811 28.4029 22.7937 28.7815C23.0775 29.0416 23.4852 29.1164 23.8428 28.9735C24.2003 28.8306 24.4443 28.4956 24.4708 28.1114C24.5498 26.9593 25.5096 26.0568 26.6558 26.0568C27.2683 26.0568 27.8402 26.3098 28.2661 26.7693C28.5029 27.0249 28.8558 27.1393 29.1973 27.0706C29.5391 27.0024 29.8207 26.7616 29.9413 26.4345C30.2602 25.5691 31.0878 24.9878 32.0004 24.9878C32.9131 24.9878 33.7404 25.5693 34.0596 26.4345C34.1801 26.7615 34.4617 27.0024 34.8036 27.0706C35.1454 27.1393 35.4979 27.0248 35.7348 26.7693C36.1608 26.3098 36.7326 26.0568 37.3451 26.0568C38.4912 26.0568 39.4509 26.9593 39.53 28.1114C39.5564 28.4955 39.8004 28.8305 40.1581 28.9735C40.5155 29.1164 40.9233 29.0416 41.2072 28.7815C41.6199 28.403 42.1464 28.1945 42.6897 28.1945C43.8358 28.1945 44.7955 29.097 44.8747 30.2491C44.8767 30.2777 44.8822 30.3054 44.8865 30.3334L41.1562 34.7412H9.72973C10.0954 34.0284 10.8365 33.5387 11.691 33.5387ZM44.2939 58.9076C43.817 59.1811 43.2634 59.3257 42.6927 59.3257H21.3072C20.7366 59.3257 20.1828 59.1811 19.706 58.9076C16.7658 57.2208 7.10399 50.7342 3.35712 36.7454H60.6428C56.896 50.7342 47.234 57.2208 44.2939 58.9076Z" fill="url(#paint3_linear_361_2622)"/>
<path d="M28.4328 30.7589L27.364 29.69C26.9726 29.2986 26.3381 29.2986 25.9469 29.69C25.5555 30.0814 25.5555 30.7159 25.9469 31.1071L27.0157 32.176C27.2113 32.3716 27.4678 32.4695 27.7242 32.4695C27.9806 32.4695 28.2371 32.3718 28.4327 32.176C28.8242 31.7846 28.8242 31.15 28.4328 30.7589Z" fill="url(#paint4_linear_361_2622)"/>
<path d="M34.8459 28.6211C34.4547 28.2298 33.8201 28.2298 33.4288 28.6211L32.3599 29.6899C31.9686 30.0813 31.9686 30.7158 32.3599 31.1071C32.5556 31.3027 32.8121 31.4006 33.0684 31.4006C33.3248 31.4006 33.5814 31.3028 33.7769 31.1071L34.8458 30.0382C35.2372 29.6468 35.2372 29.0123 34.8459 28.6211Z" fill="url(#paint5_linear_361_2622)"/>
<path d="M38.4138 31.5347H37.3449C36.7915 31.5347 36.3428 31.9833 36.3428 32.5368C36.3428 33.0902 36.7914 33.5389 37.3449 33.5389H38.4138C38.9671 33.5389 39.4159 33.0903 39.4159 32.5368C39.4159 31.9833 38.9671 31.5347 38.4138 31.5347Z" fill="url(#paint6_linear_361_2622)"/>
<path d="M23.0881 30.7593C22.6969 30.368 22.0622 30.368 21.671 30.7593L20.6021 31.8281C20.2108 32.2195 20.2108 32.854 20.6021 33.2453C20.7977 33.4409 21.0542 33.5388 21.3106 33.5388C21.567 33.5388 21.8235 33.441 22.0191 33.2453L23.088 32.1764C23.4795 31.785 23.4795 31.1504 23.0881 30.7593Z" fill="url(#paint7_linear_361_2622)"/>
</g>
<defs>
<linearGradient id="paint0_linear_361_2622" x1="33.9572" y1="-3.81647" x2="28.9503" y2="-3.47667" gradientUnits="userSpaceOnUse">
<stop stop-color="#F7FC97"/>
<stop offset="0.234375" stop-color="#9E5313"/>
<stop offset="0.322917" stop-color="#FCC342"/>
<stop offset="0.48" stop-color="#F7FC97"/>
<stop offset="0.58" stop-color="#E7AA39"/>
<stop offset="0.802083" stop-color="#632507"/>
<stop offset="1" stop-color="#E7AA39"/>
</linearGradient>
<linearGradient id="paint1_linear_361_2622" x1="38.2364" y1="0.999293" x2="33.4268" y2="1.53875" gradientUnits="userSpaceOnUse">
<stop stop-color="#F7FC97"/>
<stop offset="0.234375" stop-color="#9E5313"/>
<stop offset="0.322917" stop-color="#FCC342"/>
<stop offset="0.48" stop-color="#F7FC97"/>
<stop offset="0.58" stop-color="#E7AA39"/>
<stop offset="0.802083" stop-color="#632507"/>
<stop offset="1" stop-color="#E7AA39"/>
</linearGradient>
<linearGradient id="paint2_linear_361_2622" x1="29.5528" y1="4.22063" x2="24.7446" y2="4.76072" gradientUnits="userSpaceOnUse">
<stop stop-color="#F7FC97"/>
<stop offset="0.234375" stop-color="#9E5313"/>
<stop offset="0.322917" stop-color="#FCC342"/>
<stop offset="0.48" stop-color="#F7FC97"/>
<stop offset="0.58" stop-color="#E7AA39"/>
<stop offset="0.802083" stop-color="#632507"/>
<stop offset="1" stop-color="#E7AA39"/>
</linearGradient>
<linearGradient id="paint3_linear_361_2622" x1="62.2447" y1="-16.9645" x2="-7.90487" y2="6.07708" gradientUnits="userSpaceOnUse">
<stop stop-color="#F7FC97"/>
<stop offset="0.234375" stop-color="#9E5313"/>
<stop offset="0.322917" stop-color="#FCC342"/>
<stop offset="0.48" stop-color="#F7FC97"/>
<stop offset="0.58" stop-color="#E7AA39"/>
<stop offset="0.802083" stop-color="#632507"/>
<stop offset="1" stop-color="#E7AA39"/>
</linearGradient>
<linearGradient id="paint4_linear_361_2622" x1="28.6421" y1="28.2915" x2="25.2101" y2="29.3058" gradientUnits="userSpaceOnUse">
<stop stop-color="#F7FC97"/>
<stop offset="0.234375" stop-color="#9E5313"/>
<stop offset="0.322917" stop-color="#FCC342"/>
<stop offset="0.48" stop-color="#F7FC97"/>
<stop offset="0.58" stop-color="#E7AA39"/>
<stop offset="0.802083" stop-color="#632507"/>
<stop offset="1" stop-color="#E7AA39"/>
</linearGradient>
<linearGradient id="paint5_linear_361_2622" x1="35.0551" y1="27.2226" x2="31.6232" y2="28.2369" gradientUnits="userSpaceOnUse">
<stop stop-color="#F7FC97"/>
<stop offset="0.234375" stop-color="#9E5313"/>
<stop offset="0.322917" stop-color="#FCC342"/>
<stop offset="0.48" stop-color="#F7FC97"/>
<stop offset="0.58" stop-color="#E7AA39"/>
<stop offset="0.802083" stop-color="#632507"/>
<stop offset="1" stop-color="#E7AA39"/>
</linearGradient>
<linearGradient id="paint6_linear_361_2622" x1="39.3316" y1="30.814" x2="36.2356" y2="32.217" gradientUnits="userSpaceOnUse">
<stop stop-color="#F7FC97"/>
<stop offset="0.234375" stop-color="#9E5313"/>
<stop offset="0.322917" stop-color="#FCC342"/>
<stop offset="0.48" stop-color="#F7FC97"/>
<stop offset="0.58" stop-color="#E7AA39"/>
<stop offset="0.802083" stop-color="#632507"/>
<stop offset="1" stop-color="#E7AA39"/>
</linearGradient>
<linearGradient id="paint7_linear_361_2622" x1="23.2973" y1="29.3608" x2="19.8654" y2="30.3752" gradientUnits="userSpaceOnUse">
<stop stop-color="#F7FC97"/>
<stop offset="0.234375" stop-color="#9E5313"/>
<stop offset="0.322917" stop-color="#FCC342"/>
<stop offset="0.48" stop-color="#F7FC97"/>
<stop offset="0.58" stop-color="#E7AA39"/>
<stop offset="0.802083" stop-color="#632507"/>
<stop offset="1" stop-color="#E7AA39"/>
</linearGradient>
<clipPath id="clip0_361_2622">
<rect width="64" height="64" fill="white"/>
</clipPath>
</defs>
</svg>
