<svg width="569" height="27" viewBox="0 0 569 27" fill="none" xmlns="http://www.w3.org/2000/svg">
<line x1="25" y1="12.5" x2="569" y2="12.5" stroke="url(#paint0_linear_345_2285)"/>
<g clip-path="url(#clip0_345_2285)">
<path d="M21.0628 18.691C21.7208 17.6584 22.445 16.6696 23.231 15.7307C23.97 14.8476 24.8493 14.092 25.8337 13.4943C25.942 13.4005 26.0272 13.283 26.0828 13.1509C26.1384 13.0189 26.1628 12.8758 26.1542 12.7328C26.1456 12.5897 26.1042 12.4506 26.0332 12.3261C25.9622 12.2017 25.8635 12.0952 25.7447 12.015C24.6988 11.5358 23.7387 10.888 22.9028 10.0973C22.0144 9.25453 21.1803 8.35622 20.4056 7.40784C19.6358 6.46416 18.8167 5.5619 17.9515 4.70487C17.146 3.88104 16.1549 3.26206 15.0612 2.89977C14.0403 2.60167 12.9548 2.60654 11.9367 2.91376C10.726 3.04441 9.6202 3.70403 8.54799 4.70468C7.41506 5.84364 6.42408 7.11546 5.59664 8.49247C5.4453 8.72076 5.29718 8.9571 5.14906 9.19344C4.46411 10.3417 3.7563 11.5215 3.07557 12.601C2.97422 12.7179 2.89725 12.8539 2.84918 13.001C2.72602 13.3288 2.67257 13.6786 2.69223 14.0281L2.6938 14.1021L2.70245 14.1565C2.72017 14.5107 2.81332 14.857 2.97566 15.1724C3.04049 15.3129 3.13273 15.4391 3.24698 15.5435C4.05134 16.5395 4.89169 17.6349 5.71082 18.6959L6.20205 19.3095C7.18816 20.5828 8.32284 21.7338 9.58198 22.738C10.766 23.6104 11.9529 24.1534 13.1641 24.127C14.211 24.3164 15.2903 24.1955 16.2692 23.7794C17.3135 23.293 18.226 22.5635 18.9304 21.652C19.6915 20.7022 20.4032 19.7139 21.0628 18.691ZM16.3 20.0678C15.5993 20.7182 14.7609 21.2021 13.8471 21.4834C13.5059 21.5789 13.1523 21.6226 12.7982 21.6128C11.3918 21.2582 9.90606 20.2935 8.55274 18.9178C7.13163 17.4263 5.90275 15.7628 4.89475 13.9661C5.32221 13.0139 5.76351 12.0636 6.27909 11.1638C6.76508 10.2857 7.31797 9.44637 7.93286 8.65319C9.10929 7.13338 10.4589 5.9959 11.8056 5.46773C12.1717 5.40747 12.5451 5.4071 12.9113 5.46664C13.8516 5.64027 14.7406 6.02387 15.5121 6.58885C16.3362 7.19115 17.1094 7.86025 17.8238 8.58941C19.3019 10.0814 20.8275 11.7297 22.3803 12.9511C20.9798 14.344 19.6584 16.1549 18.3609 17.8107C17.7371 18.6184 17.0478 19.3733 16.3 20.0678Z" fill="#D2AC67"/>
<path d="M17.1518 15.3236C17.5487 13.9742 17.4684 12.5292 16.9244 11.2319C16.6772 10.6432 16.3389 10.0971 15.9219 9.61358C15.2397 8.75195 14.3119 8.11781 13.2614 7.79515C12.6971 7.65992 12.1072 7.67545 11.5509 7.84019C10.9946 8.00492 10.4915 8.31307 10.0919 8.73371C9.57649 9.23596 9.15889 9.82962 8.86035 10.4845C8.67739 10.8616 8.52129 11.2512 8.39319 11.6503C8.25855 12.0904 8.15086 12.5383 8.07071 12.9916C7.97514 13.2482 7.94137 13.5237 7.97212 13.7958C7.97443 14.0641 8.03962 14.3282 8.16246 14.5667C8.2941 15.0005 8.44992 15.4266 8.62919 15.843C8.79753 16.2203 8.99301 16.585 9.21409 16.9341C9.57987 17.5438 10.0518 18.0833 10.6075 18.527C11.0439 18.8988 11.568 19.1531 12.1301 19.266C12.6922 19.3788 13.2738 19.3464 13.8198 19.1719C14.8542 18.7538 15.7289 18.018 16.3179 17.0705C16.6856 16.5355 16.967 15.946 17.1518 15.3236ZM13.3122 16.7236C12.9457 16.8264 12.5597 16.839 12.1872 16.7603C11.8147 16.6816 11.4668 16.5139 11.1731 16.2716C10.5071 15.7669 9.97322 14.8924 9.59363 13.6989C9.99511 11.4997 11.1463 10.2063 12.5458 10.2074C13.2816 10.2555 13.9827 10.5379 14.5464 11.0132C14.9089 11.2888 15.2071 11.6398 15.4205 12.042C15.6339 12.4441 15.7574 12.8878 15.7824 13.3424C15.8086 13.759 15.7498 14.1765 15.6094 14.5696C15.4691 14.9627 15.2503 15.3231 14.9662 15.6288C14.5241 16.1382 13.9496 16.5153 13.3065 16.7185L13.3122 16.7236Z" fill="#D2AC67"/>
</g>
<defs>
<linearGradient id="paint0_linear_345_2285" x1="48" y1="13" x2="440" y2="13" gradientUnits="userSpaceOnUse">
<stop stop-color="white"/>
<stop offset="1" stop-color="white" stop-opacity="0"/>
</linearGradient>
<clipPath id="clip0_345_2285">
<rect width="19.085" height="19.085" fill="white" transform="translate(14.2559 26.9447) rotate(-138.328)"/>
</clipPath>
</defs>
</svg>
