<svg width="33" height="33" viewBox="0 0 33 33" fill="none" xmlns="http://www.w3.org/2000/svg">
<path d="M8.04534 9.38511C7.31303 9.38511 6.71387 8.78595 6.71387 8.05364C6.71387 7.32133 7.29971 6.72217 8.04534 6.72217H8.05865C8.79096 6.72217 9.39012 7.32133 9.39012 8.05364C9.39012 8.78595 8.79096 9.38511 8.04534 9.38511Z" fill="#D2AC67"/>
<path d="M25.3549 26.6942C24.6226 26.6942 24.0234 26.095 24.0234 25.3627C24.0234 24.6304 24.6093 24.0312 25.3549 24.0312H25.3682C26.1005 24.0312 26.6997 24.6304 26.6997 25.3627C26.6997 26.095 26.1005 26.6942 25.3549 26.6942Z" fill="#D2AC67"/>
<path d="M7.99175 13.7123C4.87611 13.7123 2.33301 11.1692 2.33301 8.05352C2.33301 4.93788 4.87611 2.39478 7.99175 2.39478C11.1074 2.39478 13.6505 4.93788 13.6505 8.05352C13.6505 11.1692 11.1207 13.7123 7.99175 13.7123ZM7.99175 4.39198C5.96792 4.39198 4.33021 6.02969 4.33021 8.05352C4.33021 10.0774 5.96792 11.7151 7.99175 11.7151C10.0156 11.7151 11.6533 10.0774 11.6533 8.05352C11.6533 6.02969 10.0156 4.39198 7.99175 4.39198Z" fill="#D2AC67"/>
<path d="M27.2985 31.0213H23.3041C21.2803 31.0213 19.6426 29.3836 19.6426 27.3598V23.3654C19.6426 21.3416 21.2803 19.7039 23.3041 19.7039H27.2985C29.3224 19.7039 30.9601 21.3416 30.9601 23.3654V27.3598C30.9601 29.3836 29.3224 31.0213 27.2985 31.0213ZM23.3041 21.7011C22.3854 21.7011 21.6398 22.4467 21.6398 23.3654V27.3598C21.6398 28.2785 22.3854 29.0241 23.3041 29.0241H27.2985C28.2172 29.0241 28.9629 28.2785 28.9629 27.3598V23.3654C28.9629 22.4467 28.2172 21.7011 27.2985 21.7011H23.3041Z" fill="#D2AC67"/>
<path d="M16.6864 27.0269H13.1181C11.5736 27.0269 10.2288 26.0949 9.6962 24.6569C9.1503 23.2189 9.54974 21.6345 10.7081 20.6093L21.3466 11.3023C21.9857 10.7431 21.999 9.98413 21.8126 9.46485C21.6128 8.94558 21.1069 8.38636 20.2548 8.38636H16.6864C16.1405 8.38636 15.6878 7.93366 15.6878 7.38776C15.6878 6.84186 16.1405 6.38916 16.6864 6.38916H20.2548C21.7993 6.38916 23.144 7.32119 23.6766 8.75918C24.2225 10.1972 23.8231 11.7816 22.6647 12.8068L12.0263 22.1138C11.3872 22.673 11.3738 23.432 11.5603 23.9512C11.76 24.4705 12.2659 25.0297 13.1181 25.0297H16.6864C17.2323 25.0297 17.685 25.4824 17.685 26.0283C17.685 26.5742 17.2323 27.0269 16.6864 27.0269Z" fill="#D2AC67"/>
</svg>
