<svg width="64" height="64" viewBox="0 0 64 64" fill="none" xmlns="http://www.w3.org/2000/svg">
<g clip-path="url(#clip0_362_2617)">
<path d="M58.9264 30.5773C61.2253 27.0568 60.8311 22.2795 57.7425 19.1907C56.027 17.4752 53.7461 16.5305 51.3201 16.5305C49.2359 16.5305 47.2598 17.2297 45.6562 18.514C44.933 17.882 44.089 17.2713 43.0536 16.9255C42.4677 16.7297 41.8039 16.6346 41.0239 16.6346C40.3748 16.6346 39.7106 16.6986 39.0682 16.7605C38.4471 16.8205 37.8047 16.8822 37.2004 16.8822C36.8366 16.8822 36.5151 16.8603 36.2176 16.8156C35.4333 16.6972 34.6031 16.34 33.7241 15.9618C32.4599 15.418 31.1529 14.8555 29.6934 14.8555C28.2342 14.8555 26.9272 15.4178 25.6631 15.9618C24.7841 16.34 23.954 16.6973 23.1695 16.8156C22.872 16.8605 22.5505 16.8822 22.1868 16.8822C21.5821 16.8822 20.9399 16.8203 20.3188 16.7605C19.6765 16.6986 19.0123 16.6346 18.3633 16.6346C17.5834 16.6346 16.9193 16.7296 16.3334 16.9255C14.8089 17.4348 13.6631 18.544 12.652 19.5223C12.032 20.1223 11.4466 20.6891 10.8472 21.0576C10.1399 21.4926 9.309 21.8257 8.50562 22.148C7.09312 22.7145 5.63263 23.3002 4.73575 24.4865C3.43775 26.2032 3.55238 28.2911 3.6535 30.1333C3.66175 30.284 3.66963 30.4315 3.67688 30.5772H0V31.5277C0 39.1448 6.197 45.342 13.8142 45.342H21.9872V43.4411H13.8142C7.56512 43.4411 2.4245 38.6045 1.9385 32.4782H3.70625H27.1375H34.7431H45.365H48.1338H57.2761H62.0615C61.5755 38.6045 56.4349 43.4411 50.1859 43.4411H24.5221V45.342H50.186C57.8031 45.342 64.0001 39.145 64.0001 31.5277V30.5772H58.9264V30.5773ZM15.1754 30.5773C13.8083 30.5775 12.6961 29.4653 12.6961 28.0985C12.6961 26.7315 13.8083 25.6192 15.1754 25.6192C16.5424 25.6192 17.6545 26.7313 17.6545 28.0985C17.6545 29.4653 16.5424 30.5773 15.1754 30.5773ZM18.7839 30.5773C18.7979 30.5572 18.8115 30.5371 18.825 30.5166C18.8415 30.5367 18.8577 30.5572 18.8743 30.5773H18.7839ZM22.9216 30.5775C21.0659 30.5775 19.5555 29.0673 19.5555 27.2112C19.5555 25.3551 21.0658 23.845 22.9219 23.845C24.3314 23.845 25.5621 24.7132 26.0566 25.9828L22.6381 27.898L22.638 27.8981L23.1026 28.7272C23.1736 28.8538 23.2483 28.9776 23.3248 29.1C23.3459 29.1341 23.3676 29.1675 23.3891 29.2012C23.4568 29.3062 23.5261 29.4098 23.5977 29.5117C23.6097 29.529 23.6214 29.5465 23.6335 29.5637C23.7186 29.683 23.807 29.7995 23.8976 29.9141C23.9147 29.9357 23.9322 29.9571 23.9496 29.9786C24.0365 30.0866 24.1256 30.1925 24.2173 30.2962C24.2218 30.3015 24.226 30.307 24.2305 30.3121C23.8194 30.4858 23.3746 30.5775 22.9216 30.5775ZM34.4029 30.5153C34.3655 30.5362 34.3276 30.5571 34.2895 30.5775H27.591V30.5776C27.1534 30.3433 26.7456 30.065 26.3709 29.7488L26.3652 29.7441C25.9602 29.4017 25.5975 29.0177 25.281 28.5965L37.5293 21.7347C38.8128 24.9792 37.5285 28.7645 34.4029 30.5153ZM43.9432 20.3165C43.888 20.3933 43.8339 20.471 43.7812 20.5491C43.754 20.5895 43.727 20.6302 43.7004 20.671C43.6471 20.7531 43.5959 20.8358 43.5454 20.9192C43.524 20.9547 43.5016 20.9902 43.4808 21.026C43.4113 21.1446 43.3442 21.2643 43.2806 21.3853C43.2761 21.3936 43.2724 21.4023 43.268 21.4106C43.2091 21.5235 43.1531 21.6375 43.0994 21.7521C43.0808 21.7921 43.0631 21.8325 43.045 21.8725C43.0067 21.9575 42.9695 22.043 42.9339 22.1288C42.9153 22.174 42.897 22.2193 42.879 22.2646C42.8453 22.3497 42.8132 22.4353 42.7822 22.5211C42.7669 22.5641 42.751 22.6067 42.7363 22.6498C42.6996 22.7563 42.6652 22.8633 42.633 22.9707C42.6264 22.9922 42.619 23.0136 42.6128 23.0351C42.575 23.1635 42.5406 23.2925 42.5086 23.422C42.4989 23.4613 42.4905 23.5011 42.4813 23.5406C42.46 23.6325 42.4396 23.7242 42.421 23.8166C42.4114 23.8647 42.4024 23.9131 42.3935 23.9613C42.3776 24.0476 42.3633 24.1342 42.3499 24.2208C42.3424 24.2688 42.3349 24.3167 42.3284 24.365C42.315 24.4613 42.3039 24.5578 42.2938 24.6546C42.2899 24.6912 42.285 24.7277 42.2816 24.7645C42.2694 24.8958 42.2599 25.0276 42.2534 25.1593C42.2516 25.1937 42.2513 25.228 42.2501 25.2625C42.2464 25.3617 42.2435 25.461 42.243 25.5603C42.2426 25.609 42.2434 25.6576 42.2439 25.706C42.2447 25.793 42.2467 25.8798 42.2501 25.9667C42.2521 26.0166 42.2541 26.0665 42.257 26.1162C42.262 26.2071 42.2687 26.2977 42.2764 26.3882C42.28 26.4317 42.283 26.475 42.2873 26.5181C42.3003 26.6495 42.3156 26.7808 42.3344 26.9117C42.337 26.9301 42.3406 26.9486 42.3434 26.9672C42.3604 27.0808 42.3794 27.1943 42.4006 27.3076C42.4091 27.3527 42.419 27.398 42.4281 27.4431C42.446 27.5303 42.4647 27.6177 42.4852 27.7047C42.4966 27.7533 42.5086 27.8021 42.5207 27.8505C42.5426 27.937 42.566 28.0231 42.5905 28.1091C42.6031 28.1537 42.6154 28.1985 42.6289 28.2431C42.6616 28.352 42.6965 28.4603 42.7334 28.568C42.7402 28.5877 42.7461 28.6077 42.7529 28.6276C42.7973 28.7542 42.845 28.8798 42.8949 29.0048C42.9101 29.0426 42.9265 29.0801 42.9422 29.1177C42.9791 29.2062 43.017 29.2942 43.0568 29.3817C43.0769 29.426 43.0975 29.4698 43.1184 29.5137C43.1576 29.5963 43.1982 29.6785 43.24 29.7601C43.2615 29.8022 43.2829 29.8441 43.3051 29.8858C43.3546 29.9788 43.4062 30.071 43.4593 30.1626C43.4753 30.1903 43.4902 30.2183 43.5066 30.246C43.5729 30.3577 43.6414 30.4685 43.7126 30.5778H37.4017V30.5775C40.0825 27.7993 40.7604 23.483 38.7786 19.9453L38.3141 19.1161L27.7246 25.0486C26.8925 23.1937 25.0363 21.9441 22.9219 21.9441C20.8394 21.9441 19.0355 23.159 18.1812 24.9171C17.3961 24.175 16.3384 23.7183 15.1753 23.7183C12.76 23.7183 10.795 25.6832 10.795 28.0986C10.795 29.0182 11.0805 29.8721 11.5667 30.5775H5.5805C5.57188 30.3936 5.56163 30.2103 5.55175 30.0293C5.46038 28.3658 5.37425 26.7946 6.25212 25.6333C6.83062 24.8683 7.98787 24.4041 9.21338 23.9126C10.0906 23.5608 10.9979 23.1968 11.8431 22.6771C12.6195 22.1997 13.3082 21.5331 13.9741 20.8883C14.8819 20.0096 15.8205 19.101 16.9355 18.7285C17.3295 18.597 17.7831 18.5357 18.3633 18.5357C18.921 18.5357 19.5114 18.5925 20.1364 18.6528C20.8022 18.7171 21.4909 18.7833 22.1868 18.7833C22.6465 18.7833 23.0606 18.7545 23.453 18.6953C24.48 18.5403 25.4633 18.1173 26.4144 17.708C27.5516 17.2187 28.6258 16.7563 29.6933 16.7563C30.7609 16.7563 31.8353 17.2185 32.9726 17.7081C33.9238 18.1173 34.9071 18.5405 35.934 18.6953C36.3264 18.7545 36.7405 18.7833 37.2001 18.7833C37.896 18.7833 38.5845 18.717 39.2504 18.6528C39.8755 18.5925 40.466 18.5357 41.0236 18.5357C41.6035 18.5357 42.0571 18.597 42.451 18.7285C43.1353 18.9572 43.7486 19.3863 44.2971 19.8528C44.293 19.8581 44.289 19.8633 44.2848 19.8686C44.2661 19.8913 44.2486 19.9148 44.2303 19.9378C44.1603 20.0251 44.0919 20.113 44.0259 20.2021C43.9977 20.2401 43.9706 20.2785 43.9432 20.3165ZM57.0251 29.9746L53.8647 26.8141L52.5205 28.1581L54.9401 30.5778H47.7001V30.5776L50.1198 28.1578L48.7755 26.8138L45.6156 29.974C45.6084 29.9645 45.6009 29.9552 45.5938 29.9456C45.5579 29.8981 45.5221 29.8505 45.4875 29.8023C45.4526 29.754 45.4191 29.7051 45.3857 29.6562C45.352 29.607 45.3189 29.5577 45.2865 29.5078C45.2549 29.4586 45.2241 29.4087 45.1936 29.3588C45.1628 29.3081 45.1319 29.2573 45.1021 29.206C45.0732 29.1558 45.0455 29.1052 45.0177 29.0546C44.9893 29.0022 44.9609 28.95 44.9338 28.897C44.9077 28.8466 44.883 28.7953 44.8584 28.7442C44.8322 28.6902 44.8061 28.6362 44.7817 28.5818C44.7584 28.5307 44.7368 28.4792 44.715 28.4277C44.6915 28.3722 44.668 28.317 44.6459 28.2611C44.6256 28.2098 44.6065 28.1581 44.5875 28.1062C44.5666 28.0495 44.5456 27.9928 44.5261 27.9355C44.5086 27.8837 44.4924 27.8318 44.4761 27.7797C44.4577 27.7218 44.4395 27.6637 44.4227 27.6055C44.4079 27.5537 44.3944 27.5017 44.3807 27.4496C44.3651 27.3905 44.3496 27.3312 44.3355 27.2718C44.3234 27.2202 44.3127 27.1686 44.3016 27.1166C44.2887 27.0561 44.2757 26.9958 44.2645 26.935C44.255 26.8836 44.2467 26.832 44.2384 26.7805C44.2284 26.719 44.2183 26.6575 44.2096 26.5958C44.2026 26.5447 44.1973 26.4935 44.1912 26.4422C44.184 26.3798 44.1766 26.3175 44.1711 26.255C44.1666 26.2042 44.1636 26.1535 44.1603 26.1028C44.156 26.0395 44.1515 25.9762 44.1488 25.9128C44.1468 25.8627 44.1462 25.8126 44.1454 25.7625C44.144 25.6983 44.1425 25.6343 44.1427 25.5702C44.1431 25.5207 44.1449 25.4713 44.1463 25.422C44.1479 25.3571 44.1492 25.2926 44.1527 25.2278C44.1554 25.1792 44.1597 25.1306 44.1632 25.0821C44.1681 25.0167 44.1725 24.9513 44.1791 24.8862C44.184 24.8385 44.1904 24.7908 44.1963 24.7431C44.2043 24.6772 44.2119 24.6115 44.2216 24.5457C44.2286 24.499 44.2373 24.4523 44.2453 24.4057C44.2565 24.3397 44.2673 24.2735 44.2803 24.2076C44.2894 24.1617 44.3001 24.1161 44.3101 24.0703C44.3246 24.0042 44.3387 23.9378 44.355 23.872C44.3661 23.8273 44.379 23.7828 44.3909 23.7382C44.4088 23.672 44.4261 23.6055 44.4459 23.5395C44.4589 23.4958 44.4738 23.4528 44.4878 23.4095C44.5089 23.3433 44.5298 23.277 44.553 23.2112C44.568 23.1686 44.5849 23.1266 44.6007 23.0842C44.6254 23.0183 44.6495 22.9526 44.6763 22.8872C44.6931 22.8458 44.7119 22.8051 44.7296 22.7641C44.7579 22.6987 44.7854 22.6333 44.8156 22.5687C44.8342 22.5285 44.855 22.489 44.8746 22.4491C44.9061 22.3843 44.9374 22.3196 44.971 22.2557C44.9916 22.2166 45.0144 22.1785 45.0358 22.1396C45.0709 22.076 45.1055 22.0121 45.1426 21.9493C45.1657 21.9105 45.1908 21.8726 45.2146 21.834C45.2528 21.7725 45.2901 21.7106 45.3302 21.65C45.356 21.6111 45.384 21.5733 45.4106 21.5346C45.4513 21.4757 45.4914 21.4162 45.534 21.3581C45.5602 21.3226 45.5886 21.288 45.6155 21.253L48.7756 24.4131L50.1199 23.0688L46.9591 19.9081C48.2055 18.9512 49.7226 18.4315 51.3203 18.4315C52.9179 18.4315 54.4348 18.9513 55.6813 19.9081L52.5206 23.0687L53.8649 24.413L57.0249 21.2528C58.9875 23.8176 58.9879 27.411 57.0251 29.9746Z" fill="url(#paint0_linear_362_2617)"/>
<path d="M64 47.2441H0V49.145H64V47.2441Z" fill="url(#paint1_linear_362_2617)"/>
</g>
<defs>
<linearGradient id="paint0_linear_362_2617" x1="62.2447" y1="3.89286" x2="6.12871" y2="38.7097" gradientUnits="userSpaceOnUse">
<stop stop-color="#F7FC97"/>
<stop offset="0.234375" stop-color="#9E5313"/>
<stop offset="0.322917" stop-color="#FCC342"/>
<stop offset="0.48" stop-color="#F7FC97"/>
<stop offset="0.58" stop-color="#E7AA39"/>
<stop offset="0.802083" stop-color="#632507"/>
<stop offset="1" stop-color="#E7AA39"/>
</linearGradient>
<linearGradient id="paint1_linear_362_2617" x1="62.2446" y1="46.5606" x2="61.4676" y2="54.2928" gradientUnits="userSpaceOnUse">
<stop stop-color="#F7FC97"/>
<stop offset="0.234375" stop-color="#9E5313"/>
<stop offset="0.322917" stop-color="#FCC342"/>
<stop offset="0.48" stop-color="#F7FC97"/>
<stop offset="0.58" stop-color="#E7AA39"/>
<stop offset="0.802083" stop-color="#632507"/>
<stop offset="1" stop-color="#E7AA39"/>
</linearGradient>
<clipPath id="clip0_362_2617">
<rect width="64" height="64" fill="white"/>
</clipPath>
</defs>
</svg>
