<svg width="27" height="27" viewBox="0 0 27 27" fill="none" xmlns="http://www.w3.org/2000/svg">
<path d="M12.7269 24.3407C6.59601 24.3407 1.60449 19.3492 1.60449 13.2183C1.60449 7.08746 6.59601 2.09595 12.7269 2.09595C18.8578 2.09595 23.8493 7.08746 23.8493 13.2183C23.8493 19.3492 18.8578 24.3407 12.7269 24.3407ZM12.7269 3.72362C7.4858 3.72362 3.23216 7.98811 3.23216 13.2183C3.23216 18.4486 7.4858 22.7131 12.7269 22.7131C17.968 22.7131 22.2216 18.4486 22.2216 13.2183C22.2216 7.98811 17.968 3.72362 12.7269 3.72362Z" fill="#542112"/>
<path d="M24.121 25.4258C23.9148 25.4258 23.7087 25.3498 23.5459 25.1871L21.3757 23.0168C21.061 22.7022 21.061 22.1813 21.3757 21.8666C21.6903 21.5519 22.2112 21.5519 22.5259 21.8666L24.6961 24.0369C25.0108 24.3515 25.0108 24.8724 24.6961 25.1871C24.5333 25.3498 24.3272 25.4258 24.121 25.4258Z" fill="#542112"/>
</svg>
