<svg width="64" height="64" viewBox="0 0 64 64" fill="none" xmlns="http://www.w3.org/2000/svg">
<g clip-path="url(#clip0_362_2602)">
<path d="M57.1168 36.3326H14.0514L8.95617 26.7414C8.62592 26.1196 7.85392 25.8835 7.2323 26.2136C6.61055 26.544 6.3743 27.3157 6.70455 27.9375L11.1644 36.3326H6.8823C6.1783 36.3326 5.60742 36.9034 5.60742 37.6075C5.60742 52.1601 17.4469 63.9996 31.9996 63.9996C46.5522 63.9996 58.3917 52.1601 58.3917 37.6075C58.3917 36.9034 57.8208 36.3326 57.1168 36.3326ZM55.515 41.5456H40.214C39.5099 41.5456 38.9391 42.1164 38.9391 42.8205C38.9391 43.5246 39.5099 44.0954 40.214 44.0954H54.944C52.1112 54.0991 42.8981 61.4499 31.9996 61.4499C19.2806 61.4499 8.8558 51.4389 8.19092 38.8825H55.8082C55.7605 39.7844 55.6607 40.6726 55.515 41.5456Z" fill="url(#paint0_linear_362_2602)"/>
<path d="M34.7645 20.4002C38.6032 20.4002 41.7262 17.2771 41.7262 13.4383C41.7262 9.59956 38.6032 6.47656 34.7645 6.47656C34.0605 6.47656 33.4896 7.04731 33.4896 7.75144C33.4896 8.45556 34.0604 9.02631 34.7645 9.02631C37.1972 9.02631 39.1764 11.0054 39.1764 13.4382C39.1764 15.8711 37.1972 17.8502 34.7645 17.8502C30.9257 17.8502 27.8027 20.9733 27.8027 24.8119C27.8027 28.6507 30.9257 31.7738 34.7645 31.7738C35.4685 31.7738 36.0394 31.2031 36.0394 30.4989C36.0394 29.7948 35.4685 29.2241 34.7645 29.2241C32.3317 29.2241 30.3526 27.2449 30.3526 24.8121C30.3526 22.3793 32.3317 20.4002 34.7645 20.4002Z" fill="url(#paint1_linear_362_2602)"/>
<path d="M29.5516 11.3737C27.1188 11.3737 25.1397 9.39462 25.1397 6.96174C25.1397 4.529 27.1188 2.54987 29.5516 2.54987C30.2556 2.54987 30.8265 1.97912 30.8265 1.275C30.8266 0.57075 30.2556 0 29.5516 0C25.7128 0 22.5898 3.12312 22.5898 6.96174C22.5898 10.8006 25.7128 13.9236 29.5516 13.9236C30.2556 13.9236 30.8265 13.3529 30.8265 12.6487C30.8266 11.9445 30.2556 11.3737 29.5516 11.3737Z" fill="url(#paint2_linear_362_2602)"/>
<path d="M34.8433 41.5459H33.5796C32.8756 41.5459 32.3047 42.1166 32.3047 42.8208C32.3047 43.5249 32.8756 44.0956 33.5796 44.0956H34.8433C35.5473 44.0956 36.1182 43.5249 36.1182 42.8208C36.1182 42.1166 35.5473 41.5459 34.8433 41.5459Z" fill="url(#paint3_linear_362_2602)"/>
</g>
<defs>
<linearGradient id="paint0_linear_362_2602" x1="56.9439" y1="12.4234" x2="2.11783" y2="34.9699" gradientUnits="userSpaceOnUse">
<stop stop-color="#F7FC97"/>
<stop offset="0.234375" stop-color="#9E5313"/>
<stop offset="0.322917" stop-color="#FCC342"/>
<stop offset="0.48" stop-color="#F7FC97"/>
<stop offset="0.58" stop-color="#E7AA39"/>
<stop offset="0.802083" stop-color="#632507"/>
<stop offset="1" stop-color="#E7AA39"/>
</linearGradient>
<linearGradient id="paint1_linear_362_2602" x1="41.3443" y1="-2.62006" x2="24.8724" y2="0.0594178" gradientUnits="userSpaceOnUse">
<stop stop-color="#F7FC97"/>
<stop offset="0.234375" stop-color="#9E5313"/>
<stop offset="0.322917" stop-color="#FCC342"/>
<stop offset="0.48" stop-color="#F7FC97"/>
<stop offset="0.58" stop-color="#E7AA39"/>
<stop offset="0.802083" stop-color="#632507"/>
<stop offset="1" stop-color="#E7AA39"/>
</linearGradient>
<linearGradient id="paint2_linear_362_2602" x1="30.6005" y1="-5.00678" x2="20.8952" y2="-3.30995" gradientUnits="userSpaceOnUse">
<stop stop-color="#F7FC97"/>
<stop offset="0.234375" stop-color="#9E5313"/>
<stop offset="0.322917" stop-color="#FCC342"/>
<stop offset="0.48" stop-color="#F7FC97"/>
<stop offset="0.58" stop-color="#E7AA39"/>
<stop offset="0.802083" stop-color="#632507"/>
<stop offset="1" stop-color="#E7AA39"/>
</linearGradient>
<linearGradient id="paint3_linear_362_2602" x1="36.0136" y1="40.629" x2="32.1397" y2="42.3414" gradientUnits="userSpaceOnUse">
<stop stop-color="#F7FC97"/>
<stop offset="0.234375" stop-color="#9E5313"/>
<stop offset="0.322917" stop-color="#FCC342"/>
<stop offset="0.48" stop-color="#F7FC97"/>
<stop offset="0.58" stop-color="#E7AA39"/>
<stop offset="0.802083" stop-color="#632507"/>
<stop offset="1" stop-color="#E7AA39"/>
</linearGradient>
<clipPath id="clip0_362_2602">
<rect width="64" height="64" fill="white"/>
</clipPath>
</defs>
</svg>
