<svg width="105" height="104" viewBox="0 0 105 104" fill="none" xmlns="http://www.w3.org/2000/svg">
<g clip-path="url(#clip0_362_2451)">
<path d="M102.815 75.4732H85.5432L69.1971 59.127C69.0668 58.9967 68.9349 58.8687 68.8024 58.7422C69.5216 57.0703 70.0198 55.4695 70.2523 54.0741C70.6688 51.5759 69.7896 49.9105 68.9789 48.9536C68.1642 47.992 67.0207 47.297 65.7478 46.957C65.7224 42.3396 62.5444 39.9656 62.3937 39.856C61.6412 39.3086 60.5806 39.4698 60.0334 40.2223C59.4862 40.9748 59.6455 42.0234 60.3979 42.5705C60.4864 42.6379 62.3202 44.071 62.3764 46.9044C59.8552 47.4812 57.8354 49.4094 57.226 51.9903C57.1865 52.1578 57.1346 52.4031 57.0796 52.6675C49.615 51.203 41.5746 53.3558 35.8032 59.1274L35.28 59.6506C33.623 58.1141 31.3222 57.5124 29.1184 58.009C27.9454 55.4297 28.9796 53.3468 29.023 53.2614C29.4652 52.4429 29.1602 51.4209 28.3417 50.9784C27.5229 50.5359 26.5009 50.8409 26.0586 51.6596C25.9699 51.8238 24.1289 55.3374 26.1002 59.5129C25.0988 60.3694 24.3677 61.49 24.0483 62.7092C23.7304 63.9226 23.6567 65.8041 25.1112 67.8776C25.3522 68.221 25.6377 68.5874 25.9618 68.9688L19.4568 75.4732H2.18467C1.25428 75.4732 0.5 76.2274 0.5 77.1578C0.5 78.0882 1.25428 78.8425 2.18467 78.8425H15.7181L18.9864 83.1999C20.3155 84.9722 22.4316 86.0304 24.6469 86.0304H80.3531C82.5684 86.0304 84.6845 84.9724 86.0136 83.2002L89.2819 78.8425H102.815C103.746 78.8425 104.5 78.0882 104.5 77.1578C104.5 76.2274 103.746 75.4732 102.815 75.4732ZM60.3593 53.4422C60.4143 53.1783 60.466 52.9292 60.5049 52.7643C60.8705 51.2153 62.3214 50.0911 63.9548 50.0909C63.9557 50.0909 63.9566 50.0911 63.9573 50.0911C63.9577 50.0911 63.9582 50.0911 63.9584 50.0911C64.9263 50.092 65.8646 50.4903 66.4077 51.1316C66.9171 51.7329 67.0923 52.5366 66.9284 53.5204C66.7828 54.3937 66.4854 55.4194 66.0732 56.5007C64.2783 55.2385 62.3459 54.2549 60.3362 53.5514C60.3442 53.5148 60.3519 53.4782 60.3593 53.4422ZM38.1855 61.5095C46.0785 53.6163 58.9215 53.6163 66.8147 61.5093L80.7786 75.4732H58.7865C59.2993 75.1609 59.8074 74.8281 60.3103 74.4729C60.9532 74.0187 61.196 73.1798 60.8948 72.4524C60.5936 71.7251 59.829 71.3035 59.0529 71.4367C58.9343 71.4571 47.67 73.2368 37.5157 62.1794L38.1855 61.5095ZM27.3073 63.563C27.5202 62.7501 28.1948 61.9855 29.0677 61.5666C29.0686 61.5661 29.0697 61.5655 29.0706 61.565C29.5643 61.3285 30.0937 61.2151 30.6175 61.2151C31.6566 61.2151 32.6726 61.6625 33.3366 62.4864C39.4513 70.0721 46.2169 73.0106 50.8158 74.14C51.5065 74.3096 52.1705 74.4448 52.8021 74.552C50.9685 75.149 49.075 75.4559 47.13 75.4734H46.8597C45.7252 75.4678 44.5735 75.3656 43.4057 75.1627C35.8822 73.8557 29.8833 68.8136 27.8693 65.9425C27.2965 65.1262 27.1074 64.3256 27.3073 63.563ZM28.3334 71.3615C29.9347 72.7773 31.9417 74.2285 34.2632 75.4732H24.2217L28.3334 71.3615ZM83.3181 81.1786C82.6218 82.1069 81.5135 82.6611 80.3531 82.6611H24.6469C23.4865 82.6611 22.3782 82.1069 21.6819 81.1786L19.9298 78.8425H85.0702L83.3181 81.1786Z" fill="#D2AC67"/>
<path d="M49.8048 64.4666C51.2292 64.4666 52.388 63.3078 52.388 61.8835C52.388 60.4591 51.2292 59.3003 49.8048 59.3003C48.3805 59.3003 47.2217 60.4591 47.2217 61.8835C47.2217 63.3078 48.3805 64.4666 49.8048 64.4666Z" fill="#D2AC67"/>
<path d="M67.7746 73.4515C69.1989 73.4515 70.3577 72.2926 70.3577 70.8683C70.3577 69.444 69.1989 68.2852 67.7746 68.2852C66.3502 68.2852 65.1914 69.444 65.1914 70.8683C65.1914 72.2926 66.3502 73.4515 67.7746 73.4515Z" fill="#D2AC67"/>
<path d="M56.0853 68.0782C57.0156 68.0782 57.7789 67.315 57.7789 66.3846C57.7789 65.4542 57.0156 64.6909 56.0853 64.6909C55.1549 64.6909 54.3916 65.4542 54.3916 66.3846C54.3916 67.315 55.1549 68.0782 56.0853 68.0782Z" fill="#D2AC67"/>
<path d="M61.4759 64.4845C62.4063 64.4845 63.1695 63.7212 63.1695 62.7908C63.1695 61.8604 62.4063 61.0972 61.4759 61.0972C60.5455 61.0972 59.7822 61.8604 59.7822 62.7908C59.7822 63.7212 60.5455 64.4845 61.4759 64.4845Z" fill="#D2AC67"/>
<path d="M45.4248 37.632C45.4248 40.4679 46.6261 41.9684 47.5915 43.1739C48.4201 44.209 49.0188 44.9567 49.0188 46.6099C49.0188 47.5403 49.773 48.2946 50.7034 48.2946C51.6338 48.2946 52.3881 47.5403 52.3881 46.6099C52.3881 43.7741 51.1868 42.2738 50.2216 41.0681C49.393 40.033 48.7941 39.285 48.7941 37.632C48.7941 35.9766 49.3932 35.2277 50.2221 34.1915C51.187 32.985 52.3881 31.4837 52.3881 28.6462C52.3881 25.8077 51.1873 24.3054 50.2223 23.0983C49.3932 22.0612 48.7941 21.3119 48.7941 19.6544C48.7941 18.724 48.0399 17.9697 47.1095 17.9697C46.1791 17.9697 45.4248 18.724 45.4248 19.6544C45.4248 22.4929 46.6256 23.9952 47.5906 25.2023C48.4197 26.2396 49.0188 26.989 49.0188 28.6465C49.0188 30.3019 48.4197 31.0508 47.5908 32.087C46.6259 33.2932 45.4248 34.7948 45.4248 37.632Z" fill="#D2AC67"/>
<path d="M54.5179 39.3152C55.0527 39.3152 55.5296 39.0656 55.8385 38.6768C57.0541 37.157 59.5753 33.9995 59.5753 28.6465C59.5753 26.4722 59.1572 24.4225 58.3327 22.5541C57.9571 21.703 56.9627 21.3175 56.1111 21.6931C55.2598 22.0687 54.8746 23.0633 55.2502 23.9146C55.8843 25.3515 56.2059 26.9437 56.2059 28.6465C56.2059 32.8052 54.3427 35.1525 53.2178 36.559C52.9774 36.8502 52.833 37.2235 52.833 37.6307C52.8332 38.5609 53.5875 39.3152 54.5179 39.3152Z" fill="#D2AC67"/>
<path d="M41.0048 44.6889C41.2303 44.6889 41.4597 44.6433 41.6796 44.5469C42.5318 44.1738 42.9201 43.1803 42.547 42.3281C41.9224 40.9013 41.6057 39.3213 41.6057 37.6319C41.6057 33.4562 43.4853 31.1064 44.6086 29.7019C44.639 29.6639 44.6677 29.6246 44.6947 29.5842C45.072 29.0184 45.0702 28.2697 44.6929 27.7039C44.1769 26.9298 43.1306 26.7207 42.3568 27.2366C42.1573 27.3696 41.9956 27.5376 41.8739 27.7272C40.6254 29.2917 38.2363 32.4223 38.2363 37.6319C38.2363 39.7892 38.6483 41.824 39.4607 43.6797C39.7377 44.312 40.3561 44.6889 41.0048 44.6889Z" fill="#D2AC67"/>
</g>
<defs>
<clipPath id="clip0_362_2451">
<rect width="104" height="104" fill="white" transform="translate(0.5)"/>
</clipPath>
</defs>
</svg>
