<svg width="57" height="56" viewBox="0 0 57 56" fill="none" xmlns="http://www.w3.org/2000/svg">
<g clip-path="url(#clip0_362_2465)">
<path d="M55.9005 40.6392H46.6001L37.7983 31.8374C37.7282 31.7673 37.6572 31.6983 37.5858 31.6302C37.9731 30.73 38.2414 29.868 38.3666 29.1166C38.5908 27.7714 38.1174 26.8747 37.6809 26.3595C37.2422 25.8417 36.6264 25.4674 35.941 25.2843C35.9274 22.7981 34.2162 21.5197 34.135 21.4607C33.7298 21.166 33.1587 21.2528 32.864 21.658C32.5694 22.0632 32.6552 22.6278 33.0604 22.9224C33.108 22.9587 34.0954 23.7304 34.1257 25.256C32.7681 25.5666 31.6805 26.6049 31.3524 27.9946C31.3311 28.0848 31.3032 28.2169 31.2736 28.3592C27.2541 27.5706 22.9247 28.7298 19.817 31.8377L19.5353 32.1193C18.6431 31.292 17.4042 30.968 16.2175 31.2354C15.5859 29.8466 16.1428 28.725 16.1661 28.679C16.4043 28.2383 16.24 27.688 15.7993 27.4497C15.3584 27.2114 14.8081 27.3757 14.57 27.8165C14.5222 27.905 13.5309 29.7969 14.5923 32.0452C14.0531 32.5064 13.6594 33.1098 13.4874 33.7663C13.3163 34.4197 13.2766 35.4328 14.0598 36.5493C14.1896 36.7342 14.3433 36.9315 14.5178 37.1369L11.0151 40.6392H1.71474C1.21377 40.6392 0.807617 41.0454 0.807617 41.5463C0.807617 42.0473 1.21377 42.4535 1.71474 42.4535H9.002L10.7618 44.7998C11.4775 45.7541 12.617 46.3239 13.8098 46.3239H43.8055C44.9983 46.3239 46.1377 45.7542 46.8534 44.7999L48.6132 42.4535H55.9005C56.4015 42.4535 56.8076 42.0473 56.8076 41.5463C56.8076 41.0454 56.4015 40.6392 55.9005 40.6392ZM33.0396 28.7764C33.0692 28.6343 33.097 28.5002 33.1179 28.4114C33.3148 27.5773 34.0961 26.9719 34.9756 26.9718C34.9761 26.9718 34.9766 26.9719 34.9769 26.9719C34.9772 26.9719 34.9774 26.9719 34.9775 26.9719C35.4987 26.9724 36.0039 27.1869 36.2964 27.5322C36.5707 27.856 36.665 28.2887 36.5767 28.8185C36.4984 29.2887 36.3382 29.841 36.1163 30.4233C35.1498 29.7436 34.1092 29.214 33.0271 28.8352C33.0314 28.8155 33.0356 28.7958 33.0396 28.7764ZM21.0998 33.1203C25.3499 28.8701 32.2653 28.8701 36.5155 33.1202L44.0345 40.6392H32.1927C32.4688 40.4711 32.7424 40.2918 33.0132 40.1006C33.3593 39.8561 33.4901 39.4043 33.3279 39.0127C33.1657 38.621 32.754 38.394 32.3361 38.4657C32.2722 38.4767 26.2068 39.435 20.7391 33.481L21.0998 33.1203ZM15.2423 34.2261C15.357 33.7883 15.7202 33.3766 16.1902 33.1511C16.1907 33.1508 16.1913 33.1504 16.1918 33.1502C16.4576 33.0228 16.7427 32.9618 17.0248 32.9618C17.5843 32.9618 18.1313 33.2027 18.4889 33.6463C21.7814 37.731 25.4244 39.3132 27.9007 39.9214C28.2727 40.0127 28.6302 40.0855 28.9703 40.1432C27.983 40.4647 26.9634 40.6299 25.9161 40.6393H25.7706C25.1596 40.6363 24.5395 40.5813 23.9107 40.4721C19.8596 39.7682 16.6294 37.0533 15.5449 35.5073C15.2365 35.0678 15.1347 34.6367 15.2423 34.2261ZM15.7948 38.4252C16.6571 39.1876 17.7378 39.969 18.9878 40.6392H13.5808L15.7948 38.4252ZM45.402 43.7113C45.0271 44.2112 44.4303 44.5096 43.8055 44.5096H13.8098C13.1849 44.5096 12.5882 44.2112 12.2132 43.7113L11.2698 42.4535H46.3454L45.402 43.7113Z" fill="white"/>
<path d="M27.3567 34.7125C28.1237 34.7125 28.7477 34.0885 28.7477 33.3216C28.7477 32.5546 28.1237 31.9307 27.3567 31.9307C26.5898 31.9307 25.9658 32.5546 25.9658 33.3216C25.9658 34.0885 26.5898 34.7125 27.3567 34.7125Z" fill="white"/>
<path d="M37.0325 39.5504C37.7995 39.5504 38.4235 38.9264 38.4235 38.1595C38.4235 37.3925 37.7995 36.7686 37.0325 36.7686C36.2656 36.7686 35.6416 37.3925 35.6416 38.1595C35.6416 38.9264 36.2656 39.5504 37.0325 39.5504Z" fill="white"/>
<path d="M30.7381 36.6574C31.2391 36.6574 31.6501 36.2464 31.6501 35.7455C31.6501 35.2445 31.2391 34.8335 30.7381 34.8335C30.2372 34.8335 29.8262 35.2445 29.8262 35.7455C29.8262 36.2464 30.2372 36.6574 30.7381 36.6574Z" fill="white"/>
<path d="M33.6405 34.7224C34.1415 34.7224 34.5524 34.3114 34.5524 33.8104C34.5524 33.3094 34.1415 32.8984 33.6405 32.8984C33.1395 32.8984 32.7285 33.3094 32.7285 33.8104C32.7285 34.3114 33.1395 34.7224 33.6405 34.7224Z" fill="white"/>
<path d="M24.998 20.2632C24.998 21.7902 25.6449 22.5981 26.1647 23.2473C26.6109 23.8046 26.9333 24.2072 26.9333 25.0974C26.9333 25.5984 27.3394 26.0046 27.8404 26.0046C28.3414 26.0046 28.7475 25.5984 28.7475 25.0974C28.7475 23.5704 28.1007 22.7626 27.5809 22.1133C27.1348 21.556 26.8123 21.1532 26.8123 20.2632C26.8123 19.3718 27.1349 18.9685 27.5812 18.4106C28.1008 17.761 28.7475 16.9525 28.7475 15.4247C28.7475 13.8962 28.1009 13.0873 27.5813 12.4373C27.1349 11.8789 26.8123 11.4754 26.8123 10.5829C26.8123 10.0819 26.4062 9.67578 25.9052 9.67578C25.4042 9.67578 24.998 10.0819 24.998 10.5829C24.998 12.1114 25.6446 12.9203 26.1642 13.5703C26.6107 14.1288 26.9333 14.5323 26.9333 15.4248C26.9333 16.3162 26.6107 16.7194 26.1644 17.2774C25.6448 17.9269 24.998 18.7354 24.998 20.2632Z" fill="white"/>
<path d="M29.8946 21.1692C30.1825 21.1692 30.4393 21.0349 30.6056 20.8255C31.2602 20.0072 32.6177 18.307 32.6177 15.4246C32.6177 14.2538 32.3927 13.1501 31.9487 12.1441C31.7464 11.6858 31.211 11.4782 30.7525 11.6805C30.2941 11.8827 30.0866 12.4183 30.2889 12.8767C30.6303 13.6504 30.8035 14.5077 30.8035 15.4246C30.8035 17.6639 29.8002 18.9278 29.1945 19.6852C29.0651 19.8419 28.9873 20.043 28.9873 20.2622C28.9874 20.7631 29.3936 21.1692 29.8946 21.1692Z" fill="white"/>
<path d="M22.6177 24.0629C22.7391 24.0629 22.8626 24.0384 22.981 23.9865C23.4399 23.7856 23.649 23.2506 23.4481 22.7918C23.1117 22.0235 22.9412 21.1727 22.9412 20.263C22.9412 18.0146 23.9533 16.7493 24.5582 15.993C24.5745 15.9726 24.59 15.9514 24.6045 15.9296C24.8077 15.625 24.8067 15.2218 24.6035 14.9172C24.3257 14.5004 23.7623 14.3878 23.3457 14.6656C23.2383 14.7372 23.1512 14.8277 23.0856 14.9297C22.4134 15.7722 21.127 17.4578 21.127 20.263C21.127 21.4247 21.3488 22.5203 21.7863 23.5195C21.9354 23.86 22.2684 24.0629 22.6177 24.0629Z" fill="white"/>
</g>
<defs>
<clipPath id="clip0_362_2465">
<rect width="56" height="56" fill="white" transform="translate(0.807617)"/>
</clipPath>
</defs>
</svg>
