<svg width="123" height="123" viewBox="0 0 123 123" fill="none" xmlns="http://www.w3.org/2000/svg">
<g clip-path="url(#clip0_491_2314)">
<path d="M121.008 89.2613H100.58L81.2475 69.9288C81.0934 69.7747 80.9374 69.6233 80.7807 69.4737C81.6313 67.4964 82.2206 65.6031 82.4955 63.9528C82.9881 60.9981 81.9483 59.0286 80.9895 57.8968C80.026 56.7596 78.6735 55.9376 77.168 55.5354C77.138 50.0745 73.3795 47.2668 73.2012 47.1371C72.3112 46.4897 71.0568 46.6805 70.4097 47.5704C69.7625 48.4604 69.9509 49.7005 70.8408 50.3476C70.9455 50.4273 73.1143 52.1222 73.1807 55.4732C70.199 56.1555 67.8102 58.4359 67.0895 61.4883C67.0427 61.6865 66.9813 61.9766 66.9162 62.2892C58.0879 60.5572 48.5786 63.1032 41.7528 69.9293L41.1341 70.548C39.1743 68.7309 36.4532 68.0192 33.8468 68.6066C32.4595 65.5561 33.6826 63.0926 33.7339 62.9917C34.257 62.0236 33.8962 60.8148 32.9281 60.2915C31.9598 59.7681 30.7511 60.1289 30.228 61.0972C30.123 61.2914 27.9457 65.4469 30.2771 70.3852C29.0928 71.3982 28.2281 72.7235 27.8503 74.1655C27.4744 75.6006 27.3873 77.8258 29.1074 80.2781C29.3925 80.6843 29.7301 81.1176 30.1135 81.5686L22.42 89.2613H1.99244C0.892082 89.2613 0 90.1534 0 91.2538C0 92.3541 0.892082 93.2462 1.99244 93.2462H17.9984L21.8637 98.3997C23.4356 100.496 25.9384 101.747 28.5583 101.747H94.4417C97.0616 101.747 99.5644 100.496 101.136 98.4L105.002 93.2462H121.008C122.108 93.2462 123 92.3541 123 91.2538C123 90.1534 122.108 89.2613 121.008 89.2613ZM70.7951 63.2055C70.8602 62.8934 70.9213 62.5987 70.9673 62.4037C71.3998 60.5718 73.1157 59.2421 75.0475 59.2419C75.0486 59.2419 75.0497 59.2421 75.0505 59.2421C75.051 59.2421 75.0515 59.2421 75.0518 59.2421C76.1965 59.2432 77.3062 59.7142 77.9485 60.4727C78.551 61.1838 78.7583 62.1344 78.5643 63.298C78.3922 64.3308 78.0404 65.5438 77.553 66.8227C75.4301 65.33 73.1446 64.1667 70.7678 63.3346C70.7773 63.2913 70.7864 63.248 70.7951 63.2055ZM44.5704 72.7466C53.9053 63.4114 69.0947 63.4114 78.4299 72.7464L94.9448 89.2613H68.935C69.5415 88.8921 70.1424 88.4984 70.7372 88.0783C71.4975 87.5412 71.7847 86.5489 71.4285 85.6887C71.0722 84.8285 70.1679 84.3299 69.2501 84.4874C69.1098 84.5116 55.7875 86.6164 43.7782 73.5388L44.5704 72.7466ZM31.7048 75.1753C31.9566 74.2139 32.7544 73.3096 33.7867 72.8141C33.7878 72.8136 33.7891 72.8128 33.7902 72.8123C34.3741 72.5325 35.0003 72.3984 35.6198 72.3984C36.8487 72.3984 38.0503 72.9276 38.8356 73.902C46.0674 82.8736 54.069 86.3489 59.5081 87.6846C60.325 87.8852 61.1103 88.0451 61.8573 88.1719C59.6887 88.878 57.4492 89.2409 55.1489 89.2616H54.8293C53.4875 89.2549 52.1254 89.1341 50.7443 88.8942C41.8463 87.3483 34.7514 81.3851 32.3695 77.9894C31.692 77.024 31.4683 76.0772 31.7048 75.1753ZM32.9183 84.3984C34.8122 86.0729 37.1858 87.7893 39.9314 89.2613H28.0554L32.9183 84.3984ZM97.9484 96.0091C97.1248 97.107 95.8141 97.7624 94.4417 97.7624H28.5583C27.1859 97.7624 25.8752 97.107 25.0516 96.0091L22.9795 93.2462H100.021L97.9484 96.0091Z" fill="#EBDECA"/>
<path d="M58.3119 76.244C59.9964 76.244 61.367 74.8735 61.367 73.189C61.367 71.5044 59.9964 70.1339 58.3119 70.1339C56.6274 70.1339 55.2568 71.5044 55.2568 73.189C55.2568 74.8735 56.6274 76.244 58.3119 76.244Z" fill="#EBDECA"/>
<path d="M79.5648 86.8704C81.2494 86.8704 82.6199 85.4999 82.6199 83.8154C82.6199 82.1308 81.2494 80.7603 79.5648 80.7603C77.8803 80.7603 76.5098 82.1308 76.5098 83.8154C76.5098 85.4999 77.8803 86.8704 79.5648 86.8704Z" fill="#EBDECA"/>
<path d="M65.7404 80.5159C66.8407 80.5159 67.7434 79.6131 67.7434 78.5128C67.7434 77.4124 66.8407 76.5097 65.7404 76.5097C64.64 76.5097 63.7373 77.4124 63.7373 78.5128C63.7373 79.6131 64.64 80.5159 65.7404 80.5159Z" fill="#EBDECA"/>
<path d="M72.1154 76.2653C73.2157 76.2653 74.1184 75.3626 74.1184 74.2623C74.1184 73.1619 73.2157 72.2592 72.1154 72.2592C71.015 72.2592 70.1123 73.1619 70.1123 74.2623C70.1123 75.3626 71.015 76.2653 72.1154 76.2653Z" fill="#EBDECA"/>
<path d="M53.1318 44.5071C53.1318 47.8611 54.5526 49.6357 55.6944 51.0615C56.6744 52.2856 57.3824 53.17 57.3824 55.1253C57.3824 56.2256 58.2745 57.1177 59.3748 57.1177C60.4752 57.1177 61.3673 56.2256 61.3673 55.1253C61.3673 51.7713 59.9465 49.997 58.805 48.5709C57.825 47.3468 57.1167 46.4621 57.1167 44.5071C57.1167 42.5492 57.8252 41.6635 58.8055 40.438C59.9468 39.0112 61.3673 37.2355 61.3673 33.8797C61.3673 30.5226 59.947 28.7459 58.8058 27.3182C57.8252 26.0917 57.1167 25.2054 57.1167 23.2451C57.1167 22.1448 56.2246 21.2527 55.1243 21.2527C54.0239 21.2527 53.1318 22.1448 53.1318 23.2451C53.1318 26.6023 54.552 28.379 55.6933 29.8066C56.6739 31.0334 57.3824 31.9197 57.3824 33.88C57.3824 35.8379 56.6739 36.7236 55.6936 37.9491C54.5523 39.3757 53.1318 41.1516 53.1318 44.5071Z" fill="#EBDECA"/>
<path d="M63.8863 46.4974C64.5188 46.4974 65.0828 46.2023 65.4481 45.7424C66.8858 43.945 69.8676 40.2106 69.8676 33.8797C69.8676 31.3082 69.3732 28.884 68.3979 26.6743C67.9538 25.6677 66.7777 25.2118 65.7706 25.656C64.7637 26.1002 64.3081 27.2765 64.7523 28.2834C65.5023 29.9828 65.8827 31.8658 65.8827 33.8797C65.8827 38.7981 63.679 41.5743 62.3486 43.2378C62.0644 43.5821 61.8936 44.0236 61.8936 44.5053C61.8938 45.6054 62.7859 46.4974 63.8863 46.4974Z" fill="#EBDECA"/>
<path d="M47.9051 52.8533C48.1718 52.8533 48.4431 52.7994 48.7031 52.6854C49.711 52.2442 50.1704 51.0692 49.7291 50.0613C48.9903 48.3738 48.6157 46.5051 48.6157 44.5071C48.6157 39.5685 50.8388 36.7895 52.1673 35.1283C52.2032 35.0834 52.2372 35.0369 52.2691 34.9891C52.7154 34.3199 52.7133 33.4345 52.2669 32.7653C51.6567 31.8498 50.4193 31.6025 49.5041 32.2127C49.2682 32.37 49.0769 32.5687 48.9329 32.7929C47.4564 34.6432 44.6309 38.3457 44.6309 44.5071C44.6309 47.0585 45.1181 49.4651 46.079 51.6597C46.4065 52.4075 47.1379 52.8533 47.9051 52.8533Z" fill="#EBDECA"/>
</g>
<defs>
<clipPath id="clip0_491_2314">
<rect width="123" height="123" fill="white"/>
</clipPath>
</defs>
</svg>
