<svg width="64" height="64" viewBox="0 0 64 64" fill="none" xmlns="http://www.w3.org/2000/svg">
<g clip-path="url(#clip0_362_2598)">
<path d="M19.5505 9.678C21.6916 6.54106 22.912 4.4759 21.103 1.66875C20.7791 1.16625 20.9241 0.496471 21.4264 0.172712C21.9291 -0.151202 22.5989 -0.006175 22.9225 0.496162C25.601 4.65293 23.3365 7.97092 21.3383 10.8982C19.1972 14.0351 17.9769 16.1003 19.7858 18.9075C20.1098 19.41 19.9647 20.0797 19.4624 20.4035C19.281 20.5204 19.0779 20.5762 18.8772 20.5762C18.5216 20.5762 18.1732 20.4012 17.9664 20.08C15.2878 15.9233 17.5525 12.6053 19.5505 9.678ZM33.282 24.0372H33.6068C34.2046 24.0372 34.6891 23.5527 34.6891 22.9549C34.6891 22.3572 34.2046 21.8726 33.6068 21.8726H33.282C32.6843 21.8726 32.1997 22.3572 32.1997 22.9549C32.1997 23.5527 32.6841 24.0372 33.282 24.0372ZM13.4441 20.5762C13.6448 20.5762 13.8479 20.5204 14.0291 20.4037C14.5316 20.0797 14.6767 19.41 14.3529 18.9076C12.5441 16.1003 13.7644 14.0351 15.9055 10.8984C17.9036 7.97077 20.168 4.65278 17.4895 0.496162C17.1659 -0.006175 16.4961 -0.151202 15.9935 0.172712C15.4912 0.496471 15.3461 1.16625 15.67 1.66875C17.479 4.47605 16.2587 6.54122 14.1176 9.67816C12.1195 12.6056 9.85506 15.9234 12.5331 20.0799C12.7401 20.401 13.0885 20.5762 13.4441 20.5762ZM59.1526 41.4166V46.8477C59.1526 47.4454 58.668 47.93 58.0703 47.93H56.4926C56.2343 53.7948 53.8814 59.3454 49.8016 63.6611C49.5972 63.8772 49.3127 63.9998 49.0151 63.9998H41.3025C41.2968 64 41.2909 64 41.2852 64C41.2794 64 41.2736 64 41.2678 63.9998H14.984C14.6864 63.9998 14.4019 63.8772 14.1975 63.6611C10.1174 59.3455 7.76469 53.7948 7.50633 47.93H5.92897C5.33124 47.93 4.84668 47.4454 4.84668 46.8477V41.4166C4.84668 40.8189 5.33124 40.3343 5.92897 40.3343H7.81339C8.38639 37.0983 9.69828 33.949 11.7232 30.9486L11.325 30.5503C9.88505 29.1101 9.88505 26.7666 11.325 25.3264L11.3251 25.3262C12.0209 24.6306 12.9484 24.2475 13.9371 24.2475C14.926 24.2475 15.8536 24.6306 16.5492 25.3264L16.7724 25.5496C16.7791 25.5496 16.7856 25.5496 16.7922 25.5498C17.0543 25.5546 17.3173 25.5583 17.5817 25.5583C21.0486 25.5583 24.0366 22.9277 26.9262 20.3837C29.0492 18.5146 31.0546 16.7491 33.2647 15.9629C35.9078 15.0225 38.3578 15.6646 40.7541 17.9249C40.97 18.1036 41.1863 18.2861 41.4013 18.4708C41.8789 18.2518 42.4031 18.1364 42.9456 18.1364C43.9345 18.1364 44.862 18.5195 45.5576 19.2153C46.6704 20.328 46.9235 21.9801 46.3166 23.3381C48.4715 25.7786 50.4655 28.4805 52.2513 31.3798C52.261 31.3957 52.2705 31.4116 52.2793 31.4279C54.598 33.3848 56.0729 36.311 56.0729 39.5755C56.0729 39.8286 56.0637 40.0817 56.0458 40.3343H58.0705C58.668 40.3343 59.1526 40.8189 59.1526 41.4166ZM45.4132 31.0806C43.4855 31.0806 41.6436 31.7247 40.1485 32.9086C40.831 33.7577 41.386 34.7128 41.7849 35.7456C42.7417 34.8408 44.0288 34.2993 45.4132 34.2993C48.3224 34.2993 50.6894 36.6663 50.6894 39.5755C50.6894 39.8318 50.6715 40.0851 50.6356 40.3343H53.8741C53.8967 40.0822 53.908 39.8286 53.908 39.5755C53.9081 34.8915 50.0972 31.0806 45.4132 31.0806ZM42.4963 39.5755C42.4963 39.8284 42.4872 40.0815 42.4692 40.3343H48.4322C48.4937 40.0887 48.5248 39.8351 48.5248 39.5755C48.5248 37.8598 47.129 36.4639 45.4132 36.4639C44.0611 36.4639 42.8663 37.3392 42.453 38.6118C42.4818 38.9291 42.4963 39.2508 42.4963 39.5755ZM37.1132 39.5755C37.1132 39.8318 37.0952 40.0851 37.0595 40.3343H40.2979C40.3204 40.0819 40.3317 39.8286 40.3317 39.5755C40.3317 34.8915 36.521 31.0808 31.8368 31.0808C27.1528 31.0808 23.3421 34.8915 23.3421 39.5755C23.3421 39.8288 23.3534 40.0822 23.3759 40.3343H26.6143C26.5788 40.0851 26.5607 39.8318 26.5607 39.5755C26.5607 36.6663 28.9276 34.2993 31.8368 34.2993C34.7462 34.2993 37.1132 36.6661 37.1132 39.5755ZM31.8368 36.4639C30.1211 36.4639 28.7252 37.8598 28.7252 39.5755C28.7252 39.8351 28.7562 40.0885 28.8179 40.3343H34.8561C34.9176 40.0887 34.9487 39.8351 34.9487 39.5755C34.9486 37.8598 33.5527 36.4639 31.8368 36.4639ZM40.0338 22.576C39.4379 23.1722 39.4379 24.1427 40.0341 24.7392C40.3207 25.0258 40.705 25.1838 41.1155 25.1838C41.526 25.1838 41.9102 25.026 42.1968 24.739L44.0268 22.9087C44.0622 22.8733 44.0955 22.8366 44.1267 22.7986C44.1324 22.7912 44.1381 22.7841 44.1442 22.7768C44.3565 22.5089 44.4716 22.1775 44.4716 21.827C44.4716 21.4165 44.3138 21.0325 44.0267 20.7457C44.0267 20.7455 44.0267 20.7455 44.0267 20.7455C43.74 20.4589 43.356 20.3008 42.9455 20.3008C42.59 20.3008 42.2543 20.4193 41.9844 20.6374C41.9776 20.6431 41.9708 20.6487 41.964 20.6541C41.9295 20.683 41.8963 20.7135 41.8641 20.7457L40.0338 22.576ZM12.8555 29.0198L13.8799 30.0444C13.8906 30.0544 13.9011 30.0649 13.9112 30.0756L14.6856 30.8501C15.2818 31.4463 16.2522 31.4464 16.8484 30.8499C17.4447 30.2537 17.4447 29.2832 16.8484 28.687L15.7934 27.6321C15.7871 27.6259 15.7809 27.6197 15.7747 27.6136C15.7721 27.6109 15.7696 27.6085 15.7671 27.6057L15.0182 26.8569C14.7314 26.5701 14.3473 26.4121 13.9368 26.4121C13.5263 26.4121 13.1423 26.5699 12.8555 26.8567C12.2593 27.4531 12.2593 28.4234 12.8555 29.0198ZM10.0154 40.3343H21.2044C21.1865 40.0817 21.1774 39.8286 21.1774 39.5755C21.1774 33.6979 25.9592 28.9162 31.8367 28.9162C34.4121 28.9162 36.7769 29.8341 38.6216 31.3601C40.5298 29.7791 42.9142 28.9162 45.4132 28.9162C46.4085 28.9162 47.3723 29.0533 48.2867 29.3097C47.2272 27.8181 46.1096 26.3958 44.9424 25.0546L43.7275 26.2697C43.0317 26.9654 42.1042 27.3487 41.1153 27.3487C40.1266 27.3487 39.1989 26.9654 38.5031 26.2698C37.0632 24.8293 37.0632 22.4857 38.503 21.0456L39.691 19.8577C39.5763 19.7609 39.4616 19.6651 39.3467 19.5703C39.3278 19.5545 39.3093 19.5383 39.2915 19.5214C35.569 15.9901 32.8469 18.0552 28.3562 22.0085C25.6047 24.431 22.5216 27.1455 18.7881 27.6426C19.8028 29.0832 19.6666 31.0928 18.379 32.3807C17.6833 33.0765 16.7556 33.4598 15.7668 33.4598C14.8395 33.4598 13.9659 33.1226 13.2868 32.5068C11.6413 35.0294 10.5446 37.6532 10.0154 40.3343ZM54.3257 47.93H9.67308C9.92247 53.0876 11.9507 57.9743 15.4565 61.8354H40.9717C44.4633 59.598 47.1944 56.2262 48.4893 52.5413C48.6876 51.9776 49.305 51.6812 49.8693 51.8791C50.433 52.0773 50.7296 52.6952 50.5314 53.2592C49.3988 56.4821 47.295 59.4861 44.5779 61.8356H48.5423C52.0481 57.9743 54.0763 53.0876 54.3257 47.93ZM56.988 42.4989H41.2586C41.2447 42.4992 41.2305 42.4992 41.2167 42.4989H35.6281C35.6129 42.4994 35.5978 42.4994 35.5823 42.4989H28.0916C28.0759 42.4992 28.0607 42.4992 28.0453 42.4989H22.4574C22.4432 42.4992 22.4293 42.4992 22.4152 42.4989H8.75869C8.74756 42.4992 8.73659 42.4992 8.72545 42.4989H7.01126V45.7654H56.988V42.4989ZM15.8131 35.9378H15.4879C14.8902 35.9378 14.4056 36.4223 14.4056 37.0201C14.4056 37.6178 14.8902 38.1023 15.4879 38.1023H15.8131C16.4108 38.1023 16.8954 37.6178 16.8954 37.0201C16.8954 36.4223 16.4108 35.9378 15.8131 35.9378ZM27.5605 27.6131H27.8854C28.4831 27.6131 28.9677 27.1285 28.9677 26.5308C28.9677 25.9331 28.4831 25.4485 27.8854 25.4485H27.5605C26.9628 25.4485 26.4783 25.9331 26.4783 26.5308C26.4783 27.1285 26.9628 27.6131 27.5605 27.6131Z" fill="url(#paint0_linear_362_2598)"/>
</g>
<defs>
<linearGradient id="paint0_linear_362_2598" x1="57.6631" y1="-23.0137" x2="-4.3807" y2="-7.45425" gradientUnits="userSpaceOnUse">
<stop stop-color="#F7FC97"/>
<stop offset="0.234375" stop-color="#9E5313"/>
<stop offset="0.322917" stop-color="#FCC342"/>
<stop offset="0.48" stop-color="#F7FC97"/>
<stop offset="0.58" stop-color="#E7AA39"/>
<stop offset="0.802083" stop-color="#632507"/>
<stop offset="1" stop-color="#E7AA39"/>
</linearGradient>
<clipPath id="clip0_362_2598">
<rect width="64" height="64" fill="white"/>
</clipPath>
</defs>
</svg>
