<svg width="18" height="21" viewBox="0 0 18 21" fill="none" xmlns="http://www.w3.org/2000/svg">
<path d="M13.166 2.05836H16.4993C16.7203 2.05836 16.9323 2.16679 17.0886 2.3598C17.2448 2.55281 17.3326 2.81459 17.3326 3.08754V19.5544C17.3326 19.8274 17.2448 20.0892 17.0886 20.2822C16.9323 20.4752 16.7203 20.5836 16.4993 20.5836H1.49935C1.27833 20.5836 1.06637 20.4752 0.910093 20.2822C0.753813 20.0892 0.666016 19.8274 0.666016 19.5544V3.08754C0.666016 2.81459 0.753813 2.55281 0.910093 2.3598C1.06637 2.16679 1.27833 2.05836 1.49935 2.05836H4.83267V0H6.49933V2.05836H11.4993V0H13.166V2.05836ZM15.666 8.23345V4.11672H13.166V6.17509H11.4993V4.11672H6.49933V6.17509H4.83267V4.11672H2.33268V8.23345H15.666ZM15.666 10.2918H2.33268V18.5253H15.666V10.2918ZM3.99934 12.3502H8.166V16.4669H3.99934V12.3502Z" fill="#484848"/>
</svg>
