<svg width="18" height="21" viewBox="0 0 18 21" fill="none" xmlns="http://www.w3.org/2000/svg">
<path d="M4.62851 16.5255L0.916016 20.1277V1.08778C0.916016 0.814821 1.00381 0.553044 1.16009 0.360035C1.31637 0.167025 1.52833 0.0585938 1.74935 0.0585938H16.7493C16.9703 0.0585938 17.1823 0.167025 17.3386 0.360035C17.4948 0.553044 17.5826 0.814821 17.5826 1.08778V15.4964C17.5826 15.7693 17.4948 16.0311 17.3386 16.2241C17.1823 16.4171 16.9703 16.5255 16.7493 16.5255H4.62851ZM4.05184 14.4672H15.916V2.11696H2.58268V15.8926L4.05184 14.4672ZM8.416 7.26288H10.0827V9.32125H8.416V7.26288ZM5.08267 7.26288H6.74933V9.32125H5.08267V7.26288ZM11.7493 7.26288H13.416V9.32125H11.7493V7.26288Z" fill="#484848"/>
</svg>
